  0
SECTION
  2
HEADER
  9
$ACADVER
  1
AC1006
  9
$EXTMIN
 10
0.000000
 20
0.000000
 30
0.000000
  9
$EXTMAX
 10
2073.000000
 20
1525.000000
 30
0.000000
  0
ENDSEC
  0
SECTION
  2
ENTITIES
  0
POLYLINE
  8
0
 66
1
 70
1
  0
VERTEX
  8
0
 10
0.000000
 20
762.500000
 42
0.000000
  0
VERTEX
  8
0
 10
0.000000
 20
0.000000
 42
0.000000
  0
VERTEX
  8
0
 10
1036.500000
 20
0.000000
 42
0.000000
  0
VERTEX
  8
0
 10
2073.000000
 20
0.000000
 42
0.000000
  0
VERTEX
  8
0
 10
2073.000000
 20
762.500000
 42
0.000000
  0
VERTEX
  8
0
 10
2073.000000
 20
1525.000000
 42
0.000000
  0
VERTEX
  8
0
 10
1036.500000
 20
1525.000000
 42
0.000000
  0
VERTEX
  8
0
 10
0.000000
 20
1525.000000
 42
0.000000
  0
SEQEND
  0
POLYLINE
  8
0
 66
1
 70
1
  0
VERTEX
  8
0
 10
824.433850
 20
1250.250000
 42
0.015830
  0
VERTEX
  8
0
 10
827.424315
 20
1225.300239
 42
0.027619
  0
VERTEX
  8
0
 10
831.687324
 20
1204.917134
 42
0.029403
  0
VERTEX
  8
0
 10
837.952031
 20
1186.024555
 42
0.021149
  0
VERTEX
  8
0
 10
847.042208
 20
1165.738263
 42
0.029433
  0
VERTEX
  8
0
 10
858.504601
 20
1145.830145
 42
0.030358
  0
VERTEX
  8
0
 10
872.117882
 20
1127.620480
 42
0.029867
  0
VERTEX
  8
0
 10
888.055171
 20
1110.931649
 42
0.026634
  0
VERTEX
  8
0
 10
906.464049
 20
1095.568509
 42
0.025381
  0
VERTEX
  8
0
 10
917.404339
 20
1088.220402
 42
0.020983
  0
VERTEX
  8
0
 10
929.738262
 20
1081.502560
 42
0.019753
  0
VERTEX
  8
0
 10
941.185494
 20
1076.427892
 42
0.091684
  0
VERTEX
  8
0
 10
948.250000
 20
1075.033175
 42
0.000000
  0
VERTEX
  8
0
 10
951.000000
 20
1075.000000
 42
0.000000
  0
VERTEX
  8
0
 10
951.000000
 20
1166.000000
 42
0.000000
  0
VERTEX
  8
0
 10
951.000000
 20
1257.000000
 42
0.000000
  0
VERTEX
  8
0
 10
1017.868036
 20
1257.000000
 42
0.000000
  0
VERTEX
  8
0
 10
1084.736072
 20
1257.000000
 42
0.000000
  0
VERTEX
  8
0
 10
1085.472431
 20
1165.250000
 42
0.000204
  0
VERTEX
  8
0
 10
1085.769290
 20
1130.053194
 42
0.000339
  0
VERTEX
  8
0
 10
1086.051773
 20
1100.386087
 42
0.000007
  0
VERTEX
  8
0
 10
1086.326488
 20
1073.492084
 42
0.183422
  0
VERTEX
  8
0
 10
1086.410624
 20
1073.277105
 42
0.300199
  0
VERTEX
  8
0
 10
1087.408501
 20
1073.020531
 42
0.006830
  0
VERTEX
  8
0
 10
1092.256182
 20
1074.764137
 42
0.013959
  0
VERTEX
  8
0
 10
1097.728919
 20
1076.993587
 42
0.011662
  0
VERTEX
  8
0
 10
1103.411381
 20
1079.655501
 42
0.025376
  0
VERTEX
  8
0
 10
1116.969514
 20
1087.277678
 42
0.019367
  0
VERTEX
  8
0
 10
1131.006626
 20
1096.914423
 42
0.018466
  0
VERTEX
  8
0
 10
1144.992816
 20
1108.161668
 42
0.017390
  0
VERTEX
  8
0
 10
1158.403197
 20
1120.629236
 42
0.034583
  0
VERTEX
  8
0
 10
1174.871072
 20
1139.484995
 42
0.034246
  0
VERTEX
  8
0
 10
1188.641868
 20
1160.490055
 42
0.033021
  0
VERTEX
  8
0
 10
1199.833333
 20
1183.907921
 42
0.027781
  0
VERTEX
  8
0
 10
1208.594822
 20
1209.975168
 42
0.017344
  0
VERTEX
  8
0
 10
1210.976851
 20
1219.967551
 42
0.011317
  0
VERTEX
  8
0
 10
1213.060845
 20
1231.638588
 42
0.011301
  0
VERTEX
  8
0
 10
1214.544427
 20
1242.858631
 42
0.027222
  0
VERTEX
  8
0
 10
1215.000000
 20
1251.220141
 42
0.000000
  0
VERTEX
  8
0
 10
1215.000000
 20
1256.000000
 42
0.000000
  0
VERTEX
  8
0
 10
1282.137008
 20
1256.000000
 42
0.000000
  0
VERTEX
  8
0
 10
1349.274016
 20
1256.000000
 42
0.000000
  0
VERTEX
  8
0
 10
1348.592804
 20
1246.250000
 42
-0.023068
  0
VERTEX
  8
0
 10
1345.022590
 20
1215.578844
 42
-0.019337
  0
VERTEX
  8
0
 10
1338.493728
 20
1183.482690
 42
-0.019204
  0
VERTEX
  8
0
 10
1329.440337
 20
1151.729912
 42
-0.021755
  0
VERTEX
  8
0
 10
1318.293472
 20
1122.085018
 42
-0.020382
  0
VERTEX
  8
0
 10
1304.883850
 20
1093.888521
 42
-0.025334
  0
VERTEX
  8
0
 10
1290.073846
 20
1068.918241
 42
-0.026020
  0
VERTEX
  8
0
 10
1273.176332
 20
1046.129034
 42
-0.023757
  0
VERTEX
  8
0
 10
1253.508972
 20
1024.483517
 42
-0.033465
  0
VERTEX
  8
0
 10
1219.587196
 20
994.801746
 42
-0.034814
  0
VERTEX
  8
0
 10
1182.436374
 20
970.337908
 42
-0.033817
  0
VERTEX
  8
0
 10
1141.246961
 20
950.688515
 42
-0.028242
  0
VERTEX
  8
0
 10
1095.250000
 20
935.392386
 42
0.249559
  0
VERTEX
  8
0
 10
1092.368625
 20
932.688117
 42
0.500409
  0
VERTEX
  8
0
 10
1093.856138
 20
930.513740
 42
0.010977
  0
VERTEX
  8
0
 10
1118.599898
 20
929.996213
 42
0.000364
  0
VERTEX
  8
0
 10
1217.000148
 20
930.170303
 42
0.000000
  0
VERTEX
  8
0
 10
1349.000295
 20
930.500000
 42
0.000000
  0
VERTEX
  8
0
 10
1349.000148
 20
863.250000
 42
0.000000
  0
VERTEX
  8
0
 10
1349.000000
 20
796.000000
 42
0.000000
  0
VERTEX
  8
0
 10
1217.000000
 20
796.000000
 42
0.000574
  0
VERTEX
  8
0
 10
1166.384498
 20
795.941876
 42
0.000958
  0
VERTEX
  8
0
 10
1123.775000
 20
795.762394
 42
0.000037
  0
VERTEX
  8
0
 10
1085.330757
 20
795.523969
 42
0.412377
  0
VERTEX
  8
0
 10
1085.000000
 20
795.191130
 42
0.202617
  0
VERTEX
  8
0
 10
1085.726565
 20
793.471788
 42
0.078265
  0
VERTEX
  8
0
 10
1087.883713
 20
791.948193
 42
0.045618
  0
VERTEX
  8
0
 10
1091.630100
 20
790.505619
 42
0.014072
  0
VERTEX
  8
0
 10
1097.500000
 20
789.017761
 42
-0.034950
  0
VERTEX
  8
0
 10
1128.855661
 20
779.661711
 42
-0.025551
  0
VERTEX
  8
0
 10
1162.177893
 20
765.141662
 42
-0.024984
  0
VERTEX
  8
0
 10
1194.779187
 20
746.820694
 42
-0.028311
  0
VERTEX
  8
0
 10
1224.000000
 20
726.023515
 42
-0.034630
  0
VERTEX
  8
0
 10
1258.943208
 20
693.834826
 42
-0.034863
  0
VERTEX
  8
0
 10
1289.024657
 20
657.199500
 42
-0.035177
  0
VERTEX
  8
0
 10
1313.482929
 20
617.078291
 42
-0.036766
  0
VERTEX
  8
0
 10
1331.667259
 20
574.500000
 42
-0.021497
  0
VERTEX
  8
0
 10
1338.033949
 20
552.940394
 42
-0.018010
  0
VERTEX
  8
0
 10
1342.962261
 20
529.605631
 42
-0.018118
  0
VERTEX
  8
0
 10
1346.169089
 20
506.153052
 42
-0.022733
  0
VERTEX
  8
0
 10
1347.357809
 20
484.244337
 42
0.000000
  0
VERTEX
  8
0
 10
1347.500000
 20
467.988674
 42
0.000000
  0
VERTEX
  8
0
 10
1281.750000
 20
467.986984
 42
-0.000011
  0
VERTEX
  8
0
 10
1256.480190
 20
467.986865
 42
-0.000017
  0
VERTEX
  8
0
 10
1235.065081
 20
467.987951
 42
-0.000001
  0
VERTEX
  8
0
 10
1215.838982
 20
467.989638
 42
-0.002146
  0
VERTEX
  8
0
 10
1215.152403
 20
467.992647
 42
-0.371808
  0
VERTEX
  8
0
 10
1214.794689
 20
468.306774
 42
-0.004359
  0
VERTEX
  8
0
 10
1214.358079
 20
471.658692
 42
-0.010497
  0
VERTEX
  8
0
 10
1213.954988
 20
475.683597
 42
-0.006354
  0
VERTEX
  8
0
 10
1213.638566
 20
480.462475
 42
0.061291
  0
VERTEX
  8
0
 10
1205.724445
 20
525.005765
 42
0.058231
  0
VERTEX
  8
0
 10
1187.182845
 20
567.135398
 42
0.057630
  0
VERTEX
  8
0
 10
1159.205705
 20
604.239989
 42
0.057640
  0
VERTEX
  8
0
 10
1123.500000
 20
633.977292
 42
0.021065
  0
VERTEX
  8
0
 10
1116.206474
 20
638.321269
 42
0.004499
  0
VERTEX
  8
0
 10
1103.162900
 20
645.212535
 42
0.001517
  0
VERTEX
  8
0
 10
1089.114640
 20
652.419741
 42
0.118293
  0
VERTEX
  8
0
 10
1086.696336
 20
653.000000
 42
0.411920
  0
VERTEX
  8
0
 10
1086.409971
 20
652.715872
 42
0.000057
  0
VERTEX
  8
0
 10
1086.204549
 20
626.121875
 42
0.001189
  0
VERTEX
  8
0
 10
1086.050038
 20
596.585739
 42
0.000713
  0
VERTEX
  8
0
 10
1086.000000
 20
561.500000
 42
0.000000
  0
VERTEX
  8
0
 10
1086.000000
 20
470.000000
 42
0.000000
  0
VERTEX
  8
0
 10
1018.489614
 20
470.000000
 42
0.000000
  0
VERTEX
  8
0
 10
950.979228
 20
470.000000
 42
0.000000
  0
VERTEX
  8
0
 10
951.239614
 20
561.500079
 42
0.000200
  0
VERTEX
  8
0
 10
951.325399
 20
596.585862
 42
0.000334
  0
VERTEX
  8
0
 10
951.366034
 20
626.121986
 42
0.000005
  0
VERTEX
  8
0
 10
951.384747
 20
652.919641
 42
0.414533
  0
VERTEX
  8
0
 10
951.304333
 20
653.000079
 42
0.111353
  0
VERTEX
  8
0
 10
950.101850
 20
652.728410
 42
0.000449
  0
VERTEX
  8
0
 10
937.595558
 20
646.765920
 42
0.002252
  0
VERTEX
  8
0
 10
926.290785
 20
641.301112
 42
0.012470
  0
VERTEX
  8
0
 10
920.299449
 20
638.184027
 42
0.008622
  0
VERTEX
  8
0
 10
914.103154
 20
634.620532
 42
0.018585
  0
VERTEX
  8
0
 10
909.488830
 20
631.621587
 42
0.014649
  0
VERTEX
  8
0
 10
904.484967
 20
627.874317
 42
0.003613
  0
VERTEX
  8
0
 10
896.500000
 20
621.426378
 42
0.038316
  0
VERTEX
  8
0
 10
873.653178
 20
599.575275
 42
0.040552
  0
VERTEX
  8
0
 10
854.880610
 20
574.881951
 42
0.040520
  0
VERTEX
  8
0
 10
840.327526
 20
547.463163
 42
0.038131
  0
VERTEX
  8
0
 10
830.039607
 20
517.500000
 42
0.022456
  0
VERTEX
  8
0
 10
828.518576
 20
510.350119
 42
0.007707
  0
VERTEX
  8
0
 10
826.943767
 20
499.879991
 42
0.007433
  0
VERTEX
  8
0
 10
825.513337
 20
487.917506
 42
0.007128
  0
VERTEX
  8
0
 10
824.416643
 20
475.750000
 42
0.000000
  0
VERTEX
  8
0
 10
823.829360
 20
468.000000
 42
0.000000
  0
VERTEX
  8
0
 10
758.414680
 20
468.000000
 42
-0.000016
  0
VERTEX
  8
0
 10
733.280134
 20
468.000804
 42
-0.000026
  0
VERTEX
  8
0
 10
711.995250
 20
468.003282
 42
-0.000002
  0
VERTEX
  8
0
 10
692.858789
 20
468.006584
 42
-0.003679
  0
VERTEX
  8
0
 10
692.250000
 20
468.011171
 42
-0.396455
  0
VERTEX
  8
0
 10
691.947075
 20
468.304784
 42
-0.001844
  0
VERTEX
  8
0
 10
691.744229
 20
473.082967
 42
-0.006788
  0
VERTEX
  8
0
 10
691.604107
 20
478.650270
 42
-0.004078
  0
VERTEX
  8
0
 10
691.581417
 20
485.261171
 42
-0.017581
  0
VERTEX
  8
0
 10
692.167502
 20
499.949493
 42
-0.017558
  0
VERTEX
  8
0
 10
693.784131
 20
514.566797
 42
-0.016346
  0
VERTEX
  8
0
 10
696.552412
 20
529.958821
 42
-0.011648
  0
VERTEX
  8
0
 10
700.613262
 20
547.000000
 42
-0.037424
  0
VERTEX
  8
0
 10
719.078159
 20
600.551241
 42
-0.041644
  0
VERTEX
  8
0
 10
744.803470
 20
648.770146
 42
-0.042025
  0
VERTEX
  8
0
 10
777.928233
 20
691.686345
 42
-0.039460
  0
VERTEX
  8
0
 10
818.419973
 20
729.452114
 42
-0.026634
  0
VERTEX
  8
0
 10
846.148189
 20
749.182493
 42
-0.024452
  0
VERTEX
  8
0
 10
876.601318
 20
766.469248
 42
-0.025490
  0
VERTEX
  8
0
 10
906.763902
 20
779.810057
 42
-0.042156
  0
VERTEX
  8
0
 10
933.500000
 20
787.532815
 42
0.020483
  0
VERTEX
  8
0
 10
939.838513
 20
789.069827
 42
0.031327
  0
VERTEX
  8
0
 10
945.165928
 20
790.963259
 42
0.032250
  0
VERTEX
  8
0
 10
949.053052
 20
792.930943
 42
0.265411
  0
VERTEX
  8
0
 10
950.000000
 20
794.589206
 42
0.410139
  0
VERTEX
  8
0
 10
949.131279
 20
795.470114
 42
0.000759
  0
VERTEX
  8
0
 10
926.801925
 20
795.747276
 42
0.002407
  0
VERTEX
  8
0
 10
892.759919
 20
795.954253
 42
0.000317
  0
VERTEX
  8
0
 10
820.500000
 20
796.000000
 42
0.000000
  0
VERTEX
  8
0
 10
691.000000
 20
796.000000
 42
0.000000
  0
VERTEX
  8
0
 10
690.999840
 20
863.250000
 42
0.000000
  0
VERTEX
  8
0
 10
690.999679
 20
930.500000
 42
0.000000
  0
VERTEX
  8
0
 10
820.999840
 20
930.174787
 42
0.000589
  0
VERTEX
  8
0
 10
872.508288
 20
930.106646
 42
0.001111
  0
VERTEX
  8
0
 10
914.080679
 20
930.193007
 42
0.000053
  0
VERTEX
  8
0
 10
950.622061
 20
930.354009
 42
0.412892
  0
VERTEX
  8
0
 10
951.000000
 20
930.733657
 42
0.179883
  0
VERTEX
  8
0
 10
950.377808
 20
932.407133
 42
0.083202
  0
VERTEX
  8
0
 10
948.565577
 20
933.911557
 42
0.053018
  0
VERTEX
  8
0
 10
945.502873
 20
935.282573
 42
0.020257
  0
VERTEX
  8
0
 10
941.000000
 20
936.550387
 42
-0.015381
  0
VERTEX
  8
0
 10
935.180596
 20
938.127821
 42
-0.006357
  0
VERTEX
  8
0
 10
927.404630
 20
940.603057
 42
-0.004825
  0
VERTEX
  8
0
 10
917.224162
 20
944.096257
 42
-0.002015
  0
VERTEX
  8
0
 10
903.563865
 20
948.993330
 42
-0.017072
  0
VERTEX
  8
0
 10
889.960544
 20
954.464379
 42
-0.008046
  0
VERTEX
  8
0
 10
872.766768
 20
962.404406
 42
-0.008048
  0
VERTEX
  8
0
 10
855.821328
 20
970.901700
 42
-0.016902
  0
VERTEX
  8
0
 10
843.000000
 20
978.152816
 42
-0.034247
  0
VERTEX
  8
0
 10
807.814905
 20
1003.111283
 42
-0.034195
  0
VERTEX
  8
0
 10
776.347134
 20
1032.650804
 42
-0.034524
  0
VERTEX
  8
0
 10
749.477112
 20
1065.905108
 42
-0.036540
  0
VERTEX
  8
0
 10
727.998248
 20
1101.937935
 42
-0.018143
  0
VERTEX
  8
0
 10
718.321627
 20
1123.137353
 42
-0.020875
  0
VERTEX
  8
0
 10
710.692738
 20
1144.024843
 42
-0.018701
  0
VERTEX
  8
0
 10
704.220657
 20
1167.315696
 42
-0.010530
  0
VERTEX
  8
0
 10
698.029239
 20
1196.000000
 42
-0.014969
  0
VERTEX
  8
0
 10
696.372809
 20
1206.161414
 42
-0.002408
  0
VERTEX
  8
0
 10
693.833147
 20
1226.076900
 42
-0.001722
  0
VERTEX
  8
0
 10
691.410906
 20
1246.408716
 42
-0.028211
  0
VERTEX
  8
0
 10
691.008690
 20
1253.250000
 42
0.000000
  0
VERTEX
  8
0
 10
691.000000
 20
1257.000000
 42
0.000000
  0
VERTEX
  8
0
 10
757.420406
 20
1257.000000
 42
0.000000
  0
VERTEX
  8
0
 10
823.840812
 20
1257.000000
 42
0.000000
  0
SEQEND
  0
POLYLINE
  8
0
 66
1
 70
1
  0
VERTEX
  8
0
 10
813.214536
 20
376.175704
 42
0.000000
  0
VERTEX
  8
0
 10
813.500000
 20
326.351409
 42
0.000000
  0
VERTEX
  8
0
 10
816.314369
 20
322.099877
 42
0.072993
  0
VERTEX
  8
0
 10
819.780360
 20
318.230550
 42
0.066083
  0
VERTEX
  8
0
 10
824.324933
 20
315.364672
 42
0.060690
  0
VERTEX
  8
0
 10
829.823410
 20
313.606869
 42
0.046711
  0
VERTEX
  8
0
 10
836.100777
 20
313.009769
 42
0.041267
  0
VERTEX
  8
0
 10
843.494259
 20
313.610003
 42
0.072684
  0
VERTEX
  8
0
 10
849.321988
 20
315.467830
 42
0.083401
  0
VERTEX
  8
0
 10
853.829510
 20
318.686717
 42
0.073441
  0
VERTEX
  8
0
 10
857.272639
 20
323.334215
 42
0.081934
  0
VERTEX
  8
0
 10
858.621021
 20
327.303128
 42
0.028193
  0
VERTEX
  8
0
 10
859.274543
 20
333.351806
 42
0.009618
  0
VERTEX
  8
0
 10
859.632475
 20
344.526549
 42
0.000645
  0
VERTEX
  8
0
 10
860.000000
 20
376.500000
 42
0.000000
  0
VERTEX
  8
0
 10
860.500000
 20
425.500000
 42
0.000000
  0
VERTEX
  8
0
 10
883.832249
 20
425.768633
 42
0.000000
  0
VERTEX
  8
0
 10
907.164498
 20
426.037265
 42
0.000000
  0
VERTEX
  8
0
 10
906.732385
 20
377.268633
 42
-0.001047
  0
VERTEX
  8
0
 10
906.435301
 20
350.150986
 42
-0.006350
  0
VERTEX
  8
0
 10
906.073500
 20
336.102931
 42
-0.011627
  0
VERTEX
  8
0
 10
905.537824
 20
327.432004
 42
-0.042642
  0
VERTEX
  8
0
 10
904.606961
 20
322.015165
 42
-0.057038
  0
VERTEX
  8
0
 10
898.934103
 20
307.361803
 42
-0.068845
  0
VERTEX
  8
0
 10
890.357517
 20
295.368398
 42
-0.070381
  0
VERTEX
  8
0
 10
879.021656
 20
286.350563
 42
-0.063485
  0
VERTEX
  8
0
 10
865.233336
 20
280.444898
 42
-0.015944
  0
VERTEX
  8
0
 10
859.101067
 20
278.905267
 42
-0.035619
  0
VERTEX
  8
0
 10
854.345503
 20
278.221066
 42
-0.020731
  0
VERTEX
  8
0
 10
848.204557
 20
278.035368
 42
-0.002528
  0
VERTEX
  8
0
 10
834.733336
 20
278.254723
 42
-0.003271
  0
VERTEX
  8
0
 10
822.920513
 20
278.584146
 42
-0.014476
  0
VERTEX
  8
0
 10
815.979806
 20
279.024572
 42
-0.023468
  0
VERTEX
  8
0
 10
810.890889
 20
279.737809
 42
-0.025011
  0
VERTEX
  8
0
 10
806.000000
 20
280.914941
 42
-0.066125
  0
VERTEX
  8
0
 10
793.051720
 20
286.670222
 42
-0.069290
  0
VERTEX
  8
0
 10
782.283187
 20
295.533889
 42
-0.067847
  0
VERTEX
  8
0
 10
774.172589
 20
307.181042
 42
-0.059447
  0
VERTEX
  8
0
 10
769.027206
 20
321.102078
 42
-0.031441
  0
VERTEX
  8
0
 10
767.891563
 20
327.623026
 42
-0.018481
  0
VERTEX
  8
0
 10
767.317118
 20
335.521065
 42
-0.007984
  0
VERTEX
  8
0
 10
767.063593
 20
348.402301
 42
-0.000891
  0
VERTEX
  8
0
 10
767.007006
 20
377.750000
 42
0.000000
  0
VERTEX
  8
0
 10
767.000000
 20
426.000000
 42
0.000000
  0
VERTEX
  8
0
 10
789.964536
 20
426.000000
 42
0.000000
  0
VERTEX
  8
0
 10
812.929072
 20
426.000000
 42
0.000000
  0
SEQEND
  0
POLYLINE
  8
0
 66
1
 70
1
  0
VERTEX
  8
0
 10
1092.000000
 20
407.500000
 42
0.000000
  0
VERTEX
  8
0
 10
1092.000000
 20
389.000000
 42
0.000000
  0
VERTEX
  8
0
 10
1069.500000
 20
389.000000
 42
0.000000
  0
VERTEX
  8
0
 10
1047.000000
 20
389.000000
 42
0.000000
  0
VERTEX
  8
0
 10
1047.000000
 20
334.500000
 42
0.000000
  0
VERTEX
  8
0
 10
1047.000000
 20
280.000000
 42
0.000000
  0
VERTEX
  8
0
 10
1024.000000
 20
280.000000
 42
0.000000
  0
VERTEX
  8
0
 10
1001.000000
 20
280.000000
 42
0.000000
  0
VERTEX
  8
0
 10
1001.000000
 20
334.500000
 42
0.000000
  0
VERTEX
  8
0
 10
1001.000000
 20
389.000000
 42
0.000000
  0
VERTEX
  8
0
 10
978.000000
 20
389.000000
 42
0.000000
  0
VERTEX
  8
0
 10
955.000000
 20
389.000000
 42
0.000000
  0
VERTEX
  8
0
 10
955.000000
 20
407.500000
 42
0.000000
  0
VERTEX
  8
0
 10
955.000000
 20
426.000000
 42
0.000000
  0
VERTEX
  8
0
 10
1023.500000
 20
426.000000
 42
0.000000
  0
VERTEX
  8
0
 10
1092.000000
 20
426.000000
 42
0.000000
  0
SEQEND
  0
POLYLINE
  8
0
 66
1
 70
1
  0
VERTEX
  8
0
 10
1188.069287
 20
422.228649
 42
-0.001839
  0
VERTEX
  8
0
 10
1189.881335
 20
419.578124
 42
-0.000063
  0
VERTEX
  8
0
 10
1196.913493
 20
409.207542
 42
-0.000119
  0
VERTEX
  8
0
 10
1205.214068
 20
396.956771
 42
-0.000083
  0
VERTEX
  8
0
 10
1214.569287
 20
383.137452
 42
0.000000
  0
VERTEX
  8
0
 10
1238.500000
 20
347.774904
 42
0.000000
  0
VERTEX
  8
0
 10
1238.761607
 20
386.887452
 42
0.000000
  0
VERTEX
  8
0
 10
1239.023215
 20
426.000000
 42
0.000000
  0
VERTEX
  8
0
 10
1260.511607
 20
426.000000
 42
0.000000
  0
VERTEX
  8
0
 10
1282.000000
 20
426.000000
 42
0.000000
  0
VERTEX
  8
0
 10
1282.000000
 20
352.980498
 42
0.000000
  0
VERTEX
  8
0
 10
1282.000000
 20
279.960995
 42
0.000000
  0
VERTEX
  8
0
 10
1260.339486
 20
280.230498
 42
0.000000
  0
VERTEX
  8
0
 10
1238.678973
 20
280.500000
 42
0.000000
  0
VERTEX
  8
0
 10
1232.239932
 20
290.000000
 42
0.000404
  0
VERTEX
  8
0
 10
1228.578018
 20
295.393319
 42
0.000077
  0
VERTEX
  8
0
 10
1221.920041
 20
305.179020
 42
0.000082
  0
VERTEX
  8
0
 10
1214.145812
 20
316.597518
 42
0.000076
  0
VERTEX
  8
0
 10
1206.150446
 20
328.332833
 42
0.000000
  0
VERTEX
  8
0
 10
1186.500000
 20
357.165666
 42
0.000000
  0
VERTEX
  8
0
 10
1186.238257
 20
318.582833
 42
0.000000
  0
VERTEX
  8
0
 10
1185.976513
 20
280.000000
 42
0.000000
  0
VERTEX
  8
0
 10
1164.488257
 20
280.000000
 42
0.000000
  0
VERTEX
  8
0
 10
1143.000000
 20
280.000000
 42
0.000000
  0
VERTEX
  8
0
 10
1143.000000
 20
353.000000
 42
0.000000
  0
VERTEX
  8
0
 10
1143.000000
 20
426.000000
 42
0.000000
  0
VERTEX
  8
0
 10
1164.250000
 20
425.978649
 42
0.000000
  0
VERTEX
  8
0
 10
1185.500000
 20
425.957297
 42
0.000000
  0
SEQEND
  0
ENDSEC
  0
EOF
