M48
VER,1
FMAT,2
INCH,TZ
ICI,OFF
ATC,ON
T01C0.0100S000F000
T02C0.0140S000F000
T03C0.0180S000F000
T04C0.0780S000F000
%
T1
X3500Y-3200
Y-2950
Y-2700
Y-2450
T2
X694Y-10028
X6306
X694Y-9668
X1114
X1534
X5466
X5886
X6306
X694Y-9308
X1114
X1534
X5466
X5886
X6306
X694Y-8948
X1114
X1534
X5466
X5886
X6306
X694Y-8028
X1114
X1534
X5466
X5886
X6306
X694Y-7668
X1114
X1534
X5466
X5886
X6306
X694Y-7308
X1114
X1534
X5466
X5886
X6306
X694Y-6948
X6306
X200Y-4365
X6800
X200Y-4005
X620
X1040
X5960
X6380
X6800
X200Y-3645
X620
X1040
X5960
X6380
X6800
X200Y-3285
X620
X1040
X5960
X6380
X6800
X200Y-2365
X620
X1040
X5960
X6380
X6800
X200Y-2005
X620
X1040
X5960
X6380
X6800
X200Y-1645
X620
X1040
X5960
X6380
X6800
X200Y-1285
X6800
T3
X1850Y-8898
X2240
X2660
X3080
X3500
X3920
X4340
X4760
X5150
X1850Y-8078
X2240
X2660
X3080
X3500
X3920
X4340
X4760
X5150
X3080Y-3451
X3500
X3920
X1376Y-3236
X1796
X2216
X2636
X4364
X4784
X5204
X5624
X1376Y-2414
X1796
X2216
X2636
X4364
X4784
X5204
X5624
X3080Y-2197
X3500
X3920
T4
X1609Y-10363
X5391
X1609Y-6613
X5391
X1115Y-4700
X5885
X1115Y-950
X5885
M30
