%MOIN*%
%ADD17C,0.0080*%
%ADD18C,0.0100*%
%ADD19R,0.0100X0.0100*%
%ADD20C,0.0017*%
%ADD21C,0.0003*%
%ADD22C,0.0001*%
%ADD23R,0.0160X0.0160*%
%ADD24C,0.0160*%
%ADD25R,0.0180X0.0180*%
%ADD26C,0.0180*%
%ASAXBY*%
%FSLAX44Y44*%
%IPPOS*%
%LNTIE-03*%
%SFA1.0000B1.0000*%
%LPD*%
D17*
D17*
D17*
%ASAXBY*%
%FSLAX44Y44*%
%IPPOS*%
%LNTIE-03*%
%SFA1.0000B1.0000*%
%LPD*%
D19*
G01X20Y-275D03*
D18*
G01Y-5375D01*
D19*
G01D03*
G01X514Y-5938D03*
D18*
G01Y-11038D01*
D19*
G01D03*
G01X6980Y-275D03*
D18*
G01Y-5375D01*
D19*
G01D03*
G01X6486Y-5938D03*
D18*
G01Y-11038D01*
D19*
G01D03*
%ASAXBY*%
%FSLAX44Y44*%
%IPPOS*%
%LNGE-L2*%
%SFA1.0000B1.0000*%
%LPD*%
D18*
G01X6920Y-80D02*
G01Y-5471D01*
G01X6826*
G01X6791Y-5473*
G01X6757Y-5477*
G01X6723Y-5485*
G01X6689Y-5495*
G01X6657Y-5508*
G01X6626Y-5525*
G01X6597Y-5543*
G01X6569Y-5565*
G01X6543Y-5588*
G01X6520Y-5614*
G01X6499Y-5642*
G01X6480Y-5671*
G01X6464Y-5702*
G01X6450Y-5734*
G01X6440Y-5767*
G01X6432Y-5802*
G01X6428Y-5836*
G01X6426Y-5871*
G01Y-12425*
G01X574*
G01Y-5871*
G01X572Y-5836*
G01X568Y-5802*
G01X560Y-5767*
G01X550Y-5734*
G01X536Y-5702*
G01X520Y-5671*
G01X501Y-5642*
G01X480Y-5614*
G01X457Y-5588*
G01X431Y-5565*
G01X403Y-5543*
G01X374Y-5525*
G01X343Y-5508*
G01X311Y-5495*
G01X277Y-5485*
G01X243Y-5477*
G01X209Y-5473*
G01X174Y-5471*
G01X80*
G01Y-80*
G01X6920*
%ASAXBY*%
%FSLAX44Y44*%
%IPPOS*%
%LNGP-L2*%
%SFA1.0000B1.0000*%
%LPD*%
D18*
G01X574Y-12354D02*
G01X6426D01*
G01X574Y-12267D02*
G01X6426D01*
G01X574Y-12180D02*
G01X6426D01*
G01X574Y-12093D02*
G01X6426D01*
G01X574Y-12006D02*
G01X6426D01*
G01X574Y-11919D02*
G01X6426D01*
G01X574Y-11832D02*
G01X6426D01*
G01X574Y-11745D02*
G01X6426D01*
G01X574Y-11658D02*
G01X6426D01*
G01X574Y-11571D02*
G01X6426D01*
G01X574Y-11484D02*
G01X6426D01*
G01X574Y-11397D02*
G01X6426D01*
G01X574Y-11310D02*
G01X6426D01*
G01X574Y-11223D02*
G01X6426D01*
G01X574Y-11136D02*
G01X6426D01*
G01X574Y-11049D02*
G01X6426D01*
G01X574Y-10962D02*
G01X6426D01*
G01X574Y-10875D02*
G01X6426D01*
G01X574Y-10788D02*
G01X6426D01*
G01X574Y-10701D02*
G01X6426D01*
G01X574Y-10614D02*
G01X6426D01*
G01X574Y-10527D02*
G01X6426D01*
G01X574Y-10440D02*
G01X6426D01*
G01X574Y-10353D02*
G01X6426D01*
G01X574Y-10266D02*
G01X6426D01*
G01X574Y-10179D02*
G01X6426D01*
G01X574Y-10092D02*
G01X6426D01*
G01X574Y-10005D02*
G01X6426D01*
G01X574Y-9918D02*
G01X6426D01*
G01X574Y-9831D02*
G01X6426D01*
G01X574Y-9744D02*
G01X6426D01*
G01X574Y-9657D02*
G01X6426D01*
G01X574Y-9570D02*
G01X6426D01*
G01X574Y-9483D02*
G01X6426D01*
G01X574Y-9396D02*
G01X6426D01*
G01X574Y-9309D02*
G01X6426D01*
G01X574Y-9222D02*
G01X6426D01*
G01X574Y-9135D02*
G01X6426D01*
G01X574Y-9048D02*
G01X6426D01*
G01X574Y-8961D02*
G01X6426D01*
G01X574Y-8874D02*
G01X6426D01*
G01X574Y-8787D02*
G01X6426D01*
G01X574Y-8700D02*
G01X6426D01*
G01X574Y-8613D02*
G01X6426D01*
G01X574Y-8526D02*
G01X6426D01*
G01X574Y-8439D02*
G01X6426D01*
G01X574Y-8352D02*
G01X6426D01*
G01X574Y-8265D02*
G01X6426D01*
G01X574Y-8178D02*
G01X6426D01*
G01X574Y-8091D02*
G01X6426D01*
G01X574Y-8004D02*
G01X6426D01*
G01X574Y-7917D02*
G01X6426D01*
G01X574Y-7830D02*
G01X6426D01*
G01X574Y-7743D02*
G01X6426D01*
G01X574Y-7656D02*
G01X6426D01*
G01X574Y-7569D02*
G01X6426D01*
G01X574Y-7482D02*
G01X6426D01*
G01X574Y-7395D02*
G01X6426D01*
G01X574Y-7308D02*
G01X6426D01*
G01X574Y-7221D02*
G01X6426D01*
G01X574Y-7134D02*
G01X6426D01*
G01X574Y-7047D02*
G01X6426D01*
G01X574Y-6960D02*
G01X6426D01*
G01X574Y-6873D02*
G01X6426D01*
G01X574Y-6786D02*
G01X6426D01*
G01X574Y-6699D02*
G01X6426D01*
G01X574Y-6612D02*
G01X6426D01*
G01X574Y-6525D02*
G01X6426D01*
G01X574Y-6438D02*
G01X6426D01*
G01X574Y-6351D02*
G01X6426D01*
G01X574Y-6264D02*
G01X6426D01*
G01X574Y-6177D02*
G01X6426D01*
G01X574Y-6090D02*
G01X6426D01*
G01X574Y-6003D02*
G01X6426D01*
G01X574Y-5916D02*
G01X6426D01*
G01X571Y-5829D02*
G01X6429D01*
G01X552Y-5742D02*
G01X6448D01*
G01X510Y-5655D02*
G01X6490D01*
G01X435Y-5568D02*
G01X6565D01*
G01X263Y-5481D02*
G01X6737D01*
G01X80Y-5394D02*
G01X6920D01*
G01X80Y-5307D02*
G01X6920D01*
G01X80Y-5220D02*
G01X6920D01*
G01X80Y-5133D02*
G01X6920D01*
G01X80Y-5046D02*
G01X6920D01*
G01X80Y-4959D02*
G01X6920D01*
G01X80Y-4872D02*
G01X6920D01*
G01X80Y-4785D02*
G01X6920D01*
G01X80Y-4698D02*
G01X6920D01*
G01X80Y-4611D02*
G01X6920D01*
G01X80Y-4524D02*
G01X6920D01*
G01X80Y-4437D02*
G01X6920D01*
G01X80Y-4350D02*
G01X6920D01*
G01X80Y-4263D02*
G01X6920D01*
G01X80Y-4176D02*
G01X6920D01*
G01X80Y-4089D02*
G01X6920D01*
G01X80Y-4002D02*
G01X6920D01*
G01X80Y-3915D02*
G01X6920D01*
G01X80Y-3828D02*
G01X6920D01*
G01X80Y-3741D02*
G01X6920D01*
G01X80Y-3654D02*
G01X6920D01*
G01X80Y-3567D02*
G01X6920D01*
G01X80Y-3480D02*
G01X6920D01*
G01X80Y-3393D02*
G01X6920D01*
G01X80Y-3306D02*
G01X6920D01*
G01X80Y-3219D02*
G01X6920D01*
G01X80Y-3132D02*
G01X6920D01*
G01X80Y-3045D02*
G01X6920D01*
G01X80Y-2958D02*
G01X6920D01*
G01X80Y-2871D02*
G01X6920D01*
G01X80Y-2784D02*
G01X6920D01*
G01X80Y-2697D02*
G01X6920D01*
G01X80Y-2610D02*
G01X6920D01*
G01X80Y-2523D02*
G01X6920D01*
G01X80Y-2436D02*
G01X6920D01*
G01X80Y-2349D02*
G01X6920D01*
G01X80Y-2262D02*
G01X6920D01*
G01X80Y-2175D02*
G01X6920D01*
G01X80Y-2088D02*
G01X6920D01*
G01X80Y-2001D02*
G01X6920D01*
G01X80Y-1914D02*
G01X6920D01*
G01X80Y-1827D02*
G01X6920D01*
G01X80Y-1740D02*
G01X6920D01*
G01X80Y-1653D02*
G01X6920D01*
G01X80Y-1566D02*
G01X6920D01*
G01X80Y-1479D02*
G01X6920D01*
G01X80Y-1392D02*
G01X6920D01*
G01X80Y-1305D02*
G01X6920D01*
G01X80Y-1218D02*
G01X6920D01*
G01X80Y-1131D02*
G01X6920D01*
G01X80Y-1044D02*
G01X6920D01*
G01X80Y-957D02*
G01X6920D01*
G01X80Y-870D02*
G01X6920D01*
G01X80Y-783D02*
G01X6920D01*
G01X80Y-696D02*
G01X6920D01*
G01X80Y-609D02*
G01X6920D01*
G01X80Y-522D02*
G01X6920D01*
G01X80Y-435D02*
G01X6920D01*
G01X80Y-348D02*
G01X6920D01*
G01X80Y-261D02*
G01X6920D01*
G01X80Y-174D02*
G01X6920D01*
G01X80Y-87D02*
G01X6920D01*
M02*
