%MOIN*%
%ADD17C,0.0080*%
%ADD18C,0.0100*%
%ADD19R,0.0100X0.0100*%
%ADD20C,0.0017*%
%ADD21C,0.0003*%
%ADD22C,0.0001*%
%ADD23R,0.0160X0.0160*%
%ADD24C,0.0160*%
%ADD25R,0.0180X0.0180*%
%ADD26C,0.0180*%
%ASAXBY*%
%FSLAX44Y44*%
%IPPOS*%
%LNARTWORK NOTE*%
%SFA1.0000B1.0000*%
%LPD*%
D17*
D17*
D17*
D17*
G36*
G01X-20Y-2745D02*
G01X-20Y-2905D01*
G01X940Y-2905*
G01X940Y-2745*
G01X-20Y-2745*
G37*
G36*
G01X474Y-8408D02*
G01X474Y-8568D01*
G01X1434Y-8568*
G01X1434Y-8408*
G01X474Y-8408*
G37*
G36*
G01X7020Y-2745D02*
G01X7020Y-2905D01*
G01X6060Y-2905*
G01X6060Y-2745*
G01X7020Y-2745*
G37*
G36*
G01X6526Y-8408D02*
G01X6526Y-8568D01*
G01X5566Y-8568*
G01X5566Y-8408*
G01X6526Y-8408*
G37*
G36*
G01X3994Y-3032D02*
G01X3756Y-3032D01*
G01X3756Y-3130*
G01X3994Y-3130*
G01X3994Y-3032*
G37*
G36*
G01X3994Y-2776D02*
G01X3756Y-2776D01*
G01X3756Y-2874*
G01X3994Y-2874*
G01X3994Y-2776*
G37*
G36*
G01X3994Y-2520D02*
G01X3756Y-2520D01*
G01X3756Y-2618*
G01X3994Y-2618*
G01X3994Y-2520*
G37*
G36*
G01X3006Y-3032D02*
G01X3244Y-3032D01*
G01X3244Y-3130*
G01X3006Y-3130*
G01X3006Y-3032*
G37*
G36*
G01X3006Y-2776D02*
G01X3244Y-2776D01*
G01X3244Y-2874*
G01X3006Y-2874*
G01X3006Y-2776*
G37*
G36*
G01X3006Y-2520D02*
G01X3244Y-2520D01*
G01X3244Y-2618*
G01X3006Y-2618*
G01X3006Y-2520*
G37*
G36*
G01X2956Y-2735D02*
G01X2956Y-2915D01*
G01X3006Y-2874*
G01X3006Y-2776*
G01X2956Y-2735*
G37*
G36*
G01X3994Y-2776D02*
G01X3994Y-2874D01*
G01X4044Y-2915*
G01X4044Y-2735*
G01X3994Y-2776*
G37*
%ASAXBY*%
%FSLAX44Y44*%
%IPPOS*%
%LNARTWORK NOTE*%
%SFA1.0000B1.0000*%
%LPD*%
D17*
G01X8531Y-9656D02*
G01X8600Y-9256*
G01Y-9656D01*
G01X8617Y-9275D02*
G01Y-9637D01*
G01X8600Y-9256D02*
G01X8805D01*
G01X8617Y-9275D02*
G01X8805D01*
G01Y-9256*
G01X8617Y-9446D02*
G01X8720D01*
G01Y-9465*
G01X8617D02*
G01X8720D01*
G01X8617Y-9637D02*
G01X8805D01*
G01Y-9656*
G01X8600D02*
G01X8805D01*
G01X8857D02*
G01X8925Y-9256*
G01Y-9656D01*
G01X8943Y-9275D02*
G01Y-9637D01*
G01X8925Y-9256D02*
G01X9045D01*
G01X9097Y-9275*
G01X9131Y-9313*
G01X9148Y-9351*
G01X9165Y-9408*
G01Y-9503*
G01X9148Y-9561*
G01X9131Y-9599*
G01X9097Y-9637*
G01X9045Y-9656*
G01X8925*
G01X8943Y-9275D02*
G01X9045D01*
G01X9097Y-9294*
G01X9114Y-9313*
G01X9131Y-9351*
G01X9148Y-9408*
G01Y-9503*
G01X9131Y-9561*
G01X9114Y-9599*
G01X9097Y-9618*
G01X9045Y-9637*
G01X8943*
G01X9217Y-9656D02*
G01X9525Y-9351*
G01X9508Y-9313D01*
G01X9474Y-9275*
G01X9440Y-9256*
G01X9371*
G01X9337Y-9275*
G01X9303Y-9313*
G01X9285Y-9351*
G01X9268Y-9408*
G01Y-9503*
G01X9285Y-9561*
G01X9303Y-9599*
G01X9337Y-9637*
G01X9371Y-9656*
G01X9440*
G01X9474Y-9637*
G01X9508Y-9599*
G01X9525Y-9561*
G01Y-9484*
G01X9440*
G01X9525Y-9351D02*
G01X9508D01*
G01X9491Y-9313*
G01X9474Y-9294*
G01X9440Y-9275*
G01X9371*
G01X9337Y-9294*
G01X9320Y-9313*
G01X9303Y-9351*
G01X9285Y-9408*
G01Y-9503*
G01X9303Y-9561*
G01X9320Y-9599*
G01X9337Y-9618*
G01X9371Y-9637*
G01X9440*
G01X9474Y-9618*
G01X9491Y-9599*
G01X9508Y-9561*
G01Y-9503*
G01X9440*
G01Y-9484*
G01X9577Y-9656D02*
G01X9645Y-9256*
G01Y-9656D01*
G01X9663Y-9275D02*
G01Y-9637D01*
G01X9645Y-9256D02*
G01X9851D01*
G01X9663Y-9275D02*
G01X9851D01*
G01Y-9256*
G01X9663Y-9446D02*
G01X9765D01*
G01Y-9465*
G01X9663D02*
G01X9765D01*
G01X9663Y-9637D02*
G01X9851D01*
G01Y-9656*
G01X9645D02*
G01X9851D01*
G01X9903D02*
G01X10263*
G01X10331Y-9256*
G01Y-9656D01*
G01X10348Y-9275D02*
G01Y-9656D01*
G01X10331*
G01Y-9256D02*
G01X10485D01*
G01X10520Y-9275*
G01X10537Y-9294*
G01X10554Y-9332*
G01Y-9389*
G01X10537Y-9427*
G01X10520Y-9446*
G01X10485Y-9465*
G01X10348*
G01Y-9275D02*
G01X10485D01*
G01X10520Y-9294*
G01X10537Y-9332*
G01Y-9389*
G01X10520Y-9427*
G01X10485Y-9446*
G01X10348*
G01X10605Y-9656D02*
G01X10674Y-9256*
G01Y-9656D01*
G01Y-9256D02*
G01X10691D01*
G01Y-9637*
G01X10880*
G01Y-9656*
G01X10674D02*
G01X10880D01*
G01X10897D02*
G01X11068Y-9256*
G01X10931Y-9656D01*
G01X11068Y-9313D02*
G01X10948Y-9656D01*
G01X10931*
G01X11068Y-9313D02*
G01X11188Y-9656D01*
G01X11205*
G01X11068Y-9256D02*
G01X11205Y-9656D01*
G01X10983Y-9542D02*
G01X11154D01*
G01X10965Y-9561D02*
G01X11171D01*
G01X11240Y-9656D02*
G01X11377Y-9275*
G01Y-9656D01*
G01X11394Y-9275D02*
G01Y-9656D01*
G01X11377*
G01X11274Y-9256D02*
G01X11497D01*
G01Y-9275*
G01X11274Y-9256D02*
G01Y-9275D01*
G01X11497*
G01X11531Y-9656D02*
G01X11600Y-9256*
G01Y-9656D01*
G01X11617*
G01X11600Y-9256D02*
G01X11617D01*
G01Y-9656*
G01X11685D02*
G01X11754Y-9256*
G01Y-9656D01*
G01X11771Y-9313D02*
G01Y-9656D01*
G01X11754*
G01X11771Y-9313D02*
G01X11994Y-9656D01*
G01X11754Y-9256D02*
G01X11977Y-9599D01*
G01Y-9256D02*
G01Y-9599D01*
G01Y-9256D02*
G01X11994D01*
G01Y-9656*
G01X12063D02*
G01X12371Y-9351*
G01X12354Y-9313D01*
G01X12320Y-9275*
G01X12285Y-9256*
G01X12217*
G01X12183Y-9275*
G01X12148Y-9313*
G01X12131Y-9351*
G01X12114Y-9408*
G01Y-9503*
G01X12131Y-9561*
G01X12148Y-9599*
G01X12183Y-9637*
G01X12217Y-9656*
G01X12285*
G01X12320Y-9637*
G01X12354Y-9599*
G01X12371Y-9561*
G01Y-9484*
G01X12285*
G01X12371Y-9351D02*
G01X12354D01*
G01X12337Y-9313*
G01X12320Y-9294*
G01X12285Y-9275*
G01X12217*
G01X12183Y-9294*
G01X12165Y-9313*
G01X12148Y-9351*
G01X12131Y-9408*
G01Y-9503*
G01X12148Y-9561*
G01X12165Y-9599*
G01X12183Y-9618*
G01X12217Y-9637*
G01X12285*
G01X12320Y-9618*
G01X12337Y-9599*
G01X12354Y-9561*
G01Y-9503*
G01X12285*
G01Y-9484*
G01X12423Y-9656D02*
G01X12508Y-9256*
G01Y-9522D01*
G01X12525*
G01X12508Y-9256D02*
G01X12525D01*
G01Y-9522*
G01X12508Y-9599D02*
G01X12491Y-9618D01*
G01Y-9637*
G01X12508Y-9656*
G01X12525*
G01X12543Y-9637*
G01Y-9618*
G01X12525Y-9599*
G01X12508*
G01Y-9618D02*
G01Y-9637D01*
G01X12525*
G01Y-9618*
G01X12508*
G01X12611Y-9656D02*
G01X7048Y-9056D02*
G01X7203Y-8656*
G01X7168Y-8675D01*
G01X7134Y-8713*
G01X7117Y-8751*
G01X7100Y-8808*
G01Y-8903*
G01X7117Y-8961*
G01X7134Y-8999*
G01X7168Y-9037*
G01X7203Y-9056*
G01X7271*
G01X7305Y-9037*
G01X7340Y-8999*
G01X7357Y-8961*
G01X7374Y-8903*
G01Y-8808*
G01X7357Y-8751*
G01X7340Y-8713*
G01X7305Y-8675*
G01X7271Y-8656*
G01X7203*
G01X7220Y-8675D02*
G01X7168Y-8694D01*
G01X7134Y-8751*
G01X7117Y-8808*
G01Y-8903*
G01X7134Y-8961*
G01X7168Y-9018*
G01X7220Y-9037*
G01X7254*
G01X7305Y-9018*
G01X7340Y-8961*
G01X7357Y-8903*
G01Y-8808*
G01X7340Y-8751*
G01X7305Y-8694*
G01X7254Y-8675*
G01X7220*
G01X7425Y-9056D02*
G01X7494Y-8656*
G01Y-9056D01*
G01X7511*
G01X7494Y-8656D02*
G01X7511D01*
G01Y-9056*
G01X7734Y-8656D02*
G01X7717D01*
G01X7511Y-8884*
G01X7734Y-8656D02*
G01X7511Y-8903D01*
G01X7563Y-8827D02*
G01X7717Y-9056D01*
G01X7734*
G01X7580Y-8827D02*
G01X7734Y-9056D01*
G01X7785D02*
G01X8145*
G01X8214Y-8656*
G01Y-9056D01*
G01X8231*
G01X8214Y-8656D02*
G01X8231D01*
G01Y-9056*
G01X8300D02*
G01X8368Y-8656*
G01Y-9056D01*
G01X8385Y-8675D02*
G01Y-9056D01*
G01X8368*
G01Y-8656D02*
G01X8574D01*
G01X8385Y-8675D02*
G01X8574D01*
G01Y-8656*
G01X8385Y-8846D02*
G01X8488D01*
G01Y-8865*
G01X8385D02*
G01X8488D01*
G01X8608Y-9056D02*
G01X8968*
G01X9105Y-8675*
G01Y-9056D01*
G01X9123Y-8675D02*
G01Y-9056D01*
G01X9105*
G01X9003Y-8656D02*
G01X9225D01*
G01Y-8675*
G01X9003Y-8656D02*
G01Y-8675D01*
G01X9225*
G01X9260Y-9056D02*
G01X9328Y-8656*
G01Y-9056D01*
G01X9345Y-8675D02*
G01Y-9056D01*
G01X9328*
G01Y-8656D02*
G01X9465D01*
G01X9517Y-8675*
G01X9534Y-8694*
G01X9551Y-8732*
G01Y-8789*
G01X9534Y-8827*
G01X9517Y-8846*
G01X9465Y-8865*
G01X9345*
G01Y-8675D02*
G01X9465D01*
G01X9517Y-8694*
G01X9534Y-8732*
G01Y-8789*
G01X9517Y-8827*
G01X9465Y-8846*
G01X9345*
G01X9431Y-8865D02*
G01X9534Y-9056D01*
G01X9551*
G01X9448Y-8865D02*
G01X9551Y-9056D01*
G01X9603D02*
G01X9774Y-8656*
G01X9637Y-9056D01*
G01X9774Y-8713D02*
G01X9654Y-9056D01*
G01X9637*
G01X9774Y-8713D02*
G01X9894Y-9056D01*
G01X9911*
G01X9774Y-8656D02*
G01X9911Y-9056D01*
G01X9688Y-8942D02*
G01X9860D01*
G01X9671Y-8961D02*
G01X9877D01*
G01X9945Y-9056D02*
G01X10254Y-8751*
G01X10237Y-8713D01*
G01X10203Y-8675*
G01X10168Y-8656*
G01X10100*
G01X10065Y-8675*
G01X10031Y-8713*
G01X10014Y-8751*
G01X9997Y-8808*
G01Y-8903*
G01X10014Y-8961*
G01X10031Y-8999*
G01X10065Y-9037*
G01X10100Y-9056*
G01X10168*
G01X10203Y-9037*
G01X10237Y-8999*
G01X10254Y-8961*
G01Y-8751D02*
G01X10237D01*
G01X10220Y-8713*
G01X10203Y-8694*
G01X10168Y-8675*
G01X10100*
G01X10065Y-8694*
G01X10031Y-8751*
G01X10014Y-8808*
G01Y-8903*
G01X10031Y-8961*
G01X10065Y-9018*
G01X10100Y-9037*
G01X10168*
G01X10203Y-9018*
G01X10220Y-8999*
G01X10237Y-8961*
G01X10254*
G01X10305Y-9056D02*
G01X10374Y-8656*
G01Y-9056D01*
G01X10391Y-8675D02*
G01Y-9037D01*
G01X10374Y-8656D02*
G01X10580D01*
G01X10391Y-8675D02*
G01X10580D01*
G01Y-8656*
G01X10391Y-8846D02*
G01X10494D01*
G01Y-8865*
G01X10391D02*
G01X10494D01*
G01X10391Y-9037D02*
G01X10580D01*
G01Y-9056*
G01X10374D02*
G01X10580D01*
G01X10631D02*
G01X10991*
G01X11283Y-8713*
G01X11248Y-8675D01*
G01X11197Y-8656*
G01X11128*
G01X11077Y-8675*
G01X11043Y-8713*
G01Y-8751*
G01X11060Y-8789*
G01X11077Y-8808*
G01X11111Y-8827*
G01X11197Y-8865*
G01X11231Y-8884*
G01X11248Y-8903*
G01X11265Y-8942*
G01Y-8999*
G01X11248Y-9018*
G01X11197Y-9037*
G01X11128*
G01X11094Y-9018*
G01X11077Y-8999*
G01X11043*
G01X11283Y-8713D02*
G01X11248D01*
G01X11231Y-8694*
G01X11197Y-8675*
G01X11128*
G01X11077Y-8694*
G01X11060Y-8713*
G01Y-8751*
G01X11077Y-8789*
G01X11111Y-8808*
G01X11197Y-8846*
G01X11231Y-8865*
G01X11265Y-8903*
G01X11283Y-8942*
G01Y-8999*
G01X11248Y-9037*
G01X11197Y-9056*
G01X11128*
G01X11077Y-9037*
G01X11043Y-8999*
G01X11334Y-9056D02*
G01X11403Y-8656*
G01Y-9056D01*
G01Y-8656D02*
G01X11420D01*
G01Y-9056*
G01X11403*
G01X11643Y-8656D02*
G01X11625D01*
G01Y-9056*
G01X11643*
G01Y-8656D02*
G01Y-9056D01*
G01X11420Y-8846D02*
G01X11625D01*
G01X11420Y-8865D02*
G01X11625D01*
G01X11711Y-9056D02*
G01X11865Y-8656*
G01X11831Y-8675D01*
G01X11797Y-8713*
G01X11780Y-8751*
G01X11763Y-8808*
G01Y-8903*
G01X11780Y-8961*
G01X11797Y-8999*
G01X11831Y-9037*
G01X11865Y-9056*
G01X11934*
G01X11968Y-9037*
G01X12003Y-8999*
G01X12020Y-8961*
G01X12037Y-8903*
G01Y-8808*
G01X12020Y-8751*
G01X12003Y-8713*
G01X11968Y-8675*
G01X11934Y-8656*
G01X11865*
G01X11883Y-8675D02*
G01X11831Y-8694D01*
G01X11797Y-8751*
G01X11780Y-8808*
G01Y-8903*
G01X11797Y-8961*
G01X11831Y-9018*
G01X11883Y-9037*
G01X11917*
G01X11968Y-9018*
G01X12003Y-8961*
G01X12020Y-8903*
G01Y-8808*
G01X12003Y-8751*
G01X11968Y-8694*
G01X11917Y-8675*
G01X11883*
G01X12088Y-9056D02*
G01X12157Y-8656*
G01Y-9056D01*
G01X12174Y-8675D02*
G01Y-9056D01*
G01X12157*
G01Y-8656D02*
G01X12294D01*
G01X12345Y-8675*
G01X12363Y-8694*
G01X12380Y-8732*
G01Y-8789*
G01X12363Y-8827*
G01X12345Y-8846*
G01X12294Y-8865*
G01X12174*
G01Y-8675D02*
G01X12294D01*
G01X12345Y-8694*
G01X12363Y-8732*
G01Y-8789*
G01X12345Y-8827*
G01X12294Y-8846*
G01X12174*
G01X12260Y-8865D02*
G01X12363Y-9056D01*
G01X12380*
G01X12277Y-8865D02*
G01X12380Y-9056D01*
G01X12431D02*
G01X12568Y-8675*
G01Y-9056D01*
G01X12585Y-8675D02*
G01Y-9056D01*
G01X12568*
G01X12465Y-8656D02*
G01X12688D01*
G01Y-8675*
G01X12465Y-8656D02*
G01Y-8675D01*
G01X12688*
G01X12723Y-9056D02*
G01X13014Y-8713*
G01X12980Y-8675D01*
G01X12928Y-8656*
G01X12860*
G01X12808Y-8675*
G01X12774Y-8713*
G01Y-8751*
G01X12791Y-8789*
G01X12808Y-8808*
G01X12843Y-8827*
G01X12928Y-8865*
G01X12963Y-8884*
G01X12980Y-8903*
G01X12997Y-8942*
G01Y-8999*
G01X12980Y-9018*
G01X12928Y-9037*
G01X12860*
G01X12825Y-9018*
G01X12808Y-8999*
G01X12774*
G01X13014Y-8713D02*
G01X12980D01*
G01X12963Y-8694*
G01X12928Y-8675*
G01X12860*
G01X12808Y-8694*
G01X12791Y-8713*
G01Y-8751*
G01X12808Y-8789*
G01X12843Y-8808*
G01X12928Y-8846*
G01X12963Y-8865*
G01X12997Y-8903*
G01X13014Y-8942*
G01Y-8999*
G01X12980Y-9037*
G01X12928Y-9056*
G01X12860*
G01X12808Y-9037*
G01X12774Y-8999*
G01X13065Y-9056D02*
G01X13425*
G01X13563Y-8675*
G01Y-9056D01*
G01X13580Y-8675D02*
G01Y-9056D01*
G01X13563*
G01X13460Y-8656D02*
G01X13683D01*
G01Y-8675*
G01X13460Y-8656D02*
G01Y-8675D01*
G01X13683*
G01X13717Y-9056D02*
G01X13871Y-8656*
G01X13837Y-8675D01*
G01X13803Y-8713*
G01X13785Y-8751*
G01X13768Y-8808*
G01Y-8903*
G01X13785Y-8961*
G01X13803Y-8999*
G01X13837Y-9037*
G01X13871Y-9056*
G01X13940*
G01X13974Y-9037*
G01X14008Y-8999*
G01X14025Y-8961*
G01X14043Y-8903*
G01Y-8808*
G01X14025Y-8751*
G01X14008Y-8713*
G01X13974Y-8675*
G01X13940Y-8656*
G01X13871*
G01X13888Y-8675D02*
G01X13837Y-8694D01*
G01X13803Y-8751*
G01X13785Y-8808*
G01Y-8903*
G01X13803Y-8961*
G01X13837Y-9018*
G01X13888Y-9037*
G01X13923*
G01X13974Y-9018*
G01X14008Y-8961*
G01X14025Y-8903*
G01Y-8808*
G01X14008Y-8751*
G01X13974Y-8694*
G01X13923Y-8675*
G01X13888*
G01X14094Y-9056D02*
G01X7177Y-8456D02*
G01X7348Y-8056*
G01X7211Y-8456D01*
G01X7348Y-8113D02*
G01X7228Y-8456D01*
G01X7211*
G01X7348Y-8113D02*
G01X7468Y-8456D01*
G01X7485*
G01X7348Y-8056D02*
G01X7485Y-8456D01*
G01X7263Y-8342D02*
G01X7434D01*
G01X7245Y-8361D02*
G01X7451D01*
G01X7520Y-8456D02*
G01X7588Y-8056*
G01Y-8456D01*
G01X7605Y-8075D02*
G01Y-8456D01*
G01X7588*
G01Y-8056D02*
G01X7725D01*
G01X7777Y-8075*
G01X7794Y-8094*
G01X7811Y-8132*
G01Y-8189*
G01X7794Y-8227*
G01X7777Y-8246*
G01X7725Y-8265*
G01X7605*
G01Y-8075D02*
G01X7725D01*
G01X7777Y-8094*
G01X7794Y-8132*
G01Y-8189*
G01X7777Y-8227*
G01X7725Y-8246*
G01X7605*
G01X7691Y-8265D02*
G01X7794Y-8456D01*
G01X7811*
G01X7708Y-8265D02*
G01X7811Y-8456D01*
G01X7863D02*
G01X8000Y-8075*
G01Y-8456D01*
G01X8017Y-8075D02*
G01Y-8456D01*
G01X8000*
G01X7897Y-8056D02*
G01X8120D01*
G01Y-8075*
G01X7897Y-8056D02*
G01Y-8075D01*
G01X8120*
G01X8154Y-8456D02*
G01X8188Y-8056*
G01X8291Y-8456D01*
G01X8188Y-8056D02*
G01X8205D01*
G01X8291Y-8399*
G01X8377Y-8056D02*
G01X8291Y-8399D01*
G01X8377Y-8113D02*
G01X8291Y-8456D01*
G01X8377Y-8113D02*
G01X8463Y-8456D01*
G01X8377Y-8056D02*
G01X8463Y-8399D01*
G01X8565Y-8056D02*
G01X8548D01*
G01X8463Y-8399*
G01X8565Y-8056D02*
G01X8463Y-8456D01*
G01X8600D02*
G01X8754Y-8056*
G01X8720Y-8075D01*
G01X8685Y-8113*
G01X8668Y-8151*
G01X8651Y-8208*
G01Y-8303*
G01X8668Y-8361*
G01X8685Y-8399*
G01X8720Y-8437*
G01X8754Y-8456*
G01X8823*
G01X8857Y-8437*
G01X8891Y-8399*
G01X8908Y-8361*
G01X8925Y-8303*
G01Y-8208*
G01X8908Y-8151*
G01X8891Y-8113*
G01X8857Y-8075*
G01X8823Y-8056*
G01X8754*
G01X8771Y-8075D02*
G01X8720Y-8094D01*
G01X8685Y-8151*
G01X8668Y-8208*
G01Y-8303*
G01X8685Y-8361*
G01X8720Y-8418*
G01X8771Y-8437*
G01X8805*
G01X8857Y-8418*
G01X8891Y-8361*
G01X8908Y-8303*
G01Y-8208*
G01X8891Y-8151*
G01X8857Y-8094*
G01X8805Y-8075*
G01X8771*
G01X8977Y-8456D02*
G01X9045Y-8056*
G01Y-8456D01*
G01X9063Y-8075D02*
G01Y-8456D01*
G01X9045*
G01Y-8056D02*
G01X9183D01*
G01X9234Y-8075*
G01X9251Y-8094*
G01X9268Y-8132*
G01Y-8189*
G01X9251Y-8227*
G01X9234Y-8246*
G01X9183Y-8265*
G01X9063*
G01Y-8075D02*
G01X9183D01*
G01X9234Y-8094*
G01X9251Y-8132*
G01Y-8189*
G01X9234Y-8227*
G01X9183Y-8246*
G01X9063*
G01X9148Y-8265D02*
G01X9251Y-8456D01*
G01X9268*
G01X9165Y-8265D02*
G01X9268Y-8456D01*
G01X9320D02*
G01X9388Y-8056*
G01Y-8456D01*
G01X9405*
G01X9388Y-8056D02*
G01X9405D01*
G01Y-8456*
G01X9628Y-8056D02*
G01X9611D01*
G01X9405Y-8284*
G01X9628Y-8056D02*
G01X9405Y-8303D01*
G01X9457Y-8227D02*
G01X9611Y-8456D01*
G01X9628*
G01X9474Y-8227D02*
G01X9628Y-8456D01*
G01X9680D02*
G01X10040*
G01X10108Y-8056*
G01Y-8456D01*
G01X10125*
G01X10108Y-8056D02*
G01X10125D01*
G01Y-8456*
G01X10194D02*
G01X10263Y-8056*
G01Y-8456D01*
G01X10280Y-8113D02*
G01Y-8456D01*
G01X10263*
G01X10280Y-8113D02*
G01X10503Y-8456D01*
G01X10263Y-8056D02*
G01X10485Y-8399D01*
G01Y-8056D02*
G01Y-8399D01*
G01Y-8056D02*
G01X10503D01*
G01Y-8456*
G01X10571D02*
G01X10931*
G01X11068Y-8075*
G01Y-8456D01*
G01X11085Y-8075D02*
G01Y-8456D01*
G01X11068*
G01X10965Y-8056D02*
G01X11188D01*
G01Y-8075*
G01X10965Y-8056D02*
G01Y-8075D01*
G01X11188*
G01X11223Y-8456D02*
G01X11291Y-8056*
G01Y-8456D01*
G01Y-8056D02*
G01X11308D01*
G01Y-8456*
G01X11291*
G01X11531Y-8056D02*
G01X11514D01*
G01Y-8456*
G01X11531*
G01Y-8056D02*
G01Y-8456D01*
G01X11308Y-8246D02*
G01X11514D01*
G01X11308Y-8265D02*
G01X11514D01*
G01X11600Y-8456D02*
G01X11668Y-8056*
G01Y-8456D01*
G01X11685*
G01X11668Y-8056D02*
G01X11685D01*
G01Y-8456*
G01X11754D02*
G01X12045Y-8113*
G01X12011Y-8075D01*
G01X11960Y-8056*
G01X11891*
G01X11840Y-8075*
G01X11805Y-8113*
G01Y-8151*
G01X11823Y-8189*
G01X11840Y-8208*
G01X11874Y-8227*
G01X11960Y-8265*
G01X11994Y-8284*
G01X12011Y-8303*
G01X12028Y-8342*
G01Y-8399*
G01X12011Y-8418*
G01X11960Y-8437*
G01X11891*
G01X11857Y-8418*
G01X11840Y-8399*
G01X11805*
G01X12045Y-8113D02*
G01X12011D01*
G01X11994Y-8094*
G01X11960Y-8075*
G01X11891*
G01X11840Y-8094*
G01X11823Y-8113*
G01Y-8151*
G01X11840Y-8189*
G01X11874Y-8208*
G01X11960Y-8246*
G01X11994Y-8265*
G01X12028Y-8303*
G01X12045Y-8342*
G01Y-8399*
G01X12011Y-8437*
G01X11960Y-8456*
G01X11891*
G01X11840Y-8437*
G01X11805Y-8399*
G01X12097Y-8456D02*
G01X12457*
G01X12628Y-8056*
G01X12491Y-8456D01*
G01X12628Y-8113D02*
G01X12508Y-8456D01*
G01X12491*
G01X12628Y-8113D02*
G01X12748Y-8456D01*
G01X12765*
G01X12628Y-8056D02*
G01X12765Y-8456D01*
G01X12543Y-8342D02*
G01X12714D01*
G01X12525Y-8361D02*
G01X12731D01*
G01X12800Y-8456D02*
G01X12868Y-8056*
G01Y-8456D01*
G01X12885Y-8075D02*
G01Y-8456D01*
G01X12868*
G01Y-8056D02*
G01X13005D01*
G01X13057Y-8075*
G01X13074Y-8094*
G01X13091Y-8132*
G01Y-8189*
G01X13074Y-8227*
G01X13057Y-8246*
G01X13005Y-8265*
G01X12885*
G01Y-8075D02*
G01X13005D01*
G01X13057Y-8094*
G01X13074Y-8132*
G01Y-8189*
G01X13057Y-8227*
G01X13005Y-8246*
G01X12885*
G01X12971Y-8265D02*
G01X13074Y-8456D01*
G01X13091*
G01X12988Y-8265D02*
G01X13091Y-8456D01*
G01X13143D02*
G01X13211Y-8056*
G01Y-8456D01*
G01X13228Y-8075D02*
G01Y-8437D01*
G01X13211Y-8056D02*
G01X13417D01*
G01X13228Y-8075D02*
G01X13417D01*
G01Y-8056*
G01X13228Y-8246D02*
G01X13331D01*
G01Y-8265*
G01X13228D02*
G01X13331D01*
G01X13228Y-8437D02*
G01X13417D01*
G01Y-8456*
G01X13211D02*
G01X13417D01*
G01X13468D02*
G01X13640Y-8056*
G01X13503Y-8456D01*
G01X13640Y-8113D02*
G01X13520Y-8456D01*
G01X13503*
G01X13640Y-8113D02*
G01X13760Y-8456D01*
G01X13777*
G01X13640Y-8056D02*
G01X13777Y-8456D01*
G01X13554Y-8342D02*
G01X13725D01*
G01X13537Y-8361D02*
G01X13743D01*
G01X13811Y-8456D02*
G01X13931Y-8437*
G01X13914Y-8456D01*
G01X13897*
G01X13880Y-8437*
G01Y-8418*
G01X13897Y-8399*
G01X13914*
G01X13931Y-8418*
G01Y-8475*
G01X13914Y-8513*
G01X13880Y-8532*
G01X13897Y-8418D02*
G01Y-8437D01*
G01X13914*
G01Y-8418*
G01X13897*
G01X13914Y-8456D02*
G01X13931Y-8475D01*
G01Y-8437D02*
G01X13914Y-8513D01*
G01X14000Y-8456D02*
G01X7280Y-7856D02*
G01X7348Y-7456*
G01Y-7856D01*
G01X7365Y-7475D02*
G01Y-7837D01*
G01X7348Y-7456D02*
G01X7468D01*
G01X7520Y-7475*
G01X7554Y-7513*
G01X7571Y-7551*
G01X7588Y-7608*
G01Y-7703*
G01X7571Y-7761*
G01X7554Y-7799*
G01X7520Y-7837*
G01X7468Y-7856*
G01X7348*
G01X7365Y-7475D02*
G01X7468D01*
G01X7520Y-7494*
G01X7537Y-7513*
G01X7554Y-7551*
G01X7571Y-7608*
G01Y-7703*
G01X7554Y-7761*
G01X7537Y-7799*
G01X7520Y-7818*
G01X7468Y-7837*
G01X7365*
G01X7640Y-7856D02*
G01X7794Y-7456*
G01X7760Y-7475D01*
G01X7725Y-7513*
G01X7708Y-7551*
G01X7691Y-7608*
G01Y-7703*
G01X7708Y-7761*
G01X7725Y-7799*
G01X7760Y-7837*
G01X7794Y-7856*
G01X7863*
G01X7897Y-7837*
G01X7931Y-7799*
G01X7948Y-7761*
G01X7965Y-7703*
G01Y-7608*
G01X7948Y-7551*
G01X7931Y-7513*
G01X7897Y-7475*
G01X7863Y-7456*
G01X7794*
G01X7811Y-7475D02*
G01X7760Y-7494D01*
G01X7725Y-7551*
G01X7708Y-7608*
G01Y-7703*
G01X7725Y-7761*
G01X7760Y-7818*
G01X7811Y-7837*
G01X7845*
G01X7897Y-7818*
G01X7931Y-7761*
G01X7948Y-7703*
G01Y-7608*
G01X7931Y-7551*
G01X7897Y-7494*
G01X7845Y-7475*
G01X7811*
G01X8017Y-7856D02*
G01X8377*
G01X8445Y-7456*
G01Y-7856D01*
G01X8463Y-7513D02*
G01Y-7856D01*
G01X8445*
G01X8463Y-7513D02*
G01X8685Y-7856D01*
G01X8445Y-7456D02*
G01X8668Y-7799D01*
G01Y-7456D02*
G01Y-7799D01*
G01Y-7456D02*
G01X8685D01*
G01Y-7856*
G01X8754D02*
G01X8908Y-7456*
G01X8874Y-7475D01*
G01X8840Y-7513*
G01X8823Y-7551*
G01X8805Y-7608*
G01Y-7703*
G01X8823Y-7761*
G01X8840Y-7799*
G01X8874Y-7837*
G01X8908Y-7856*
G01X8977*
G01X9011Y-7837*
G01X9045Y-7799*
G01X9063Y-7761*
G01X9080Y-7703*
G01Y-7608*
G01X9063Y-7551*
G01X9045Y-7513*
G01X9011Y-7475*
G01X8977Y-7456*
G01X8908*
G01X8925Y-7475D02*
G01X8874Y-7494D01*
G01X8840Y-7551*
G01X8823Y-7608*
G01Y-7703*
G01X8840Y-7761*
G01X8874Y-7818*
G01X8925Y-7837*
G01X8960*
G01X9011Y-7818*
G01X9045Y-7761*
G01X9063Y-7703*
G01Y-7608*
G01X9045Y-7551*
G01X9011Y-7494*
G01X8960Y-7475*
G01X8925*
G01X9131Y-7856D02*
G01X9268Y-7475*
G01Y-7856D01*
G01X9285Y-7475D02*
G01Y-7856D01*
G01X9268*
G01X9165Y-7456D02*
G01X9388D01*
G01Y-7475*
G01X9165Y-7456D02*
G01Y-7475D01*
G01X9388*
G01X9423Y-7856D02*
G01X9783*
G01X9954Y-7456*
G01X9817Y-7856D01*
G01X9954Y-7513D02*
G01X9834Y-7856D01*
G01X9817*
G01X9954Y-7513D02*
G01X10074Y-7856D01*
G01X10091*
G01X9954Y-7456D02*
G01X10091Y-7856D01*
G01X9868Y-7742D02*
G01X10040D01*
G01X9851Y-7761D02*
G01X10057D01*
G01X10125Y-7856D02*
G01X10194Y-7456*
G01Y-7856D01*
G01X10211Y-7475D02*
G01Y-7837D01*
G01X10194Y-7456D02*
G01X10314D01*
G01X10365Y-7475*
G01X10400Y-7513*
G01X10417Y-7551*
G01X10434Y-7608*
G01Y-7703*
G01X10417Y-7761*
G01X10400Y-7799*
G01X10365Y-7837*
G01X10314Y-7856*
G01X10194*
G01X10211Y-7475D02*
G01X10314D01*
G01X10365Y-7494*
G01X10383Y-7513*
G01X10400Y-7551*
G01X10417Y-7608*
G01Y-7703*
G01X10400Y-7761*
G01X10383Y-7799*
G01X10365Y-7818*
G01X10314Y-7837*
G01X10211*
G01X10485Y-7856D02*
G01X10691Y-7456*
G01Y-7761D01*
G01X10674Y-7818*
G01X10640Y-7837*
G01X10605*
G01X10571Y-7818*
G01X10554Y-7761*
G01X10537*
G01X10691Y-7456D02*
G01X10708D01*
G01Y-7761*
G01X10691Y-7818*
G01X10674Y-7837*
G01X10640Y-7856*
G01X10605*
G01X10571Y-7837*
G01X10554Y-7818*
G01X10537Y-7761*
G01X10777Y-7856D02*
G01X10845Y-7456*
G01Y-7742D01*
G01X10863Y-7799*
G01X10897Y-7837*
G01X10948Y-7856*
G01X10983*
G01X11034Y-7837*
G01X11068Y-7799*
G01X11085Y-7742*
G01Y-7456*
G01X10845D02*
G01X10863D01*
G01Y-7742*
G01X10880Y-7799*
G01X10897Y-7818*
G01X10948Y-7837*
G01X10983*
G01X11034Y-7818*
G01X11051Y-7799*
G01X11068Y-7742*
G01Y-7456*
G01X11085*
G01X11154Y-7856D02*
G01X11445Y-7513*
G01X11411Y-7475D01*
G01X11360Y-7456*
G01X11291*
G01X11240Y-7475*
G01X11205Y-7513*
G01Y-7551*
G01X11223Y-7589*
G01X11240Y-7608*
G01X11274Y-7627*
G01X11360Y-7665*
G01X11394Y-7684*
G01X11411Y-7703*
G01X11428Y-7742*
G01Y-7799*
G01X11411Y-7818*
G01X11360Y-7837*
G01X11291*
G01X11257Y-7818*
G01X11240Y-7799*
G01X11205*
G01X11445Y-7513D02*
G01X11411D01*
G01X11394Y-7494*
G01X11360Y-7475*
G01X11291*
G01X11240Y-7494*
G01X11223Y-7513*
G01Y-7551*
G01X11240Y-7589*
G01X11274Y-7608*
G01X11360Y-7646*
G01X11394Y-7665*
G01X11428Y-7703*
G01X11445Y-7742*
G01Y-7799*
G01X11411Y-7837*
G01X11360Y-7856*
G01X11291*
G01X11240Y-7837*
G01X11205Y-7799*
G01X11497Y-7856D02*
G01X11634Y-7475*
G01Y-7856D01*
G01X11651Y-7475D02*
G01Y-7856D01*
G01X11634*
G01X11531Y-7456D02*
G01X11754D01*
G01Y-7475*
G01X11531Y-7456D02*
G01Y-7475D01*
G01X11754*
G01X11788Y-7856D02*
G01X12148*
G01X12217Y-7456*
G01Y-7856D01*
G01X12234Y-7551D02*
G01Y-7856D01*
G01X12217*
G01X12234Y-7551D02*
G01X12354Y-7856D01*
G01X12217Y-7456D02*
G01X12354Y-7799D01*
G01X12491Y-7456D02*
G01X12354Y-7799D01*
G01X12474Y-7551D02*
G01X12354Y-7856D01*
G01X12474Y-7551D02*
G01Y-7856D01*
G01X12491*
G01Y-7456D02*
G01Y-7856D01*
G01X12560D02*
G01X12628Y-7456*
G01Y-7856D01*
G01X12645Y-7475D02*
G01Y-7837D01*
G01X12628Y-7456D02*
G01X12834D01*
G01X12645Y-7475D02*
G01X12834D01*
G01Y-7456*
G01X12645Y-7646D02*
G01X12748D01*
G01Y-7665*
G01X12645D02*
G01X12748D01*
G01X12645Y-7837D02*
G01X12834D01*
G01Y-7856*
G01X12628D02*
G01X12834D01*
G01X12885D02*
G01X13023Y-7475*
G01Y-7856D01*
G01X13040Y-7475D02*
G01Y-7856D01*
G01X13023*
G01X12920Y-7456D02*
G01X13143D01*
G01Y-7475*
G01X12920Y-7456D02*
G01Y-7475D01*
G01X13143*
G01X13177Y-7856D02*
G01X13348Y-7456*
G01X13211Y-7856D01*
G01X13348Y-7513D02*
G01X13228Y-7856D01*
G01X13211*
G01X13348Y-7513D02*
G01X13468Y-7856D01*
G01X13485*
G01X13348Y-7456D02*
G01X13485Y-7856D01*
G01X13263Y-7742D02*
G01X13434D01*
G01X13245Y-7761D02*
G01X13451D01*
G01X13520Y-7856D02*
G01X13588Y-7456*
G01Y-7856D01*
G01Y-7456D02*
G01X13605D01*
G01Y-7837*
G01X13794*
G01Y-7856*
G01X13588D02*
G01X13794D01*
G01X13811D02*
G01X-5616Y-9656D02*
G01X-5547Y-9256*
G01Y-9656D01*
G01X-5530Y-9275D02*
G01Y-9637D01*
G01X-5547Y-9256D02*
G01X-5342D01*
G01X-5530Y-9275D02*
G01X-5342D01*
G01Y-9256*
G01X-5530Y-9446D02*
G01X-5427D01*
G01Y-9465*
G01X-5530D02*
G01X-5427D01*
G01X-5530Y-9637D02*
G01X-5342D01*
G01Y-9656*
G01X-5547D02*
G01X-5342D01*
G01X-5290D02*
G01X-5222Y-9256*
G01Y-9656D01*
G01X-5204Y-9275D02*
G01Y-9637D01*
G01X-5222Y-9256D02*
G01X-5102D01*
G01X-5050Y-9275*
G01X-5016Y-9313*
G01X-4999Y-9351*
G01X-4982Y-9408*
G01Y-9503*
G01X-4999Y-9561*
G01X-5016Y-9599*
G01X-5050Y-9637*
G01X-5102Y-9656*
G01X-5222*
G01X-5204Y-9275D02*
G01X-5102D01*
G01X-5050Y-9294*
G01X-5033Y-9313*
G01X-5016Y-9351*
G01X-4999Y-9408*
G01Y-9503*
G01X-5016Y-9561*
G01X-5033Y-9599*
G01X-5050Y-9618*
G01X-5102Y-9637*
G01X-5204*
G01X-4930Y-9656D02*
G01X-4622Y-9351*
G01X-4639Y-9313D01*
G01X-4673Y-9275*
G01X-4707Y-9256*
G01X-4776*
G01X-4810Y-9275*
G01X-4844Y-9313*
G01X-4862Y-9351*
G01X-4879Y-9408*
G01Y-9503*
G01X-4862Y-9561*
G01X-4844Y-9599*
G01X-4810Y-9637*
G01X-4776Y-9656*
G01X-4707*
G01X-4673Y-9637*
G01X-4639Y-9599*
G01X-4622Y-9561*
G01Y-9484*
G01X-4707*
G01X-4622Y-9351D02*
G01X-4639D01*
G01X-4656Y-9313*
G01X-4673Y-9294*
G01X-4707Y-9275*
G01X-4776*
G01X-4810Y-9294*
G01X-4827Y-9313*
G01X-4844Y-9351*
G01X-4862Y-9408*
G01Y-9503*
G01X-4844Y-9561*
G01X-4827Y-9599*
G01X-4810Y-9618*
G01X-4776Y-9637*
G01X-4707*
G01X-4673Y-9618*
G01X-4656Y-9599*
G01X-4639Y-9561*
G01Y-9503*
G01X-4707*
G01Y-9484*
G01X-4570Y-9656D02*
G01X-4502Y-9256*
G01Y-9656D01*
G01X-4484Y-9275D02*
G01Y-9637D01*
G01X-4502Y-9256D02*
G01X-4296D01*
G01X-4484Y-9275D02*
G01X-4296D01*
G01Y-9256*
G01X-4484Y-9446D02*
G01X-4382D01*
G01Y-9465*
G01X-4484D02*
G01X-4382D01*
G01X-4484Y-9637D02*
G01X-4296D01*
G01Y-9656*
G01X-4502D02*
G01X-4296D01*
G01X-4244D02*
G01X-3885*
G01X-3816Y-9256*
G01Y-9656D01*
G01X-3799Y-9275D02*
G01Y-9656D01*
G01X-3816*
G01Y-9256D02*
G01X-3662D01*
G01X-3627Y-9275*
G01X-3610Y-9294*
G01X-3593Y-9332*
G01Y-9389*
G01X-3610Y-9427*
G01X-3627Y-9446*
G01X-3662Y-9465*
G01X-3799*
G01Y-9275D02*
G01X-3662D01*
G01X-3627Y-9294*
G01X-3610Y-9332*
G01Y-9389*
G01X-3627Y-9427*
G01X-3662Y-9446*
G01X-3799*
G01X-3542Y-9656D02*
G01X-3473Y-9256*
G01Y-9656D01*
G01Y-9256D02*
G01X-3456D01*
G01Y-9637*
G01X-3267*
G01Y-9656*
G01X-3473D02*
G01X-3267D01*
G01X-3250D02*
G01X-3079Y-9256*
G01X-3216Y-9656D01*
G01X-3079Y-9313D02*
G01X-3199Y-9656D01*
G01X-3216*
G01X-3079Y-9313D02*
G01X-2959Y-9656D01*
G01X-2942*
G01X-3079Y-9256D02*
G01X-2942Y-9656D01*
G01X-3164Y-9542D02*
G01X-2993D01*
G01X-3182Y-9561D02*
G01X-2976D01*
G01X-2907Y-9656D02*
G01X-2770Y-9275*
G01Y-9656D01*
G01X-2753Y-9275D02*
G01Y-9656D01*
G01X-2770*
G01X-2873Y-9256D02*
G01X-2650D01*
G01Y-9275*
G01X-2873Y-9256D02*
G01Y-9275D01*
G01X-2650*
G01X-2616Y-9656D02*
G01X-2547Y-9256*
G01Y-9656D01*
G01X-2530*
G01X-2547Y-9256D02*
G01X-2530D01*
G01Y-9656*
G01X-2462D02*
G01X-2393Y-9256*
G01Y-9656D01*
G01X-2376Y-9313D02*
G01Y-9656D01*
G01X-2393*
G01X-2376Y-9313D02*
G01X-2153Y-9656D01*
G01X-2393Y-9256D02*
G01X-2170Y-9599D01*
G01Y-9256D02*
G01Y-9599D01*
G01Y-9256D02*
G01X-2153D01*
G01Y-9656*
G01X-2084D02*
G01X-1776Y-9351*
G01X-1793Y-9313D01*
G01X-1827Y-9275*
G01X-1862Y-9256*
G01X-1930*
G01X-1964Y-9275*
G01X-1999Y-9313*
G01X-2016Y-9351*
G01X-2033Y-9408*
G01Y-9503*
G01X-2016Y-9561*
G01X-1999Y-9599*
G01X-1964Y-9637*
G01X-1930Y-9656*
G01X-1862*
G01X-1827Y-9637*
G01X-1793Y-9599*
G01X-1776Y-9561*
G01Y-9484*
G01X-1862*
G01X-1776Y-9351D02*
G01X-1793D01*
G01X-1810Y-9313*
G01X-1827Y-9294*
G01X-1862Y-9275*
G01X-1930*
G01X-1964Y-9294*
G01X-1982Y-9313*
G01X-1999Y-9351*
G01X-2016Y-9408*
G01Y-9503*
G01X-1999Y-9561*
G01X-1982Y-9599*
G01X-1964Y-9618*
G01X-1930Y-9637*
G01X-1862*
G01X-1827Y-9618*
G01X-1810Y-9599*
G01X-1793Y-9561*
G01Y-9503*
G01X-1862*
G01Y-9484*
G01X-1724Y-9656D02*
G01X-1639Y-9256*
G01Y-9522D01*
G01X-1622*
G01X-1639Y-9256D02*
G01X-1622D01*
G01Y-9522*
G01X-1639Y-9599D02*
G01X-1656Y-9618D01*
G01Y-9637*
G01X-1639Y-9656*
G01X-1622*
G01X-1604Y-9637*
G01Y-9618*
G01X-1622Y-9599*
G01X-1639*
G01Y-9618D02*
G01Y-9637D01*
G01X-1622*
G01Y-9618*
G01X-1639*
G01X-1536Y-9656D02*
G01X-7099Y-9056D02*
G01X-6944Y-8656*
G01X-6979Y-8675D01*
G01X-7013Y-8713*
G01X-7030Y-8751*
G01X-7047Y-8808*
G01Y-8903*
G01X-7030Y-8961*
G01X-7013Y-8999*
G01X-6979Y-9037*
G01X-6944Y-9056*
G01X-6876*
G01X-6842Y-9037*
G01X-6807Y-8999*
G01X-6790Y-8961*
G01X-6773Y-8903*
G01Y-8808*
G01X-6790Y-8751*
G01X-6807Y-8713*
G01X-6842Y-8675*
G01X-6876Y-8656*
G01X-6944*
G01X-6927Y-8675D02*
G01X-6979Y-8694D01*
G01X-7013Y-8751*
G01X-7030Y-8808*
G01Y-8903*
G01X-7013Y-8961*
G01X-6979Y-9018*
G01X-6927Y-9037*
G01X-6893*
G01X-6842Y-9018*
G01X-6807Y-8961*
G01X-6790Y-8903*
G01Y-8808*
G01X-6807Y-8751*
G01X-6842Y-8694*
G01X-6893Y-8675*
G01X-6927*
G01X-6722Y-9056D02*
G01X-6653Y-8656*
G01Y-9056D01*
G01X-6636*
G01X-6653Y-8656D02*
G01X-6636D01*
G01Y-9056*
G01X-6413Y-8656D02*
G01X-6430D01*
G01X-6636Y-8884*
G01X-6413Y-8656D02*
G01X-6636Y-8903D01*
G01X-6584Y-8827D02*
G01X-6430Y-9056D01*
G01X-6413*
G01X-6567Y-8827D02*
G01X-6413Y-9056D01*
G01X-6362D02*
G01X-6002*
G01X-5933Y-8656*
G01Y-9056D01*
G01X-5916*
G01X-5933Y-8656D02*
G01X-5916D01*
G01Y-9056*
G01X-5847D02*
G01X-5779Y-8656*
G01Y-9056D01*
G01X-5762Y-8675D02*
G01Y-9056D01*
G01X-5779*
G01Y-8656D02*
G01X-5573D01*
G01X-5762Y-8675D02*
G01X-5573D01*
G01Y-8656*
G01X-5762Y-8846D02*
G01X-5659D01*
G01Y-8865*
G01X-5762D02*
G01X-5659D01*
G01X-5539Y-9056D02*
G01X-5179*
G01X-5042Y-8675*
G01Y-9056D01*
G01X-5024Y-8675D02*
G01Y-9056D01*
G01X-5042*
G01X-5144Y-8656D02*
G01X-4922D01*
G01Y-8675*
G01X-5144Y-8656D02*
G01Y-8675D01*
G01X-4922*
G01X-4887Y-9056D02*
G01X-4819Y-8656*
G01Y-9056D01*
G01X-4802Y-8675D02*
G01Y-9056D01*
G01X-4819*
G01Y-8656D02*
G01X-4682D01*
G01X-4630Y-8675*
G01X-4613Y-8694*
G01X-4596Y-8732*
G01Y-8789*
G01X-4613Y-8827*
G01X-4630Y-8846*
G01X-4682Y-8865*
G01X-4802*
G01Y-8675D02*
G01X-4682D01*
G01X-4630Y-8694*
G01X-4613Y-8732*
G01Y-8789*
G01X-4630Y-8827*
G01X-4682Y-8846*
G01X-4802*
G01X-4716Y-8865D02*
G01X-4613Y-9056D01*
G01X-4596*
G01X-4699Y-8865D02*
G01X-4596Y-9056D01*
G01X-4544D02*
G01X-4373Y-8656*
G01X-4510Y-9056D01*
G01X-4373Y-8713D02*
G01X-4493Y-9056D01*
G01X-4510*
G01X-4373Y-8713D02*
G01X-4253Y-9056D01*
G01X-4236*
G01X-4373Y-8656D02*
G01X-4236Y-9056D01*
G01X-4459Y-8942D02*
G01X-4287D01*
G01X-4476Y-8961D02*
G01X-4270D01*
G01X-4202Y-9056D02*
G01X-3893Y-8751*
G01X-3910Y-8713D01*
G01X-3944Y-8675*
G01X-3979Y-8656*
G01X-4047*
G01X-4082Y-8675*
G01X-4116Y-8713*
G01X-4133Y-8751*
G01X-4150Y-8808*
G01Y-8903*
G01X-4133Y-8961*
G01X-4116Y-8999*
G01X-4082Y-9037*
G01X-4047Y-9056*
G01X-3979*
G01X-3944Y-9037*
G01X-3910Y-8999*
G01X-3893Y-8961*
G01Y-8751D02*
G01X-3910D01*
G01X-3927Y-8713*
G01X-3944Y-8694*
G01X-3979Y-8675*
G01X-4047*
G01X-4082Y-8694*
G01X-4116Y-8751*
G01X-4133Y-8808*
G01Y-8903*
G01X-4116Y-8961*
G01X-4082Y-9018*
G01X-4047Y-9037*
G01X-3979*
G01X-3944Y-9018*
G01X-3927Y-8999*
G01X-3910Y-8961*
G01X-3893*
G01X-3842Y-9056D02*
G01X-3773Y-8656*
G01Y-9056D01*
G01X-3756Y-8675D02*
G01Y-9037D01*
G01X-3773Y-8656D02*
G01X-3567D01*
G01X-3756Y-8675D02*
G01X-3567D01*
G01Y-8656*
G01X-3756Y-8846D02*
G01X-3653D01*
G01Y-8865*
G01X-3756D02*
G01X-3653D01*
G01X-3756Y-9037D02*
G01X-3567D01*
G01Y-9056*
G01X-3773D02*
G01X-3567D01*
G01X-3516D02*
G01X-3156*
G01X-2864Y-8713*
G01X-2899Y-8675D01*
G01X-2950Y-8656*
G01X-3019*
G01X-3070Y-8675*
G01X-3104Y-8713*
G01Y-8751*
G01X-3087Y-8789*
G01X-3070Y-8808*
G01X-3036Y-8827*
G01X-2950Y-8865*
G01X-2916Y-8884*
G01X-2899Y-8903*
G01X-2882Y-8942*
G01Y-8999*
G01X-2899Y-9018*
G01X-2950Y-9037*
G01X-3019*
G01X-3053Y-9018*
G01X-3070Y-8999*
G01X-3104*
G01X-2864Y-8713D02*
G01X-2899D01*
G01X-2916Y-8694*
G01X-2950Y-8675*
G01X-3019*
G01X-3070Y-8694*
G01X-3087Y-8713*
G01Y-8751*
G01X-3070Y-8789*
G01X-3036Y-8808*
G01X-2950Y-8846*
G01X-2916Y-8865*
G01X-2882Y-8903*
G01X-2864Y-8942*
G01Y-8999*
G01X-2899Y-9037*
G01X-2950Y-9056*
G01X-3019*
G01X-3070Y-9037*
G01X-3104Y-8999*
G01X-2813Y-9056D02*
G01X-2744Y-8656*
G01Y-9056D01*
G01Y-8656D02*
G01X-2727D01*
G01Y-9056*
G01X-2744*
G01X-2504Y-8656D02*
G01X-2522D01*
G01Y-9056*
G01X-2504*
G01Y-8656D02*
G01Y-9056D01*
G01X-2727Y-8846D02*
G01X-2522D01*
G01X-2727Y-8865D02*
G01X-2522D01*
G01X-2436Y-9056D02*
G01X-2282Y-8656*
G01X-2316Y-8675D01*
G01X-2350Y-8713*
G01X-2367Y-8751*
G01X-2384Y-8808*
G01Y-8903*
G01X-2367Y-8961*
G01X-2350Y-8999*
G01X-2316Y-9037*
G01X-2282Y-9056*
G01X-2213*
G01X-2179Y-9037*
G01X-2144Y-8999*
G01X-2127Y-8961*
G01X-2110Y-8903*
G01Y-8808*
G01X-2127Y-8751*
G01X-2144Y-8713*
G01X-2179Y-8675*
G01X-2213Y-8656*
G01X-2282*
G01X-2264Y-8675D02*
G01X-2316Y-8694D01*
G01X-2350Y-8751*
G01X-2367Y-8808*
G01Y-8903*
G01X-2350Y-8961*
G01X-2316Y-9018*
G01X-2264Y-9037*
G01X-2230*
G01X-2179Y-9018*
G01X-2144Y-8961*
G01X-2127Y-8903*
G01Y-8808*
G01X-2144Y-8751*
G01X-2179Y-8694*
G01X-2230Y-8675*
G01X-2264*
G01X-2059Y-9056D02*
G01X-1990Y-8656*
G01Y-9056D01*
G01X-1973Y-8675D02*
G01Y-9056D01*
G01X-1990*
G01Y-8656D02*
G01X-1853D01*
G01X-1802Y-8675*
G01X-1784Y-8694*
G01X-1767Y-8732*
G01Y-8789*
G01X-1784Y-8827*
G01X-1802Y-8846*
G01X-1853Y-8865*
G01X-1973*
G01Y-8675D02*
G01X-1853D01*
G01X-1802Y-8694*
G01X-1784Y-8732*
G01Y-8789*
G01X-1802Y-8827*
G01X-1853Y-8846*
G01X-1973*
G01X-1887Y-8865D02*
G01X-1784Y-9056D01*
G01X-1767*
G01X-1870Y-8865D02*
G01X-1767Y-9056D01*
G01X-1716D02*
G01X-1579Y-8675*
G01Y-9056D01*
G01X-1562Y-8675D02*
G01Y-9056D01*
G01X-1579*
G01X-1682Y-8656D02*
G01X-1459D01*
G01Y-8675*
G01X-1682Y-8656D02*
G01Y-8675D01*
G01X-1459*
G01X-1424Y-9056D02*
G01X-1133Y-8713*
G01X-1167Y-8675D01*
G01X-1219Y-8656*
G01X-1287*
G01X-1339Y-8675*
G01X-1373Y-8713*
G01Y-8751*
G01X-1356Y-8789*
G01X-1339Y-8808*
G01X-1304Y-8827*
G01X-1219Y-8865*
G01X-1184Y-8884*
G01X-1167Y-8903*
G01X-1150Y-8942*
G01Y-8999*
G01X-1167Y-9018*
G01X-1219Y-9037*
G01X-1287*
G01X-1322Y-9018*
G01X-1339Y-8999*
G01X-1373*
G01X-1133Y-8713D02*
G01X-1167D01*
G01X-1184Y-8694*
G01X-1219Y-8675*
G01X-1287*
G01X-1339Y-8694*
G01X-1356Y-8713*
G01Y-8751*
G01X-1339Y-8789*
G01X-1304Y-8808*
G01X-1219Y-8846*
G01X-1184Y-8865*
G01X-1150Y-8903*
G01X-1133Y-8942*
G01Y-8999*
G01X-1167Y-9037*
G01X-1219Y-9056*
G01X-1287*
G01X-1339Y-9037*
G01X-1373Y-8999*
G01X-1082Y-9056D02*
G01X-722*
G01X-584Y-8675*
G01Y-9056D01*
G01X-567Y-8675D02*
G01Y-9056D01*
G01X-584*
G01X-687Y-8656D02*
G01X-464D01*
G01Y-8675*
G01X-687Y-8656D02*
G01Y-8675D01*
G01X-464*
G01X-430Y-9056D02*
G01X-276Y-8656*
G01X-310Y-8675D01*
G01X-344Y-8713*
G01X-362Y-8751*
G01X-379Y-8808*
G01Y-8903*
G01X-362Y-8961*
G01X-344Y-8999*
G01X-310Y-9037*
G01X-276Y-9056*
G01X-207*
G01X-173Y-9037*
G01X-139Y-8999*
G01X-122Y-8961*
G01X-104Y-8903*
G01Y-8808*
G01X-122Y-8751*
G01X-139Y-8713*
G01X-173Y-8675*
G01X-207Y-8656*
G01X-276*
G01X-259Y-8675D02*
G01X-310Y-8694D01*
G01X-344Y-8751*
G01X-362Y-8808*
G01Y-8903*
G01X-344Y-8961*
G01X-310Y-9018*
G01X-259Y-9037*
G01X-224*
G01X-173Y-9018*
G01X-139Y-8961*
G01X-122Y-8903*
G01Y-8808*
G01X-139Y-8751*
G01X-173Y-8694*
G01X-224Y-8675*
G01X-259*
G01X-53Y-9056D02*
G01X-6970Y-8456D02*
G01X-6799Y-8056*
G01X-6936Y-8456D01*
G01X-6799Y-8113D02*
G01X-6919Y-8456D01*
G01X-6936*
G01X-6799Y-8113D02*
G01X-6679Y-8456D01*
G01X-6662*
G01X-6799Y-8056D02*
G01X-6662Y-8456D01*
G01X-6884Y-8342D02*
G01X-6713D01*
G01X-6902Y-8361D02*
G01X-6696D01*
G01X-6627Y-8456D02*
G01X-6559Y-8056*
G01Y-8456D01*
G01X-6542Y-8075D02*
G01Y-8456D01*
G01X-6559*
G01Y-8056D02*
G01X-6422D01*
G01X-6370Y-8075*
G01X-6353Y-8094*
G01X-6336Y-8132*
G01Y-8189*
G01X-6353Y-8227*
G01X-6370Y-8246*
G01X-6422Y-8265*
G01X-6542*
G01Y-8075D02*
G01X-6422D01*
G01X-6370Y-8094*
G01X-6353Y-8132*
G01Y-8189*
G01X-6370Y-8227*
G01X-6422Y-8246*
G01X-6542*
G01X-6456Y-8265D02*
G01X-6353Y-8456D01*
G01X-6336*
G01X-6439Y-8265D02*
G01X-6336Y-8456D01*
G01X-6284D02*
G01X-6147Y-8075*
G01Y-8456D01*
G01X-6130Y-8075D02*
G01Y-8456D01*
G01X-6147*
G01X-6250Y-8056D02*
G01X-6027D01*
G01Y-8075*
G01X-6250Y-8056D02*
G01Y-8075D01*
G01X-6027*
G01X-5993Y-8456D02*
G01X-5959Y-8056*
G01X-5856Y-8456D01*
G01X-5959Y-8056D02*
G01X-5942D01*
G01X-5856Y-8399*
G01X-5770Y-8056D02*
G01X-5856Y-8399D01*
G01X-5770Y-8113D02*
G01X-5856Y-8456D01*
G01X-5770Y-8113D02*
G01X-5684Y-8456D01*
G01X-5770Y-8056D02*
G01X-5684Y-8399D01*
G01X-5582Y-8056D02*
G01X-5599D01*
G01X-5684Y-8399*
G01X-5582Y-8056D02*
G01X-5684Y-8456D01*
G01X-5547D02*
G01X-5393Y-8056*
G01X-5427Y-8075D01*
G01X-5462Y-8113*
G01X-5479Y-8151*
G01X-5496Y-8208*
G01Y-8303*
G01X-5479Y-8361*
G01X-5462Y-8399*
G01X-5427Y-8437*
G01X-5393Y-8456*
G01X-5324*
G01X-5290Y-8437*
G01X-5256Y-8399*
G01X-5239Y-8361*
G01X-5222Y-8303*
G01Y-8208*
G01X-5239Y-8151*
G01X-5256Y-8113*
G01X-5290Y-8075*
G01X-5324Y-8056*
G01X-5393*
G01X-5376Y-8075D02*
G01X-5427Y-8094D01*
G01X-5462Y-8151*
G01X-5479Y-8208*
G01Y-8303*
G01X-5462Y-8361*
G01X-5427Y-8418*
G01X-5376Y-8437*
G01X-5342*
G01X-5290Y-8418*
G01X-5256Y-8361*
G01X-5239Y-8303*
G01Y-8208*
G01X-5256Y-8151*
G01X-5290Y-8094*
G01X-5342Y-8075*
G01X-5376*
G01X-5170Y-8456D02*
G01X-5102Y-8056*
G01Y-8456D01*
G01X-5084Y-8075D02*
G01Y-8456D01*
G01X-5102*
G01Y-8056D02*
G01X-4964D01*
G01X-4913Y-8075*
G01X-4896Y-8094*
G01X-4879Y-8132*
G01Y-8189*
G01X-4896Y-8227*
G01X-4913Y-8246*
G01X-4964Y-8265*
G01X-5084*
G01Y-8075D02*
G01X-4964D01*
G01X-4913Y-8094*
G01X-4896Y-8132*
G01Y-8189*
G01X-4913Y-8227*
G01X-4964Y-8246*
G01X-5084*
G01X-4999Y-8265D02*
G01X-4896Y-8456D01*
G01X-4879*
G01X-4982Y-8265D02*
G01X-4879Y-8456D01*
G01X-4827D02*
G01X-4759Y-8056*
G01Y-8456D01*
G01X-4742*
G01X-4759Y-8056D02*
G01X-4742D01*
G01Y-8456*
G01X-4519Y-8056D02*
G01X-4536D01*
G01X-4742Y-8284*
G01X-4519Y-8056D02*
G01X-4742Y-8303D01*
G01X-4690Y-8227D02*
G01X-4536Y-8456D01*
G01X-4519*
G01X-4673Y-8227D02*
G01X-4519Y-8456D01*
G01X-4467D02*
G01X-4107*
G01X-4039Y-8056*
G01Y-8456D01*
G01X-4022*
G01X-4039Y-8056D02*
G01X-4022D01*
G01Y-8456*
G01X-3953D02*
G01X-3884Y-8056*
G01Y-8456D01*
G01X-3867Y-8113D02*
G01Y-8456D01*
G01X-3884*
G01X-3867Y-8113D02*
G01X-3644Y-8456D01*
G01X-3884Y-8056D02*
G01X-3662Y-8399D01*
G01Y-8056D02*
G01Y-8399D01*
G01Y-8056D02*
G01X-3644D01*
G01Y-8456*
G01X-3576D02*
G01X-3216*
G01X-3079Y-8075*
G01Y-8456D01*
G01X-3062Y-8075D02*
G01Y-8456D01*
G01X-3079*
G01X-3182Y-8056D02*
G01X-2959D01*
G01Y-8075*
G01X-3182Y-8056D02*
G01Y-8075D01*
G01X-2959*
G01X-2924Y-8456D02*
G01X-2856Y-8056*
G01Y-8456D01*
G01Y-8056D02*
G01X-2839D01*
G01Y-8456*
G01X-2856*
G01X-2616Y-8056D02*
G01X-2633D01*
G01Y-8456*
G01X-2616*
G01Y-8056D02*
G01Y-8456D01*
G01X-2839Y-8246D02*
G01X-2633D01*
G01X-2839Y-8265D02*
G01X-2633D01*
G01X-2547Y-8456D02*
G01X-2479Y-8056*
G01Y-8456D01*
G01X-2462*
G01X-2479Y-8056D02*
G01X-2462D01*
G01Y-8456*
G01X-2393D02*
G01X-2102Y-8113*
G01X-2136Y-8075D01*
G01X-2187Y-8056*
G01X-2256*
G01X-2307Y-8075*
G01X-2342Y-8113*
G01Y-8151*
G01X-2324Y-8189*
G01X-2307Y-8208*
G01X-2273Y-8227*
G01X-2187Y-8265*
G01X-2153Y-8284*
G01X-2136Y-8303*
G01X-2119Y-8342*
G01Y-8399*
G01X-2136Y-8418*
G01X-2187Y-8437*
G01X-2256*
G01X-2290Y-8418*
G01X-2307Y-8399*
G01X-2342*
G01X-2102Y-8113D02*
G01X-2136D01*
G01X-2153Y-8094*
G01X-2187Y-8075*
G01X-2256*
G01X-2307Y-8094*
G01X-2324Y-8113*
G01Y-8151*
G01X-2307Y-8189*
G01X-2273Y-8208*
G01X-2187Y-8246*
G01X-2153Y-8265*
G01X-2119Y-8303*
G01X-2102Y-8342*
G01Y-8399*
G01X-2136Y-8437*
G01X-2187Y-8456*
G01X-2256*
G01X-2307Y-8437*
G01X-2342Y-8399*
G01X-2050Y-8456D02*
G01X-1690*
G01X-1519Y-8056*
G01X-1656Y-8456D01*
G01X-1519Y-8113D02*
G01X-1639Y-8456D01*
G01X-1656*
G01X-1519Y-8113D02*
G01X-1399Y-8456D01*
G01X-1382*
G01X-1519Y-8056D02*
G01X-1382Y-8456D01*
G01X-1604Y-8342D02*
G01X-1433D01*
G01X-1622Y-8361D02*
G01X-1416D01*
G01X-1347Y-8456D02*
G01X-1279Y-8056*
G01Y-8456D01*
G01X-1262Y-8075D02*
G01Y-8456D01*
G01X-1279*
G01Y-8056D02*
G01X-1142D01*
G01X-1090Y-8075*
G01X-1073Y-8094*
G01X-1056Y-8132*
G01Y-8189*
G01X-1073Y-8227*
G01X-1090Y-8246*
G01X-1142Y-8265*
G01X-1262*
G01Y-8075D02*
G01X-1142D01*
G01X-1090Y-8094*
G01X-1073Y-8132*
G01Y-8189*
G01X-1090Y-8227*
G01X-1142Y-8246*
G01X-1262*
G01X-1176Y-8265D02*
G01X-1073Y-8456D01*
G01X-1056*
G01X-1159Y-8265D02*
G01X-1056Y-8456D01*
G01X-1004D02*
G01X-936Y-8056*
G01Y-8456D01*
G01X-919Y-8075D02*
G01Y-8437D01*
G01X-936Y-8056D02*
G01X-730D01*
G01X-919Y-8075D02*
G01X-730D01*
G01Y-8056*
G01X-919Y-8246D02*
G01X-816D01*
G01Y-8265*
G01X-919D02*
G01X-816D01*
G01X-919Y-8437D02*
G01X-730D01*
G01Y-8456*
G01X-936D02*
G01X-730D01*
G01X-679D02*
G01X-507Y-8056*
G01X-644Y-8456D01*
G01X-507Y-8113D02*
G01X-627Y-8456D01*
G01X-644*
G01X-507Y-8113D02*
G01X-387Y-8456D01*
G01X-370*
G01X-507Y-8056D02*
G01X-370Y-8456D01*
G01X-593Y-8342D02*
G01X-422D01*
G01X-610Y-8361D02*
G01X-404D01*
G01X-336Y-8456D02*
G01X-216Y-8437*
G01X-233Y-8456D01*
G01X-250*
G01X-267Y-8437*
G01Y-8418*
G01X-250Y-8399*
G01X-233*
G01X-216Y-8418*
G01Y-8475*
G01X-233Y-8513*
G01X-267Y-8532*
G01X-250Y-8418D02*
G01Y-8437D01*
G01X-233*
G01Y-8418*
G01X-250*
G01X-233Y-8456D02*
G01X-216Y-8475D01*
G01Y-8437D02*
G01X-233Y-8513D01*
G01X-147Y-8456D02*
G01X-6867Y-7856D02*
G01X-6799Y-7456*
G01Y-7856D01*
G01X-6782Y-7475D02*
G01Y-7837D01*
G01X-6799Y-7456D02*
G01X-6679D01*
G01X-6627Y-7475*
G01X-6593Y-7513*
G01X-6576Y-7551*
G01X-6559Y-7608*
G01Y-7703*
G01X-6576Y-7761*
G01X-6593Y-7799*
G01X-6627Y-7837*
G01X-6679Y-7856*
G01X-6799*
G01X-6782Y-7475D02*
G01X-6679D01*
G01X-6627Y-7494*
G01X-6610Y-7513*
G01X-6593Y-7551*
G01X-6576Y-7608*
G01Y-7703*
G01X-6593Y-7761*
G01X-6610Y-7799*
G01X-6627Y-7818*
G01X-6679Y-7837*
G01X-6782*
G01X-6507Y-7856D02*
G01X-6353Y-7456*
G01X-6387Y-7475D01*
G01X-6422Y-7513*
G01X-6439Y-7551*
G01X-6456Y-7608*
G01Y-7703*
G01X-6439Y-7761*
G01X-6422Y-7799*
G01X-6387Y-7837*
G01X-6353Y-7856*
G01X-6284*
G01X-6250Y-7837*
G01X-6216Y-7799*
G01X-6199Y-7761*
G01X-6182Y-7703*
G01Y-7608*
G01X-6199Y-7551*
G01X-6216Y-7513*
G01X-6250Y-7475*
G01X-6284Y-7456*
G01X-6353*
G01X-6336Y-7475D02*
G01X-6387Y-7494D01*
G01X-6422Y-7551*
G01X-6439Y-7608*
G01Y-7703*
G01X-6422Y-7761*
G01X-6387Y-7818*
G01X-6336Y-7837*
G01X-6302*
G01X-6250Y-7818*
G01X-6216Y-7761*
G01X-6199Y-7703*
G01Y-7608*
G01X-6216Y-7551*
G01X-6250Y-7494*
G01X-6302Y-7475*
G01X-6336*
G01X-6130Y-7856D02*
G01X-5770*
G01X-5702Y-7456*
G01Y-7856D01*
G01X-5684Y-7513D02*
G01Y-7856D01*
G01X-5702*
G01X-5684Y-7513D02*
G01X-5462Y-7856D01*
G01X-5702Y-7456D02*
G01X-5479Y-7799D01*
G01Y-7456D02*
G01Y-7799D01*
G01Y-7456D02*
G01X-5462D01*
G01Y-7856*
G01X-5393D02*
G01X-5239Y-7456*
G01X-5273Y-7475D01*
G01X-5307Y-7513*
G01X-5324Y-7551*
G01X-5342Y-7608*
G01Y-7703*
G01X-5324Y-7761*
G01X-5307Y-7799*
G01X-5273Y-7837*
G01X-5239Y-7856*
G01X-5170*
G01X-5136Y-7837*
G01X-5102Y-7799*
G01X-5084Y-7761*
G01X-5067Y-7703*
G01Y-7608*
G01X-5084Y-7551*
G01X-5102Y-7513*
G01X-5136Y-7475*
G01X-5170Y-7456*
G01X-5239*
G01X-5222Y-7475D02*
G01X-5273Y-7494D01*
G01X-5307Y-7551*
G01X-5324Y-7608*
G01Y-7703*
G01X-5307Y-7761*
G01X-5273Y-7818*
G01X-5222Y-7837*
G01X-5187*
G01X-5136Y-7818*
G01X-5102Y-7761*
G01X-5084Y-7703*
G01Y-7608*
G01X-5102Y-7551*
G01X-5136Y-7494*
G01X-5187Y-7475*
G01X-5222*
G01X-5016Y-7856D02*
G01X-4879Y-7475*
G01Y-7856D01*
G01X-4862Y-7475D02*
G01Y-7856D01*
G01X-4879*
G01X-4982Y-7456D02*
G01X-4759D01*
G01Y-7475*
G01X-4982Y-7456D02*
G01Y-7475D01*
G01X-4759*
G01X-4725Y-7856D02*
G01X-4365*
G01X-4193Y-7456*
G01X-4330Y-7856D01*
G01X-4193Y-7513D02*
G01X-4313Y-7856D01*
G01X-4330*
G01X-4193Y-7513D02*
G01X-4073Y-7856D01*
G01X-4056*
G01X-4193Y-7456D02*
G01X-4056Y-7856D01*
G01X-4279Y-7742D02*
G01X-4107D01*
G01X-4296Y-7761D02*
G01X-4090D01*
G01X-4022Y-7856D02*
G01X-3953Y-7456*
G01Y-7856D01*
G01X-3936Y-7475D02*
G01Y-7837D01*
G01X-3953Y-7456D02*
G01X-3833D01*
G01X-3782Y-7475*
G01X-3747Y-7513*
G01X-3730Y-7551*
G01X-3713Y-7608*
G01Y-7703*
G01X-3730Y-7761*
G01X-3747Y-7799*
G01X-3782Y-7837*
G01X-3833Y-7856*
G01X-3953*
G01X-3936Y-7475D02*
G01X-3833D01*
G01X-3782Y-7494*
G01X-3764Y-7513*
G01X-3747Y-7551*
G01X-3730Y-7608*
G01Y-7703*
G01X-3747Y-7761*
G01X-3764Y-7799*
G01X-3782Y-7818*
G01X-3833Y-7837*
G01X-3936*
G01X-3662Y-7856D02*
G01X-3456Y-7456*
G01Y-7761D01*
G01X-3473Y-7818*
G01X-3507Y-7837*
G01X-3542*
G01X-3576Y-7818*
G01X-3593Y-7761*
G01X-3610*
G01X-3456Y-7456D02*
G01X-3439D01*
G01Y-7761*
G01X-3456Y-7818*
G01X-3473Y-7837*
G01X-3507Y-7856*
G01X-3542*
G01X-3576Y-7837*
G01X-3593Y-7818*
G01X-3610Y-7761*
G01X-3370Y-7856D02*
G01X-3302Y-7456*
G01Y-7742D01*
G01X-3284Y-7799*
G01X-3250Y-7837*
G01X-3199Y-7856*
G01X-3164*
G01X-3113Y-7837*
G01X-3079Y-7799*
G01X-3062Y-7742*
G01Y-7456*
G01X-3302D02*
G01X-3284D01*
G01Y-7742*
G01X-3267Y-7799*
G01X-3250Y-7818*
G01X-3199Y-7837*
G01X-3164*
G01X-3113Y-7818*
G01X-3096Y-7799*
G01X-3079Y-7742*
G01Y-7456*
G01X-3062*
G01X-2993Y-7856D02*
G01X-2702Y-7513*
G01X-2736Y-7475D01*
G01X-2787Y-7456*
G01X-2856*
G01X-2907Y-7475*
G01X-2942Y-7513*
G01Y-7551*
G01X-2924Y-7589*
G01X-2907Y-7608*
G01X-2873Y-7627*
G01X-2787Y-7665*
G01X-2753Y-7684*
G01X-2736Y-7703*
G01X-2719Y-7742*
G01Y-7799*
G01X-2736Y-7818*
G01X-2787Y-7837*
G01X-2856*
G01X-2890Y-7818*
G01X-2907Y-7799*
G01X-2942*
G01X-2702Y-7513D02*
G01X-2736D01*
G01X-2753Y-7494*
G01X-2787Y-7475*
G01X-2856*
G01X-2907Y-7494*
G01X-2924Y-7513*
G01Y-7551*
G01X-2907Y-7589*
G01X-2873Y-7608*
G01X-2787Y-7646*
G01X-2753Y-7665*
G01X-2719Y-7703*
G01X-2702Y-7742*
G01Y-7799*
G01X-2736Y-7837*
G01X-2787Y-7856*
G01X-2856*
G01X-2907Y-7837*
G01X-2942Y-7799*
G01X-2650Y-7856D02*
G01X-2513Y-7475*
G01Y-7856D01*
G01X-2496Y-7475D02*
G01Y-7856D01*
G01X-2513*
G01X-2616Y-7456D02*
G01X-2393D01*
G01Y-7475*
G01X-2616Y-7456D02*
G01Y-7475D01*
G01X-2393*
G01X-2359Y-7856D02*
G01X-1999*
G01X-1930Y-7456*
G01Y-7856D01*
G01X-1913Y-7551D02*
G01Y-7856D01*
G01X-1930*
G01X-1913Y-7551D02*
G01X-1793Y-7856D01*
G01X-1930Y-7456D02*
G01X-1793Y-7799D01*
G01X-1656Y-7456D02*
G01X-1793Y-7799D01*
G01X-1673Y-7551D02*
G01X-1793Y-7856D01*
G01X-1673Y-7551D02*
G01Y-7856D01*
G01X-1656*
G01Y-7456D02*
G01Y-7856D01*
G01X-1587D02*
G01X-1519Y-7456*
G01Y-7856D01*
G01X-1502Y-7475D02*
G01Y-7837D01*
G01X-1519Y-7456D02*
G01X-1313D01*
G01X-1502Y-7475D02*
G01X-1313D01*
G01Y-7456*
G01X-1502Y-7646D02*
G01X-1399D01*
G01Y-7665*
G01X-1502D02*
G01X-1399D01*
G01X-1502Y-7837D02*
G01X-1313D01*
G01Y-7856*
G01X-1519D02*
G01X-1313D01*
G01X-1262D02*
G01X-1124Y-7475*
G01Y-7856D01*
G01X-1107Y-7475D02*
G01Y-7856D01*
G01X-1124*
G01X-1227Y-7456D02*
G01X-1004D01*
G01Y-7475*
G01X-1227Y-7456D02*
G01Y-7475D01*
G01X-1004*
G01X-970Y-7856D02*
G01X-799Y-7456*
G01X-936Y-7856D01*
G01X-799Y-7513D02*
G01X-919Y-7856D01*
G01X-936*
G01X-799Y-7513D02*
G01X-679Y-7856D01*
G01X-662*
G01X-799Y-7456D02*
G01X-662Y-7856D01*
G01X-884Y-7742D02*
G01X-713D01*
G01X-902Y-7761D02*
G01X-696D01*
G01X-627Y-7856D02*
G01X-559Y-7456*
G01Y-7856D01*
G01Y-7456D02*
G01X-542D01*
G01Y-7837*
G01X-353*
G01Y-7856*
G01X-559D02*
G01X-353D01*
G01X-336D02*
G01X9025Y-3993D02*
G01X9093Y-3593*
G01Y-3993D01*
G01X9111Y-3612D02*
G01Y-3974D01*
G01X9093Y-3593D02*
G01X9299D01*
G01X9111Y-3612D02*
G01X9299D01*
G01Y-3593*
G01X9111Y-3783D02*
G01X9213D01*
G01Y-3802*
G01X9111D02*
G01X9213D01*
G01X9111Y-3974D02*
G01X9299D01*
G01Y-3993*
G01X9093D02*
G01X9299D01*
G01X9351D02*
G01X9419Y-3593*
G01Y-3993D01*
G01X9436Y-3612D02*
G01Y-3974D01*
G01X9419Y-3593D02*
G01X9539D01*
G01X9591Y-3612*
G01X9625Y-3650*
G01X9642Y-3688*
G01X9659Y-3745*
G01Y-3841*
G01X9642Y-3898*
G01X9625Y-3936*
G01X9591Y-3974*
G01X9539Y-3993*
G01X9419*
G01X9436Y-3612D02*
G01X9539D01*
G01X9591Y-3631*
G01X9608Y-3650*
G01X9625Y-3688*
G01X9642Y-3745*
G01Y-3841*
G01X9625Y-3898*
G01X9608Y-3936*
G01X9591Y-3955*
G01X9539Y-3974*
G01X9436*
G01X9711Y-3993D02*
G01X10019Y-3688*
G01X10002Y-3650D01*
G01X9968Y-3612*
G01X9933Y-3593*
G01X9865*
G01X9831Y-3612*
G01X9796Y-3650*
G01X9779Y-3688*
G01X9762Y-3745*
G01Y-3841*
G01X9779Y-3898*
G01X9796Y-3936*
G01X9831Y-3974*
G01X9865Y-3993*
G01X9933*
G01X9968Y-3974*
G01X10002Y-3936*
G01X10019Y-3898*
G01Y-3822*
G01X9933*
G01X10019Y-3688D02*
G01X10002D01*
G01X9985Y-3650*
G01X9968Y-3631*
G01X9933Y-3612*
G01X9865*
G01X9831Y-3631*
G01X9813Y-3650*
G01X9796Y-3688*
G01X9779Y-3745*
G01Y-3841*
G01X9796Y-3898*
G01X9813Y-3936*
G01X9831Y-3955*
G01X9865Y-3974*
G01X9933*
G01X9968Y-3955*
G01X9985Y-3936*
G01X10002Y-3898*
G01Y-3841*
G01X9933*
G01Y-3822*
G01X10071Y-3993D02*
G01X10139Y-3593*
G01Y-3993D01*
G01X10156Y-3612D02*
G01Y-3974D01*
G01X10139Y-3593D02*
G01X10345D01*
G01X10156Y-3612D02*
G01X10345D01*
G01Y-3593*
G01X10156Y-3783D02*
G01X10259D01*
G01Y-3802*
G01X10156D02*
G01X10259D01*
G01X10156Y-3974D02*
G01X10345D01*
G01Y-3993*
G01X10139D02*
G01X10345D01*
G01X10396D02*
G01X10756*
G01X10825Y-3593*
G01Y-3993D01*
G01X10842Y-3612D02*
G01Y-3993D01*
G01X10825*
G01Y-3593D02*
G01X10979D01*
G01X11013Y-3612*
G01X11031Y-3631*
G01X11048Y-3669*
G01Y-3726*
G01X11031Y-3764*
G01X11013Y-3783*
G01X10979Y-3802*
G01X10842*
G01Y-3612D02*
G01X10979D01*
G01X11013Y-3631*
G01X11031Y-3669*
G01Y-3726*
G01X11013Y-3764*
G01X10979Y-3783*
G01X10842*
G01X11099Y-3993D02*
G01X11168Y-3593*
G01Y-3993D01*
G01Y-3593D02*
G01X11185D01*
G01Y-3974*
G01X11373*
G01Y-3993*
G01X11168D02*
G01X11373D01*
G01X11391D02*
G01X11562Y-3593*
G01X11425Y-3993D01*
G01X11562Y-3650D02*
G01X11442Y-3993D01*
G01X11425*
G01X11562Y-3650D02*
G01X11682Y-3993D01*
G01X11699*
G01X11562Y-3593D02*
G01X11699Y-3993D01*
G01X11476Y-3879D02*
G01X11648D01*
G01X11459Y-3898D02*
G01X11665D01*
G01X11733Y-3993D02*
G01X11871Y-3612*
G01Y-3993D01*
G01X11888Y-3612D02*
G01Y-3993D01*
G01X11871*
G01X11768Y-3593D02*
G01X11991D01*
G01Y-3612*
G01X11768Y-3593D02*
G01Y-3612D01*
G01X11991*
G01X12025Y-3993D02*
G01X12093Y-3593*
G01Y-3993D01*
G01X12111*
G01X12093Y-3593D02*
G01X12111D01*
G01Y-3993*
G01X12179D02*
G01X12248Y-3593*
G01Y-3993D01*
G01X12265Y-3650D02*
G01Y-3993D01*
G01X12248*
G01X12265Y-3650D02*
G01X12488Y-3993D01*
G01X12248Y-3593D02*
G01X12471Y-3936D01*
G01Y-3593D02*
G01Y-3936D01*
G01Y-3593D02*
G01X12488D01*
G01Y-3993*
G01X12556D02*
G01X12865Y-3688*
G01X12848Y-3650D01*
G01X12813Y-3612*
G01X12779Y-3593*
G01X12711*
G01X12676Y-3612*
G01X12642Y-3650*
G01X12625Y-3688*
G01X12608Y-3745*
G01Y-3841*
G01X12625Y-3898*
G01X12642Y-3936*
G01X12676Y-3974*
G01X12711Y-3993*
G01X12779*
G01X12813Y-3974*
G01X12848Y-3936*
G01X12865Y-3898*
G01Y-3822*
G01X12779*
G01X12865Y-3688D02*
G01X12848D01*
G01X12831Y-3650*
G01X12813Y-3631*
G01X12779Y-3612*
G01X12711*
G01X12676Y-3631*
G01X12659Y-3650*
G01X12642Y-3688*
G01X12625Y-3745*
G01Y-3841*
G01X12642Y-3898*
G01X12659Y-3936*
G01X12676Y-3955*
G01X12711Y-3974*
G01X12779*
G01X12813Y-3955*
G01X12831Y-3936*
G01X12848Y-3898*
G01Y-3841*
G01X12779*
G01Y-3822*
G01X12916Y-3993D02*
G01X13002Y-3593*
G01Y-3860D01*
G01X13019*
G01X13002Y-3593D02*
G01X13019D01*
G01Y-3860*
G01X13002Y-3936D02*
G01X12985Y-3955D01*
G01Y-3974*
G01X13002Y-3993*
G01X13019*
G01X13036Y-3974*
G01Y-3955*
G01X13019Y-3936*
G01X13002*
G01Y-3955D02*
G01Y-3974D01*
G01X13019*
G01Y-3955*
G01X13002*
G01X13105Y-3993D02*
G01X7542Y-3393D02*
G01X7696Y-2993*
G01X7662Y-3012D01*
G01X7628Y-3050*
G01X7611Y-3088*
G01X7593Y-3145*
G01Y-3241*
G01X7611Y-3298*
G01X7628Y-3336*
G01X7662Y-3374*
G01X7696Y-3393*
G01X7765*
G01X7799Y-3374*
G01X7833Y-3336*
G01X7851Y-3298*
G01X7868Y-3241*
G01Y-3145*
G01X7851Y-3088*
G01X7833Y-3050*
G01X7799Y-3012*
G01X7765Y-2993*
G01X7696*
G01X7713Y-3012D02*
G01X7662Y-3031D01*
G01X7628Y-3088*
G01X7611Y-3145*
G01Y-3241*
G01X7628Y-3298*
G01X7662Y-3355*
G01X7713Y-3374*
G01X7748*
G01X7799Y-3355*
G01X7833Y-3298*
G01X7851Y-3241*
G01Y-3145*
G01X7833Y-3088*
G01X7799Y-3031*
G01X7748Y-3012*
G01X7713*
G01X7919Y-3393D02*
G01X7988Y-2993*
G01Y-3393D01*
G01X8005*
G01X7988Y-2993D02*
G01X8005D01*
G01Y-3393*
G01X8228Y-2993D02*
G01X8211D01*
G01X8005Y-3222*
G01X8228Y-2993D02*
G01X8005Y-3241D01*
G01X8056Y-3164D02*
G01X8211Y-3393D01*
G01X8228*
G01X8073Y-3164D02*
G01X8228Y-3393D01*
G01X8279D02*
G01X8639*
G01X8708Y-2993*
G01Y-3393D01*
G01X8725*
G01X8708Y-2993D02*
G01X8725D01*
G01Y-3393*
G01X8793D02*
G01X8862Y-2993*
G01Y-3393D01*
G01X8879Y-3012D02*
G01Y-3393D01*
G01X8862*
G01Y-2993D02*
G01X9068D01*
G01X8879Y-3012D02*
G01X9068D01*
G01Y-2993*
G01X8879Y-3183D02*
G01X8982D01*
G01Y-3202*
G01X8879D02*
G01X8982D01*
G01X9102Y-3393D02*
G01X9462*
G01X9599Y-3012*
G01Y-3393D01*
G01X9616Y-3012D02*
G01Y-3393D01*
G01X9599*
G01X9496Y-2993D02*
G01X9719D01*
G01Y-3012*
G01X9496Y-2993D02*
G01Y-3012D01*
G01X9719*
G01X9753Y-3393D02*
G01X9822Y-2993*
G01Y-3393D01*
G01X9839Y-3012D02*
G01Y-3393D01*
G01X9822*
G01Y-2993D02*
G01X9959D01*
G01X10011Y-3012*
G01X10028Y-3031*
G01X10045Y-3069*
G01Y-3126*
G01X10028Y-3164*
G01X10011Y-3183*
G01X9959Y-3202*
G01X9839*
G01Y-3012D02*
G01X9959D01*
G01X10011Y-3031*
G01X10028Y-3069*
G01Y-3126*
G01X10011Y-3164*
G01X9959Y-3183*
G01X9839*
G01X9925Y-3202D02*
G01X10028Y-3393D01*
G01X10045*
G01X9942Y-3202D02*
G01X10045Y-3393D01*
G01X10096D02*
G01X10268Y-2993*
G01X10131Y-3393D01*
G01X10268Y-3050D02*
G01X10148Y-3393D01*
G01X10131*
G01X10268Y-3050D02*
G01X10388Y-3393D01*
G01X10405*
G01X10268Y-2993D02*
G01X10405Y-3393D01*
G01X10182Y-3279D02*
G01X10353D01*
G01X10165Y-3298D02*
G01X10371D01*
G01X10439Y-3393D02*
G01X10748Y-3088*
G01X10731Y-3050D01*
G01X10696Y-3012*
G01X10662Y-2993*
G01X10593*
G01X10559Y-3012*
G01X10525Y-3050*
G01X10508Y-3088*
G01X10491Y-3145*
G01Y-3241*
G01X10508Y-3298*
G01X10525Y-3336*
G01X10559Y-3374*
G01X10593Y-3393*
G01X10662*
G01X10696Y-3374*
G01X10731Y-3336*
G01X10748Y-3298*
G01Y-3088D02*
G01X10731D01*
G01X10713Y-3050*
G01X10696Y-3031*
G01X10662Y-3012*
G01X10593*
G01X10559Y-3031*
G01X10525Y-3088*
G01X10508Y-3145*
G01Y-3241*
G01X10525Y-3298*
G01X10559Y-3355*
G01X10593Y-3374*
G01X10662*
G01X10696Y-3355*
G01X10713Y-3336*
G01X10731Y-3298*
G01X10748*
G01X10799Y-3393D02*
G01X10868Y-2993*
G01Y-3393D01*
G01X10885Y-3012D02*
G01Y-3374D01*
G01X10868Y-2993D02*
G01X11073D01*
G01X10885Y-3012D02*
G01X11073D01*
G01Y-2993*
G01X10885Y-3183D02*
G01X10988D01*
G01Y-3202*
G01X10885D02*
G01X10988D01*
G01X10885Y-3374D02*
G01X11073D01*
G01Y-3393*
G01X10868D02*
G01X11073D01*
G01X11125D02*
G01X11485*
G01X11776Y-3050*
G01X11742Y-3012D01*
G01X11691Y-2993*
G01X11622*
G01X11571Y-3012*
G01X11536Y-3050*
G01Y-3088*
G01X11553Y-3126*
G01X11571Y-3145*
G01X11605Y-3164*
G01X11691Y-3202*
G01X11725Y-3222*
G01X11742Y-3241*
G01X11759Y-3279*
G01Y-3336*
G01X11742Y-3355*
G01X11691Y-3374*
G01X11622*
G01X11588Y-3355*
G01X11571Y-3336*
G01X11536*
G01X11776Y-3050D02*
G01X11742D01*
G01X11725Y-3031*
G01X11691Y-3012*
G01X11622*
G01X11571Y-3031*
G01X11553Y-3050*
G01Y-3088*
G01X11571Y-3126*
G01X11605Y-3145*
G01X11691Y-3183*
G01X11725Y-3202*
G01X11759Y-3241*
G01X11776Y-3279*
G01Y-3336*
G01X11742Y-3374*
G01X11691Y-3393*
G01X11622*
G01X11571Y-3374*
G01X11536Y-3336*
G01X11828Y-3393D02*
G01X11896Y-2993*
G01Y-3393D01*
G01Y-2993D02*
G01X11913D01*
G01Y-3393*
G01X11896*
G01X12136Y-2993D02*
G01X12119D01*
G01Y-3393*
G01X12136*
G01Y-2993D02*
G01Y-3393D01*
G01X11913Y-3183D02*
G01X12119D01*
G01X11913Y-3202D02*
G01X12119D01*
G01X12205Y-3393D02*
G01X12359Y-2993*
G01X12325Y-3012D01*
G01X12291Y-3050*
G01X12273Y-3088*
G01X12256Y-3145*
G01Y-3241*
G01X12273Y-3298*
G01X12291Y-3336*
G01X12325Y-3374*
G01X12359Y-3393*
G01X12428*
G01X12462Y-3374*
G01X12496Y-3336*
G01X12513Y-3298*
G01X12531Y-3241*
G01Y-3145*
G01X12513Y-3088*
G01X12496Y-3050*
G01X12462Y-3012*
G01X12428Y-2993*
G01X12359*
G01X12376Y-3012D02*
G01X12325Y-3031D01*
G01X12291Y-3088*
G01X12273Y-3145*
G01Y-3241*
G01X12291Y-3298*
G01X12325Y-3355*
G01X12376Y-3374*
G01X12411*
G01X12462Y-3355*
G01X12496Y-3298*
G01X12513Y-3241*
G01Y-3145*
G01X12496Y-3088*
G01X12462Y-3031*
G01X12411Y-3012*
G01X12376*
G01X12582Y-3393D02*
G01X12651Y-2993*
G01Y-3393D01*
G01X12668Y-3012D02*
G01Y-3393D01*
G01X12651*
G01Y-2993D02*
G01X12788D01*
G01X12839Y-3012*
G01X12856Y-3031*
G01X12873Y-3069*
G01Y-3126*
G01X12856Y-3164*
G01X12839Y-3183*
G01X12788Y-3202*
G01X12668*
G01Y-3012D02*
G01X12788D01*
G01X12839Y-3031*
G01X12856Y-3069*
G01Y-3126*
G01X12839Y-3164*
G01X12788Y-3183*
G01X12668*
G01X12753Y-3202D02*
G01X12856Y-3393D01*
G01X12873*
G01X12771Y-3202D02*
G01X12873Y-3393D01*
G01X12925D02*
G01X13062Y-3012*
G01Y-3393D01*
G01X13079Y-3012D02*
G01Y-3393D01*
G01X13062*
G01X12959Y-2993D02*
G01X13182D01*
G01Y-3012*
G01X12959Y-2993D02*
G01Y-3012D01*
G01X13182*
G01X13216Y-3393D02*
G01X13508Y-3050*
G01X13473Y-3012D01*
G01X13422Y-2993*
G01X13353*
G01X13302Y-3012*
G01X13268Y-3050*
G01Y-3088*
G01X13285Y-3126*
G01X13302Y-3145*
G01X13336Y-3164*
G01X13422Y-3202*
G01X13456Y-3222*
G01X13473Y-3241*
G01X13491Y-3279*
G01Y-3336*
G01X13473Y-3355*
G01X13422Y-3374*
G01X13353*
G01X13319Y-3355*
G01X13302Y-3336*
G01X13268*
G01X13508Y-3050D02*
G01X13473D01*
G01X13456Y-3031*
G01X13422Y-3012*
G01X13353*
G01X13302Y-3031*
G01X13285Y-3050*
G01Y-3088*
G01X13302Y-3126*
G01X13336Y-3145*
G01X13422Y-3183*
G01X13456Y-3202*
G01X13491Y-3241*
G01X13508Y-3279*
G01Y-3336*
G01X13473Y-3374*
G01X13422Y-3393*
G01X13353*
G01X13302Y-3374*
G01X13268Y-3336*
G01X13559Y-3393D02*
G01X13919*
G01X14056Y-3012*
G01Y-3393D01*
G01X14073Y-3012D02*
G01Y-3393D01*
G01X14056*
G01X13953Y-2993D02*
G01X14176D01*
G01Y-3012*
G01X13953Y-2993D02*
G01Y-3012D01*
G01X14176*
G01X14211Y-3393D02*
G01X14365Y-2993*
G01X14331Y-3012D01*
G01X14296Y-3050*
G01X14279Y-3088*
G01X14262Y-3145*
G01Y-3241*
G01X14279Y-3298*
G01X14296Y-3336*
G01X14331Y-3374*
G01X14365Y-3393*
G01X14433*
G01X14468Y-3374*
G01X14502Y-3336*
G01X14519Y-3298*
G01X14536Y-3241*
G01Y-3145*
G01X14519Y-3088*
G01X14502Y-3050*
G01X14468Y-3012*
G01X14433Y-2993*
G01X14365*
G01X14382Y-3012D02*
G01X14331Y-3031D01*
G01X14296Y-3088*
G01X14279Y-3145*
G01Y-3241*
G01X14296Y-3298*
G01X14331Y-3355*
G01X14382Y-3374*
G01X14416*
G01X14468Y-3355*
G01X14502Y-3298*
G01X14519Y-3241*
G01Y-3145*
G01X14502Y-3088*
G01X14468Y-3031*
G01X14416Y-3012*
G01X14382*
G01X14588Y-3393D02*
G01X7671Y-2793D02*
G01X7842Y-2393*
G01X7705Y-2793D01*
G01X7842Y-2450D02*
G01X7722Y-2793D01*
G01X7705*
G01X7842Y-2450D02*
G01X7962Y-2793D01*
G01X7979*
G01X7842Y-2393D02*
G01X7979Y-2793D01*
G01X7756Y-2679D02*
G01X7928D01*
G01X7739Y-2698D02*
G01X7945D01*
G01X8013Y-2793D02*
G01X8082Y-2393*
G01Y-2793D01*
G01X8099Y-2412D02*
G01Y-2793D01*
G01X8082*
G01Y-2393D02*
G01X8219D01*
G01X8271Y-2412*
G01X8288Y-2431*
G01X8305Y-2469*
G01Y-2526*
G01X8288Y-2564*
G01X8271Y-2583*
G01X8219Y-2602*
G01X8099*
G01Y-2412D02*
G01X8219D01*
G01X8271Y-2431*
G01X8288Y-2469*
G01Y-2526*
G01X8271Y-2564*
G01X8219Y-2583*
G01X8099*
G01X8185Y-2602D02*
G01X8288Y-2793D01*
G01X8305*
G01X8202Y-2602D02*
G01X8305Y-2793D01*
G01X8356D02*
G01X8493Y-2412*
G01Y-2793D01*
G01X8511Y-2412D02*
G01Y-2793D01*
G01X8493*
G01X8391Y-2393D02*
G01X8613D01*
G01Y-2412*
G01X8391Y-2393D02*
G01Y-2412D01*
G01X8613*
G01X8648Y-2793D02*
G01X8682Y-2393*
G01X8785Y-2793D01*
G01X8682Y-2393D02*
G01X8699D01*
G01X8785Y-2736*
G01X8871Y-2393D02*
G01X8785Y-2736D01*
G01X8871Y-2450D02*
G01X8785Y-2793D01*
G01X8871Y-2450D02*
G01X8956Y-2793D01*
G01X8871Y-2393D02*
G01X8956Y-2736D01*
G01X9059Y-2393D02*
G01X9042D01*
G01X8956Y-2736*
G01X9059Y-2393D02*
G01X8956Y-2793D01*
G01X9093D02*
G01X9248Y-2393*
G01X9213Y-2412D01*
G01X9179Y-2450*
G01X9162Y-2488*
G01X9145Y-2545*
G01Y-2641*
G01X9162Y-2698*
G01X9179Y-2736*
G01X9213Y-2774*
G01X9248Y-2793*
G01X9316*
G01X9351Y-2774*
G01X9385Y-2736*
G01X9402Y-2698*
G01X9419Y-2641*
G01Y-2545*
G01X9402Y-2488*
G01X9385Y-2450*
G01X9351Y-2412*
G01X9316Y-2393*
G01X9248*
G01X9265Y-2412D02*
G01X9213Y-2431D01*
G01X9179Y-2488*
G01X9162Y-2545*
G01Y-2641*
G01X9179Y-2698*
G01X9213Y-2755*
G01X9265Y-2774*
G01X9299*
G01X9351Y-2755*
G01X9385Y-2698*
G01X9402Y-2641*
G01Y-2545*
G01X9385Y-2488*
G01X9351Y-2431*
G01X9299Y-2412*
G01X9265*
G01X9471Y-2793D02*
G01X9539Y-2393*
G01Y-2793D01*
G01X9556Y-2412D02*
G01Y-2793D01*
G01X9539*
G01Y-2393D02*
G01X9676D01*
G01X9728Y-2412*
G01X9745Y-2431*
G01X9762Y-2469*
G01Y-2526*
G01X9745Y-2564*
G01X9728Y-2583*
G01X9676Y-2602*
G01X9556*
G01Y-2412D02*
G01X9676D01*
G01X9728Y-2431*
G01X9745Y-2469*
G01Y-2526*
G01X9728Y-2564*
G01X9676Y-2583*
G01X9556*
G01X9642Y-2602D02*
G01X9745Y-2793D01*
G01X9762*
G01X9659Y-2602D02*
G01X9762Y-2793D01*
G01X9813D02*
G01X9882Y-2393*
G01Y-2793D01*
G01X9899*
G01X9882Y-2393D02*
G01X9899D01*
G01Y-2793*
G01X10122Y-2393D02*
G01X10105D01*
G01X9899Y-2622*
G01X10122Y-2393D02*
G01X9899Y-2641D01*
G01X9951Y-2564D02*
G01X10105Y-2793D01*
G01X10122*
G01X9968Y-2564D02*
G01X10122Y-2793D01*
G01X10173D02*
G01X10533*
G01X10602Y-2393*
G01Y-2793D01*
G01X10619*
G01X10602Y-2393D02*
G01X10619D01*
G01Y-2793*
G01X10688D02*
G01X10756Y-2393*
G01Y-2793D01*
G01X10773Y-2450D02*
G01Y-2793D01*
G01X10756*
G01X10773Y-2450D02*
G01X10996Y-2793D01*
G01X10756Y-2393D02*
G01X10979Y-2736D01*
G01Y-2393D02*
G01Y-2736D01*
G01Y-2393D02*
G01X10996D01*
G01Y-2793*
G01X11065D02*
G01X11425*
G01X11562Y-2412*
G01Y-2793D01*
G01X11579Y-2412D02*
G01Y-2793D01*
G01X11562*
G01X11459Y-2393D02*
G01X11682D01*
G01Y-2412*
G01X11459Y-2393D02*
G01Y-2412D01*
G01X11682*
G01X11716Y-2793D02*
G01X11785Y-2393*
G01Y-2793D01*
G01Y-2393D02*
G01X11802D01*
G01Y-2793*
G01X11785*
G01X12025Y-2393D02*
G01X12008D01*
G01Y-2793*
G01X12025*
G01Y-2393D02*
G01Y-2793D01*
G01X11802Y-2583D02*
G01X12008D01*
G01X11802Y-2602D02*
G01X12008D01*
G01X12093Y-2793D02*
G01X12162Y-2393*
G01Y-2793D01*
G01X12179*
G01X12162Y-2393D02*
G01X12179D01*
G01Y-2793*
G01X12248D02*
G01X12539Y-2450*
G01X12505Y-2412D01*
G01X12453Y-2393*
G01X12385*
G01X12333Y-2412*
G01X12299Y-2450*
G01Y-2488*
G01X12316Y-2526*
G01X12333Y-2545*
G01X12368Y-2564*
G01X12453Y-2602*
G01X12488Y-2622*
G01X12505Y-2641*
G01X12522Y-2679*
G01Y-2736*
G01X12505Y-2755*
G01X12453Y-2774*
G01X12385*
G01X12351Y-2755*
G01X12333Y-2736*
G01X12299*
G01X12539Y-2450D02*
G01X12505D01*
G01X12488Y-2431*
G01X12453Y-2412*
G01X12385*
G01X12333Y-2431*
G01X12316Y-2450*
G01Y-2488*
G01X12333Y-2526*
G01X12368Y-2545*
G01X12453Y-2583*
G01X12488Y-2602*
G01X12522Y-2641*
G01X12539Y-2679*
G01Y-2736*
G01X12505Y-2774*
G01X12453Y-2793*
G01X12385*
G01X12333Y-2774*
G01X12299Y-2736*
G01X12591Y-2793D02*
G01X12951*
G01X13122Y-2393*
G01X12985Y-2793D01*
G01X13122Y-2450D02*
G01X13002Y-2793D01*
G01X12985*
G01X13122Y-2450D02*
G01X13242Y-2793D01*
G01X13259*
G01X13122Y-2393D02*
G01X13259Y-2793D01*
G01X13036Y-2679D02*
G01X13208D01*
G01X13019Y-2698D02*
G01X13225D01*
G01X13293Y-2793D02*
G01X13362Y-2393*
G01Y-2793D01*
G01X13379Y-2412D02*
G01Y-2793D01*
G01X13362*
G01Y-2393D02*
G01X13499D01*
G01X13551Y-2412*
G01X13568Y-2431*
G01X13585Y-2469*
G01Y-2526*
G01X13568Y-2564*
G01X13551Y-2583*
G01X13499Y-2602*
G01X13379*
G01Y-2412D02*
G01X13499D01*
G01X13551Y-2431*
G01X13568Y-2469*
G01Y-2526*
G01X13551Y-2564*
G01X13499Y-2583*
G01X13379*
G01X13465Y-2602D02*
G01X13568Y-2793D01*
G01X13585*
G01X13482Y-2602D02*
G01X13585Y-2793D01*
G01X13636D02*
G01X13705Y-2393*
G01Y-2793D01*
G01X13722Y-2412D02*
G01Y-2774D01*
G01X13705Y-2393D02*
G01X13911D01*
G01X13722Y-2412D02*
G01X13911D01*
G01Y-2393*
G01X13722Y-2583D02*
G01X13825D01*
G01Y-2602*
G01X13722D02*
G01X13825D01*
G01X13722Y-2774D02*
G01X13911D01*
G01Y-2793*
G01X13705D02*
G01X13911D01*
G01X13962D02*
G01X14133Y-2393*
G01X13996Y-2793D01*
G01X14133Y-2450D02*
G01X14013Y-2793D01*
G01X13996*
G01X14133Y-2450D02*
G01X14253Y-2793D01*
G01X14271*
G01X14133Y-2393D02*
G01X14271Y-2793D01*
G01X14048Y-2679D02*
G01X14219D01*
G01X14031Y-2698D02*
G01X14236D01*
G01X14305Y-2793D02*
G01X14425Y-2774*
G01X14408Y-2793D01*
G01X14391*
G01X14373Y-2774*
G01Y-2755*
G01X14391Y-2736*
G01X14408*
G01X14425Y-2755*
G01Y-2812*
G01X14408Y-2850*
G01X14373Y-2869*
G01X14391Y-2755D02*
G01Y-2774D01*
G01X14408*
G01Y-2755*
G01X14391*
G01X14408Y-2793D02*
G01X14425Y-2812D01*
G01Y-2774D02*
G01X14408Y-2850D01*
G01X14493Y-2793D02*
G01X7773Y-2193D02*
G01X7842Y-1793*
G01Y-2193D01*
G01X7859Y-1812D02*
G01Y-2174D01*
G01X7842Y-1793D02*
G01X7962D01*
G01X8013Y-1812*
G01X8048Y-1850*
G01X8065Y-1888*
G01X8082Y-1945*
G01Y-2041*
G01X8065Y-2098*
G01X8048Y-2136*
G01X8013Y-2174*
G01X7962Y-2193*
G01X7842*
G01X7859Y-1812D02*
G01X7962D01*
G01X8013Y-1831*
G01X8031Y-1850*
G01X8048Y-1888*
G01X8065Y-1945*
G01Y-2041*
G01X8048Y-2098*
G01X8031Y-2136*
G01X8013Y-2155*
G01X7962Y-2174*
G01X7859*
G01X8133Y-2193D02*
G01X8288Y-1793*
G01X8253Y-1812D01*
G01X8219Y-1850*
G01X8202Y-1888*
G01X8185Y-1945*
G01Y-2041*
G01X8202Y-2098*
G01X8219Y-2136*
G01X8253Y-2174*
G01X8288Y-2193*
G01X8356*
G01X8391Y-2174*
G01X8425Y-2136*
G01X8442Y-2098*
G01X8459Y-2041*
G01Y-1945*
G01X8442Y-1888*
G01X8425Y-1850*
G01X8391Y-1812*
G01X8356Y-1793*
G01X8288*
G01X8305Y-1812D02*
G01X8253Y-1831D01*
G01X8219Y-1888*
G01X8202Y-1945*
G01Y-2041*
G01X8219Y-2098*
G01X8253Y-2155*
G01X8305Y-2174*
G01X8339*
G01X8391Y-2155*
G01X8425Y-2098*
G01X8442Y-2041*
G01Y-1945*
G01X8425Y-1888*
G01X8391Y-1831*
G01X8339Y-1812*
G01X8305*
G01X8511Y-2193D02*
G01X8871*
G01X8939Y-1793*
G01Y-2193D01*
G01X8956Y-1850D02*
G01Y-2193D01*
G01X8939*
G01X8956Y-1850D02*
G01X9179Y-2193D01*
G01X8939Y-1793D02*
G01X9162Y-2136D01*
G01Y-1793D02*
G01Y-2136D01*
G01Y-1793D02*
G01X9179D01*
G01Y-2193*
G01X9248D02*
G01X9402Y-1793*
G01X9368Y-1812D01*
G01X9333Y-1850*
G01X9316Y-1888*
G01X9299Y-1945*
G01Y-2041*
G01X9316Y-2098*
G01X9333Y-2136*
G01X9368Y-2174*
G01X9402Y-2193*
G01X9471*
G01X9505Y-2174*
G01X9539Y-2136*
G01X9556Y-2098*
G01X9573Y-2041*
G01Y-1945*
G01X9556Y-1888*
G01X9539Y-1850*
G01X9505Y-1812*
G01X9471Y-1793*
G01X9402*
G01X9419Y-1812D02*
G01X9368Y-1831D01*
G01X9333Y-1888*
G01X9316Y-1945*
G01Y-2041*
G01X9333Y-2098*
G01X9368Y-2155*
G01X9419Y-2174*
G01X9453*
G01X9505Y-2155*
G01X9539Y-2098*
G01X9556Y-2041*
G01Y-1945*
G01X9539Y-1888*
G01X9505Y-1831*
G01X9453Y-1812*
G01X9419*
G01X9625Y-2193D02*
G01X9762Y-1812*
G01Y-2193D01*
G01X9779Y-1812D02*
G01Y-2193D01*
G01X9762*
G01X9659Y-1793D02*
G01X9882D01*
G01Y-1812*
G01X9659Y-1793D02*
G01Y-1812D01*
G01X9882*
G01X9916Y-2193D02*
G01X10276*
G01X10448Y-1793*
G01X10311Y-2193D01*
G01X10448Y-1850D02*
G01X10328Y-2193D01*
G01X10311*
G01X10448Y-1850D02*
G01X10568Y-2193D01*
G01X10585*
G01X10448Y-1793D02*
G01X10585Y-2193D01*
G01X10362Y-2079D02*
G01X10533D01*
G01X10345Y-2098D02*
G01X10551D01*
G01X10619Y-2193D02*
G01X10688Y-1793*
G01Y-2193D01*
G01X10705Y-1812D02*
G01Y-2174D01*
G01X10688Y-1793D02*
G01X10808D01*
G01X10859Y-1812*
G01X10893Y-1850*
G01X10911Y-1888*
G01X10928Y-1945*
G01Y-2041*
G01X10911Y-2098*
G01X10893Y-2136*
G01X10859Y-2174*
G01X10808Y-2193*
G01X10688*
G01X10705Y-1812D02*
G01X10808D01*
G01X10859Y-1831*
G01X10876Y-1850*
G01X10893Y-1888*
G01X10911Y-1945*
G01Y-2041*
G01X10893Y-2098*
G01X10876Y-2136*
G01X10859Y-2155*
G01X10808Y-2174*
G01X10705*
G01X10979Y-2193D02*
G01X11185Y-1793*
G01Y-2098D01*
G01X11168Y-2155*
G01X11133Y-2174*
G01X11099*
G01X11065Y-2155*
G01X11048Y-2098*
G01X11031*
G01X11185Y-1793D02*
G01X11202D01*
G01Y-2098*
G01X11185Y-2155*
G01X11168Y-2174*
G01X11133Y-2193*
G01X11099*
G01X11065Y-2174*
G01X11048Y-2155*
G01X11031Y-2098*
G01X11271Y-2193D02*
G01X11339Y-1793*
G01Y-2079D01*
G01X11356Y-2136*
G01X11391Y-2174*
G01X11442Y-2193*
G01X11476*
G01X11528Y-2174*
G01X11562Y-2136*
G01X11579Y-2079*
G01Y-1793*
G01X11339D02*
G01X11356D01*
G01Y-2079*
G01X11373Y-2136*
G01X11391Y-2155*
G01X11442Y-2174*
G01X11476*
G01X11528Y-2155*
G01X11545Y-2136*
G01X11562Y-2079*
G01Y-1793*
G01X11579*
G01X11648Y-2193D02*
G01X11939Y-1850*
G01X11905Y-1812D01*
G01X11853Y-1793*
G01X11785*
G01X11733Y-1812*
G01X11699Y-1850*
G01Y-1888*
G01X11716Y-1926*
G01X11733Y-1945*
G01X11768Y-1964*
G01X11853Y-2002*
G01X11888Y-2022*
G01X11905Y-2041*
G01X11922Y-2079*
G01Y-2136*
G01X11905Y-2155*
G01X11853Y-2174*
G01X11785*
G01X11751Y-2155*
G01X11733Y-2136*
G01X11699*
G01X11939Y-1850D02*
G01X11905D01*
G01X11888Y-1831*
G01X11853Y-1812*
G01X11785*
G01X11733Y-1831*
G01X11716Y-1850*
G01Y-1888*
G01X11733Y-1926*
G01X11768Y-1945*
G01X11853Y-1983*
G01X11888Y-2002*
G01X11922Y-2041*
G01X11939Y-2079*
G01Y-2136*
G01X11905Y-2174*
G01X11853Y-2193*
G01X11785*
G01X11733Y-2174*
G01X11699Y-2136*
G01X11991Y-2193D02*
G01X12128Y-1812*
G01Y-2193D01*
G01X12145Y-1812D02*
G01Y-2193D01*
G01X12128*
G01X12025Y-1793D02*
G01X12248D01*
G01Y-1812*
G01X12025Y-1793D02*
G01Y-1812D01*
G01X12248*
G01X12282Y-2193D02*
G01X12642*
G01X12711Y-1793*
G01Y-2193D01*
G01X12728Y-1888D02*
G01Y-2193D01*
G01X12711*
G01X12728Y-1888D02*
G01X12848Y-2193D01*
G01X12711Y-1793D02*
G01X12848Y-2136D01*
G01X12985Y-1793D02*
G01X12848Y-2136D01*
G01X12968Y-1888D02*
G01X12848Y-2193D01*
G01X12968Y-1888D02*
G01Y-2193D01*
G01X12985*
G01Y-1793D02*
G01Y-2193D01*
G01X13053D02*
G01X13122Y-1793*
G01Y-2193D01*
G01X13139Y-1812D02*
G01Y-2174D01*
G01X13122Y-1793D02*
G01X13328D01*
G01X13139Y-1812D02*
G01X13328D01*
G01Y-1793*
G01X13139Y-1983D02*
G01X13242D01*
G01Y-2002*
G01X13139D02*
G01X13242D01*
G01X13139Y-2174D02*
G01X13328D01*
G01Y-2193*
G01X13122D02*
G01X13328D01*
G01X13379D02*
G01X13516Y-1812*
G01Y-2193D01*
G01X13533Y-1812D02*
G01Y-2193D01*
G01X13516*
G01X13413Y-1793D02*
G01X13636D01*
G01Y-1812*
G01X13413Y-1793D02*
G01Y-1812D01*
G01X13636*
G01X13671Y-2193D02*
G01X13842Y-1793*
G01X13705Y-2193D01*
G01X13842Y-1850D02*
G01X13722Y-2193D01*
G01X13705*
G01X13842Y-1850D02*
G01X13962Y-2193D01*
G01X13979*
G01X13842Y-1793D02*
G01X13979Y-2193D01*
G01X13756Y-2079D02*
G01X13928D01*
G01X13739Y-2098D02*
G01X13945D01*
G01X14013Y-2193D02*
G01X14082Y-1793*
G01Y-2193D01*
G01Y-1793D02*
G01X14099D01*
G01Y-2174*
G01X14288*
G01Y-2193*
G01X14082D02*
G01X14288D01*
G01X14305D02*
G01X-6110Y-3993D02*
G01X-6041Y-3593*
G01Y-3993D01*
G01X-6024Y-3612D02*
G01Y-3974D01*
G01X-6041Y-3593D02*
G01X-5835D01*
G01X-6024Y-3612D02*
G01X-5835D01*
G01Y-3593*
G01X-6024Y-3783D02*
G01X-5921D01*
G01Y-3802*
G01X-6024D02*
G01X-5921D01*
G01X-6024Y-3974D02*
G01X-5835D01*
G01Y-3993*
G01X-6041D02*
G01X-5835D01*
G01X-5784D02*
G01X-5715Y-3593*
G01Y-3993D01*
G01X-5698Y-3612D02*
G01Y-3974D01*
G01X-5715Y-3593D02*
G01X-5595D01*
G01X-5544Y-3612*
G01X-5510Y-3650*
G01X-5492Y-3688*
G01X-5475Y-3745*
G01Y-3841*
G01X-5492Y-3898*
G01X-5510Y-3936*
G01X-5544Y-3974*
G01X-5595Y-3993*
G01X-5715*
G01X-5698Y-3612D02*
G01X-5595D01*
G01X-5544Y-3631*
G01X-5527Y-3650*
G01X-5510Y-3688*
G01X-5492Y-3745*
G01Y-3841*
G01X-5510Y-3898*
G01X-5527Y-3936*
G01X-5544Y-3955*
G01X-5595Y-3974*
G01X-5698*
G01X-5424Y-3993D02*
G01X-5115Y-3688*
G01X-5132Y-3650D01*
G01X-5167Y-3612*
G01X-5201Y-3593*
G01X-5270*
G01X-5304Y-3612*
G01X-5338Y-3650*
G01X-5355Y-3688*
G01X-5372Y-3745*
G01Y-3841*
G01X-5355Y-3898*
G01X-5338Y-3936*
G01X-5304Y-3974*
G01X-5270Y-3993*
G01X-5201*
G01X-5167Y-3974*
G01X-5132Y-3936*
G01X-5115Y-3898*
G01Y-3822*
G01X-5201*
G01X-5115Y-3688D02*
G01X-5132D01*
G01X-5150Y-3650*
G01X-5167Y-3631*
G01X-5201Y-3612*
G01X-5270*
G01X-5304Y-3631*
G01X-5321Y-3650*
G01X-5338Y-3688*
G01X-5355Y-3745*
G01Y-3841*
G01X-5338Y-3898*
G01X-5321Y-3936*
G01X-5304Y-3955*
G01X-5270Y-3974*
G01X-5201*
G01X-5167Y-3955*
G01X-5150Y-3936*
G01X-5132Y-3898*
G01Y-3841*
G01X-5201*
G01Y-3822*
G01X-5064Y-3993D02*
G01X-4995Y-3593*
G01Y-3993D01*
G01X-4978Y-3612D02*
G01Y-3974D01*
G01X-4995Y-3593D02*
G01X-4790D01*
G01X-4978Y-3612D02*
G01X-4790D01*
G01Y-3593*
G01X-4978Y-3783D02*
G01X-4875D01*
G01Y-3802*
G01X-4978D02*
G01X-4875D01*
G01X-4978Y-3974D02*
G01X-4790D01*
G01Y-3993*
G01X-4995D02*
G01X-4790D01*
G01X-4738D02*
G01X-4378*
G01X-4310Y-3593*
G01Y-3993D01*
G01X-4292Y-3612D02*
G01Y-3993D01*
G01X-4310*
G01Y-3593D02*
G01X-4155D01*
G01X-4121Y-3612*
G01X-4104Y-3631*
G01X-4087Y-3669*
G01Y-3726*
G01X-4104Y-3764*
G01X-4121Y-3783*
G01X-4155Y-3802*
G01X-4292*
G01Y-3612D02*
G01X-4155D01*
G01X-4121Y-3631*
G01X-4104Y-3669*
G01Y-3726*
G01X-4121Y-3764*
G01X-4155Y-3783*
G01X-4292*
G01X-4035Y-3993D02*
G01X-3967Y-3593*
G01Y-3993D01*
G01Y-3593D02*
G01X-3950D01*
G01Y-3974*
G01X-3761*
G01Y-3993*
G01X-3967D02*
G01X-3761D01*
G01X-3744D02*
G01X-3572Y-3593*
G01X-3710Y-3993D01*
G01X-3572Y-3650D02*
G01X-3692Y-3993D01*
G01X-3710*
G01X-3572Y-3650D02*
G01X-3452Y-3993D01*
G01X-3435*
G01X-3572Y-3593D02*
G01X-3435Y-3993D01*
G01X-3658Y-3879D02*
G01X-3487D01*
G01X-3675Y-3898D02*
G01X-3470D01*
G01X-3401Y-3993D02*
G01X-3264Y-3612*
G01Y-3993D01*
G01X-3247Y-3612D02*
G01Y-3993D01*
G01X-3264*
G01X-3367Y-3593D02*
G01X-3144D01*
G01Y-3612*
G01X-3367Y-3593D02*
G01Y-3612D01*
G01X-3144*
G01X-3110Y-3993D02*
G01X-3041Y-3593*
G01Y-3993D01*
G01X-3024*
G01X-3041Y-3593D02*
G01X-3024D01*
G01Y-3993*
G01X-2955D02*
G01X-2887Y-3593*
G01Y-3993D01*
G01X-2870Y-3650D02*
G01Y-3993D01*
G01X-2887*
G01X-2870Y-3650D02*
G01X-2647Y-3993D01*
G01X-2887Y-3593D02*
G01X-2664Y-3936D01*
G01Y-3593D02*
G01Y-3936D01*
G01Y-3593D02*
G01X-2647D01*
G01Y-3993*
G01X-2578D02*
G01X-2270Y-3688*
G01X-2287Y-3650D01*
G01X-2321Y-3612*
G01X-2355Y-3593*
G01X-2424*
G01X-2458Y-3612*
G01X-2492Y-3650*
G01X-2510Y-3688*
G01X-2527Y-3745*
G01Y-3841*
G01X-2510Y-3898*
G01X-2492Y-3936*
G01X-2458Y-3974*
G01X-2424Y-3993*
G01X-2355*
G01X-2321Y-3974*
G01X-2287Y-3936*
G01X-2270Y-3898*
G01Y-3822*
G01X-2355*
G01X-2270Y-3688D02*
G01X-2287D01*
G01X-2304Y-3650*
G01X-2321Y-3631*
G01X-2355Y-3612*
G01X-2424*
G01X-2458Y-3631*
G01X-2475Y-3650*
G01X-2492Y-3688*
G01X-2510Y-3745*
G01Y-3841*
G01X-2492Y-3898*
G01X-2475Y-3936*
G01X-2458Y-3955*
G01X-2424Y-3974*
G01X-2355*
G01X-2321Y-3955*
G01X-2304Y-3936*
G01X-2287Y-3898*
G01Y-3841*
G01X-2355*
G01Y-3822*
G01X-2218Y-3993D02*
G01X-2132Y-3593*
G01Y-3860D01*
G01X-2115*
G01X-2132Y-3593D02*
G01X-2115D01*
G01Y-3860*
G01X-2132Y-3936D02*
G01X-2150Y-3955D01*
G01Y-3974*
G01X-2132Y-3993*
G01X-2115*
G01X-2098Y-3974*
G01Y-3955*
G01X-2115Y-3936*
G01X-2132*
G01Y-3955D02*
G01Y-3974D01*
G01X-2115*
G01Y-3955*
G01X-2132*
G01X-2030Y-3993D02*
G01X-7592Y-3393D02*
G01X-7438Y-2993*
G01X-7472Y-3012D01*
G01X-7507Y-3050*
G01X-7524Y-3088*
G01X-7541Y-3145*
G01Y-3241*
G01X-7524Y-3298*
G01X-7507Y-3336*
G01X-7472Y-3374*
G01X-7438Y-3393*
G01X-7370*
G01X-7335Y-3374*
G01X-7301Y-3336*
G01X-7284Y-3298*
G01X-7267Y-3241*
G01Y-3145*
G01X-7284Y-3088*
G01X-7301Y-3050*
G01X-7335Y-3012*
G01X-7370Y-2993*
G01X-7438*
G01X-7421Y-3012D02*
G01X-7472Y-3031D01*
G01X-7507Y-3088*
G01X-7524Y-3145*
G01Y-3241*
G01X-7507Y-3298*
G01X-7472Y-3355*
G01X-7421Y-3374*
G01X-7387*
G01X-7335Y-3355*
G01X-7301Y-3298*
G01X-7284Y-3241*
G01Y-3145*
G01X-7301Y-3088*
G01X-7335Y-3031*
G01X-7387Y-3012*
G01X-7421*
G01X-7215Y-3393D02*
G01X-7147Y-2993*
G01Y-3393D01*
G01X-7130*
G01X-7147Y-2993D02*
G01X-7130D01*
G01Y-3393*
G01X-6907Y-2993D02*
G01X-6924D01*
G01X-7130Y-3222*
G01X-6907Y-2993D02*
G01X-7130Y-3241D01*
G01X-7078Y-3164D02*
G01X-6924Y-3393D01*
G01X-6907*
G01X-7061Y-3164D02*
G01X-6907Y-3393D01*
G01X-6855D02*
G01X-6495*
G01X-6427Y-2993*
G01Y-3393D01*
G01X-6410*
G01X-6427Y-2993D02*
G01X-6410D01*
G01Y-3393*
G01X-6341D02*
G01X-6272Y-2993*
G01Y-3393D01*
G01X-6255Y-3012D02*
G01Y-3393D01*
G01X-6272*
G01Y-2993D02*
G01X-6067D01*
G01X-6255Y-3012D02*
G01X-6067D01*
G01Y-2993*
G01X-6255Y-3183D02*
G01X-6152D01*
G01Y-3202*
G01X-6255D02*
G01X-6152D01*
G01X-6032Y-3393D02*
G01X-5672*
G01X-5535Y-3012*
G01Y-3393D01*
G01X-5518Y-3012D02*
G01Y-3393D01*
G01X-5535*
G01X-5638Y-2993D02*
G01X-5415D01*
G01Y-3012*
G01X-5638Y-2993D02*
G01Y-3012D01*
G01X-5415*
G01X-5381Y-3393D02*
G01X-5312Y-2993*
G01Y-3393D01*
G01X-5295Y-3012D02*
G01Y-3393D01*
G01X-5312*
G01Y-2993D02*
G01X-5175D01*
G01X-5124Y-3012*
G01X-5107Y-3031*
G01X-5090Y-3069*
G01Y-3126*
G01X-5107Y-3164*
G01X-5124Y-3183*
G01X-5175Y-3202*
G01X-5295*
G01Y-3012D02*
G01X-5175D01*
G01X-5124Y-3031*
G01X-5107Y-3069*
G01Y-3126*
G01X-5124Y-3164*
G01X-5175Y-3183*
G01X-5295*
G01X-5210Y-3202D02*
G01X-5107Y-3393D01*
G01X-5090*
G01X-5192Y-3202D02*
G01X-5090Y-3393D01*
G01X-5038D02*
G01X-4867Y-2993*
G01X-5004Y-3393D01*
G01X-4867Y-3050D02*
G01X-4987Y-3393D01*
G01X-5004*
G01X-4867Y-3050D02*
G01X-4747Y-3393D01*
G01X-4730*
G01X-4867Y-2993D02*
G01X-4730Y-3393D01*
G01X-4952Y-3279D02*
G01X-4781D01*
G01X-4970Y-3298D02*
G01X-4764D01*
G01X-4695Y-3393D02*
G01X-4387Y-3088*
G01X-4404Y-3050D01*
G01X-4438Y-3012*
G01X-4472Y-2993*
G01X-4541*
G01X-4575Y-3012*
G01X-4610Y-3050*
G01X-4627Y-3088*
G01X-4644Y-3145*
G01Y-3241*
G01X-4627Y-3298*
G01X-4610Y-3336*
G01X-4575Y-3374*
G01X-4541Y-3393*
G01X-4472*
G01X-4438Y-3374*
G01X-4404Y-3336*
G01X-4387Y-3298*
G01Y-3088D02*
G01X-4404D01*
G01X-4421Y-3050*
G01X-4438Y-3031*
G01X-4472Y-3012*
G01X-4541*
G01X-4575Y-3031*
G01X-4610Y-3088*
G01X-4627Y-3145*
G01Y-3241*
G01X-4610Y-3298*
G01X-4575Y-3355*
G01X-4541Y-3374*
G01X-4472*
G01X-4438Y-3355*
G01X-4421Y-3336*
G01X-4404Y-3298*
G01X-4387*
G01X-4335Y-3393D02*
G01X-4267Y-2993*
G01Y-3393D01*
G01X-4250Y-3012D02*
G01Y-3374D01*
G01X-4267Y-2993D02*
G01X-4061D01*
G01X-4250Y-3012D02*
G01X-4061D01*
G01Y-2993*
G01X-4250Y-3183D02*
G01X-4147D01*
G01Y-3202*
G01X-4250D02*
G01X-4147D01*
G01X-4250Y-3374D02*
G01X-4061D01*
G01Y-3393*
G01X-4267D02*
G01X-4061D01*
G01X-4010D02*
G01X-3650*
G01X-3358Y-3050*
G01X-3392Y-3012D01*
G01X-3444Y-2993*
G01X-3512*
G01X-3564Y-3012*
G01X-3598Y-3050*
G01Y-3088*
G01X-3581Y-3126*
G01X-3564Y-3145*
G01X-3530Y-3164*
G01X-3444Y-3202*
G01X-3410Y-3222*
G01X-3392Y-3241*
G01X-3375Y-3279*
G01Y-3336*
G01X-3392Y-3355*
G01X-3444Y-3374*
G01X-3512*
G01X-3547Y-3355*
G01X-3564Y-3336*
G01X-3598*
G01X-3358Y-3050D02*
G01X-3392D01*
G01X-3410Y-3031*
G01X-3444Y-3012*
G01X-3512*
G01X-3564Y-3031*
G01X-3581Y-3050*
G01Y-3088*
G01X-3564Y-3126*
G01X-3530Y-3145*
G01X-3444Y-3183*
G01X-3410Y-3202*
G01X-3375Y-3241*
G01X-3358Y-3279*
G01Y-3336*
G01X-3392Y-3374*
G01X-3444Y-3393*
G01X-3512*
G01X-3564Y-3374*
G01X-3598Y-3336*
G01X-3307Y-3393D02*
G01X-3238Y-2993*
G01Y-3393D01*
G01Y-2993D02*
G01X-3221D01*
G01Y-3393*
G01X-3238*
G01X-2998Y-2993D02*
G01X-3015D01*
G01Y-3393*
G01X-2998*
G01Y-2993D02*
G01Y-3393D01*
G01X-3221Y-3183D02*
G01X-3015D01*
G01X-3221Y-3202D02*
G01X-3015D01*
G01X-2930Y-3393D02*
G01X-2775Y-2993*
G01X-2810Y-3012D01*
G01X-2844Y-3050*
G01X-2861Y-3088*
G01X-2878Y-3145*
G01Y-3241*
G01X-2861Y-3298*
G01X-2844Y-3336*
G01X-2810Y-3374*
G01X-2775Y-3393*
G01X-2707*
G01X-2672Y-3374*
G01X-2638Y-3336*
G01X-2621Y-3298*
G01X-2604Y-3241*
G01Y-3145*
G01X-2621Y-3088*
G01X-2638Y-3050*
G01X-2672Y-3012*
G01X-2707Y-2993*
G01X-2775*
G01X-2758Y-3012D02*
G01X-2810Y-3031D01*
G01X-2844Y-3088*
G01X-2861Y-3145*
G01Y-3241*
G01X-2844Y-3298*
G01X-2810Y-3355*
G01X-2758Y-3374*
G01X-2724*
G01X-2672Y-3355*
G01X-2638Y-3298*
G01X-2621Y-3241*
G01Y-3145*
G01X-2638Y-3088*
G01X-2672Y-3031*
G01X-2724Y-3012*
G01X-2758*
G01X-2552Y-3393D02*
G01X-2484Y-2993*
G01Y-3393D01*
G01X-2467Y-3012D02*
G01Y-3393D01*
G01X-2484*
G01Y-2993D02*
G01X-2347D01*
G01X-2295Y-3012*
G01X-2278Y-3031*
G01X-2261Y-3069*
G01Y-3126*
G01X-2278Y-3164*
G01X-2295Y-3183*
G01X-2347Y-3202*
G01X-2467*
G01Y-3012D02*
G01X-2347D01*
G01X-2295Y-3031*
G01X-2278Y-3069*
G01Y-3126*
G01X-2295Y-3164*
G01X-2347Y-3183*
G01X-2467*
G01X-2381Y-3202D02*
G01X-2278Y-3393D01*
G01X-2261*
G01X-2364Y-3202D02*
G01X-2261Y-3393D01*
G01X-2210D02*
G01X-2072Y-3012*
G01Y-3393D01*
G01X-2055Y-3012D02*
G01Y-3393D01*
G01X-2072*
G01X-2175Y-2993D02*
G01X-1952D01*
G01Y-3012*
G01X-2175Y-2993D02*
G01Y-3012D01*
G01X-1952*
G01X-1918Y-3393D02*
G01X-1627Y-3050*
G01X-1661Y-3012D01*
G01X-1712Y-2993*
G01X-1781*
G01X-1832Y-3012*
G01X-1867Y-3050*
G01Y-3088*
G01X-1850Y-3126*
G01X-1832Y-3145*
G01X-1798Y-3164*
G01X-1712Y-3202*
G01X-1678Y-3222*
G01X-1661Y-3241*
G01X-1644Y-3279*
G01Y-3336*
G01X-1661Y-3355*
G01X-1712Y-3374*
G01X-1781*
G01X-1815Y-3355*
G01X-1832Y-3336*
G01X-1867*
G01X-1627Y-3050D02*
G01X-1661D01*
G01X-1678Y-3031*
G01X-1712Y-3012*
G01X-1781*
G01X-1832Y-3031*
G01X-1850Y-3050*
G01Y-3088*
G01X-1832Y-3126*
G01X-1798Y-3145*
G01X-1712Y-3183*
G01X-1678Y-3202*
G01X-1644Y-3241*
G01X-1627Y-3279*
G01Y-3336*
G01X-1661Y-3374*
G01X-1712Y-3393*
G01X-1781*
G01X-1832Y-3374*
G01X-1867Y-3336*
G01X-1575Y-3393D02*
G01X-1215*
G01X-1078Y-3012*
G01Y-3393D01*
G01X-1061Y-3012D02*
G01Y-3393D01*
G01X-1078*
G01X-1181Y-2993D02*
G01X-958D01*
G01Y-3012*
G01X-1181Y-2993D02*
G01Y-3012D01*
G01X-958*
G01X-924Y-3393D02*
G01X-770Y-2993*
G01X-804Y-3012D01*
G01X-838Y-3050*
G01X-855Y-3088*
G01X-872Y-3145*
G01Y-3241*
G01X-855Y-3298*
G01X-838Y-3336*
G01X-804Y-3374*
G01X-770Y-3393*
G01X-701*
G01X-667Y-3374*
G01X-632Y-3336*
G01X-615Y-3298*
G01X-598Y-3241*
G01Y-3145*
G01X-615Y-3088*
G01X-632Y-3050*
G01X-667Y-3012*
G01X-701Y-2993*
G01X-770*
G01X-752Y-3012D02*
G01X-804Y-3031D01*
G01X-838Y-3088*
G01X-855Y-3145*
G01Y-3241*
G01X-838Y-3298*
G01X-804Y-3355*
G01X-752Y-3374*
G01X-718*
G01X-667Y-3355*
G01X-632Y-3298*
G01X-615Y-3241*
G01Y-3145*
G01X-632Y-3088*
G01X-667Y-3031*
G01X-718Y-3012*
G01X-752*
G01X-547Y-3393D02*
G01X-7464Y-2793D02*
G01X-7292Y-2393*
G01X-7430Y-2793D01*
G01X-7292Y-2450D02*
G01X-7412Y-2793D01*
G01X-7430*
G01X-7292Y-2450D02*
G01X-7172Y-2793D01*
G01X-7155*
G01X-7292Y-2393D02*
G01X-7155Y-2793D01*
G01X-7378Y-2679D02*
G01X-7207D01*
G01X-7395Y-2698D02*
G01X-7190D01*
G01X-7121Y-2793D02*
G01X-7052Y-2393*
G01Y-2793D01*
G01X-7035Y-2412D02*
G01Y-2793D01*
G01X-7052*
G01Y-2393D02*
G01X-6915D01*
G01X-6864Y-2412*
G01X-6847Y-2431*
G01X-6830Y-2469*
G01Y-2526*
G01X-6847Y-2564*
G01X-6864Y-2583*
G01X-6915Y-2602*
G01X-7035*
G01Y-2412D02*
G01X-6915D01*
G01X-6864Y-2431*
G01X-6847Y-2469*
G01Y-2526*
G01X-6864Y-2564*
G01X-6915Y-2583*
G01X-7035*
G01X-6950Y-2602D02*
G01X-6847Y-2793D01*
G01X-6830*
G01X-6932Y-2602D02*
G01X-6830Y-2793D01*
G01X-6778D02*
G01X-6641Y-2412*
G01Y-2793D01*
G01X-6624Y-2412D02*
G01Y-2793D01*
G01X-6641*
G01X-6744Y-2393D02*
G01X-6521D01*
G01Y-2412*
G01X-6744Y-2393D02*
G01Y-2412D01*
G01X-6521*
G01X-6487Y-2793D02*
G01X-6452Y-2393*
G01X-6350Y-2793D01*
G01X-6452Y-2393D02*
G01X-6435D01*
G01X-6350Y-2736*
G01X-6264Y-2393D02*
G01X-6350Y-2736D01*
G01X-6264Y-2450D02*
G01X-6350Y-2793D01*
G01X-6264Y-2450D02*
G01X-6178Y-2793D01*
G01X-6264Y-2393D02*
G01X-6178Y-2736D01*
G01X-6075Y-2393D02*
G01X-6092D01*
G01X-6178Y-2736*
G01X-6075Y-2393D02*
G01X-6178Y-2793D01*
G01X-6041D02*
G01X-5887Y-2393*
G01X-5921Y-2412D01*
G01X-5955Y-2450*
G01X-5972Y-2488*
G01X-5990Y-2545*
G01Y-2641*
G01X-5972Y-2698*
G01X-5955Y-2736*
G01X-5921Y-2774*
G01X-5887Y-2793*
G01X-5818*
G01X-5784Y-2774*
G01X-5750Y-2736*
G01X-5732Y-2698*
G01X-5715Y-2641*
G01Y-2545*
G01X-5732Y-2488*
G01X-5750Y-2450*
G01X-5784Y-2412*
G01X-5818Y-2393*
G01X-5887*
G01X-5870Y-2412D02*
G01X-5921Y-2431D01*
G01X-5955Y-2488*
G01X-5972Y-2545*
G01Y-2641*
G01X-5955Y-2698*
G01X-5921Y-2755*
G01X-5870Y-2774*
G01X-5835*
G01X-5784Y-2755*
G01X-5750Y-2698*
G01X-5732Y-2641*
G01Y-2545*
G01X-5750Y-2488*
G01X-5784Y-2431*
G01X-5835Y-2412*
G01X-5870*
G01X-5664Y-2793D02*
G01X-5595Y-2393*
G01Y-2793D01*
G01X-5578Y-2412D02*
G01Y-2793D01*
G01X-5595*
G01Y-2393D02*
G01X-5458D01*
G01X-5407Y-2412*
G01X-5390Y-2431*
G01X-5372Y-2469*
G01Y-2526*
G01X-5390Y-2564*
G01X-5407Y-2583*
G01X-5458Y-2602*
G01X-5578*
G01Y-2412D02*
G01X-5458D01*
G01X-5407Y-2431*
G01X-5390Y-2469*
G01Y-2526*
G01X-5407Y-2564*
G01X-5458Y-2583*
G01X-5578*
G01X-5492Y-2602D02*
G01X-5390Y-2793D01*
G01X-5372*
G01X-5475Y-2602D02*
G01X-5372Y-2793D01*
G01X-5321D02*
G01X-5252Y-2393*
G01Y-2793D01*
G01X-5235*
G01X-5252Y-2393D02*
G01X-5235D01*
G01Y-2793*
G01X-5012Y-2393D02*
G01X-5030D01*
G01X-5235Y-2622*
G01X-5012Y-2393D02*
G01X-5235Y-2641D01*
G01X-5184Y-2564D02*
G01X-5030Y-2793D01*
G01X-5012*
G01X-5167Y-2564D02*
G01X-5012Y-2793D01*
G01X-4961D02*
G01X-4601*
G01X-4532Y-2393*
G01Y-2793D01*
G01X-4515*
G01X-4532Y-2393D02*
G01X-4515D01*
G01Y-2793*
G01X-4447D02*
G01X-4378Y-2393*
G01Y-2793D01*
G01X-4361Y-2450D02*
G01Y-2793D01*
G01X-4378*
G01X-4361Y-2450D02*
G01X-4138Y-2793D01*
G01X-4378Y-2393D02*
G01X-4155Y-2736D01*
G01Y-2393D02*
G01Y-2736D01*
G01Y-2393D02*
G01X-4138D01*
G01Y-2793*
G01X-4070D02*
G01X-3710*
G01X-3572Y-2412*
G01Y-2793D01*
G01X-3555Y-2412D02*
G01Y-2793D01*
G01X-3572*
G01X-3675Y-2393D02*
G01X-3452D01*
G01Y-2412*
G01X-3675Y-2393D02*
G01Y-2412D01*
G01X-3452*
G01X-3418Y-2793D02*
G01X-3350Y-2393*
G01Y-2793D01*
G01Y-2393D02*
G01X-3332D01*
G01Y-2793*
G01X-3350*
G01X-3110Y-2393D02*
G01X-3127D01*
G01Y-2793*
G01X-3110*
G01Y-2393D02*
G01Y-2793D01*
G01X-3332Y-2583D02*
G01X-3127D01*
G01X-3332Y-2602D02*
G01X-3127D01*
G01X-3041Y-2793D02*
G01X-2972Y-2393*
G01Y-2793D01*
G01X-2955*
G01X-2972Y-2393D02*
G01X-2955D01*
G01Y-2793*
G01X-2887D02*
G01X-2595Y-2450*
G01X-2630Y-2412D01*
G01X-2681Y-2393*
G01X-2750*
G01X-2801Y-2412*
G01X-2835Y-2450*
G01Y-2488*
G01X-2818Y-2526*
G01X-2801Y-2545*
G01X-2767Y-2564*
G01X-2681Y-2602*
G01X-2647Y-2622*
G01X-2630Y-2641*
G01X-2612Y-2679*
G01Y-2736*
G01X-2630Y-2755*
G01X-2681Y-2774*
G01X-2750*
G01X-2784Y-2755*
G01X-2801Y-2736*
G01X-2835*
G01X-2595Y-2450D02*
G01X-2630D01*
G01X-2647Y-2431*
G01X-2681Y-2412*
G01X-2750*
G01X-2801Y-2431*
G01X-2818Y-2450*
G01Y-2488*
G01X-2801Y-2526*
G01X-2767Y-2545*
G01X-2681Y-2583*
G01X-2647Y-2602*
G01X-2612Y-2641*
G01X-2595Y-2679*
G01Y-2736*
G01X-2630Y-2774*
G01X-2681Y-2793*
G01X-2750*
G01X-2801Y-2774*
G01X-2835Y-2736*
G01X-2544Y-2793D02*
G01X-2184*
G01X-2012Y-2393*
G01X-2150Y-2793D01*
G01X-2012Y-2450D02*
G01X-2132Y-2793D01*
G01X-2150*
G01X-2012Y-2450D02*
G01X-1892Y-2793D01*
G01X-1875*
G01X-2012Y-2393D02*
G01X-1875Y-2793D01*
G01X-2098Y-2679D02*
G01X-1927D01*
G01X-2115Y-2698D02*
G01X-1910D01*
G01X-1841Y-2793D02*
G01X-1772Y-2393*
G01Y-2793D01*
G01X-1755Y-2412D02*
G01Y-2793D01*
G01X-1772*
G01Y-2393D02*
G01X-1635D01*
G01X-1584Y-2412*
G01X-1567Y-2431*
G01X-1550Y-2469*
G01Y-2526*
G01X-1567Y-2564*
G01X-1584Y-2583*
G01X-1635Y-2602*
G01X-1755*
G01Y-2412D02*
G01X-1635D01*
G01X-1584Y-2431*
G01X-1567Y-2469*
G01Y-2526*
G01X-1584Y-2564*
G01X-1635Y-2583*
G01X-1755*
G01X-1670Y-2602D02*
G01X-1567Y-2793D01*
G01X-1550*
G01X-1652Y-2602D02*
G01X-1550Y-2793D01*
G01X-1498D02*
G01X-1430Y-2393*
G01Y-2793D01*
G01X-1412Y-2412D02*
G01Y-2774D01*
G01X-1430Y-2393D02*
G01X-1224D01*
G01X-1412Y-2412D02*
G01X-1224D01*
G01Y-2393*
G01X-1412Y-2583D02*
G01X-1310D01*
G01Y-2602*
G01X-1412D02*
G01X-1310D01*
G01X-1412Y-2774D02*
G01X-1224D01*
G01Y-2793*
G01X-1430D02*
G01X-1224D01*
G01X-1172D02*
G01X-1001Y-2393*
G01X-1138Y-2793D01*
G01X-1001Y-2450D02*
G01X-1121Y-2793D01*
G01X-1138*
G01X-1001Y-2450D02*
G01X-881Y-2793D01*
G01X-864*
G01X-1001Y-2393D02*
G01X-864Y-2793D01*
G01X-1087Y-2679D02*
G01X-915D01*
G01X-1104Y-2698D02*
G01X-898D01*
G01X-830Y-2793D02*
G01X-710Y-2774*
G01X-727Y-2793D01*
G01X-744*
G01X-761Y-2774*
G01Y-2755*
G01X-744Y-2736*
G01X-727*
G01X-710Y-2755*
G01Y-2812*
G01X-727Y-2850*
G01X-761Y-2869*
G01X-744Y-2755D02*
G01Y-2774D01*
G01X-727*
G01Y-2755*
G01X-744*
G01X-727Y-2793D02*
G01X-710Y-2812D01*
G01Y-2774D02*
G01X-727Y-2850D01*
G01X-641Y-2793D02*
G01X-7361Y-2193D02*
G01X-7292Y-1793*
G01Y-2193D01*
G01X-7275Y-1812D02*
G01Y-2174D01*
G01X-7292Y-1793D02*
G01X-7172D01*
G01X-7121Y-1812*
G01X-7087Y-1850*
G01X-7070Y-1888*
G01X-7052Y-1945*
G01Y-2041*
G01X-7070Y-2098*
G01X-7087Y-2136*
G01X-7121Y-2174*
G01X-7172Y-2193*
G01X-7292*
G01X-7275Y-1812D02*
G01X-7172D01*
G01X-7121Y-1831*
G01X-7104Y-1850*
G01X-7087Y-1888*
G01X-7070Y-1945*
G01Y-2041*
G01X-7087Y-2098*
G01X-7104Y-2136*
G01X-7121Y-2155*
G01X-7172Y-2174*
G01X-7275*
G01X-7001Y-2193D02*
G01X-6847Y-1793*
G01X-6881Y-1812D01*
G01X-6915Y-1850*
G01X-6932Y-1888*
G01X-6950Y-1945*
G01Y-2041*
G01X-6932Y-2098*
G01X-6915Y-2136*
G01X-6881Y-2174*
G01X-6847Y-2193*
G01X-6778*
G01X-6744Y-2174*
G01X-6710Y-2136*
G01X-6692Y-2098*
G01X-6675Y-2041*
G01Y-1945*
G01X-6692Y-1888*
G01X-6710Y-1850*
G01X-6744Y-1812*
G01X-6778Y-1793*
G01X-6847*
G01X-6830Y-1812D02*
G01X-6881Y-1831D01*
G01X-6915Y-1888*
G01X-6932Y-1945*
G01Y-2041*
G01X-6915Y-2098*
G01X-6881Y-2155*
G01X-6830Y-2174*
G01X-6795*
G01X-6744Y-2155*
G01X-6710Y-2098*
G01X-6692Y-2041*
G01Y-1945*
G01X-6710Y-1888*
G01X-6744Y-1831*
G01X-6795Y-1812*
G01X-6830*
G01X-6624Y-2193D02*
G01X-6264*
G01X-6195Y-1793*
G01Y-2193D01*
G01X-6178Y-1850D02*
G01Y-2193D01*
G01X-6195*
G01X-6178Y-1850D02*
G01X-5955Y-2193D01*
G01X-6195Y-1793D02*
G01X-5972Y-2136D01*
G01Y-1793D02*
G01Y-2136D01*
G01Y-1793D02*
G01X-5955D01*
G01Y-2193*
G01X-5887D02*
G01X-5732Y-1793*
G01X-5767Y-1812D01*
G01X-5801Y-1850*
G01X-5818Y-1888*
G01X-5835Y-1945*
G01Y-2041*
G01X-5818Y-2098*
G01X-5801Y-2136*
G01X-5767Y-2174*
G01X-5732Y-2193*
G01X-5664*
G01X-5630Y-2174*
G01X-5595Y-2136*
G01X-5578Y-2098*
G01X-5561Y-2041*
G01Y-1945*
G01X-5578Y-1888*
G01X-5595Y-1850*
G01X-5630Y-1812*
G01X-5664Y-1793*
G01X-5732*
G01X-5715Y-1812D02*
G01X-5767Y-1831D01*
G01X-5801Y-1888*
G01X-5818Y-1945*
G01Y-2041*
G01X-5801Y-2098*
G01X-5767Y-2155*
G01X-5715Y-2174*
G01X-5681*
G01X-5630Y-2155*
G01X-5595Y-2098*
G01X-5578Y-2041*
G01Y-1945*
G01X-5595Y-1888*
G01X-5630Y-1831*
G01X-5681Y-1812*
G01X-5715*
G01X-5510Y-2193D02*
G01X-5372Y-1812*
G01Y-2193D01*
G01X-5355Y-1812D02*
G01Y-2193D01*
G01X-5372*
G01X-5475Y-1793D02*
G01X-5252D01*
G01Y-1812*
G01X-5475Y-1793D02*
G01Y-1812D01*
G01X-5252*
G01X-5218Y-2193D02*
G01X-4858*
G01X-4687Y-1793*
G01X-4824Y-2193D01*
G01X-4687Y-1850D02*
G01X-4807Y-2193D01*
G01X-4824*
G01X-4687Y-1850D02*
G01X-4567Y-2193D01*
G01X-4550*
G01X-4687Y-1793D02*
G01X-4550Y-2193D01*
G01X-4772Y-2079D02*
G01X-4601D01*
G01X-4790Y-2098D02*
G01X-4584D01*
G01X-4515Y-2193D02*
G01X-4447Y-1793*
G01Y-2193D01*
G01X-4430Y-1812D02*
G01Y-2174D01*
G01X-4447Y-1793D02*
G01X-4327D01*
G01X-4275Y-1812*
G01X-4241Y-1850*
G01X-4224Y-1888*
G01X-4207Y-1945*
G01Y-2041*
G01X-4224Y-2098*
G01X-4241Y-2136*
G01X-4275Y-2174*
G01X-4327Y-2193*
G01X-4447*
G01X-4430Y-1812D02*
G01X-4327D01*
G01X-4275Y-1831*
G01X-4258Y-1850*
G01X-4241Y-1888*
G01X-4224Y-1945*
G01Y-2041*
G01X-4241Y-2098*
G01X-4258Y-2136*
G01X-4275Y-2155*
G01X-4327Y-2174*
G01X-4430*
G01X-4155Y-2193D02*
G01X-3950Y-1793*
G01Y-2098D01*
G01X-3967Y-2155*
G01X-4001Y-2174*
G01X-4035*
G01X-4070Y-2155*
G01X-4087Y-2098*
G01X-4104*
G01X-3950Y-1793D02*
G01X-3932D01*
G01Y-2098*
G01X-3950Y-2155*
G01X-3967Y-2174*
G01X-4001Y-2193*
G01X-4035*
G01X-4070Y-2174*
G01X-4087Y-2155*
G01X-4104Y-2098*
G01X-3864Y-2193D02*
G01X-3795Y-1793*
G01Y-2079D01*
G01X-3778Y-2136*
G01X-3744Y-2174*
G01X-3692Y-2193*
G01X-3658*
G01X-3607Y-2174*
G01X-3572Y-2136*
G01X-3555Y-2079*
G01Y-1793*
G01X-3795D02*
G01X-3778D01*
G01Y-2079*
G01X-3761Y-2136*
G01X-3744Y-2155*
G01X-3692Y-2174*
G01X-3658*
G01X-3607Y-2155*
G01X-3590Y-2136*
G01X-3572Y-2079*
G01Y-1793*
G01X-3555*
G01X-3487Y-2193D02*
G01X-3195Y-1850*
G01X-3230Y-1812D01*
G01X-3281Y-1793*
G01X-3350*
G01X-3401Y-1812*
G01X-3435Y-1850*
G01Y-1888*
G01X-3418Y-1926*
G01X-3401Y-1945*
G01X-3367Y-1964*
G01X-3281Y-2002*
G01X-3247Y-2022*
G01X-3230Y-2041*
G01X-3212Y-2079*
G01Y-2136*
G01X-3230Y-2155*
G01X-3281Y-2174*
G01X-3350*
G01X-3384Y-2155*
G01X-3401Y-2136*
G01X-3435*
G01X-3195Y-1850D02*
G01X-3230D01*
G01X-3247Y-1831*
G01X-3281Y-1812*
G01X-3350*
G01X-3401Y-1831*
G01X-3418Y-1850*
G01Y-1888*
G01X-3401Y-1926*
G01X-3367Y-1945*
G01X-3281Y-1983*
G01X-3247Y-2002*
G01X-3212Y-2041*
G01X-3195Y-2079*
G01Y-2136*
G01X-3230Y-2174*
G01X-3281Y-2193*
G01X-3350*
G01X-3401Y-2174*
G01X-3435Y-2136*
G01X-3144Y-2193D02*
G01X-3007Y-1812*
G01Y-2193D01*
G01X-2990Y-1812D02*
G01Y-2193D01*
G01X-3007*
G01X-3110Y-1793D02*
G01X-2887D01*
G01Y-1812*
G01X-3110Y-1793D02*
G01Y-1812D01*
G01X-2887*
G01X-2852Y-2193D02*
G01X-2492*
G01X-2424Y-1793*
G01Y-2193D01*
G01X-2407Y-1888D02*
G01Y-2193D01*
G01X-2424*
G01X-2407Y-1888D02*
G01X-2287Y-2193D01*
G01X-2424Y-1793D02*
G01X-2287Y-2136D01*
G01X-2150Y-1793D02*
G01X-2287Y-2136D01*
G01X-2167Y-1888D02*
G01X-2287Y-2193D01*
G01X-2167Y-1888D02*
G01Y-2193D01*
G01X-2150*
G01Y-1793D02*
G01Y-2193D01*
G01X-2081D02*
G01X-2012Y-1793*
G01Y-2193D01*
G01X-1995Y-1812D02*
G01Y-2174D01*
G01X-2012Y-1793D02*
G01X-1807D01*
G01X-1995Y-1812D02*
G01X-1807D01*
G01Y-1793*
G01X-1995Y-1983D02*
G01X-1892D01*
G01Y-2002*
G01X-1995D02*
G01X-1892D01*
G01X-1995Y-2174D02*
G01X-1807D01*
G01Y-2193*
G01X-2012D02*
G01X-1807D01*
G01X-1755D02*
G01X-1618Y-1812*
G01Y-2193D01*
G01X-1601Y-1812D02*
G01Y-2193D01*
G01X-1618*
G01X-1721Y-1793D02*
G01X-1498D01*
G01Y-1812*
G01X-1721Y-1793D02*
G01Y-1812D01*
G01X-1498*
G01X-1464Y-2193D02*
G01X-1292Y-1793*
G01X-1430Y-2193D01*
G01X-1292Y-1850D02*
G01X-1412Y-2193D01*
G01X-1430*
G01X-1292Y-1850D02*
G01X-1172Y-2193D01*
G01X-1155*
G01X-1292Y-1793D02*
G01X-1155Y-2193D01*
G01X-1378Y-2079D02*
G01X-1207D01*
G01X-1395Y-2098D02*
G01X-1190D01*
G01X-1121Y-2193D02*
G01X-1052Y-1793*
G01Y-2193D01*
G01Y-1793D02*
G01X-1035D01*
G01Y-2174*
G01X-847*
G01Y-2193*
G01X-1052D02*
G01X-847D01*
G01X-830D02*
%ASAXBY*%
%FSLAX44Y44*%
%IPPOS*%
%LNGE-NS*%
%SFA1.0000B1.0000*%
%LPD*%
D18*
G01X6426Y-8748D02*
G01Y-12425D01*
G01X574*
G01Y-8748*
G01X1254*
G01Y-8758*
G01X5746*
G01Y-8748*
G01X6426*
G01X6920Y-80D02*
G01Y-2565D01*
G01X6240*
G01Y-2555*
G01X4224*
G01Y-2340*
G01X3576*
G01Y-3310*
G01X4224*
G01Y-3095*
G01X6240*
G01Y-3085*
G01X6920*
G01Y-5471*
G01X6826*
G01X6791Y-5473*
G01X6757Y-5477*
G01X6723Y-5485*
G01X6689Y-5495*
G01X6657Y-5508*
G01X6626Y-5525*
G01X6597Y-5543*
G01X6569Y-5565*
G01X6543Y-5588*
G01X6520Y-5614*
G01X6499Y-5642*
G01X6480Y-5671*
G01X6464Y-5702*
G01X6450Y-5734*
G01X6440Y-5767*
G01X6432Y-5802*
G01X6428Y-5836*
G01X6426Y-5871*
G01Y-8228*
G01X5746*
G01Y-8218*
G01X1254*
G01Y-8228*
G01X574*
G01Y-5871*
G01X572Y-5836*
G01X568Y-5802*
G01X560Y-5767*
G01X550Y-5734*
G01X536Y-5702*
G01X520Y-5671*
G01X501Y-5642*
G01X480Y-5614*
G01X457Y-5588*
G01X431Y-5565*
G01X403Y-5543*
G01X374Y-5525*
G01X343Y-5508*
G01X311Y-5495*
G01X277Y-5485*
G01X243Y-5477*
G01X209Y-5473*
G01X174Y-5471*
G01X80*
G01Y-3085*
G01X760*
G01Y-3095*
G01X2776*
G01Y-3310*
G01X3424*
G01Y-2340*
G01X2776*
G01Y-2555*
G01X760*
G01Y-2565*
G01X80*
G01Y-80*
G01X6920*
%ASAXBY*%
%FSLAX44Y44*%
%IPPOS*%
%LNGP-NS*%
%SFA1.0000B1.0000*%
%LPD*%
D18*
G01X574Y-12354D02*
G01X6426D01*
G01X574Y-12267D02*
G01X6426D01*
G01X574Y-12180D02*
G01X6426D01*
G01X574Y-12093D02*
G01X6426D01*
G01X574Y-12006D02*
G01X6426D01*
G01X574Y-11919D02*
G01X6426D01*
G01X574Y-11832D02*
G01X6426D01*
G01X574Y-11745D02*
G01X6426D01*
G01X574Y-11658D02*
G01X6426D01*
G01X574Y-11571D02*
G01X6426D01*
G01X574Y-11484D02*
G01X6426D01*
G01X574Y-11397D02*
G01X6426D01*
G01X574Y-11310D02*
G01X6426D01*
G01X574Y-11223D02*
G01X6426D01*
G01X574Y-11136D02*
G01X6426D01*
G01X574Y-11049D02*
G01X6426D01*
G01X574Y-10962D02*
G01X6426D01*
G01X574Y-10875D02*
G01X6426D01*
G01X574Y-10788D02*
G01X6426D01*
G01X574Y-10701D02*
G01X6426D01*
G01X574Y-10614D02*
G01X6426D01*
G01X574Y-10527D02*
G01X6426D01*
G01X574Y-10440D02*
G01X6426D01*
G01X574Y-10353D02*
G01X6426D01*
G01X574Y-10266D02*
G01X6426D01*
G01X574Y-10179D02*
G01X6426D01*
G01X574Y-10092D02*
G01X6426D01*
G01X574Y-10005D02*
G01X6426D01*
G01X574Y-9918D02*
G01X6426D01*
G01X574Y-9831D02*
G01X6426D01*
G01X574Y-9744D02*
G01X6426D01*
G01X574Y-9657D02*
G01X6426D01*
G01X574Y-9570D02*
G01X6426D01*
G01X574Y-9483D02*
G01X6426D01*
G01X574Y-9396D02*
G01X6426D01*
G01X574Y-9309D02*
G01X6426D01*
G01X574Y-9222D02*
G01X6426D01*
G01X574Y-9135D02*
G01X6426D01*
G01X574Y-9048D02*
G01X6426D01*
G01X574Y-8961D02*
G01X6426D01*
G01X574Y-8874D02*
G01X6426D01*
G01X574Y-8787D02*
G01X6426D01*
G01X574Y-8178D02*
G01X6426D01*
G01X574Y-8091D02*
G01X6426D01*
G01X574Y-8004D02*
G01X6426D01*
G01X574Y-7917D02*
G01X6426D01*
G01X574Y-7830D02*
G01X6426D01*
G01X574Y-7743D02*
G01X6426D01*
G01X574Y-7656D02*
G01X6426D01*
G01X574Y-7569D02*
G01X6426D01*
G01X574Y-7482D02*
G01X6426D01*
G01X574Y-7395D02*
G01X6426D01*
G01X574Y-7308D02*
G01X6426D01*
G01X574Y-7221D02*
G01X6426D01*
G01X574Y-7134D02*
G01X6426D01*
G01X574Y-7047D02*
G01X6426D01*
G01X574Y-6960D02*
G01X6426D01*
G01X574Y-6873D02*
G01X6426D01*
G01X574Y-6786D02*
G01X6426D01*
G01X574Y-6699D02*
G01X6426D01*
G01X574Y-6612D02*
G01X6426D01*
G01X574Y-6525D02*
G01X6426D01*
G01X574Y-6438D02*
G01X6426D01*
G01X574Y-6351D02*
G01X6426D01*
G01X574Y-6264D02*
G01X6426D01*
G01X574Y-6177D02*
G01X6426D01*
G01X574Y-6090D02*
G01X6426D01*
G01X574Y-6003D02*
G01X6426D01*
G01X574Y-5916D02*
G01X6426D01*
G01X571Y-5829D02*
G01X6429D01*
G01X552Y-5742D02*
G01X6448D01*
G01X510Y-5655D02*
G01X6490D01*
G01X435Y-5568D02*
G01X6565D01*
G01X263Y-5481D02*
G01X6737D01*
G01X80Y-5394D02*
G01X6920D01*
G01X80Y-5307D02*
G01X6920D01*
G01X80Y-5220D02*
G01X6920D01*
G01X80Y-5133D02*
G01X6920D01*
G01X80Y-5046D02*
G01X6920D01*
G01X80Y-4959D02*
G01X6920D01*
G01X80Y-4872D02*
G01X6920D01*
G01X80Y-4785D02*
G01X6920D01*
G01X80Y-4698D02*
G01X6920D01*
G01X80Y-4611D02*
G01X6920D01*
G01X80Y-4524D02*
G01X6920D01*
G01X80Y-4437D02*
G01X6920D01*
G01X80Y-4350D02*
G01X6920D01*
G01X80Y-4263D02*
G01X6920D01*
G01X80Y-4176D02*
G01X6920D01*
G01X80Y-4089D02*
G01X6920D01*
G01X80Y-4002D02*
G01X6920D01*
G01X80Y-3915D02*
G01X6920D01*
G01X80Y-3828D02*
G01X6920D01*
G01X80Y-3741D02*
G01X6920D01*
G01X80Y-3654D02*
G01X6920D01*
G01X80Y-3567D02*
G01X6920D01*
G01X80Y-3480D02*
G01X6920D01*
G01X80Y-3393D02*
G01X6920D01*
G01X3424Y-3306D02*
G01X3576D01*
G01X4224D02*
G01X6920D01*
G01X80D02*
G01X2776D01*
G01X3424Y-3219D02*
G01X3576D01*
G01X4224D02*
G01X6920D01*
G01X80D02*
G01X2776D01*
G01X3424Y-3132D02*
G01X3576D01*
G01X4224D02*
G01X6920D01*
G01X80D02*
G01X2776D01*
G01X3424Y-3045D02*
G01X3576D01*
G01X3424Y-2958D02*
G01X3576D01*
G01X3424Y-2871D02*
G01X3576D01*
G01X3424Y-2784D02*
G01X3576D01*
G01X3424Y-2697D02*
G01X3576D01*
G01X3424Y-2610D02*
G01X3576D01*
G01X3424Y-2523D02*
G01X3576D01*
G01X4224D02*
G01X6920D01*
G01X80D02*
G01X2776D01*
G01X3424Y-2436D02*
G01X3576D01*
G01X4224D02*
G01X6920D01*
G01X80D02*
G01X2776D01*
G01X3424Y-2349D02*
G01X3576D01*
G01X4224D02*
G01X6920D01*
G01X80D02*
G01X2776D01*
G01X80Y-2262D02*
G01X6920D01*
G01X80Y-2175D02*
G01X6920D01*
G01X80Y-2088D02*
G01X6920D01*
G01X80Y-2001D02*
G01X6920D01*
G01X80Y-1914D02*
G01X6920D01*
G01X80Y-1827D02*
G01X6920D01*
G01X80Y-1740D02*
G01X6920D01*
G01X80Y-1653D02*
G01X6920D01*
G01X80Y-1566D02*
G01X6920D01*
G01X80Y-1479D02*
G01X6920D01*
G01X80Y-1392D02*
G01X6920D01*
G01X80Y-1305D02*
G01X6920D01*
G01X80Y-1218D02*
G01X6920D01*
G01X80Y-1131D02*
G01X6920D01*
G01X80Y-1044D02*
G01X6920D01*
G01X80Y-957D02*
G01X6920D01*
G01X80Y-870D02*
G01X6920D01*
G01X80Y-783D02*
G01X6920D01*
G01X80Y-696D02*
G01X6920D01*
G01X80Y-609D02*
G01X6920D01*
G01X80Y-522D02*
G01X6920D01*
G01X80Y-435D02*
G01X6920D01*
G01X80Y-348D02*
G01X6920D01*
G01X80Y-261D02*
G01X6920D01*
G01X80Y-174D02*
G01X6920D01*
G01X80Y-87D02*
G01X6920D01*
%ASAXBY*%
%FSLAX44Y44*%
%IPPOS*%
%LNLND-NS*%
%SFA1.0000B1.0000*%
%LPD*%
%ASAXBY*%
%FSLAX44Y44*%
%IPPOS*%
%LNPAD-NS*%
%SFA1.0000B1.0000*%
%LPD*%
%ASAXBY*%
%FSLAX44Y44*%
%IPPOS*%
%LNTIE-NS*%
%SFA1.0000B1.0000*%
%LPD*%
D19*
G01X3626Y-3081D03*
D18*
G01X4076D01*
G01X4174Y-3090*
D20*
G01X4219Y-3053D02*
G01X4211Y-3135D01*
G01X4129Y-3127*
G01X4137Y-3045*
G01X4219Y-3053*
D21*
G01X4227Y-3047D02*
G01X4218Y-3143D01*
G01X4121Y-3134*
G01X4130Y-3037*
G01X4227Y-3047*
D22*
G01X4228Y-3046D02*
G01X4218Y-3144D01*
G01X4120Y-3135*
G01X4129Y-3036*
G01X4228Y-3046*
D19*
G01X3626Y-2569D03*
D18*
G01X4076D01*
G01X4174Y-2560*
D20*
G01X4211Y-2515D02*
G01X4219Y-2597D01*
G01X4137Y-2605*
G01X4129Y-2523*
G01X4211Y-2515*
D21*
G01X4218Y-2507D02*
G01X4227Y-2603D01*
G01X4130Y-2613*
G01X4121Y-2516*
G01X4218Y-2507*
D22*
G01X4218Y-2506D02*
G01X4228Y-2604D01*
G01X4129Y-2614*
G01X4120Y-2515*
G01X4218Y-2506*
D19*
G01X3374Y-3081D03*
D18*
G01X2924D01*
G01X2826Y-3090*
D20*
G01X2789Y-3135D02*
G01X2781Y-3053D01*
G01X2863Y-3045*
G01X2871Y-3127*
G01X2789Y-3135*
D21*
G01X2782Y-3143D02*
G01X2773Y-3047D01*
G01X2870Y-3037*
G01X2879Y-3134*
G01X2782Y-3143*
D22*
G01X2782Y-3144D02*
G01X2772Y-3046D01*
G01X2871Y-3036*
G01X2880Y-3135*
G01X2782Y-3144*
D19*
G01X3374Y-2569D03*
D18*
G01X2924D01*
G01X2826Y-2560*
D20*
G01X2781Y-2597D02*
G01X2789Y-2515D01*
G01X2871Y-2523*
G01X2863Y-2605*
G01X2781Y-2597*
D21*
G01X2773Y-2603D02*
G01X2782Y-2507D01*
G01X2879Y-2516*
G01X2870Y-2613*
G01X2773Y-2603*
D22*
G01X2772Y-2604D02*
G01X2782Y-2506D01*
G01X2880Y-2515*
G01X2871Y-2614*
G01X2772Y-2604*
D23*
G01X50Y-2603D03*
D24*
G01Y-305D01*
D23*
G01D03*
G01Y-3047D03*
D24*
G01Y-5345D01*
D23*
G01D03*
G01X544Y-8266D03*
D24*
G01Y-5968D01*
D23*
G01D03*
G01Y-8710D03*
D24*
G01Y-11008D01*
D23*
G01D03*
G01X6950Y-2603D03*
D24*
G01Y-305D01*
D23*
G01D03*
G01Y-3047D03*
D24*
G01Y-5345D01*
D23*
G01D03*
G01X6456Y-8266D03*
D24*
G01Y-5968D01*
D23*
G01D03*
G01Y-8710D03*
D24*
G01Y-11008D01*
D23*
G01D03*
%ASAXBY*%
%FSLAX44Y44*%
%IPPOS*%
%LNTRA-NS*%
%SFA1.0000B1.0000*%
%LPD*%
D25*
G01X1524Y-8488D03*
D26*
G01X5476D01*
D25*
G01D03*
G01X2866Y-2825D03*
D26*
G01X1030D01*
D25*
G01D03*
G01X4134D03*
D26*
G01X5970D01*
D25*
G01D03*
M02*
