G04 #@! TF.GenerationSoftware,KiCad,Pcbnew,(5.0.0)*
G04 #@! TF.CreationDate,2019-08-11T19:05:01-03:00*
G04 #@! TF.ProjectId,PF_apiner,50465F6170696E65722E6B696361645F,rev?*
G04 #@! TF.SameCoordinates,Original*
G04 #@! TF.FileFunction,Copper,L2,Inr,Signal*
G04 #@! TF.FilePolarity,Positive*
%FSLAX46Y46*%
G04 Gerber Fmt 4.6, Leading zero omitted, Abs format (unit mm)*
G04 Created by KiCad (PCBNEW (5.0.0)) date 08/11/19 19:05:01*
%MOMM*%
%LPD*%
G01*
G04 APERTURE LIST*
G04 #@! TA.AperFunction,ViaPad*
%ADD10O,1.800000X2.200000*%
G04 #@! TD*
G04 #@! TA.AperFunction,ViaPad*
%ADD11C,0.600000*%
G04 #@! TD*
G04 #@! TA.AperFunction,Conductor*
%ADD12C,0.250000*%
G04 #@! TD*
G04 #@! TA.AperFunction,Conductor*
%ADD13C,0.500000*%
G04 #@! TD*
G04 #@! TA.AperFunction,Conductor*
%ADD14C,0.760000*%
G04 #@! TD*
G04 #@! TA.AperFunction,Conductor*
%ADD15C,0.150000*%
G04 #@! TD*
G04 APERTURE END LIST*
D10*
G04 #@! TO.N,/L-LINE*
G04 #@! TO.C,J1*
X95000000Y-41500000D03*
G04 #@! TO.N,/HS_CAN_N*
X99000000Y-41500000D03*
G04 #@! TO.N,Net-(J1-Pad13)*
X103000000Y-41500000D03*
G04 #@! TO.N,Net-(J1-Pad12)*
X107000000Y-41500000D03*
G04 #@! TO.N,/MS_CAN_N*
X111000000Y-41500000D03*
G04 #@! TO.N,/J1850_BUS-*
X115000000Y-41500000D03*
G04 #@! TO.N,/J1850_BUS+*
X115000000Y-38500000D03*
G04 #@! TO.N,/MS_CAN_P*
X111000000Y-38500000D03*
G04 #@! TO.N,GND*
X107000000Y-38500000D03*
X103000000Y-38500000D03*
G04 #@! TO.N,/HS_CAN_P*
X99000000Y-38500000D03*
G04 #@! TO.N,/K-LINE*
X95000000Y-38500000D03*
G04 #@! TO.N,Net-(J1-Pad9)*
X119000000Y-41500000D03*
G04 #@! TO.N,/SW_CAN*
X119000000Y-38500000D03*
G04 #@! TO.N,Net-(J1-Pad8)*
X91000000Y-38500000D03*
G04 #@! TO.N,VIN*
X91000000Y-41500000D03*
G04 #@! TD*
D11*
G04 #@! TO.N,GND*
X129000000Y-56000000D03*
X110750000Y-69800000D03*
X106500000Y-69666413D03*
X119750000Y-62750000D03*
X96282074Y-60242599D03*
X94250000Y-69250000D03*
X93500000Y-69250000D03*
X110931510Y-46671460D03*
X105500000Y-42750000D03*
X99750000Y-51750000D03*
X103121232Y-54871232D03*
X85500000Y-38250000D03*
X85500000Y-39000000D03*
X113000000Y-42750000D03*
X122500000Y-38000000D03*
X123250000Y-58750000D03*
X119250000Y-71500000D03*
X121750000Y-71500000D03*
X117700000Y-51500000D03*
X115600000Y-51400000D03*
X121300000Y-66600000D03*
X125300000Y-64200000D03*
X128700000Y-68000000D03*
X128600000Y-61000000D03*
X127600000Y-57300000D03*
X128600000Y-60000000D03*
X121000000Y-47400000D03*
X115500000Y-48500000D03*
X81800000Y-56100000D03*
X83750000Y-56000000D03*
X84500000Y-56000000D03*
X94500000Y-51250000D03*
X98250000Y-45750000D03*
X92000000Y-49250000D03*
X88575000Y-52250000D03*
X96250000Y-55750000D03*
X89250000Y-62250000D03*
X83250000Y-61000000D03*
X83000000Y-68000000D03*
X87750000Y-70750000D03*
X87500000Y-76250000D03*
X102000000Y-69500000D03*
X98000000Y-70750000D03*
X98500000Y-74250000D03*
X98500000Y-75250000D03*
X98500000Y-76250000D03*
X109750000Y-59750000D03*
X111400000Y-59750000D03*
X111400000Y-61400000D03*
X109750000Y-61400000D03*
X108100000Y-61400000D03*
X108100000Y-63050000D03*
X109750000Y-63050000D03*
X111400000Y-63050000D03*
X111400000Y-64700000D03*
X109750000Y-64700000D03*
X108100000Y-64700000D03*
X106450000Y-64700000D03*
X106450000Y-63050000D03*
X106450000Y-61400000D03*
X108100000Y-59750000D03*
X106450000Y-59750000D03*
X82750000Y-51250000D03*
X82750000Y-50250000D03*
X82750000Y-48500000D03*
X82750000Y-47500000D03*
G04 #@! TO.N,+5V*
X95750000Y-61250000D03*
X115000000Y-57250000D03*
X126000000Y-56000000D03*
X92100000Y-56500000D03*
X91300000Y-56500000D03*
X90500000Y-56500000D03*
X94300000Y-61200000D03*
X89500000Y-68750000D03*
X90000000Y-69500000D03*
X89750000Y-60723192D03*
G04 #@! TO.N,Net-(C3-Pad1)*
X85750000Y-55000000D03*
X83250000Y-59500000D03*
G04 #@! TO.N,DLC*
X123500000Y-49500000D03*
X117750000Y-48500000D03*
X114000000Y-48500000D03*
X88250000Y-46250000D03*
X95500000Y-43750000D03*
X85750000Y-51250000D03*
X85750000Y-50250000D03*
X85750000Y-48500000D03*
X85750000Y-47500000D03*
G04 #@! TO.N,+3.3V*
X96500000Y-63750000D03*
X114250000Y-64750000D03*
X109500000Y-54000000D03*
X122750000Y-69500000D03*
X99500000Y-50500000D03*
X85250000Y-64750000D03*
X95250000Y-55750000D03*
X109000000Y-49750000D03*
X102250000Y-67750000D03*
X115500000Y-70500000D03*
X90250000Y-64750000D03*
X90500000Y-65500000D03*
X89750000Y-65500000D03*
G04 #@! TO.N,DLC_SW*
X93500000Y-51000000D03*
X101750000Y-48750000D03*
X89500000Y-52000000D03*
X105750000Y-48750000D03*
G04 #@! TO.N,+5V_SW*
X120000000Y-61750000D03*
X123000000Y-64050000D03*
X120000000Y-66710000D03*
X110000000Y-47250000D03*
X122750000Y-50250000D03*
X99250000Y-45500000D03*
X96250000Y-58000000D03*
G04 #@! TO.N,DLC_RAW*
X89207697Y-48126910D03*
X86250000Y-69500000D03*
X108000000Y-70250000D03*
G04 #@! TO.N,/MicroM4/PWR_SAVE*
X101500000Y-57750000D03*
X94250000Y-56500000D03*
G04 #@! TO.N,/CAN_Transceiver/SW_CAN_LOAD*
X125500000Y-57500000D03*
X115750000Y-58000000D03*
X104750000Y-58000000D03*
G04 #@! TO.N,/ISO_Transceiver/ISO_K_TX*
X102175044Y-56880579D03*
X111750000Y-57250000D03*
G04 #@! TO.N,/ISO_Transceiver/ISO_RX*
X102500000Y-59000000D03*
X103250000Y-67200000D03*
G04 #@! TO.N,/ISO_Transceiver/ISO_L_TX*
X102518606Y-56213895D03*
X112500000Y-56750000D03*
G04 #@! TO.N,Net-(R30-Pad2)*
X110000000Y-48750000D03*
X102750000Y-49750000D03*
G04 #@! TO.N,/J1850_Transceiver/PWM_RX*
X103500000Y-58000000D03*
X104250000Y-65500000D03*
G04 #@! TO.N,Net-(R34-Pad1)*
X101750000Y-48000000D03*
G04 #@! TO.N,Net-(R37-Pad2)*
X110000000Y-49750000D03*
X103500000Y-48000000D03*
G04 #@! TO.N,/J1850_Transceiver/VPW_RX*
X101750000Y-49500000D03*
X104000000Y-66475000D03*
G04 #@! TO.N,/MicroM4/UART1_RX*
X113500000Y-54000000D03*
G04 #@! TO.N,/CAN_Transceiver/MS_CAN_RX*
X114250000Y-67250000D03*
X115750000Y-60000000D03*
G04 #@! TO.N,/CAN_Transceiver/SW_CAN_MODE0*
X108250000Y-55500000D03*
X123750000Y-54750000D03*
X114969668Y-55675000D03*
G04 #@! TO.N,/CAN_Transceiver/SW_CAN_MODE1*
X124500000Y-52750000D03*
X115250000Y-54500000D03*
X109000000Y-54750000D03*
G04 #@! TO.N,/CAN_Transceiver/SW_CAN_TX*
X125750000Y-55000000D03*
X115000000Y-56500000D03*
X110250000Y-56200000D03*
G04 #@! TO.N,/MicroM4/STN_SLEEP*
X102500000Y-63500000D03*
G04 #@! TO.N,/MicroM4/STN_RESET*
X108750000Y-67250000D03*
G04 #@! TO.N,/MicroM4/UART1_TX*
X114250000Y-54500000D03*
G04 #@! TO.N,/SW_CAN*
X129250000Y-54750000D03*
X127750000Y-46500000D03*
G04 #@! TO.N,/J1850_BUS+*
X95750000Y-62000000D03*
X106250000Y-56000000D03*
G04 #@! TO.N,/HS_CAN_N*
X121250000Y-61750000D03*
G04 #@! TO.N,/MS_CAN_N*
X123000000Y-57750000D03*
G04 #@! TO.N,/MS_CAN_P*
X122000000Y-58250000D03*
G04 #@! TO.N,/HS_CAN_P*
X123250000Y-62500000D03*
G04 #@! TO.N,/MicroM4/BOOT*
X97950002Y-52750000D03*
X83250000Y-64250000D03*
G04 #@! TO.N,Net-(C36-Pad2)*
X120500000Y-75250000D03*
G04 #@! TD*
D12*
G04 #@! TO.N,+5V*
X109325001Y-57825001D02*
X106924999Y-55424999D01*
X106924999Y-55424999D02*
X104658300Y-55424999D01*
X104658300Y-55424999D02*
X98833299Y-61250000D01*
X98833299Y-61250000D02*
X95750000Y-61250000D01*
X115000000Y-57250000D02*
X114575736Y-57250000D01*
X114575736Y-57250000D02*
X114000735Y-57825001D01*
X114000735Y-57825001D02*
X109325001Y-57825001D01*
D13*
X92100000Y-56500000D02*
X92100000Y-56924264D01*
X92100000Y-56924264D02*
X91300000Y-57724264D01*
X91300000Y-56500000D02*
X91300000Y-56924264D01*
X91300000Y-56924264D02*
X91300000Y-57724264D01*
D14*
X89119999Y-63080001D02*
X91300000Y-63080001D01*
D13*
X91300000Y-57724264D02*
X91300000Y-63080001D01*
D14*
X91300000Y-63080001D02*
X92419999Y-63080001D01*
D13*
X90500000Y-56500000D02*
X90500000Y-56924264D01*
X90500000Y-56924264D02*
X91300000Y-57724264D01*
X90500000Y-56500000D02*
X92100000Y-56500000D01*
D14*
X89000000Y-63250000D02*
X89000000Y-63200000D01*
X89000000Y-63200000D02*
X89119999Y-63080001D01*
X92419999Y-63080001D02*
X94000001Y-61499999D01*
X94000001Y-61499999D02*
X94300000Y-61200000D01*
X89000000Y-63250000D02*
X88000000Y-64250000D01*
X88000000Y-64250000D02*
X88000000Y-67250000D01*
X88000000Y-67250000D02*
X89500000Y-68750000D01*
D13*
G04 #@! TO.N,DLC*
X122000000Y-46750000D02*
X122000000Y-48000000D01*
X122000000Y-48000000D02*
X123500000Y-49500000D01*
X114000000Y-43750000D02*
X117750000Y-43750000D01*
X117750000Y-43750000D02*
X119000000Y-43750000D01*
D12*
X117750000Y-48500000D02*
X117750000Y-43750000D01*
D13*
X95500000Y-43750000D02*
X114000000Y-43750000D01*
D12*
X114000000Y-48500000D02*
X114000000Y-43750000D01*
D13*
X119000000Y-43750000D02*
X122000000Y-46750000D01*
X88250000Y-46250000D02*
X90750000Y-43750000D01*
X90750000Y-43750000D02*
X95500000Y-43750000D01*
D12*
G04 #@! TO.N,+3.3V*
X95000000Y-60300000D02*
X95000000Y-63750000D01*
X95000000Y-63750000D02*
X95000000Y-65549999D01*
X96500000Y-63750000D02*
X95000000Y-63750000D01*
D13*
X90799999Y-65799999D02*
X94750000Y-65799999D01*
X94750000Y-65799999D02*
X95600000Y-65799999D01*
D12*
X95250000Y-60050000D02*
X95000000Y-60300000D01*
X95000000Y-65549999D02*
X94750000Y-65799999D01*
D15*
X103250000Y-54000000D02*
X101300000Y-54000000D01*
X101300000Y-54000000D02*
X95250000Y-60050000D01*
X115500000Y-70500000D02*
X115500000Y-66000000D01*
X115500000Y-66000000D02*
X114250000Y-64750000D01*
X108500000Y-54000000D02*
X109500000Y-54000000D01*
X99500000Y-50500000D02*
X99200001Y-50799999D01*
X99200001Y-50799999D02*
X99200001Y-53299999D01*
X99200001Y-53299999D02*
X97275001Y-55224999D01*
D12*
X121000000Y-70500000D02*
X121750000Y-70500000D01*
X121750000Y-70500000D02*
X122750000Y-69500000D01*
X115500000Y-70500000D02*
X121000000Y-70500000D01*
D15*
X95250000Y-55750000D02*
X95250000Y-60050000D01*
D13*
X95600000Y-65799999D02*
X97250000Y-65799999D01*
D15*
X95250000Y-55750000D02*
X95775001Y-55224999D01*
X95775001Y-55224999D02*
X97275001Y-55224999D01*
X107000000Y-50250000D02*
X103250000Y-54000000D01*
X109000000Y-49750000D02*
X108500000Y-50250000D01*
X108500000Y-50250000D02*
X107000000Y-50250000D01*
X108500000Y-54000000D02*
X103250000Y-54000000D01*
D13*
X97250000Y-65799999D02*
X99299999Y-65799999D01*
D12*
X102000000Y-68500000D02*
X102000000Y-68000000D01*
X102000000Y-68000000D02*
X102250000Y-67750000D01*
D13*
X110000000Y-70500000D02*
X115500000Y-70500000D01*
X109750000Y-70250000D02*
X110000000Y-70500000D01*
X108000000Y-68500000D02*
X109750000Y-70250000D01*
X102000000Y-68500000D02*
X108000000Y-68500000D01*
X99299999Y-65799999D02*
X102000000Y-68500000D01*
X90500000Y-65500000D02*
X90799999Y-65799999D01*
D12*
G04 #@! TO.N,DLC_SW*
X102601002Y-48750000D02*
X101750000Y-48750000D01*
X105750000Y-48750000D02*
X102601002Y-48750000D01*
G04 #@! TO.N,+5V_SW*
X120000000Y-51750000D02*
X120000000Y-61750000D01*
D13*
X110000000Y-45500000D02*
X111500000Y-45500000D01*
X111500000Y-45500000D02*
X113000000Y-47000000D01*
X113000000Y-47000000D02*
X113000000Y-48536002D01*
X113000000Y-48536002D02*
X114213998Y-49750000D01*
X114213998Y-49750000D02*
X117000000Y-49750000D01*
X99250000Y-45500000D02*
X110000000Y-45500000D01*
D15*
X110000000Y-47250000D02*
X110000000Y-45500000D01*
D13*
X118000000Y-49750000D02*
X120000000Y-51750000D01*
X117000000Y-49750000D02*
X122250000Y-49750000D01*
X117000000Y-49750000D02*
X118000000Y-49750000D01*
X122250000Y-49750000D02*
X122750000Y-50250000D01*
X100000000Y-54250000D02*
X100450001Y-53799999D01*
X100450001Y-53799999D02*
X100450001Y-46700001D01*
X100450001Y-46700001D02*
X99250000Y-45500000D01*
X96250000Y-58000000D02*
X100000000Y-54250000D01*
D15*
G04 #@! TO.N,DLC_RAW*
X86250000Y-69500000D02*
X86941413Y-70191413D01*
X86941413Y-70191413D02*
X107941413Y-70191413D01*
X107941413Y-70191413D02*
X108000000Y-70250000D01*
D12*
G04 #@! TO.N,/J1850_BUS+*
X95750000Y-62000000D02*
X96750000Y-63000000D01*
X104648998Y-56000000D02*
X105825736Y-56000000D01*
X96750000Y-63000000D02*
X99750000Y-63000000D01*
X99750000Y-63000000D02*
X101500000Y-61250000D01*
X101500000Y-61250000D02*
X101500000Y-59148998D01*
X101500000Y-59148998D02*
X104648998Y-56000000D01*
X105825736Y-56000000D02*
X106250000Y-56000000D01*
D13*
G04 #@! TO.N,/MicroM4/BOOT*
X97825736Y-52750000D02*
X97950002Y-52750000D01*
X97950002Y-52750000D02*
X89500000Y-52750000D01*
X84250000Y-58000000D02*
X84250000Y-63250000D01*
X84250000Y-63250000D02*
X83250000Y-64250000D01*
X89500000Y-52750000D02*
X84250000Y-58000000D01*
G04 #@! TD*
D15*
G04 #@! TO.N,+3.3V*
G36*
X90868203Y-64381797D02*
X90925000Y-64518918D01*
X90925000Y-65731082D01*
X90868203Y-65868203D01*
X90731082Y-65925000D01*
X89518918Y-65925000D01*
X89381797Y-65868203D01*
X89325000Y-65731082D01*
X89325000Y-64406066D01*
X89406066Y-64325000D01*
X90731082Y-64325000D01*
X90868203Y-64381797D01*
X90868203Y-64381797D01*
G37*
X90868203Y-64381797D02*
X90925000Y-64518918D01*
X90925000Y-65731082D01*
X90868203Y-65868203D01*
X90731082Y-65925000D01*
X89518918Y-65925000D01*
X89381797Y-65868203D01*
X89325000Y-65731082D01*
X89325000Y-64406066D01*
X89406066Y-64325000D01*
X90731082Y-64325000D01*
X90868203Y-64381797D01*
G04 #@! TD*
M02*
