G04 #@! TF.GenerationSoftware,KiCad,Pcbnew,(5.0.0)*
G04 #@! TF.CreationDate,2019-08-11T19:05:01-03:00*
G04 #@! TF.ProjectId,PF_apiner,50465F6170696E65722E6B696361645F,rev?*
G04 #@! TF.SameCoordinates,Original*
G04 #@! TF.FileFunction,Copper,L4,Bot,Signal*
G04 #@! TF.FilePolarity,Positive*
%FSLAX46Y46*%
G04 Gerber Fmt 4.6, Leading zero omitted, Abs format (unit mm)*
G04 Created by KiCad (PCBNEW (5.0.0)) date 08/11/19 19:05:01*
%MOMM*%
%LPD*%
G01*
G04 APERTURE LIST*
G04 #@! TA.AperFunction,Conductor*
%ADD10R,0.800000X1.000000*%
G04 #@! TD*
G04 #@! TA.AperFunction,Conductor*
%ADD11R,0.500000X0.500000*%
G04 #@! TD*
G04 #@! TA.AperFunction,Conductor*
%ADD12R,0.350000X1.600000*%
G04 #@! TD*
G04 #@! TA.AperFunction,SMDPad,CuDef*
%ADD13R,1.000000X1.800000*%
G04 #@! TD*
G04 #@! TA.AperFunction,SMDPad,CuDef*
%ADD14R,0.800000X0.900000*%
G04 #@! TD*
G04 #@! TA.AperFunction,Conductor*
%ADD15R,0.800000X0.900000*%
G04 #@! TD*
G04 #@! TA.AperFunction,Conductor*
%ADD16R,1.400000X0.950000*%
G04 #@! TD*
G04 #@! TA.AperFunction,Conductor*
%ADD17R,0.900000X0.800000*%
G04 #@! TD*
G04 #@! TA.AperFunction,Conductor*
%ADD18R,1.000000X0.800000*%
G04 #@! TD*
G04 #@! TA.AperFunction,Conductor*
%ADD19R,0.685800X0.584200*%
G04 #@! TD*
G04 #@! TA.AperFunction,Conductor*
%ADD20R,0.584200X0.685800*%
G04 #@! TD*
G04 #@! TA.AperFunction,ComponentPad*
%ADD21O,1.800000X2.200000*%
G04 #@! TD*
G04 #@! TA.AperFunction,Conductor*
%ADD22R,0.600000X1.500000*%
G04 #@! TD*
G04 #@! TA.AperFunction,Conductor*
%ADD23R,1.550000X0.600000*%
G04 #@! TD*
G04 #@! TA.AperFunction,Conductor*
%ADD24R,0.950000X0.500000*%
G04 #@! TD*
G04 #@! TA.AperFunction,Conductor*
%ADD25R,1.300000X0.900000*%
G04 #@! TD*
G04 #@! TA.AperFunction,Conductor*
%ADD26R,1.475000X0.900000*%
G04 #@! TD*
G04 #@! TA.AperFunction,Conductor*
%ADD27R,3.125000X1.733000*%
G04 #@! TD*
G04 #@! TA.AperFunction,Conductor*
%ADD28R,1.650000X1.650000*%
G04 #@! TD*
G04 #@! TA.AperFunction,Conductor*
%ADD29R,0.350000X0.850000*%
G04 #@! TD*
G04 #@! TA.AperFunction,Conductor*
%ADD30R,0.850000X0.350000*%
G04 #@! TD*
G04 #@! TA.AperFunction,Conductor*
%ADD31R,1.200000X1.400000*%
G04 #@! TD*
G04 #@! TA.AperFunction,SMDPad,CuDef*
%ADD32R,0.500000X0.500000*%
G04 #@! TD*
G04 #@! TA.AperFunction,ViaPad*
%ADD33C,0.600000*%
G04 #@! TD*
G04 #@! TA.AperFunction,Conductor*
%ADD34C,0.250000*%
G04 #@! TD*
G04 #@! TA.AperFunction,Conductor*
%ADD35C,0.150000*%
G04 #@! TD*
G04 #@! TA.AperFunction,Conductor*
%ADD36C,0.760000*%
G04 #@! TD*
G04 #@! TA.AperFunction,Conductor*
%ADD37C,0.500000*%
G04 #@! TD*
G04 APERTURE END LIST*
D10*
G04 #@! TO.N,Net-(Q4-Pad1)*
G04 #@! TO.C,Q4*
X91450000Y-50750000D03*
G04 #@! TO.N,/K-LINE*
X90500000Y-48750000D03*
G04 #@! TO.N,GND*
X89550000Y-50750000D03*
G04 #@! TD*
D11*
G04 #@! TO.N,/J1850_Transceiver/J1850_BUS-_TX*
G04 #@! TO.C,R36*
X112000000Y-47500000D03*
G04 #@! TO.N,+5V_SW*
X111000000Y-47500000D03*
G04 #@! TD*
D12*
G04 #@! TO.N,N/C*
G04 #@! TO.C,U3*
X105700000Y-46500000D03*
G04 #@! TO.N,/J1850_Transceiver/VPW_RX*
X105050000Y-46500000D03*
G04 #@! TO.N,GND*
X104400000Y-46500000D03*
G04 #@! TO.N,Net-(R37-Pad2)*
X103750000Y-46500000D03*
G04 #@! TO.N,Net-(R34-Pad1)*
X103100000Y-46500000D03*
G04 #@! TO.N,N/C*
X102450000Y-46500000D03*
X101800000Y-46500000D03*
G04 #@! TO.N,Net-(R30-Pad2)*
X101800000Y-52100000D03*
G04 #@! TO.N,Net-(R31-Pad2)*
X102450000Y-52100000D03*
G04 #@! TO.N,Net-(R8-Pad1)*
X103100000Y-52100000D03*
G04 #@! TO.N,Net-(R11-Pad2)*
X103750000Y-52100000D03*
G04 #@! TO.N,DLC_SW*
X104400000Y-52100000D03*
G04 #@! TO.N,/ISO_Transceiver/ISO_RX*
X105050000Y-52100000D03*
G04 #@! TO.N,/J1850_Transceiver/PWM_RX*
X105700000Y-52100000D03*
G04 #@! TD*
D13*
G04 #@! TO.P,C4,1*
G04 #@! TO.N,DLC*
X84500000Y-50750000D03*
G04 #@! TO.P,C4,2*
G04 #@! TO.N,GND*
X81500000Y-50750000D03*
G04 #@! TD*
G04 #@! TO.P,C9,1*
G04 #@! TO.N,DLC*
X84500000Y-48000000D03*
G04 #@! TO.P,C9,2*
G04 #@! TO.N,GND*
X81500000Y-48000000D03*
G04 #@! TD*
D14*
G04 #@! TO.P,C10,1*
G04 #@! TO.N,+5V*
X91250000Y-61000000D03*
G04 #@! TO.P,C10,2*
G04 #@! TO.N,GND*
X92750000Y-61000000D03*
G04 #@! TD*
D11*
G04 #@! TO.N,/OBD_UART_Interface/ANALOG_IN*
G04 #@! TO.C,C12*
X110000000Y-68250000D03*
G04 #@! TO.N,GND*
X110000000Y-69250000D03*
G04 #@! TD*
D15*
G04 #@! TO.N,DLC*
G04 #@! TO.C,C13*
X89750000Y-47250000D03*
G04 #@! TO.N,GND*
X91250000Y-47250000D03*
G04 #@! TD*
G04 #@! TO.N,DLC*
G04 #@! TO.C,C14*
X95750000Y-47250000D03*
G04 #@! TO.N,GND*
X97250000Y-47250000D03*
G04 #@! TD*
G04 #@! TO.N,DLC_SW*
G04 #@! TO.C,C15*
X107250000Y-48250000D03*
G04 #@! TO.N,GND*
X108750000Y-48250000D03*
G04 #@! TD*
D16*
G04 #@! TO.N,DLC*
G04 #@! TO.C,C18*
X125000000Y-50000000D03*
G04 #@! TO.N,GND*
X125000000Y-48150000D03*
G04 #@! TD*
D11*
G04 #@! TO.N,Net-(C20-Pad1)*
G04 #@! TO.C,C20*
X101000000Y-40750000D03*
G04 #@! TO.N,GND*
X101000000Y-39750000D03*
G04 #@! TD*
G04 #@! TO.N,Net-(C22-Pad1)*
G04 #@! TO.C,C22*
X113000000Y-41000000D03*
G04 #@! TO.N,GND*
X113000000Y-42000000D03*
G04 #@! TD*
G04 #@! TO.N,Net-(C23-Pad1)*
G04 #@! TO.C,C23*
X109000000Y-40750000D03*
G04 #@! TO.N,GND*
X109000000Y-39750000D03*
G04 #@! TD*
D15*
G04 #@! TO.N,DLC*
G04 #@! TO.C,C24*
X117750000Y-47500000D03*
G04 #@! TO.N,GND*
X119250000Y-47500000D03*
G04 #@! TD*
D17*
G04 #@! TO.N,DLC_SW*
G04 #@! TO.C,C25*
X88500000Y-74250000D03*
G04 #@! TO.N,GND*
X88500000Y-75750000D03*
G04 #@! TD*
D15*
G04 #@! TO.N,DLC*
G04 #@! TO.C,C26*
X114000000Y-47500000D03*
G04 #@! TO.N,GND*
X115500000Y-47500000D03*
G04 #@! TD*
D17*
G04 #@! TO.N,V_J1850*
G04 #@! TO.C,C27*
X96500000Y-73500000D03*
G04 #@! TO.N,GND*
X96500000Y-75000000D03*
G04 #@! TD*
D11*
G04 #@! TO.N,Net-(C28-Pad1)*
G04 #@! TO.C,C28*
X111250000Y-68250000D03*
G04 #@! TO.N,GND*
X111250000Y-69250000D03*
G04 #@! TD*
D15*
G04 #@! TO.N,GND*
G04 #@! TO.C,C29*
X118250000Y-62750000D03*
G04 #@! TO.N,Net-(C29-Pad2)*
X116750000Y-62750000D03*
G04 #@! TD*
D11*
G04 #@! TO.N,GND*
G04 #@! TO.C,C30*
X102500000Y-61500000D03*
G04 #@! TO.N,+3.3V*
X102500000Y-62500000D03*
G04 #@! TD*
G04 #@! TO.N,GND*
G04 #@! TO.C,C31*
X103750000Y-61500000D03*
G04 #@! TO.N,+3.3V*
X103750000Y-62500000D03*
G04 #@! TD*
G04 #@! TO.N,Net-(C32-Pad1)*
G04 #@! TO.C,C32*
X98750000Y-58000000D03*
G04 #@! TO.N,GND*
X97750000Y-58000000D03*
G04 #@! TD*
G04 #@! TO.N,Net-(C33-Pad1)*
G04 #@! TO.C,C33*
X97500000Y-63250000D03*
G04 #@! TO.N,GND*
X98500000Y-63250000D03*
G04 #@! TD*
D18*
G04 #@! TO.N,GND*
G04 #@! TO.C,D3*
X103250000Y-70450000D03*
G04 #@! TO.N,/OBD_UART_Interface/ANALOG_IN*
X105250000Y-69500000D03*
G04 #@! TO.N,+3.3V*
X103250000Y-68550000D03*
G04 #@! TD*
D10*
G04 #@! TO.N,GND*
G04 #@! TO.C,D4*
X91450000Y-45750000D03*
G04 #@! TO.N,/K-LINE*
X90500000Y-43750000D03*
G04 #@! TO.N,DLC*
X89550000Y-45750000D03*
G04 #@! TD*
G04 #@! TO.N,GND*
G04 #@! TO.C,D5*
X97450000Y-45750000D03*
G04 #@! TO.N,/L-LINE*
X96500000Y-43750000D03*
G04 #@! TO.N,DLC*
X95550000Y-45750000D03*
G04 #@! TD*
G04 #@! TO.N,GND*
G04 #@! TO.C,D6*
X119450000Y-46000000D03*
G04 #@! TO.N,/J1850_BUS+*
X118500000Y-44000000D03*
G04 #@! TO.N,DLC*
X117550000Y-46000000D03*
G04 #@! TD*
G04 #@! TO.N,GND*
G04 #@! TO.C,D7*
X115700000Y-46000000D03*
G04 #@! TO.N,/J1850_BUS-*
X114750000Y-44000000D03*
G04 #@! TO.N,DLC*
X113800000Y-46000000D03*
G04 #@! TD*
D19*
G04 #@! TO.N,Net-(D8-Pad1)*
G04 #@! TO.C,D8*
X94500000Y-64110000D03*
G04 #@! TO.N,/J1850_BUS+*
X94500000Y-62000000D03*
G04 #@! TD*
D20*
G04 #@! TO.N,Net-(D9-Pad1)*
G04 #@! TO.C,D9*
X91250000Y-63750000D03*
G04 #@! TO.N,GND*
X89140000Y-63750000D03*
G04 #@! TD*
G04 #@! TO.N,+5V_SW*
G04 #@! TO.C,D10*
X103890000Y-44250000D03*
G04 #@! TO.N,Net-(D10-Pad2)*
X106000000Y-44250000D03*
G04 #@! TD*
D21*
G04 #@! TO.P,J1,15*
G04 #@! TO.N,/L-LINE*
X95000000Y-41500000D03*
G04 #@! TO.P,J1,14*
G04 #@! TO.N,/HS_CAN_N*
X99000000Y-41500000D03*
G04 #@! TO.P,J1,13*
G04 #@! TO.N,Net-(J1-Pad13)*
X103000000Y-41500000D03*
G04 #@! TO.P,J1,12*
G04 #@! TO.N,Net-(J1-Pad12)*
X107000000Y-41500000D03*
G04 #@! TO.P,J1,11*
G04 #@! TO.N,/MS_CAN_N*
X111000000Y-41500000D03*
G04 #@! TO.P,J1,10*
G04 #@! TO.N,/J1850_BUS-*
X115000000Y-41500000D03*
G04 #@! TO.P,J1,2*
G04 #@! TO.N,/J1850_BUS+*
X115000000Y-38500000D03*
G04 #@! TO.P,J1,3*
G04 #@! TO.N,/MS_CAN_P*
X111000000Y-38500000D03*
G04 #@! TO.P,J1,4*
G04 #@! TO.N,GND*
X107000000Y-38500000D03*
G04 #@! TO.P,J1,5*
X103000000Y-38500000D03*
G04 #@! TO.P,J1,6*
G04 #@! TO.N,/HS_CAN_P*
X99000000Y-38500000D03*
G04 #@! TO.P,J1,7*
G04 #@! TO.N,/K-LINE*
X95000000Y-38500000D03*
G04 #@! TO.P,J1,9*
G04 #@! TO.N,Net-(J1-Pad9)*
X119000000Y-41500000D03*
G04 #@! TO.P,J1,1*
G04 #@! TO.N,/SW_CAN*
X119000000Y-38500000D03*
G04 #@! TO.P,J1,8*
G04 #@! TO.N,Net-(J1-Pad8)*
X91000000Y-38500000D03*
G04 #@! TO.P,J1,16*
G04 #@! TO.N,VIN*
X91000000Y-41500000D03*
G04 #@! TD*
D10*
G04 #@! TO.N,Net-(Q5-Pad1)*
G04 #@! TO.C,Q5*
X97450000Y-51000000D03*
G04 #@! TO.N,/L-LINE*
X96500000Y-49000000D03*
G04 #@! TO.N,GND*
X95550000Y-51000000D03*
G04 #@! TD*
D18*
G04 #@! TO.N,/J1850_Transceiver/J1850_BUS+_VH*
G04 #@! TO.C,Q7*
X92500000Y-65550000D03*
G04 #@! TO.N,Net-(Q7-Pad3)*
X90500000Y-66500000D03*
G04 #@! TO.N,GND*
X92500000Y-67450000D03*
G04 #@! TD*
G04 #@! TO.N,/J1850_Transceiver/J1850_BUS+_TX*
G04 #@! TO.C,Q8*
X100500000Y-65500000D03*
G04 #@! TO.N,Net-(Q8-Pad3)*
X98500000Y-66450000D03*
G04 #@! TO.N,GND*
X100500000Y-67400000D03*
G04 #@! TD*
G04 #@! TO.N,Net-(Q8-Pad3)*
G04 #@! TO.C,Q9*
X96500000Y-65550000D03*
G04 #@! TO.N,Net-(D8-Pad1)*
X94500000Y-66500000D03*
G04 #@! TO.N,V_J1850*
X96500000Y-67450000D03*
G04 #@! TD*
D10*
G04 #@! TO.N,/J1850_Transceiver/J1850_BUS-_TX*
G04 #@! TO.C,Q10*
X111950000Y-46000000D03*
G04 #@! TO.N,/J1850_BUS-*
X111000000Y-44000000D03*
G04 #@! TO.N,GND*
X110050000Y-46000000D03*
G04 #@! TD*
D11*
G04 #@! TO.N,/OBD_UART_Interface/ANALOG_IN*
G04 #@! TO.C,R5*
X108750000Y-68250000D03*
G04 #@! TO.N,DLC_RAW*
X108750000Y-69250000D03*
G04 #@! TD*
G04 #@! TO.N,/OBD_UART_Interface/ANALOG_IN*
G04 #@! TO.C,R6*
X107250000Y-68250000D03*
G04 #@! TO.N,GND*
X107250000Y-69250000D03*
G04 #@! TD*
G04 #@! TO.N,/ISO_Transceiver/ISO_K_TX*
G04 #@! TO.C,R7*
X91500000Y-53250000D03*
G04 #@! TO.N,Net-(Q4-Pad1)*
X91500000Y-52250000D03*
G04 #@! TD*
G04 #@! TO.N,Net-(R8-Pad1)*
G04 #@! TO.C,R8*
X100250000Y-54000000D03*
G04 #@! TO.N,DLC_SW*
X99250000Y-54000000D03*
G04 #@! TD*
G04 #@! TO.N,GND*
G04 #@! TO.C,R9*
X99250000Y-52750000D03*
G04 #@! TO.N,Net-(R8-Pad1)*
X100250000Y-52750000D03*
G04 #@! TD*
D16*
G04 #@! TO.N,/K-LINE*
G04 #@! TO.C,R10*
X93500000Y-43750000D03*
G04 #@! TO.N,DLC_SW*
X93500000Y-45600000D03*
G04 #@! TD*
D11*
G04 #@! TO.N,/K-LINE*
G04 #@! TO.C,R11*
X99250000Y-55250000D03*
G04 #@! TO.N,Net-(R11-Pad2)*
X100250000Y-55250000D03*
G04 #@! TD*
G04 #@! TO.N,/ISO_Transceiver/ISO_RX*
G04 #@! TO.C,R12*
X107250000Y-49750000D03*
G04 #@! TO.N,+3.3V*
X108250000Y-49750000D03*
G04 #@! TD*
G04 #@! TO.N,/ISO_Transceiver/ISO_L_TX*
G04 #@! TO.C,R13*
X97000000Y-53750000D03*
G04 #@! TO.N,Net-(Q5-Pad1)*
X97000000Y-52750000D03*
G04 #@! TD*
D16*
G04 #@! TO.N,/L-LINE*
G04 #@! TO.C,R14*
X93500000Y-47500000D03*
G04 #@! TO.N,DLC_SW*
X93500000Y-49350000D03*
G04 #@! TD*
D11*
G04 #@! TO.N,/CAN_Transceiver/SW_CAN_RX*
G04 #@! TO.C,R15*
X111250000Y-54000000D03*
G04 #@! TO.N,+3.3V*
X110250000Y-54000000D03*
G04 #@! TD*
D16*
G04 #@! TO.N,Net-(R16-Pad1)*
G04 #@! TO.C,R16*
X127500000Y-50000000D03*
G04 #@! TO.N,/SW_CAN*
X127500000Y-48150000D03*
G04 #@! TD*
D11*
G04 #@! TO.N,Net-(C20-Pad1)*
G04 #@! TO.C,R19*
X101000000Y-41750000D03*
G04 #@! TO.N,/HS_CAN_N*
X101000000Y-42750000D03*
G04 #@! TD*
G04 #@! TO.N,/HS_CAN_P*
G04 #@! TO.C,R21*
X101000000Y-37750000D03*
G04 #@! TO.N,/HS_CAN_N*
X101000000Y-38750000D03*
G04 #@! TD*
G04 #@! TO.N,Net-(C22-Pad1)*
G04 #@! TO.C,R22*
X113000000Y-39500000D03*
G04 #@! TO.N,/MS_CAN_P*
X113000000Y-38500000D03*
G04 #@! TD*
G04 #@! TO.N,/MS_CAN_P*
G04 #@! TO.C,R23*
X109000000Y-37750000D03*
G04 #@! TO.N,/MS_CAN_N*
X109000000Y-38750000D03*
G04 #@! TD*
G04 #@! TO.N,Net-(C23-Pad1)*
G04 #@! TO.C,R24*
X109000000Y-41750000D03*
G04 #@! TO.N,/MS_CAN_N*
X109000000Y-42750000D03*
G04 #@! TD*
G04 #@! TO.N,Net-(R25-Pad1)*
G04 #@! TO.C,R25*
X96000000Y-71750000D03*
G04 #@! TO.N,V_J1850*
X97000000Y-71750000D03*
G04 #@! TD*
G04 #@! TO.N,Net-(Q7-Pad3)*
G04 #@! TO.C,R26*
X91750000Y-70250000D03*
G04 #@! TO.N,Net-(R25-Pad1)*
X92750000Y-70250000D03*
G04 #@! TD*
G04 #@! TO.N,GND*
G04 #@! TO.C,R27*
X92750000Y-69000000D03*
G04 #@! TO.N,Net-(Q7-Pad3)*
X91750000Y-69000000D03*
G04 #@! TD*
G04 #@! TO.N,GND*
G04 #@! TO.C,R28*
X102000000Y-66500000D03*
G04 #@! TO.N,/J1850_Transceiver/J1850_BUS+_TX*
X102000000Y-65500000D03*
G04 #@! TD*
G04 #@! TO.N,Net-(Q8-Pad3)*
G04 #@! TO.C,R29*
X97500000Y-69000000D03*
G04 #@! TO.N,V_J1850*
X96500000Y-69000000D03*
G04 #@! TD*
G04 #@! TO.N,/J1850_BUS+*
G04 #@! TO.C,R30*
X112000000Y-48750000D03*
G04 #@! TO.N,Net-(R30-Pad2)*
X111000000Y-48750000D03*
G04 #@! TD*
G04 #@! TO.N,/J1850_BUS-*
G04 #@! TO.C,R31*
X108250000Y-47000000D03*
G04 #@! TO.N,Net-(R31-Pad2)*
X107250000Y-47000000D03*
G04 #@! TD*
G04 #@! TO.N,Net-(D9-Pad1)*
G04 #@! TO.C,R32*
X92750000Y-63750000D03*
G04 #@! TO.N,/J1850_BUS+*
X92750000Y-62750000D03*
G04 #@! TD*
G04 #@! TO.N,/J1850_Transceiver/PWM_RX*
G04 #@! TO.C,R33*
X107250000Y-51000000D03*
G04 #@! TO.N,+3.3V*
X108250000Y-51000000D03*
G04 #@! TD*
G04 #@! TO.N,/J1850_BUS+*
G04 #@! TO.C,R37*
X112000000Y-50000000D03*
G04 #@! TO.N,Net-(R37-Pad2)*
X111000000Y-50000000D03*
G04 #@! TD*
G04 #@! TO.N,/J1850_BUS-*
G04 #@! TO.C,R38*
X108500000Y-44250000D03*
G04 #@! TO.N,Net-(D10-Pad2)*
X107500000Y-44250000D03*
G04 #@! TD*
G04 #@! TO.N,+3.3V*
G04 #@! TO.C,R40*
X125750000Y-68450000D03*
G04 #@! TO.N,/CAN_Transceiver/HS_CAN_TX*
X125750000Y-67450000D03*
G04 #@! TD*
G04 #@! TO.N,/CAN_Transceiver/HS_CAN_TX*
G04 #@! TO.C,R41*
X126993226Y-67450000D03*
G04 #@! TO.N,+5V_SW*
X126993226Y-68450000D03*
G04 #@! TD*
G04 #@! TO.N,/MicroM4/UART1_RX*
G04 #@! TO.C,R42*
X111250000Y-55000000D03*
G04 #@! TO.N,+3.3V*
X110250000Y-55000000D03*
G04 #@! TD*
G04 #@! TO.N,+3.3V*
G04 #@! TO.C,R43*
X124500000Y-68450000D03*
G04 #@! TO.N,/CAN_Transceiver/HS_CAN_RX*
X124500000Y-67450000D03*
G04 #@! TD*
G04 #@! TO.N,/CAN_Transceiver/HS_CAN_RX*
G04 #@! TO.C,R44*
X123250000Y-67450000D03*
G04 #@! TO.N,+5V_SW*
X123250000Y-68450000D03*
G04 #@! TD*
G04 #@! TO.N,+3.3V*
G04 #@! TO.C,R45*
X112500000Y-69250000D03*
G04 #@! TO.N,Net-(C28-Pad1)*
X112500000Y-68250000D03*
G04 #@! TD*
G04 #@! TO.N,+3.3V*
G04 #@! TO.C,R46*
X113750000Y-69250000D03*
G04 #@! TO.N,Net-(R46-Pad2)*
X113750000Y-68250000D03*
G04 #@! TD*
G04 #@! TO.N,+3.3V*
G04 #@! TO.C,R47*
X115000000Y-69250000D03*
G04 #@! TO.N,/CAN_Transceiver/MS_CAN_RX*
X115000000Y-68250000D03*
G04 #@! TD*
G04 #@! TO.N,+3.3V*
G04 #@! TO.C,R48*
X115100000Y-65200000D03*
G04 #@! TO.N,/CAN_Transceiver/MS_CAN_TX*
X115100000Y-64200000D03*
G04 #@! TD*
D22*
G04 #@! TO.N,/CAN_Transceiver/HS_CAN_TX*
G04 #@! TO.C,U4*
X127020000Y-65400000D03*
G04 #@! TO.N,GND*
X125750000Y-65400000D03*
G04 #@! TO.N,+5V_SW*
X124480000Y-65400000D03*
G04 #@! TO.N,/CAN_Transceiver/HS_CAN_RX*
X123210000Y-65400000D03*
G04 #@! TO.N,/CAN_Transceiver/MS_CAN_TX*
X121940000Y-65400000D03*
G04 #@! TO.N,GND*
X120670000Y-65400000D03*
G04 #@! TO.N,+5V_SW*
X119400000Y-65400000D03*
G04 #@! TO.N,/CAN_Transceiver/MS_CAN_RX*
X119400000Y-60000000D03*
G04 #@! TO.N,/MS_CAN_N*
X120670000Y-60000000D03*
G04 #@! TO.N,/MS_CAN_P*
X121940000Y-60000000D03*
G04 #@! TO.N,GND*
X123210000Y-60000000D03*
G04 #@! TO.N,/HS_CAN_N*
X124480000Y-60000000D03*
G04 #@! TO.N,/HS_CAN_P*
X125750000Y-60000000D03*
G04 #@! TO.N,GND*
X127020000Y-60000000D03*
G04 #@! TD*
D23*
G04 #@! TO.N,/CAN_Transceiver/SW_CAN_TX*
G04 #@! TO.C,U5*
X122250000Y-56020000D03*
G04 #@! TO.N,/CAN_Transceiver/SW_CAN_MODE0*
X122250000Y-54750000D03*
G04 #@! TO.N,/CAN_Transceiver/SW_CAN_MODE1*
X122250000Y-53480000D03*
G04 #@! TO.N,/CAN_Transceiver/SW_CAN_RX*
X122250000Y-52210000D03*
G04 #@! TO.N,DLC*
X127650000Y-52210000D03*
G04 #@! TO.N,Net-(R16-Pad1)*
X127650000Y-53480000D03*
G04 #@! TO.N,/SW_CAN*
X127650000Y-54750000D03*
G04 #@! TO.N,GND*
X127650000Y-56020000D03*
G04 #@! TD*
D24*
G04 #@! TO.N,GND*
G04 #@! TO.C,U7*
X123200000Y-38900000D03*
G04 #@! TO.N,/SW_CAN*
X121000000Y-39550000D03*
X121000000Y-38250000D03*
G04 #@! TD*
D25*
G04 #@! TO.N,Net-(R25-Pad1)*
G04 #@! TO.C,U9*
X94137500Y-72000000D03*
D26*
G04 #@! TO.N,V_J1850*
X94050000Y-73500000D03*
D25*
G04 #@! TO.N,DLC_SW*
X94137500Y-75000000D03*
D27*
G04 #@! TO.N,V_J1850*
X91750000Y-73500000D03*
G04 #@! TD*
D28*
G04 #@! TO.N,GND*
G04 #@! TO.C,U10*
X111400000Y-59750000D03*
X111400000Y-61400000D03*
X111400000Y-63050000D03*
X111400000Y-64700000D03*
X109750000Y-59750000D03*
X109750000Y-61400000D03*
X109750000Y-63050000D03*
X109750000Y-64700000D03*
X108100000Y-59750000D03*
X108100000Y-61400000D03*
X108100000Y-63050000D03*
X108100000Y-64700000D03*
X106450000Y-59750000D03*
X106450000Y-61400000D03*
X106450000Y-63050000D03*
X106450000Y-64700000D03*
D29*
G04 #@! TO.N,/ISO_Transceiver/ISO_L_TX*
X112175000Y-58225000D03*
G04 #@! TO.N,/ISO_Transceiver/ISO_K_TX*
X111525000Y-58225000D03*
G04 #@! TO.N,/CAN_Transceiver/SW_CAN_RX*
X110875000Y-58225000D03*
G04 #@! TO.N,/CAN_Transceiver/SW_CAN_TX*
X110225000Y-58225000D03*
G04 #@! TO.N,+3.3V*
X109575000Y-58225000D03*
G04 #@! TO.N,GND*
X108925000Y-58225000D03*
X108275000Y-58225000D03*
X107625000Y-58225000D03*
G04 #@! TO.N,/CAN_Transceiver/SW_CAN_MODE1*
X106975000Y-58225000D03*
G04 #@! TO.N,/CAN_Transceiver/SW_CAN_MODE0*
X106325000Y-58225000D03*
G04 #@! TO.N,/CAN_Transceiver/SW_CAN_LOAD*
X105675000Y-58225000D03*
D30*
G04 #@! TO.N,/J1850_Transceiver/J1850_BUS-_TX*
X104925000Y-58975000D03*
G04 #@! TO.N,/MicroM4/PWR_SAVE*
X104925000Y-59625000D03*
G04 #@! TO.N,Net-(C32-Pad1)*
X104925000Y-60275000D03*
G04 #@! TO.N,Net-(C33-Pad1)*
X104925000Y-60925000D03*
G04 #@! TO.N,GND*
X104925000Y-61575000D03*
G04 #@! TO.N,+3.3V*
X104925000Y-62225000D03*
G04 #@! TO.N,/MicroM4/STN_SLEEP*
X104925000Y-62875000D03*
G04 #@! TO.N,GND*
X104925000Y-63525000D03*
G04 #@! TO.N,/J1850_Transceiver/J1850_BUS+_VH*
X104925000Y-64175000D03*
G04 #@! TO.N,/J1850_Transceiver/J1850_BUS+_TX*
X104925000Y-64825000D03*
G04 #@! TO.N,/J1850_Transceiver/PWM_RX*
X104925000Y-65475000D03*
D29*
G04 #@! TO.N,/J1850_Transceiver/VPW_RX*
X105675000Y-66225000D03*
G04 #@! TO.N,/ISO_Transceiver/ISO_RX*
X106325000Y-66225000D03*
G04 #@! TO.N,GND*
X106975000Y-66225000D03*
G04 #@! TO.N,/OBD_UART_Interface/ANALOG_IN*
X107625000Y-66225000D03*
G04 #@! TO.N,/MicroM4/STN_RESET*
X108275000Y-66225000D03*
G04 #@! TO.N,Net-(C28-Pad1)*
X108925000Y-66225000D03*
G04 #@! TO.N,GND*
X109575000Y-66225000D03*
X110225000Y-66225000D03*
G04 #@! TO.N,Net-(U10-Pad14)*
X110875000Y-66225000D03*
G04 #@! TO.N,Net-(U10-Pad13)*
X111525000Y-66225000D03*
G04 #@! TO.N,Net-(R46-Pad2)*
X112175000Y-66225000D03*
D30*
G04 #@! TO.N,/CAN_Transceiver/MS_CAN_RX*
X112925000Y-65475000D03*
G04 #@! TO.N,/CAN_Transceiver/HS_CAN_RX*
X112925000Y-64825000D03*
G04 #@! TO.N,/CAN_Transceiver/MS_CAN_TX*
X112925000Y-64175000D03*
G04 #@! TO.N,/CAN_Transceiver/HS_CAN_TX*
X112925000Y-63525000D03*
G04 #@! TO.N,Net-(C29-Pad2)*
X112925000Y-62875000D03*
G04 #@! TO.N,GND*
X112925000Y-62225000D03*
G04 #@! TO.N,/MicroM4/UART1_TX*
X112925000Y-61575000D03*
G04 #@! TO.N,/MicroM4/UART1_RX*
X112925000Y-60925000D03*
G04 #@! TO.N,GND*
X112925000Y-60275000D03*
X112925000Y-59625000D03*
X112925000Y-58975000D03*
G04 #@! TD*
D31*
G04 #@! TO.N,GND*
G04 #@! TO.C,Y1*
X97300000Y-59500000D03*
G04 #@! TO.N,Net-(C32-Pad1)*
X99000000Y-59500000D03*
G04 #@! TO.N,Net-(C33-Pad1)*
X97300000Y-61700000D03*
G04 #@! TO.N,GND*
X99000000Y-61700000D03*
G04 #@! TD*
D32*
G04 #@! TO.P,R54,1*
G04 #@! TO.N,/MicroM4/BOOT*
X82000000Y-64250000D03*
G04 #@! TO.P,R54,2*
G04 #@! TO.N,+3.3V*
X82000000Y-65250000D03*
G04 #@! TD*
D33*
G04 #@! TO.N,GND*
X129000000Y-56000000D03*
X110750000Y-69800000D03*
X106500000Y-69666413D03*
X119750000Y-62750000D03*
X96282074Y-60242599D03*
X94250000Y-69250000D03*
X93500000Y-69250000D03*
X110931510Y-46671460D03*
X105500000Y-42750000D03*
X99750000Y-51750000D03*
X103121232Y-54871232D03*
X85500000Y-38250000D03*
X85500000Y-39000000D03*
X113000000Y-42750000D03*
X122500000Y-38000000D03*
X123250000Y-58750000D03*
X119250000Y-71500000D03*
X121750000Y-71500000D03*
X117700000Y-51500000D03*
X115600000Y-51400000D03*
X121300000Y-66600000D03*
X125300000Y-64200000D03*
X128700000Y-68000000D03*
X128600000Y-61000000D03*
X127600000Y-57300000D03*
X128600000Y-60000000D03*
X121000000Y-47400000D03*
X115500000Y-48500000D03*
X81800000Y-56100000D03*
X83750000Y-56000000D03*
X84500000Y-56000000D03*
X94500000Y-51250000D03*
X98250000Y-45750000D03*
X92000000Y-49250000D03*
X88575000Y-52250000D03*
X96250000Y-55750000D03*
X89250000Y-62250000D03*
X83250000Y-61000000D03*
X83000000Y-68000000D03*
X87750000Y-70750000D03*
X87500000Y-76250000D03*
X102000000Y-69500000D03*
X98000000Y-70750000D03*
X98500000Y-74250000D03*
X98500000Y-75250000D03*
X98500000Y-76250000D03*
X109750000Y-59750000D03*
X111400000Y-59750000D03*
X111400000Y-61400000D03*
X109750000Y-61400000D03*
X108100000Y-61400000D03*
X108100000Y-63050000D03*
X109750000Y-63050000D03*
X111400000Y-63050000D03*
X111400000Y-64700000D03*
X109750000Y-64700000D03*
X108100000Y-64700000D03*
X106450000Y-64700000D03*
X106450000Y-63050000D03*
X106450000Y-61400000D03*
X108100000Y-59750000D03*
X106450000Y-59750000D03*
X82750000Y-51250000D03*
X82750000Y-50250000D03*
X82750000Y-48500000D03*
X82750000Y-47500000D03*
G04 #@! TO.N,+5V*
X95750000Y-61250000D03*
X115000000Y-57250000D03*
X126000000Y-56000000D03*
X92100000Y-56500000D03*
X91300000Y-56500000D03*
X90500000Y-56500000D03*
X94300000Y-61200000D03*
X89500000Y-68750000D03*
X90000000Y-69500000D03*
X89750000Y-60723192D03*
G04 #@! TO.N,Net-(C3-Pad1)*
X85750000Y-55000000D03*
X83250000Y-59500000D03*
G04 #@! TO.N,DLC*
X123500000Y-49500000D03*
X117750000Y-48500000D03*
X114000000Y-48500000D03*
X88250000Y-46250000D03*
X95500000Y-43750000D03*
X85750000Y-51250000D03*
X85750000Y-50250000D03*
X85750000Y-48500000D03*
X85750000Y-47500000D03*
G04 #@! TO.N,+3.3V*
X96500000Y-63750000D03*
X114250000Y-64750000D03*
X109500000Y-54000000D03*
X122750000Y-69500000D03*
X99500000Y-50500000D03*
X85250000Y-64750000D03*
X95250000Y-55750000D03*
X109000000Y-49750000D03*
X102250000Y-67750000D03*
X115500000Y-70500000D03*
X90250000Y-64750000D03*
X90500000Y-65500000D03*
X89750000Y-65500000D03*
G04 #@! TO.N,DLC_SW*
X93500000Y-51000000D03*
X101750000Y-48750000D03*
X89500000Y-52000000D03*
X105750000Y-48750000D03*
G04 #@! TO.N,+5V_SW*
X120000000Y-61750000D03*
X123000000Y-64050000D03*
X120000000Y-66710000D03*
X110000000Y-47250000D03*
X122750000Y-50250000D03*
X99250000Y-45500000D03*
X96250000Y-58000000D03*
G04 #@! TO.N,DLC_RAW*
X89207697Y-48126910D03*
X86250000Y-69500000D03*
X108000000Y-70250000D03*
G04 #@! TO.N,/MicroM4/PWR_SAVE*
X101500000Y-57750000D03*
X94250000Y-56500000D03*
G04 #@! TO.N,/CAN_Transceiver/SW_CAN_LOAD*
X125500000Y-57500000D03*
X115750000Y-58000000D03*
X104750000Y-58000000D03*
G04 #@! TO.N,/ISO_Transceiver/ISO_K_TX*
X102175044Y-56880579D03*
X111750000Y-57250000D03*
G04 #@! TO.N,/ISO_Transceiver/ISO_RX*
X102500000Y-59000000D03*
X103250000Y-67200000D03*
G04 #@! TO.N,/ISO_Transceiver/ISO_L_TX*
X102518606Y-56213895D03*
X112500000Y-56750000D03*
G04 #@! TO.N,Net-(R30-Pad2)*
X110000000Y-48750000D03*
X102750000Y-49750000D03*
G04 #@! TO.N,/J1850_Transceiver/PWM_RX*
X103500000Y-58000000D03*
X104250000Y-65500000D03*
G04 #@! TO.N,Net-(R34-Pad1)*
X101750000Y-48000000D03*
G04 #@! TO.N,Net-(R37-Pad2)*
X110000000Y-49750000D03*
X103500000Y-48000000D03*
G04 #@! TO.N,/J1850_Transceiver/VPW_RX*
X101750000Y-49500000D03*
X104000000Y-66475000D03*
G04 #@! TO.N,/MicroM4/UART1_RX*
X113500000Y-54000000D03*
G04 #@! TO.N,/CAN_Transceiver/MS_CAN_RX*
X114250000Y-67250000D03*
X115750000Y-60000000D03*
G04 #@! TO.N,/CAN_Transceiver/SW_CAN_MODE0*
X108250000Y-55500000D03*
X123750000Y-54750000D03*
X114969668Y-55675000D03*
G04 #@! TO.N,/CAN_Transceiver/SW_CAN_MODE1*
X124500000Y-52750000D03*
X115250000Y-54500000D03*
X109000000Y-54750000D03*
G04 #@! TO.N,/CAN_Transceiver/SW_CAN_TX*
X125750000Y-55000000D03*
X115000000Y-56500000D03*
X110250000Y-56200000D03*
G04 #@! TO.N,/MicroM4/STN_SLEEP*
X102500000Y-63500000D03*
G04 #@! TO.N,/MicroM4/STN_RESET*
X108750000Y-67250000D03*
G04 #@! TO.N,/MicroM4/UART1_TX*
X114250000Y-54500000D03*
G04 #@! TO.N,/SW_CAN*
X129250000Y-54750000D03*
X127750000Y-46500000D03*
G04 #@! TO.N,/J1850_BUS+*
X95750000Y-62000000D03*
X106250000Y-56000000D03*
G04 #@! TO.N,/HS_CAN_N*
X121250000Y-61750000D03*
G04 #@! TO.N,/MS_CAN_N*
X123000000Y-57750000D03*
G04 #@! TO.N,/MS_CAN_P*
X122000000Y-58250000D03*
G04 #@! TO.N,/HS_CAN_P*
X123250000Y-62500000D03*
G04 #@! TO.N,/MicroM4/BOOT*
X97950002Y-52750000D03*
X83250000Y-64250000D03*
G04 #@! TO.N,Net-(C36-Pad2)*
X120500000Y-75250000D03*
G04 #@! TD*
D34*
G04 #@! TO.N,GND*
X127650000Y-56020000D02*
X128980000Y-56020000D01*
X128980000Y-56020000D02*
X129000000Y-56000000D01*
X100600000Y-67400000D02*
X101700000Y-68500000D01*
X101700000Y-68500000D02*
X102000000Y-68800000D01*
X102000000Y-67000000D02*
X101674999Y-67325001D01*
X102000000Y-66500000D02*
X102000000Y-67000000D01*
X101674999Y-67325001D02*
X101674999Y-68474999D01*
X101674999Y-68474999D02*
X101700000Y-68500000D01*
X100500000Y-67400000D02*
X100600000Y-67400000D01*
X102000000Y-68800000D02*
X102000000Y-69075736D01*
X102000000Y-69075736D02*
X102000000Y-69500000D01*
D35*
X110750000Y-69800000D02*
X110750000Y-69250000D01*
X110750000Y-69250000D02*
X110000000Y-69250000D01*
X111250000Y-69250000D02*
X110750000Y-69250000D01*
D34*
X107250000Y-69250000D02*
X106916413Y-69250000D01*
X106916413Y-69250000D02*
X106500000Y-69666413D01*
X118250000Y-62750000D02*
X119750000Y-62750000D01*
X100800000Y-61700000D02*
X101000000Y-61500000D01*
X101000000Y-61500000D02*
X102500000Y-61500000D01*
D35*
X102500000Y-61500000D02*
X103750000Y-61500000D01*
D34*
X104925000Y-61575000D02*
X103825000Y-61575000D01*
X103825000Y-61575000D02*
X103750000Y-61500000D01*
X97300000Y-59500000D02*
X97024673Y-59500000D01*
X97024673Y-59500000D02*
X96282074Y-60242599D01*
X92500000Y-67450000D02*
X92500000Y-68750000D01*
X92500000Y-68750000D02*
X92750000Y-69000000D01*
X93500000Y-69250000D02*
X93000000Y-69250000D01*
X93000000Y-69250000D02*
X92750000Y-69000000D01*
X110050000Y-46000000D02*
X110260050Y-46000000D01*
X110260050Y-46000000D02*
X110931510Y-46671460D01*
X110050000Y-46000000D02*
X110050000Y-46100000D01*
X110050000Y-46100000D02*
X108750000Y-47400000D01*
X108750000Y-47400000D02*
X108750000Y-47550000D01*
X108750000Y-47550000D02*
X108750000Y-48250000D01*
X104400000Y-46500000D02*
X104400000Y-45450000D01*
X104400000Y-45450000D02*
X105200001Y-44649999D01*
X105200001Y-44649999D02*
X105200001Y-43049999D01*
X105200001Y-43049999D02*
X105500000Y-42750000D01*
D35*
X99250000Y-52750000D02*
X99250000Y-52250000D01*
X99250000Y-52250000D02*
X99750000Y-51750000D01*
D34*
X101000000Y-39750000D02*
X101750000Y-39750000D01*
X101750000Y-39750000D02*
X103000000Y-38500000D01*
X109000000Y-39750000D02*
X108250000Y-39750000D01*
X108250000Y-39750000D02*
X107000000Y-38500000D01*
X113000000Y-42000000D02*
X113000000Y-42750000D01*
X123200000Y-38900000D02*
X123200000Y-38700000D01*
X123200000Y-38700000D02*
X122500000Y-38000000D01*
X123210000Y-60000000D02*
X123210000Y-58790000D01*
X123210000Y-58790000D02*
X123250000Y-58750000D01*
X120670000Y-65400000D02*
X120670000Y-65970000D01*
X120670000Y-65970000D02*
X121300000Y-66600000D01*
X125750000Y-65400000D02*
X125750000Y-64650000D01*
X125750000Y-64650000D02*
X125300000Y-64200000D01*
X127600000Y-57300000D02*
X127600000Y-56070000D01*
X127600000Y-56070000D02*
X127650000Y-56020000D01*
X127020000Y-60000000D02*
X128600000Y-60000000D01*
X125000000Y-48150000D02*
X121750000Y-48150000D01*
X121750000Y-48150000D02*
X121000000Y-47400000D01*
X119250000Y-47500000D02*
X120900000Y-47500000D01*
X120900000Y-47500000D02*
X121000000Y-47400000D01*
X119250000Y-47500000D02*
X119250000Y-46200000D01*
X119250000Y-46200000D02*
X119450000Y-46000000D01*
X115500000Y-47500000D02*
X115500000Y-48500000D01*
X115700000Y-46000000D02*
X115700000Y-47300000D01*
X115700000Y-47300000D02*
X115500000Y-47500000D01*
X92750000Y-61000000D02*
X92750000Y-61700000D01*
X92750000Y-61700000D02*
X92200000Y-62250000D01*
X92200000Y-62250000D02*
X89674264Y-62250000D01*
X89674264Y-62250000D02*
X89250000Y-62250000D01*
X89140000Y-63750000D02*
X89140000Y-62360000D01*
X89140000Y-62360000D02*
X89250000Y-62250000D01*
X95550000Y-51000000D02*
X94750000Y-51000000D01*
X94750000Y-51000000D02*
X94500000Y-51250000D01*
X97450000Y-45750000D02*
X98250000Y-45750000D01*
X97450000Y-45750000D02*
X97450000Y-47050000D01*
X97450000Y-47050000D02*
X97250000Y-47250000D01*
X91250000Y-47250000D02*
X91250000Y-48500000D01*
X91250000Y-48500000D02*
X92000000Y-49250000D01*
X89550000Y-50750000D02*
X88575000Y-51725000D01*
X88575000Y-51725000D02*
X88575000Y-52250000D01*
X88500000Y-75750000D02*
X88000000Y-75750000D01*
X88000000Y-75750000D02*
X87500000Y-76250000D01*
X96500000Y-75000000D02*
X98250000Y-75000000D01*
X98250000Y-75000000D02*
X98500000Y-75250000D01*
X102950000Y-69500000D02*
X102000000Y-69500000D01*
X103250000Y-70450000D02*
X103250000Y-69800000D01*
X103250000Y-69800000D02*
X102950000Y-69500000D01*
D35*
X97750000Y-58000000D02*
X97350000Y-58000000D01*
X97300000Y-58650000D02*
X97300000Y-59500000D01*
X97350000Y-58000000D02*
X97300000Y-58050000D01*
X97300000Y-58050000D02*
X97300000Y-58650000D01*
X99000000Y-63150000D02*
X99000000Y-61700000D01*
X98500000Y-63250000D02*
X98900000Y-63250000D01*
X98900000Y-63250000D02*
X99000000Y-63150000D01*
D34*
X100800000Y-61700000D02*
X99000000Y-61700000D01*
X104925000Y-61575000D02*
X106275000Y-61575000D01*
X106275000Y-61575000D02*
X106450000Y-61400000D01*
X91450000Y-45750000D02*
X91450000Y-47050000D01*
X91450000Y-47050000D02*
X91250000Y-47250000D01*
D36*
X82250000Y-50750000D02*
X82750000Y-51250000D01*
X81500000Y-50750000D02*
X82250000Y-50750000D01*
X82250000Y-50750000D02*
X82750000Y-50250000D01*
X82250000Y-48000000D02*
X82750000Y-48500000D01*
X81500000Y-48000000D02*
X82250000Y-48000000D01*
X82250000Y-48000000D02*
X82750000Y-47500000D01*
D35*
X106975000Y-66225000D02*
X106975000Y-63200000D01*
X106975000Y-63200000D02*
X106825000Y-63050000D01*
X106825000Y-63050000D02*
X106450000Y-63050000D01*
X112925000Y-59625000D02*
X112925000Y-60275000D01*
X112925000Y-58975000D02*
X112925000Y-59625000D01*
X108275000Y-58225000D02*
X107625000Y-58225000D01*
X108925000Y-58225000D02*
X108275000Y-58225000D01*
X112925000Y-59625000D02*
X111525000Y-59625000D01*
X111525000Y-59625000D02*
X111400000Y-59750000D01*
X108925000Y-58225000D02*
X108925000Y-58925000D01*
X108925000Y-58925000D02*
X108100000Y-59750000D01*
X107625000Y-58225000D02*
X107625000Y-59275000D01*
X107625000Y-59275000D02*
X108100000Y-59750000D01*
X108275000Y-58225000D02*
X108275000Y-59575000D01*
X108275000Y-59575000D02*
X108100000Y-59750000D01*
X104925000Y-63525000D02*
X105975000Y-63525000D01*
X105975000Y-63525000D02*
X106450000Y-63050000D01*
X109575000Y-66225000D02*
X109575000Y-65650000D01*
X109575000Y-65650000D02*
X109750000Y-65475000D01*
X109750000Y-65475000D02*
X109750000Y-64700000D01*
X110225000Y-66225000D02*
X110225000Y-65175000D01*
X110225000Y-65175000D02*
X109750000Y-64700000D01*
X112925000Y-62225000D02*
X112225000Y-62225000D01*
X112225000Y-62225000D02*
X111400000Y-61400000D01*
X112925000Y-58975000D02*
X112350000Y-58975000D01*
X112350000Y-58975000D02*
X111575000Y-59750000D01*
X111575000Y-59750000D02*
X111400000Y-59750000D01*
X112925000Y-60275000D02*
X111925000Y-60275000D01*
X111925000Y-60275000D02*
X111400000Y-59750000D01*
D34*
G04 #@! TO.N,+5V*
X126000000Y-56000000D02*
X125399992Y-56600008D01*
X125399992Y-56600008D02*
X116298990Y-56600008D01*
X116298990Y-56600008D02*
X115648998Y-57250000D01*
X115648998Y-57250000D02*
X115000000Y-57250000D01*
X89750000Y-60723192D02*
X90973192Y-60723192D01*
X90973192Y-60723192D02*
X91250000Y-61000000D01*
G04 #@! TO.N,Net-(C3-Pad1)*
X85750000Y-55000000D02*
X85750000Y-57000000D01*
X85750000Y-57000000D02*
X83250000Y-59500000D01*
D37*
G04 #@! TO.N,DLC*
X125000000Y-50000000D02*
X124000000Y-50000000D01*
X124000000Y-50000000D02*
X123500000Y-49500000D01*
X127650000Y-52210000D02*
X127210000Y-52210000D01*
X127210000Y-52210000D02*
X125000000Y-50000000D01*
D34*
X117750000Y-47500000D02*
X117750000Y-48500000D01*
X117550000Y-46000000D02*
X117550000Y-47300000D01*
X117550000Y-47300000D02*
X117750000Y-47500000D01*
X114000000Y-47500000D02*
X114000000Y-48500000D01*
X113800000Y-46000000D02*
X113800000Y-47300000D01*
X113800000Y-47300000D02*
X114000000Y-47500000D01*
D37*
X87750000Y-47250000D02*
X89750000Y-47250000D01*
X86000000Y-47250000D02*
X87750000Y-47250000D01*
X87750000Y-47250000D02*
X87750000Y-46750000D01*
X87750000Y-46750000D02*
X88250000Y-46250000D01*
X85750000Y-47500000D02*
X86000000Y-47250000D01*
D34*
X95550000Y-45750000D02*
X95550000Y-47050000D01*
X95550000Y-47050000D02*
X95750000Y-47250000D01*
X95550000Y-45750000D02*
X95550000Y-43800000D01*
X95550000Y-43800000D02*
X95500000Y-43750000D01*
X89550000Y-45750000D02*
X89550000Y-47050000D01*
X89550000Y-47050000D02*
X89750000Y-47250000D01*
D36*
X85250000Y-50750000D02*
X85750000Y-51250000D01*
X84500000Y-50750000D02*
X85250000Y-50750000D01*
X85750000Y-50250000D02*
X85250000Y-50750000D01*
X85250000Y-48000000D02*
X85750000Y-48500000D01*
X84500000Y-48000000D02*
X85250000Y-48000000D01*
X85750000Y-47500000D02*
X85250000Y-48000000D01*
D34*
G04 #@! TO.N,+3.3V*
X100450001Y-64049999D02*
X102000000Y-62500000D01*
X102000000Y-62500000D02*
X102500000Y-62500000D01*
X96500000Y-63750000D02*
X96799999Y-64049999D01*
X96799999Y-64049999D02*
X100450001Y-64049999D01*
D35*
X114250000Y-64750000D02*
X114650000Y-64750000D01*
X114650000Y-64750000D02*
X115100000Y-65200000D01*
X103750000Y-62500000D02*
X102500000Y-62500000D01*
X104925000Y-62225000D02*
X104025000Y-62225000D01*
X104025000Y-62225000D02*
X103750000Y-62500000D01*
X109500000Y-54000000D02*
X110250000Y-54000000D01*
D34*
X122750000Y-69500000D02*
X123950000Y-69500000D01*
X123950000Y-69500000D02*
X124500000Y-68950000D01*
X124500000Y-68950000D02*
X124500000Y-68450000D01*
X124500000Y-68450000D02*
X125750000Y-68450000D01*
D35*
X85250000Y-64750000D02*
X84825736Y-64750000D01*
X84825736Y-64750000D02*
X84325736Y-65250000D01*
X84325736Y-65250000D02*
X82400000Y-65250000D01*
X82400000Y-65250000D02*
X82000000Y-65250000D01*
X108250000Y-49750000D02*
X109000000Y-49750000D01*
X108250000Y-49750000D02*
X108250000Y-51000000D01*
D34*
X103000000Y-67750000D02*
X103250000Y-68000000D01*
X103250000Y-68000000D02*
X103250000Y-68550000D01*
X102250000Y-67750000D02*
X103000000Y-67750000D01*
X115500000Y-70500000D02*
X115250000Y-70500000D01*
X115250000Y-70500000D02*
X115000000Y-70250000D01*
X115000000Y-70250000D02*
X115000000Y-69250000D01*
X102250000Y-67750000D02*
X102450000Y-67750000D01*
X113750000Y-69250000D02*
X112500000Y-69250000D01*
X115000000Y-69250000D02*
X113750000Y-69250000D01*
D35*
X109575000Y-55175000D02*
X109750000Y-55000000D01*
X109750000Y-55000000D02*
X110250000Y-55000000D01*
X109575000Y-58225000D02*
X109575000Y-55175000D01*
X110250000Y-55000000D02*
X110250000Y-54000000D01*
X104625000Y-62225000D02*
X104925000Y-62225000D01*
G04 #@! TO.N,/OBD_UART_Interface/ANALOG_IN*
X107625000Y-66225000D02*
X107625000Y-67250000D01*
X107250000Y-67850000D02*
X107625000Y-67475000D01*
X107250000Y-68250000D02*
X107250000Y-67850000D01*
X107625000Y-67475000D02*
X107625000Y-67250000D01*
X107250000Y-68250000D02*
X105950000Y-68250000D01*
X105950000Y-68250000D02*
X105250000Y-68950000D01*
X105250000Y-68950000D02*
X105250000Y-69500000D01*
X108750000Y-68250000D02*
X110000000Y-68250000D01*
X107250000Y-68250000D02*
X108750000Y-68250000D01*
D37*
G04 #@! TO.N,DLC_SW*
X93500000Y-51000000D02*
X93500000Y-50000000D01*
X93500000Y-50000000D02*
X93500000Y-49350000D01*
D34*
X97250000Y-50000000D02*
X93500000Y-50000000D01*
X101750000Y-48750000D02*
X98500000Y-48750000D01*
X97250000Y-50000000D02*
X98500000Y-48750000D01*
D35*
X98500000Y-48750000D02*
X98500000Y-53650000D01*
X98500000Y-53650000D02*
X98850000Y-54000000D01*
X98850000Y-54000000D02*
X99250000Y-54000000D01*
D37*
X89250000Y-74750000D02*
X89000000Y-74750000D01*
X89000000Y-74750000D02*
X88500000Y-74250000D01*
X89500000Y-75000000D02*
X89250000Y-74750000D01*
X94137500Y-75000000D02*
X89500000Y-75000000D01*
X88000000Y-68500000D02*
X88500000Y-69000000D01*
X88500000Y-69000000D02*
X88500000Y-74250000D01*
X88000000Y-59750000D02*
X88000000Y-68500000D01*
X89500000Y-58250000D02*
X88000000Y-59750000D01*
X89500000Y-52000000D02*
X89500000Y-58250000D01*
D34*
X106450000Y-49000000D02*
X107200000Y-48250000D01*
X104400000Y-51050000D02*
X106450000Y-49000000D01*
X106450000Y-49000000D02*
X106000000Y-49000000D01*
X106000000Y-49000000D02*
X105750000Y-48750000D01*
X104400000Y-52100000D02*
X104400000Y-51050000D01*
X107200000Y-48250000D02*
X107250000Y-48250000D01*
X92250000Y-46625000D02*
X92250000Y-48325000D01*
X92250000Y-48325000D02*
X93275000Y-49350000D01*
X93275000Y-49350000D02*
X93500000Y-49350000D01*
X93500000Y-45600000D02*
X93275000Y-45600000D01*
X93275000Y-45600000D02*
X92250000Y-46625000D01*
G04 #@! TO.N,+5V_SW*
X123200000Y-68400000D02*
X123250000Y-68450000D01*
D35*
X125100000Y-67925001D02*
X125100000Y-67144998D01*
X125100000Y-67144998D02*
X124480000Y-66524998D01*
X124480000Y-66524998D02*
X124480000Y-65400000D01*
X125100000Y-67925001D02*
X124174999Y-67925001D01*
X126068227Y-67925001D02*
X125100000Y-67925001D01*
X126993226Y-68450000D02*
X126593226Y-68450000D01*
X126593226Y-68450000D02*
X126068227Y-67925001D01*
X124174999Y-67925001D02*
X123650000Y-68450000D01*
X123650000Y-68450000D02*
X123250000Y-68450000D01*
D34*
X124480000Y-65400000D02*
X124480000Y-64950000D01*
X124480000Y-64950000D02*
X123580000Y-64050000D01*
X123580000Y-64050000D02*
X123000000Y-64050000D01*
X119400000Y-65400000D02*
X119400000Y-66110000D01*
X119400000Y-66110000D02*
X120000000Y-66710000D01*
D35*
X111000000Y-47500000D02*
X110250000Y-47500000D01*
X110250000Y-47500000D02*
X110000000Y-47250000D01*
D34*
X99250000Y-45500000D02*
X100500000Y-44250000D01*
X100500000Y-44250000D02*
X103890000Y-44250000D01*
D35*
G04 #@! TO.N,Net-(C20-Pad1)*
X101000000Y-40750000D02*
X101000000Y-41750000D01*
G04 #@! TO.N,Net-(C22-Pad1)*
X113000000Y-39500000D02*
X113000000Y-39900000D01*
X113000000Y-39900000D02*
X113000000Y-41000000D01*
G04 #@! TO.N,Net-(C23-Pad1)*
X109000000Y-40750000D02*
X109000000Y-41750000D01*
D34*
G04 #@! TO.N,V_J1850*
X96500000Y-69000000D02*
X96500000Y-69696000D01*
X96500000Y-69696000D02*
X97000000Y-70196000D01*
X96500000Y-67450000D02*
X96500000Y-69000000D01*
X97000000Y-72250000D02*
X96500000Y-72750000D01*
X96500000Y-72750000D02*
X96500000Y-73500000D01*
X97000000Y-71750000D02*
X97000000Y-72250000D01*
D37*
X96500000Y-73500000D02*
X91750000Y-73500000D01*
D34*
X97000000Y-71750000D02*
X97000000Y-70196000D01*
D35*
G04 #@! TO.N,Net-(C28-Pad1)*
X111250000Y-67500000D02*
X111500000Y-67500000D01*
X112500000Y-68250000D02*
X112500000Y-67850000D01*
X112500000Y-67850000D02*
X112150000Y-67500000D01*
X112150000Y-67500000D02*
X111500000Y-67500000D01*
X110900000Y-67500000D02*
X111250000Y-67500000D01*
X111250000Y-67850000D02*
X111250000Y-67500000D01*
X108925000Y-66225000D02*
X108925000Y-66580002D01*
X108925000Y-66580002D02*
X109844998Y-67500000D01*
X109844998Y-67500000D02*
X110900000Y-67500000D01*
X111250000Y-67850000D02*
X111250000Y-68250000D01*
G04 #@! TO.N,Net-(C29-Pad2)*
X114500000Y-62875000D02*
X116625000Y-62875000D01*
X112925000Y-62875000D02*
X114500000Y-62875000D01*
X116625000Y-62875000D02*
X116750000Y-62750000D01*
G04 #@! TO.N,Net-(C32-Pad1)*
X98750000Y-58000000D02*
X98750000Y-59250000D01*
X98750000Y-59250000D02*
X99000000Y-59500000D01*
X99000000Y-59500000D02*
X99750000Y-59500000D01*
X99750000Y-59500000D02*
X100525000Y-60275000D01*
X100525000Y-60275000D02*
X104350000Y-60275000D01*
X104350000Y-60275000D02*
X104925000Y-60275000D01*
G04 #@! TO.N,Net-(C33-Pad1)*
X97500000Y-63250000D02*
X97500000Y-61900000D01*
X97500000Y-61900000D02*
X97300000Y-61700000D01*
X104925000Y-60925000D02*
X99930002Y-60925000D01*
X99930002Y-60925000D02*
X99780001Y-60774999D01*
X99780001Y-60774999D02*
X98125001Y-60774999D01*
X97300000Y-61600000D02*
X97300000Y-61700000D01*
X98125001Y-60774999D02*
X97300000Y-61600000D01*
D34*
G04 #@! TO.N,DLC_RAW*
X86250000Y-69500000D02*
X86250000Y-57500000D01*
X86250000Y-57500000D02*
X87500000Y-56250000D01*
X87500000Y-56250000D02*
X87500000Y-49750000D01*
X87500000Y-49750000D02*
X87584607Y-49750000D01*
X87584607Y-49750000D02*
X89207697Y-48126910D01*
D35*
X108750000Y-70000000D02*
X108500000Y-70250000D01*
X108500000Y-70250000D02*
X108000000Y-70250000D01*
X108750000Y-69250000D02*
X108750000Y-70000000D01*
D34*
G04 #@! TO.N,Net-(D8-Pad1)*
X94500000Y-66500000D02*
X92054998Y-66500000D01*
X92054998Y-66500000D02*
X91500000Y-65945002D01*
X91500000Y-65945002D02*
X91500000Y-65154998D01*
X91500000Y-65154998D02*
X92255008Y-64399990D01*
X92255008Y-64399990D02*
X93350010Y-64399990D01*
X93350010Y-64399990D02*
X93640000Y-64110000D01*
X93640000Y-64110000D02*
X94500000Y-64110000D01*
X94500000Y-64110000D02*
X94390000Y-64110000D01*
G04 #@! TO.N,Net-(D9-Pad1)*
X91250000Y-63750000D02*
X92750000Y-63750000D01*
D35*
G04 #@! TO.N,Net-(D10-Pad2)*
X106000000Y-44250000D02*
X107500000Y-44250000D01*
D34*
G04 #@! TO.N,/MicroM4/PWR_SAVE*
X101500000Y-57750000D02*
X101500000Y-59500000D01*
X101500000Y-59500000D02*
X101750000Y-59750000D01*
D35*
X96450009Y-57200009D02*
X99000000Y-57200009D01*
X104925000Y-59625000D02*
X104350000Y-59625000D01*
X104350000Y-59625000D02*
X104225000Y-59750000D01*
X99200009Y-57200009D02*
X99000000Y-57200009D01*
X104225000Y-59750000D02*
X101750000Y-59750000D01*
X101750000Y-59750000D02*
X99200009Y-57200009D01*
X96450009Y-57200009D02*
X94950009Y-57200009D01*
X94950009Y-57200009D02*
X94250000Y-56500000D01*
G04 #@! TO.N,Net-(Q4-Pad1)*
X91450000Y-50750000D02*
X91450000Y-52200000D01*
X91450000Y-52200000D02*
X91500000Y-52250000D01*
X91450000Y-50750000D02*
X91450000Y-50850000D01*
G04 #@! TO.N,Net-(Q5-Pad1)*
X97000000Y-52100000D02*
X97000000Y-52750000D01*
X97450000Y-51000000D02*
X97450000Y-51650000D01*
X97450000Y-51650000D02*
X97000000Y-52100000D01*
X97450000Y-51000000D02*
X97450000Y-51100000D01*
G04 #@! TO.N,/CAN_Transceiver/SW_CAN_LOAD*
X120500000Y-58000000D02*
X121525001Y-56974999D01*
X121525001Y-56974999D02*
X124974999Y-56974999D01*
X124974999Y-56974999D02*
X125500000Y-57500000D01*
X115750000Y-58000000D02*
X120500000Y-58000000D01*
X105675000Y-58225000D02*
X104975000Y-58225000D01*
X104975000Y-58225000D02*
X104750000Y-58000000D01*
G04 #@! TO.N,/J1850_Transceiver/J1850_BUS+_VH*
X96024999Y-64750000D02*
X96000000Y-64750000D01*
X96000000Y-64750000D02*
X92750000Y-64750000D01*
X101150000Y-64750000D02*
X96000000Y-64750000D01*
X101725000Y-64175000D02*
X101150000Y-64750000D01*
X104925000Y-64175000D02*
X101725000Y-64175000D01*
X92750000Y-64750000D02*
X92500000Y-65000000D01*
X92500000Y-65000000D02*
X92500000Y-65550000D01*
D34*
G04 #@! TO.N,Net-(Q7-Pad3)*
X91750000Y-69000000D02*
X91750000Y-68500000D01*
X91750000Y-68500000D02*
X90500000Y-67250000D01*
X90500000Y-67250000D02*
X90500000Y-67150000D01*
X90500000Y-67150000D02*
X90500000Y-66500000D01*
X91750000Y-69000000D02*
X91750000Y-70250000D01*
D35*
G04 #@! TO.N,/J1850_Transceiver/J1850_BUS+_TX*
X102000000Y-65500000D02*
X100500000Y-65500000D01*
X104925000Y-64825000D02*
X102275000Y-64825000D01*
X102275000Y-64825000D02*
X102000000Y-65100000D01*
X102000000Y-65100000D02*
X102000000Y-65500000D01*
G04 #@! TO.N,Net-(Q8-Pad3)*
X97500000Y-68250000D02*
X97500000Y-69000000D01*
X98500000Y-67250000D02*
X97500000Y-68250000D01*
X98500000Y-66450000D02*
X98500000Y-67250000D01*
D34*
X96500000Y-65550000D02*
X98250000Y-65550000D01*
X98250000Y-65550000D02*
X98500000Y-65800000D01*
X98500000Y-65800000D02*
X98500000Y-66450000D01*
D35*
G04 #@! TO.N,/J1850_Transceiver/J1850_BUS-_TX*
X104925000Y-58975000D02*
X104350000Y-58975000D01*
X104350000Y-58975000D02*
X104224999Y-58849999D01*
X104224999Y-58849999D02*
X104224999Y-57199279D01*
X104224999Y-57199279D02*
X110424278Y-51000000D01*
X110424278Y-51000000D02*
X111250000Y-51000000D01*
X111250000Y-51000000D02*
X111500000Y-50750000D01*
X111500000Y-50750000D02*
X111500000Y-50500000D01*
X111500000Y-50500000D02*
X111500000Y-50250000D01*
X112000000Y-47500000D02*
X112000000Y-46050000D01*
X112000000Y-46050000D02*
X111950000Y-46000000D01*
X111500000Y-50250000D02*
X111500000Y-48400000D01*
X111500000Y-48400000D02*
X112000000Y-47900000D01*
X112000000Y-47900000D02*
X112000000Y-47500000D01*
X111500000Y-50405002D02*
X111500000Y-50250000D01*
X111950000Y-46000000D02*
X111950000Y-46100000D01*
G04 #@! TO.N,/ISO_Transceiver/ISO_K_TX*
X102175044Y-56880579D02*
X95603577Y-56880579D01*
X95603577Y-56880579D02*
X91972998Y-53250000D01*
X91972998Y-53250000D02*
X91500000Y-53250000D01*
X111525000Y-58225000D02*
X111525000Y-57475000D01*
X111525000Y-57475000D02*
X111750000Y-57250000D01*
G04 #@! TO.N,Net-(R8-Pad1)*
X103100000Y-52100000D02*
X103100000Y-53050000D01*
X103100000Y-53050000D02*
X102150000Y-54000000D01*
X102150000Y-54000000D02*
X100650000Y-54000000D01*
X100650000Y-54000000D02*
X100250000Y-54000000D01*
X100250000Y-52750000D02*
X100250000Y-54000000D01*
G04 #@! TO.N,Net-(R11-Pad2)*
X102000000Y-55250000D02*
X103750000Y-53500000D01*
X103750000Y-53500000D02*
X103750000Y-52100000D01*
X100250000Y-55250000D02*
X102000000Y-55250000D01*
G04 #@! TO.N,/ISO_Transceiver/ISO_RX*
X102500000Y-59000000D02*
X102500000Y-57500000D01*
X102500000Y-57500000D02*
X103000000Y-57000000D01*
X106325000Y-66225000D02*
X106325000Y-66800000D01*
X106325000Y-66800000D02*
X105925000Y-67200000D01*
X105925000Y-67200000D02*
X105905002Y-67200000D01*
X107250000Y-49750000D02*
X106450000Y-49750000D01*
X106450000Y-49750000D02*
X105050000Y-51150000D01*
X105050000Y-51150000D02*
X105050000Y-52100000D01*
X103000000Y-57000000D02*
X104750000Y-55250000D01*
X104750000Y-55250000D02*
X104850000Y-55150000D01*
X105050000Y-52100000D02*
X105050000Y-54950000D01*
X105050000Y-54950000D02*
X104750000Y-55250000D01*
X105905002Y-67200000D02*
X103250000Y-67200000D01*
X106325000Y-66225000D02*
X106325000Y-66580002D01*
G04 #@! TO.N,/ISO_Transceiver/ISO_L_TX*
X97000000Y-54750000D02*
X97000000Y-53750000D01*
X98163896Y-55913896D02*
X97000000Y-54750000D01*
X102518606Y-56213895D02*
X102218607Y-55913896D01*
X102218607Y-55913896D02*
X98163896Y-55913896D01*
X112175000Y-58225000D02*
X112175000Y-57975000D01*
X112175000Y-57975000D02*
X112500000Y-57650000D01*
X112500000Y-57650000D02*
X112500000Y-56750000D01*
G04 #@! TO.N,/CAN_Transceiver/SW_CAN_RX*
X122250000Y-52210000D02*
X112140000Y-52210000D01*
X112140000Y-52210000D02*
X111250000Y-53100000D01*
X111250000Y-53100000D02*
X111250000Y-54000000D01*
X110875000Y-58225000D02*
X110875000Y-55530002D01*
X110875000Y-55530002D02*
X110774999Y-55430001D01*
X110774999Y-55430001D02*
X110774999Y-54075001D01*
X110774999Y-54075001D02*
X110850000Y-54000000D01*
X110850000Y-54000000D02*
X111250000Y-54000000D01*
D34*
G04 #@! TO.N,Net-(R16-Pad1)*
X127500000Y-50000000D02*
X128450000Y-50000000D01*
X128450000Y-50000000D02*
X129000000Y-50550000D01*
X129000000Y-50550000D02*
X129000000Y-53250000D01*
X129000000Y-53250000D02*
X128770000Y-53480000D01*
X128770000Y-53480000D02*
X127650000Y-53480000D01*
X128125000Y-53480000D02*
X127650000Y-53480000D01*
X127500000Y-50000000D02*
X127275000Y-50000000D01*
G04 #@! TO.N,Net-(R25-Pad1)*
X94137500Y-72000000D02*
X95750000Y-72000000D01*
X95750000Y-72000000D02*
X96000000Y-71750000D01*
X92750000Y-70250000D02*
X92750000Y-70612500D01*
X92750000Y-70612500D02*
X94137500Y-72000000D01*
D35*
G04 #@! TO.N,Net-(R30-Pad2)*
X110000000Y-48750000D02*
X111000000Y-48750000D01*
X101800000Y-52100000D02*
X101800000Y-50700000D01*
X101800000Y-50700000D02*
X102750000Y-49750000D01*
G04 #@! TO.N,Net-(R31-Pad2)*
X107250000Y-47000000D02*
X106600000Y-47000000D01*
X106600000Y-47000000D02*
X102450000Y-51150000D01*
X102450000Y-51150000D02*
X102450000Y-52100000D01*
G04 #@! TO.N,/J1850_Transceiver/PWM_RX*
X105700000Y-52100000D02*
X105700000Y-55300000D01*
X105700000Y-55300000D02*
X103500000Y-57500000D01*
X103500000Y-57500000D02*
X103500000Y-58000000D01*
X107250000Y-51000000D02*
X106175000Y-51000000D01*
X106175000Y-51000000D02*
X105700000Y-51475000D01*
X105700000Y-51475000D02*
X105700000Y-52100000D01*
X104925000Y-65475000D02*
X104275000Y-65475000D01*
X104275000Y-65475000D02*
X104250000Y-65500000D01*
G04 #@! TO.N,Net-(R34-Pad1)*
X103100000Y-46500000D02*
X103100000Y-47450000D01*
X103100000Y-47450000D02*
X102550000Y-48000000D01*
X102550000Y-48000000D02*
X101750000Y-48000000D01*
G04 #@! TO.N,Net-(R37-Pad2)*
X110000000Y-49750000D02*
X110750000Y-49750000D01*
X110750000Y-49750000D02*
X111000000Y-50000000D01*
X103750000Y-46500000D02*
X103750000Y-47750000D01*
X103750000Y-47750000D02*
X103500000Y-48000000D01*
G04 #@! TO.N,/J1850_Transceiver/VPW_RX*
X101750000Y-49500000D02*
X102500000Y-48750000D01*
X102500000Y-48750000D02*
X103750000Y-48750000D01*
X103750000Y-48750000D02*
X105050000Y-47450000D01*
X105050000Y-47450000D02*
X105050000Y-46500000D01*
X104225000Y-66225000D02*
X104225000Y-66250000D01*
X104225000Y-66250000D02*
X104000000Y-66475000D01*
X105675000Y-66225000D02*
X104225000Y-66225000D01*
G04 #@! TO.N,/CAN_Transceiver/HS_CAN_TX*
X127020000Y-65400000D02*
X127020000Y-64950000D01*
X120250000Y-63250000D02*
X119975000Y-63525000D01*
X127020000Y-64950000D02*
X125320000Y-63250000D01*
X125320000Y-63250000D02*
X120250000Y-63250000D01*
X119975000Y-63525000D02*
X113500000Y-63525000D01*
X113500000Y-63525000D02*
X112925000Y-63525000D01*
X127020000Y-65400000D02*
X127020000Y-67423226D01*
X127020000Y-67423226D02*
X126993226Y-67450000D01*
D34*
X125750000Y-67450000D02*
X126993226Y-67450000D01*
G04 #@! TO.N,/MicroM4/UART1_RX*
X111250000Y-55000000D02*
X112500000Y-55000000D01*
X112500000Y-55000000D02*
X113500000Y-54000000D01*
D35*
X113575001Y-59980001D02*
X113575001Y-55250000D01*
X113575001Y-55250000D02*
X113575001Y-54075001D01*
X113575001Y-54075001D02*
X113500000Y-54000000D01*
X112925000Y-60925000D02*
X113500000Y-60925000D01*
X113500000Y-60925000D02*
X113575001Y-60849999D01*
X113575001Y-60849999D02*
X113575001Y-59980001D01*
D34*
G04 #@! TO.N,/CAN_Transceiver/HS_CAN_RX*
X116000000Y-67325000D02*
X115425000Y-66750000D01*
X123250000Y-67450000D02*
X116125000Y-67450000D01*
X116125000Y-67450000D02*
X116000000Y-67325000D01*
D35*
X123210000Y-65400000D02*
X123210000Y-67410000D01*
X123210000Y-67410000D02*
X123250000Y-67450000D01*
X115425000Y-66750000D02*
X113500000Y-64825000D01*
X113500000Y-64825000D02*
X112925000Y-64825000D01*
D34*
X124500000Y-67450000D02*
X123250000Y-67450000D01*
D35*
G04 #@! TO.N,Net-(R46-Pad2)*
X113750000Y-68250000D02*
X113750000Y-67750000D01*
X113750000Y-67750000D02*
X113500000Y-67500000D01*
X113500000Y-67500000D02*
X113000000Y-67500000D01*
X113000000Y-67500000D02*
X112175000Y-66675000D01*
X112175000Y-66675000D02*
X112175000Y-66225000D01*
G04 #@! TO.N,/CAN_Transceiver/MS_CAN_RX*
X115000000Y-67500000D02*
X114750000Y-67250000D01*
X114750000Y-67250000D02*
X114250000Y-67250000D01*
X115000000Y-67300000D02*
X115000000Y-67500000D01*
X115000000Y-67500000D02*
X115000000Y-67850000D01*
X112925000Y-65475000D02*
X113500000Y-65475000D01*
X113500000Y-65475000D02*
X115000000Y-66975000D01*
X115000000Y-66975000D02*
X115000000Y-67300000D01*
D34*
X119400000Y-60000000D02*
X115750000Y-60000000D01*
D35*
X113325002Y-65475000D02*
X112925000Y-65475000D01*
X112925000Y-65475000D02*
X113175000Y-65475000D01*
X115000000Y-67850000D02*
X115000000Y-68250000D01*
G04 #@! TO.N,/CAN_Transceiver/MS_CAN_TX*
X115100000Y-64200000D02*
X112950000Y-64200000D01*
X112950000Y-64200000D02*
X112925000Y-64175000D01*
X121240000Y-64250000D02*
X121390000Y-64400000D01*
X121390000Y-64400000D02*
X121940000Y-64950000D01*
X115100000Y-64200000D02*
X121190000Y-64200000D01*
X121190000Y-64200000D02*
X121390000Y-64400000D01*
X121940000Y-64950000D02*
X121940000Y-65400000D01*
G04 #@! TO.N,/CAN_Transceiver/SW_CAN_MODE0*
X108250000Y-55500000D02*
X107825736Y-55500000D01*
X107825736Y-55500000D02*
X106325000Y-57000736D01*
X106325000Y-57000736D02*
X106325000Y-57650000D01*
X106325000Y-58225000D02*
X106325000Y-57650000D01*
X123750000Y-54750000D02*
X122250000Y-54750000D01*
X114969668Y-55675000D02*
X115894668Y-54750000D01*
X115894668Y-54750000D02*
X122250000Y-54750000D01*
G04 #@! TO.N,/CAN_Transceiver/SW_CAN_MODE1*
X108500000Y-57000000D02*
X109000000Y-56500000D01*
X109000000Y-56500000D02*
X109000000Y-55750000D01*
X107625000Y-57000000D02*
X108500000Y-57000000D01*
X107625000Y-57000000D02*
X106975000Y-57650000D01*
X106975000Y-57650000D02*
X106975000Y-58225000D01*
X109000000Y-54750000D02*
X109000000Y-55750000D01*
X122250000Y-53480000D02*
X123770000Y-53480000D01*
X123770000Y-53480000D02*
X124500000Y-52750000D01*
X122250000Y-53480000D02*
X116270000Y-53480000D01*
X116270000Y-53480000D02*
X115250000Y-54500000D01*
G04 #@! TO.N,/CAN_Transceiver/SW_CAN_TX*
X122020000Y-56250000D02*
X122250000Y-56020000D01*
X125000000Y-55000000D02*
X123980000Y-56020000D01*
X123980000Y-56020000D02*
X122250000Y-56020000D01*
X125750000Y-55000000D02*
X125000000Y-55000000D01*
X115750000Y-56500000D02*
X115000000Y-56500000D01*
X116230000Y-56020000D02*
X115750000Y-56500000D01*
X122250000Y-56020000D02*
X116230000Y-56020000D01*
X110225000Y-58225000D02*
X110225000Y-56225000D01*
X110225000Y-56225000D02*
X110250000Y-56200000D01*
G04 #@! TO.N,/MicroM4/STN_SLEEP*
X104350000Y-62875000D02*
X103725000Y-63500000D01*
X103725000Y-63500000D02*
X102500000Y-63500000D01*
X104925000Y-62875000D02*
X104350000Y-62875000D01*
G04 #@! TO.N,/MicroM4/STN_RESET*
X108275000Y-66225000D02*
X108275000Y-66775000D01*
X108275000Y-66775000D02*
X108750000Y-67250000D01*
G04 #@! TO.N,/MicroM4/UART1_TX*
X113875011Y-60000000D02*
X113875011Y-54874989D01*
X113875011Y-54874989D02*
X114250000Y-54500000D01*
X113875011Y-60974267D02*
X113875011Y-60000000D01*
X112925000Y-61575000D02*
X113500000Y-61575000D01*
X113500000Y-61575000D02*
X113875011Y-61199989D01*
X113875011Y-61199989D02*
X113875011Y-60974267D01*
D37*
G04 #@! TO.N,/SW_CAN*
X129250000Y-54750000D02*
X127650000Y-54750000D01*
X127750000Y-46500000D02*
X127750000Y-47900000D01*
X127750000Y-47900000D02*
X127500000Y-48150000D01*
D34*
X128125000Y-54750000D02*
X127650000Y-54750000D01*
X119000000Y-38500000D02*
X120150000Y-38500000D01*
X120150000Y-38500000D02*
X121000000Y-39350000D01*
X121000000Y-39350000D02*
X121000000Y-39550000D01*
X119000000Y-38500000D02*
X120750000Y-38500000D01*
X120750000Y-38500000D02*
X121000000Y-38250000D01*
D35*
G04 #@! TO.N,/K-LINE*
X95500000Y-53250000D02*
X97650000Y-53250000D01*
X99250000Y-54850000D02*
X99250000Y-55250000D01*
X97650000Y-53250000D02*
X99250000Y-54850000D01*
X95024999Y-52774999D02*
X95500000Y-53250000D01*
X90500000Y-52250000D02*
X91024999Y-52774999D01*
X91024999Y-52774999D02*
X95024999Y-52774999D01*
X90500000Y-48750000D02*
X90500000Y-52250000D01*
D34*
X90500000Y-43750000D02*
X90500000Y-48750000D01*
X93500000Y-43750000D02*
X90500000Y-43750000D01*
X95000000Y-38500000D02*
X95000000Y-38700000D01*
X95000000Y-38700000D02*
X93500000Y-40200000D01*
X93500000Y-40200000D02*
X93500000Y-43025000D01*
X93500000Y-43025000D02*
X93500000Y-43750000D01*
G04 #@! TO.N,/L-LINE*
X94750000Y-47900000D02*
X95850000Y-49000000D01*
X94750000Y-46475000D02*
X94750000Y-47900000D01*
X95850000Y-49000000D02*
X96500000Y-49000000D01*
X94750000Y-43100000D02*
X94750000Y-46475000D01*
X94750000Y-46475000D02*
X93725000Y-47500000D01*
X93725000Y-47500000D02*
X93500000Y-47500000D01*
X95000000Y-41500000D02*
X95000000Y-42850000D01*
X95000000Y-42850000D02*
X94750000Y-43100000D01*
X95000000Y-41500000D02*
X95000000Y-41700000D01*
X96500000Y-43200000D02*
X96500000Y-43750000D01*
X95000000Y-41700000D02*
X96500000Y-43200000D01*
G04 #@! TO.N,/J1850_BUS+*
X95750000Y-62000000D02*
X94500000Y-62000000D01*
X112000000Y-50000000D02*
X112000000Y-50744988D01*
X111394978Y-51350010D02*
X110899990Y-51350010D01*
X112000000Y-50744988D02*
X111394978Y-51350010D01*
X110899990Y-51350010D02*
X106250000Y-56000000D01*
D35*
X94342099Y-62700001D02*
X94292100Y-62750000D01*
D34*
X92750000Y-62750000D02*
X94292100Y-62750000D01*
X94292100Y-62750000D02*
X94500000Y-62542100D01*
X94500000Y-62542100D02*
X94500000Y-62000000D01*
D35*
X113494998Y-45000000D02*
X115250000Y-45000000D01*
X115250000Y-45000000D02*
X116750000Y-43500000D01*
X112000000Y-48750000D02*
X112400000Y-48750000D01*
X113174999Y-47975001D02*
X113174999Y-45319999D01*
X112400000Y-48750000D02*
X113174999Y-47975001D01*
X113174999Y-45319999D02*
X113494998Y-45000000D01*
X112000000Y-50000000D02*
X112000000Y-48750000D01*
D34*
X115000000Y-38500000D02*
X116150000Y-38500000D01*
X116150000Y-38500000D02*
X116500000Y-38850000D01*
X116500000Y-38850000D02*
X116500000Y-43250000D01*
X116500000Y-43250000D02*
X116750000Y-43500000D01*
X116750000Y-43500000D02*
X118000000Y-43500000D01*
X118000000Y-43500000D02*
X118500000Y-44000000D01*
D35*
G04 #@! TO.N,/J1850_BUS-*
X108500000Y-44250000D02*
X108500000Y-46750000D01*
X108500000Y-46750000D02*
X108250000Y-47000000D01*
X111000000Y-44000000D02*
X108750000Y-44000000D01*
X108750000Y-44000000D02*
X108500000Y-44250000D01*
D34*
X111000000Y-44000000D02*
X111500000Y-43500000D01*
X111500000Y-43500000D02*
X114250000Y-43500000D01*
X114250000Y-43500000D02*
X114750000Y-44000000D01*
X115000000Y-41500000D02*
X115000000Y-43750000D01*
X115000000Y-43750000D02*
X114750000Y-44000000D01*
G04 #@! TO.N,/HS_CAN_N*
X121250000Y-61750000D02*
X123180000Y-61750000D01*
X124480000Y-60450000D02*
X124480000Y-60000000D01*
X123180000Y-61750000D02*
X124480000Y-60450000D01*
D35*
X99000000Y-41500000D02*
X99000000Y-41700000D01*
X100050000Y-42750000D02*
X100600000Y-42750000D01*
X99000000Y-41700000D02*
X100050000Y-42750000D01*
X100600000Y-42750000D02*
X101000000Y-42750000D01*
X100500000Y-38850000D02*
X100500000Y-39800000D01*
X100500000Y-39800000D02*
X99000000Y-41300000D01*
X99000000Y-41300000D02*
X99000000Y-41500000D01*
X101000000Y-38750000D02*
X100600000Y-38750000D01*
X100600000Y-38750000D02*
X100500000Y-38850000D01*
D34*
G04 #@! TO.N,/MS_CAN_N*
X123000000Y-57750000D02*
X122700001Y-57450001D01*
X122700001Y-57450001D02*
X121948997Y-57450001D01*
X121948997Y-57450001D02*
X121898998Y-57500000D01*
X120670000Y-60000000D02*
X120670000Y-58728998D01*
X120670000Y-58728998D02*
X121898998Y-57500000D01*
D35*
X109000000Y-42750000D02*
X109950000Y-42750000D01*
X109950000Y-42750000D02*
X111000000Y-41700000D01*
X111000000Y-41700000D02*
X111000000Y-41500000D01*
X109750000Y-40250000D02*
X109750000Y-39500000D01*
X109750000Y-39500000D02*
X109000000Y-38750000D01*
X111000000Y-41500000D02*
X109750000Y-40250000D01*
D34*
G04 #@! TO.N,/MS_CAN_P*
X122000000Y-58250000D02*
X122000000Y-59440000D01*
X122000000Y-59440000D02*
X121940000Y-59500000D01*
D35*
X113000000Y-38500000D02*
X111000000Y-38500000D01*
X111000000Y-38500000D02*
X109750000Y-38500000D01*
X109750000Y-38500000D02*
X109000000Y-37750000D01*
D34*
G04 #@! TO.N,/HS_CAN_P*
X124250000Y-62500000D02*
X123250000Y-62500000D01*
X124250000Y-62500000D02*
X125750000Y-61000000D01*
X125750000Y-61000000D02*
X125750000Y-60000000D01*
D35*
X99000000Y-38500000D02*
X100250000Y-38500000D01*
X100250000Y-38500000D02*
X101000000Y-37750000D01*
G04 #@! TO.N,/MicroM4/BOOT*
X82000000Y-64250000D02*
X83250000Y-64250000D01*
G04 #@! TD*
M02*
