G04 #@! TF.GenerationSoftware,KiCad,Pcbnew,(5.0.0)*
G04 #@! TF.CreationDate,2019-08-11T19:05:01-03:00*
G04 #@! TF.ProjectId,PF_apiner,50465F6170696E65722E6B696361645F,rev?*
G04 #@! TF.SameCoordinates,Original*
G04 #@! TF.FileFunction,Copper,L1,Top,Signal*
G04 #@! TF.FilePolarity,Positive*
%FSLAX46Y46*%
G04 Gerber Fmt 4.6, Leading zero omitted, Abs format (unit mm)*
G04 Created by KiCad (PCBNEW (5.0.0)) date 08/11/19 19:05:01*
%MOMM*%
%LPD*%
G01*
G04 APERTURE LIST*
G04 #@! TA.AperFunction,SMDPad,CuDef*
%ADD10R,1.520000X1.000000*%
G04 #@! TD*
G04 #@! TA.AperFunction,SMDPad,CuDef*
%ADD11R,0.650000X3.000000*%
G04 #@! TD*
G04 #@! TA.AperFunction,Conductor*
%ADD12R,0.800000X1.000000*%
G04 #@! TD*
G04 #@! TA.AperFunction,Conductor*
%ADD13R,0.500000X0.500000*%
G04 #@! TD*
G04 #@! TA.AperFunction,SMDPad,CuDef*
%ADD14R,0.800000X0.900000*%
G04 #@! TD*
G04 #@! TA.AperFunction,SMDPad,CuDef*
%ADD15R,0.500000X0.500000*%
G04 #@! TD*
G04 #@! TA.AperFunction,SMDPad,CuDef*
%ADD16R,1.000000X1.800000*%
G04 #@! TD*
G04 #@! TA.AperFunction,SMDPad,CuDef*
%ADD17R,0.900000X0.800000*%
G04 #@! TD*
G04 #@! TA.AperFunction,SMDPad,CuDef*
%ADD18R,0.900000X0.950000*%
G04 #@! TD*
G04 #@! TA.AperFunction,SMDPad,CuDef*
%ADD19R,1.500000X1.050000*%
G04 #@! TD*
G04 #@! TA.AperFunction,SMDPad,CuDef*
%ADD20R,1.500000X2.400000*%
G04 #@! TD*
G04 #@! TA.AperFunction,SMDPad,CuDef*
%ADD21R,0.950000X0.900000*%
G04 #@! TD*
G04 #@! TA.AperFunction,ComponentPad*
%ADD22O,1.800000X2.200000*%
G04 #@! TD*
G04 #@! TA.AperFunction,SMDPad,CuDef*
%ADD23R,6.000000X2.000000*%
G04 #@! TD*
G04 #@! TA.AperFunction,SMDPad,CuDef*
%ADD24R,0.800000X1.000000*%
G04 #@! TD*
G04 #@! TA.AperFunction,SMDPad,CuDef*
%ADD25R,1.000000X0.800000*%
G04 #@! TD*
G04 #@! TA.AperFunction,Conductor*
%ADD26R,3.200000X1.000000*%
G04 #@! TD*
G04 #@! TA.AperFunction,SMDPad,CuDef*
%ADD27R,1.400000X2.000000*%
G04 #@! TD*
G04 #@! TA.AperFunction,SMDPad,CuDef*
%ADD28R,1.100000X0.600000*%
G04 #@! TD*
G04 #@! TA.AperFunction,SMDPad,CuDef*
%ADD29R,2.200000X3.500000*%
G04 #@! TD*
G04 #@! TA.AperFunction,SMDPad,CuDef*
%ADD30R,2.200000X1.200000*%
G04 #@! TD*
G04 #@! TA.AperFunction,Conductor*
%ADD31R,0.950000X0.500000*%
G04 #@! TD*
G04 #@! TA.AperFunction,SMDPad,CuDef*
%ADD32O,2.500000X0.900000*%
G04 #@! TD*
G04 #@! TA.AperFunction,SMDPad,CuDef*
%ADD33O,0.900000X2.500000*%
G04 #@! TD*
G04 #@! TA.AperFunction,SMDPad,CuDef*
%ADD34R,6.000000X6.000000*%
G04 #@! TD*
G04 #@! TA.AperFunction,ViaPad*
%ADD35C,0.600000*%
G04 #@! TD*
G04 #@! TA.AperFunction,Conductor*
%ADD36C,0.760000*%
G04 #@! TD*
G04 #@! TA.AperFunction,Conductor*
%ADD37C,0.250000*%
G04 #@! TD*
G04 #@! TA.AperFunction,Conductor*
%ADD38C,0.500000*%
G04 #@! TD*
G04 #@! TA.AperFunction,Conductor*
%ADD39C,0.150000*%
G04 #@! TD*
G04 #@! TA.AperFunction,Conductor*
%ADD40C,0.254000*%
G04 #@! TD*
G04 APERTURE END LIST*
D10*
G04 #@! TO.P,F1,2*
G04 #@! TO.N,DLC_RAW*
X91000000Y-46590000D03*
G04 #@! TO.P,F1,1*
G04 #@! TO.N,VIN*
X91010000Y-44410000D03*
G04 #@! TD*
D11*
G04 #@! TO.P,J2,5*
G04 #@! TO.N,GND*
X97290000Y-75250000D03*
G04 #@! TO.P,J2,4*
G04 #@! TO.N,/MicroM4/RESET*
X96020000Y-72250000D03*
G04 #@! TO.P,J2,3*
G04 #@! TO.N,/MicroM4/UART0_TX*
X94750000Y-75250000D03*
G04 #@! TO.P,J2,2*
G04 #@! TO.N,/MicroM4/UART0_RX*
X93480000Y-72250000D03*
G04 #@! TO.P,J2,1*
G04 #@! TO.N,+5V_USB*
X92210000Y-75250000D03*
G04 #@! TD*
D12*
G04 #@! TO.N,/CAN_Transceiver/SW_CAN_LOAD*
G04 #@! TO.C,Q6*
X126550000Y-57250000D03*
G04 #@! TO.N,Net-(Q6-Pad3)*
X127500000Y-55250000D03*
G04 #@! TO.N,GND*
X128450000Y-57250000D03*
G04 #@! TD*
D13*
G04 #@! TO.N,GND*
G04 #@! TO.C,C16*
X122000000Y-64000000D03*
G04 #@! TO.N,+5V_SW*
X122000000Y-63000000D03*
G04 #@! TD*
D14*
G04 #@! TO.P,C1,1*
G04 #@! TO.N,VIN*
X88250000Y-38750000D03*
G04 #@! TO.P,C1,2*
G04 #@! TO.N,GND*
X86750000Y-38750000D03*
G04 #@! TD*
D15*
G04 #@! TO.P,C2,1*
G04 #@! TO.N,+5V*
X91250000Y-62750000D03*
G04 #@! TO.P,C2,2*
G04 #@! TO.N,GND*
X90250000Y-62750000D03*
G04 #@! TD*
G04 #@! TO.P,C3,1*
G04 #@! TO.N,Net-(C3-Pad1)*
X82750000Y-58500000D03*
G04 #@! TO.P,C3,2*
G04 #@! TO.N,Net-(C3-Pad2)*
X81750000Y-58500000D03*
G04 #@! TD*
G04 #@! TO.P,C5,1*
G04 #@! TO.N,+3.3V*
X87250000Y-62750000D03*
G04 #@! TO.P,C5,2*
G04 #@! TO.N,GND*
X88250000Y-62750000D03*
G04 #@! TD*
D16*
G04 #@! TO.P,C6,1*
G04 #@! TO.N,DLC*
X84500000Y-50750000D03*
G04 #@! TO.P,C6,2*
G04 #@! TO.N,GND*
X81500000Y-50750000D03*
G04 #@! TD*
G04 #@! TO.P,C7,1*
G04 #@! TO.N,DLC*
X84500000Y-48000000D03*
G04 #@! TO.P,C7,2*
G04 #@! TO.N,GND*
X81500000Y-48000000D03*
G04 #@! TD*
D15*
G04 #@! TO.P,C8,1*
G04 #@! TO.N,+5V*
X85350000Y-57000000D03*
G04 #@! TO.P,C8,2*
G04 #@! TO.N,Net-(C8-Pad2)*
X84350000Y-57000000D03*
G04 #@! TD*
D14*
G04 #@! TO.P,C11,1*
G04 #@! TO.N,+5V*
X88798980Y-61024212D03*
G04 #@! TO.P,C11,2*
G04 #@! TO.N,GND*
X87298980Y-61024212D03*
G04 #@! TD*
D13*
G04 #@! TO.N,GND*
G04 #@! TO.C,C17*
X121000000Y-64000000D03*
G04 #@! TO.N,+5V_SW*
X121000000Y-63000000D03*
G04 #@! TD*
G04 #@! TO.N,Net-(C19-Pad1)*
G04 #@! TO.C,C19*
X97000000Y-41000000D03*
G04 #@! TO.N,GND*
X97000000Y-42000000D03*
G04 #@! TD*
G04 #@! TO.N,/SW_CAN*
G04 #@! TO.C,C21*
X121250000Y-39000000D03*
G04 #@! TO.N,GND*
X122250000Y-39000000D03*
G04 #@! TD*
D15*
G04 #@! TO.P,C35,1*
G04 #@! TO.N,+5V*
X89750000Y-70750000D03*
G04 #@! TO.P,C35,2*
G04 #@! TO.N,GND*
X88750000Y-70750000D03*
G04 #@! TD*
D17*
G04 #@! TO.P,C36,1*
G04 #@! TO.N,+3.3V*
X119300000Y-72900000D03*
G04 #@! TO.P,C36,2*
G04 #@! TO.N,Net-(C36-Pad2)*
X119300000Y-74400000D03*
G04 #@! TD*
D15*
G04 #@! TO.P,C37,1*
G04 #@! TO.N,+3.3V*
X121000000Y-73000000D03*
G04 #@! TO.P,C37,2*
G04 #@! TO.N,Net-(C36-Pad2)*
X121000000Y-74000000D03*
G04 #@! TD*
G04 #@! TO.P,C38,1*
G04 #@! TO.N,/MicroM4/RESET*
X121750000Y-68750000D03*
G04 #@! TO.P,C38,2*
G04 #@! TO.N,GND*
X121750000Y-69750000D03*
G04 #@! TD*
D18*
G04 #@! TO.P,D1,1*
G04 #@! TO.N,GND*
X93400000Y-49250000D03*
G04 #@! TO.P,D1,2*
G04 #@! TO.N,DLC_RAW*
X90250000Y-49250000D03*
G04 #@! TD*
D19*
G04 #@! TO.P,D2,1*
G04 #@! TO.N,DLC_RAW*
X87750000Y-48125000D03*
D20*
G04 #@! TO.P,D2,2*
G04 #@! TO.N,DLC*
X87750000Y-50500000D03*
G04 #@! TD*
D21*
G04 #@! TO.P,D12,1*
G04 #@! TO.N,+5V_USB*
X90000000Y-75750000D03*
G04 #@! TO.P,D12,2*
G04 #@! TO.N,+5V*
X90000000Y-72600000D03*
G04 #@! TD*
D22*
G04 #@! TO.P,J1,15*
G04 #@! TO.N,/L-LINE*
X95000000Y-41500000D03*
G04 #@! TO.P,J1,14*
G04 #@! TO.N,/HS_CAN_N*
X99000000Y-41500000D03*
G04 #@! TO.P,J1,13*
G04 #@! TO.N,Net-(J1-Pad13)*
X103000000Y-41500000D03*
G04 #@! TO.P,J1,12*
G04 #@! TO.N,Net-(J1-Pad12)*
X107000000Y-41500000D03*
G04 #@! TO.P,J1,11*
G04 #@! TO.N,/MS_CAN_N*
X111000000Y-41500000D03*
G04 #@! TO.P,J1,10*
G04 #@! TO.N,/J1850_BUS-*
X115000000Y-41500000D03*
G04 #@! TO.P,J1,2*
G04 #@! TO.N,/J1850_BUS+*
X115000000Y-38500000D03*
G04 #@! TO.P,J1,3*
G04 #@! TO.N,/MS_CAN_P*
X111000000Y-38500000D03*
G04 #@! TO.P,J1,4*
G04 #@! TO.N,GND*
X107000000Y-38500000D03*
G04 #@! TO.P,J1,5*
X103000000Y-38500000D03*
G04 #@! TO.P,J1,6*
G04 #@! TO.N,/HS_CAN_P*
X99000000Y-38500000D03*
G04 #@! TO.P,J1,7*
G04 #@! TO.N,/K-LINE*
X95000000Y-38500000D03*
G04 #@! TO.P,J1,9*
G04 #@! TO.N,Net-(J1-Pad9)*
X119000000Y-41500000D03*
G04 #@! TO.P,J1,1*
G04 #@! TO.N,/SW_CAN*
X119000000Y-38500000D03*
G04 #@! TO.P,J1,8*
G04 #@! TO.N,Net-(J1-Pad8)*
X91000000Y-38500000D03*
G04 #@! TO.P,J1,16*
G04 #@! TO.N,VIN*
X91000000Y-41500000D03*
G04 #@! TD*
D23*
G04 #@! TO.P,L1,1*
G04 #@! TO.N,Net-(C3-Pad1)*
X89750000Y-53950000D03*
G04 #@! TO.P,L1,2*
G04 #@! TO.N,+5V*
X89750000Y-58250000D03*
G04 #@! TD*
D24*
G04 #@! TO.P,Q1,1*
G04 #@! TO.N,/MicroM4/PWR_SAVE*
X94500000Y-54500000D03*
G04 #@! TO.P,Q1,3*
G04 #@! TO.N,Net-(Q1-Pad3)*
X95450000Y-52500000D03*
G04 #@! TO.P,Q1,2*
G04 #@! TO.N,GND*
X96400000Y-54500000D03*
G04 #@! TD*
G04 #@! TO.P,Q2,1*
G04 #@! TO.N,Net-(Q1-Pad3)*
X96450000Y-46750000D03*
G04 #@! TO.P,Q2,3*
G04 #@! TO.N,DLC_SW*
X95500000Y-48750000D03*
G04 #@! TO.P,Q2,2*
G04 #@! TO.N,DLC*
X94550000Y-46750000D03*
G04 #@! TD*
D25*
G04 #@! TO.P,Q3,1*
G04 #@! TO.N,Net-(Q1-Pad3)*
X94250000Y-58250000D03*
G04 #@! TO.P,Q3,3*
G04 #@! TO.N,+5V_SW*
X96250000Y-59200000D03*
G04 #@! TO.P,Q3,2*
G04 #@! TO.N,+5V*
X94250000Y-60150000D03*
G04 #@! TD*
D15*
G04 #@! TO.P,R1,1*
G04 #@! TO.N,+5V*
X85350000Y-58500000D03*
G04 #@! TO.P,R1,2*
G04 #@! TO.N,Net-(C8-Pad2)*
X84350000Y-58500000D03*
G04 #@! TD*
G04 #@! TO.P,R2,1*
G04 #@! TO.N,Net-(C8-Pad2)*
X82750000Y-57000000D03*
G04 #@! TO.P,R2,2*
G04 #@! TO.N,GND*
X81750000Y-57000000D03*
G04 #@! TD*
G04 #@! TO.P,R3,1*
G04 #@! TO.N,+3.3V*
X96250000Y-56750000D03*
G04 #@! TO.P,R3,2*
G04 #@! TO.N,/MicroM4/PWR_SAVE*
X95250000Y-56750000D03*
G04 #@! TD*
G04 #@! TO.P,R4,1*
G04 #@! TO.N,DLC*
X95000000Y-45000000D03*
G04 #@! TO.P,R4,2*
G04 #@! TO.N,Net-(Q1-Pad3)*
X96000000Y-45000000D03*
G04 #@! TD*
D13*
G04 #@! TO.N,Net-(C19-Pad1)*
G04 #@! TO.C,R17*
X97000000Y-39250000D03*
G04 #@! TO.N,/HS_CAN_P*
X97000000Y-38250000D03*
G04 #@! TD*
G04 #@! TO.N,GND*
G04 #@! TO.C,R18*
X128000000Y-58750000D03*
G04 #@! TO.N,/CAN_Transceiver/SW_CAN_LOAD*
X127000000Y-58750000D03*
G04 #@! TD*
D26*
G04 #@! TO.N,/SW_CAN*
G04 #@! TO.C,R20*
X126500000Y-47750000D03*
G04 #@! TO.N,Net-(Q6-Pad3)*
X126500000Y-53750000D03*
G04 #@! TD*
D13*
G04 #@! TO.N,Net-(R34-Pad1)*
G04 #@! TO.C,R34*
X100500000Y-46652714D03*
G04 #@! TO.N,+5V_SW*
X99500000Y-46652714D03*
G04 #@! TD*
G04 #@! TO.N,GND*
G04 #@! TO.C,R35*
X99500000Y-47902714D03*
G04 #@! TO.N,Net-(R34-Pad1)*
X100500000Y-47902714D03*
G04 #@! TD*
G04 #@! TO.N,/J1850_Transceiver/VPW_RX*
G04 #@! TO.C,R39*
X100500000Y-49250000D03*
G04 #@! TO.N,+3.3V*
X99500000Y-49250000D03*
G04 #@! TD*
G04 #@! TO.N,/CAN_Transceiver/SW_CAN_MODE0*
G04 #@! TO.C,R49*
X123750000Y-55500000D03*
G04 #@! TO.N,+5V_SW*
X123750000Y-56500000D03*
G04 #@! TD*
G04 #@! TO.N,/CAN_Transceiver/SW_CAN_MODE1*
G04 #@! TO.C,R50*
X123750000Y-52250000D03*
G04 #@! TO.N,+5V_SW*
X123750000Y-53250000D03*
G04 #@! TD*
G04 #@! TO.N,/CAN_Transceiver/SW_CAN_TX*
G04 #@! TO.C,R51*
X125000000Y-55500000D03*
G04 #@! TO.N,+5V*
X125000000Y-56500000D03*
G04 #@! TD*
D15*
G04 #@! TO.P,R52,1*
G04 #@! TO.N,/MicroM4/RESET*
X120250000Y-68750000D03*
G04 #@! TO.P,R52,2*
G04 #@! TO.N,+3.3V*
X120250000Y-69750000D03*
G04 #@! TD*
G04 #@! TO.P,R53,1*
G04 #@! TO.N,+3.3V*
X96500000Y-65750000D03*
G04 #@! TO.P,R53,2*
G04 #@! TO.N,/MicroM4/UART0_RX*
X96500000Y-64750000D03*
G04 #@! TD*
D27*
G04 #@! TO.P,SW1,1*
G04 #@! TO.N,/MicroM4/RESET*
X124250000Y-68000000D03*
G04 #@! TO.P,SW1,3*
G04 #@! TO.N,GND*
X127250000Y-68000000D03*
G04 #@! TO.P,SW1,2*
G04 #@! TO.N,/MicroM4/RESET*
X124250000Y-61000000D03*
G04 #@! TO.P,SW1,4*
G04 #@! TO.N,GND*
X127250000Y-61000000D03*
G04 #@! TD*
G04 #@! TO.P,SW2,1*
G04 #@! TO.N,/MicroM4/BOOT*
X84750000Y-61000000D03*
G04 #@! TO.P,SW2,3*
G04 #@! TO.N,GND*
X81750000Y-61000000D03*
G04 #@! TO.P,SW2,2*
G04 #@! TO.N,/MicroM4/BOOT*
X84750000Y-68000000D03*
G04 #@! TO.P,SW2,4*
G04 #@! TO.N,GND*
X81750000Y-68000000D03*
G04 #@! TD*
D28*
G04 #@! TO.P,U1,1*
G04 #@! TO.N,GND*
X84500000Y-55150000D03*
G04 #@! TO.P,U1,3*
G04 #@! TO.N,DLC*
X84500000Y-53250000D03*
G04 #@! TO.P,U1,2*
G04 #@! TO.N,Net-(C3-Pad1)*
X84500000Y-54200000D03*
G04 #@! TO.P,U1,4*
G04 #@! TO.N,Net-(C8-Pad2)*
X81700000Y-53250000D03*
G04 #@! TO.P,U1,6*
G04 #@! TO.N,Net-(C3-Pad2)*
X81700000Y-55150000D03*
G04 #@! TO.P,U1,5*
G04 #@! TO.N,Net-(U1-Pad5)*
X81700000Y-54200000D03*
G04 #@! TD*
D29*
G04 #@! TO.P,U2,2*
G04 #@! TO.N,+3.3V*
X88000000Y-65750000D03*
D30*
G04 #@! TO.P,U2,1*
G04 #@! TO.N,GND*
X94200000Y-68050000D03*
G04 #@! TO.P,U2,2*
G04 #@! TO.N,+3.3V*
X94200000Y-65750000D03*
G04 #@! TO.P,U2,3*
G04 #@! TO.N,+5V*
X94200000Y-63450000D03*
G04 #@! TD*
D31*
G04 #@! TO.N,GND*
G04 #@! TO.C,U6*
X98500000Y-44500000D03*
G04 #@! TO.N,/HS_CAN_N*
X100700000Y-45150000D03*
G04 #@! TO.N,/HS_CAN_P*
X100700000Y-43850000D03*
G04 #@! TD*
G04 #@! TO.N,GND*
G04 #@! TO.C,U8*
X107300000Y-44250000D03*
G04 #@! TO.N,/MS_CAN_P*
X109500000Y-44900000D03*
G04 #@! TO.N,/MS_CAN_N*
X109500000Y-43600000D03*
G04 #@! TD*
D32*
G04 #@! TO.P,U14,38*
G04 #@! TO.N,GND*
X99700000Y-69950000D03*
G04 #@! TO.P,U14,37*
G04 #@! TO.N,Net-(U14-Pad37)*
X99700000Y-68680000D03*
G04 #@! TO.P,U14,36*
G04 #@! TO.N,Net-(U14-Pad36)*
X99700000Y-67410000D03*
G04 #@! TO.P,U14,35*
G04 #@! TO.N,/MicroM4/UART0_TX*
X99700000Y-66140000D03*
G04 #@! TO.P,U14,34*
G04 #@! TO.N,/MicroM4/UART0_RX*
X99700000Y-64870000D03*
G04 #@! TO.P,U14,33*
G04 #@! TO.N,/MicroM4/STN_SLEEP*
X99700000Y-63600000D03*
G04 #@! TO.P,U14,32*
G04 #@! TO.N,Net-(U14-Pad32)*
X99700000Y-62330000D03*
G04 #@! TO.P,U14,31*
G04 #@! TO.N,Net-(U14-Pad31)*
X99700000Y-61060000D03*
G04 #@! TO.P,U14,30*
G04 #@! TO.N,Net-(U14-Pad30)*
X99700000Y-59790000D03*
G04 #@! TO.P,U14,29*
G04 #@! TO.N,Net-(U14-Pad29)*
X99700000Y-58520000D03*
G04 #@! TO.P,U14,28*
G04 #@! TO.N,/MicroM4/PWR_SAVE*
X99700000Y-57250000D03*
G04 #@! TO.P,U14,27*
G04 #@! TO.N,Net-(U14-Pad27)*
X99700000Y-55980000D03*
G04 #@! TO.P,U14,26*
G04 #@! TO.N,Net-(U14-Pad26)*
X99700000Y-54710000D03*
G04 #@! TO.P,U14,25*
G04 #@! TO.N,/MicroM4/BOOT*
X99700000Y-53440000D03*
D33*
G04 #@! TO.P,U14,24*
G04 #@! TO.N,GND*
X102985000Y-51950000D03*
G04 #@! TO.P,U14,23*
G04 #@! TO.N,Net-(U14-Pad23)*
X104255000Y-51950000D03*
G04 #@! TO.P,U14,22*
G04 #@! TO.N,Net-(U14-Pad22)*
X105525000Y-51950000D03*
G04 #@! TO.P,U14,21*
G04 #@! TO.N,Net-(U14-Pad21)*
X106795000Y-51950000D03*
G04 #@! TO.P,U14,20*
G04 #@! TO.N,Net-(U14-Pad20)*
X108065000Y-51950000D03*
G04 #@! TO.P,U14,19*
G04 #@! TO.N,Net-(U14-Pad19)*
X109335000Y-51950000D03*
G04 #@! TO.P,U14,18*
G04 #@! TO.N,/MicroM4/UART1_TX*
X110605000Y-51950000D03*
G04 #@! TO.P,U14,17*
G04 #@! TO.N,/MicroM4/UART1_RX*
X111875000Y-51950000D03*
G04 #@! TO.P,U14,16*
G04 #@! TO.N,Net-(U14-Pad16)*
X113145000Y-51950000D03*
G04 #@! TO.P,U14,15*
G04 #@! TO.N,GND*
X114415000Y-51950000D03*
D32*
G04 #@! TO.P,U14,14*
X117700000Y-53440000D03*
G04 #@! TO.P,U14,13*
G04 #@! TO.N,/MicroM4/Led_Status*
X117700000Y-54710000D03*
G04 #@! TO.P,U14,12*
G04 #@! TO.N,Net-(U14-Pad12)*
X117700000Y-55980000D03*
G04 #@! TO.P,U14,11*
G04 #@! TO.N,Net-(U14-Pad11)*
X117700000Y-57250000D03*
G04 #@! TO.P,U14,10*
G04 #@! TO.N,/MicroM4/STN_RESET*
X117700000Y-58520000D03*
G04 #@! TO.P,U14,9*
G04 #@! TO.N,Net-(U14-Pad9)*
X117700000Y-59790000D03*
G04 #@! TO.P,U14,8*
G04 #@! TO.N,Net-(U14-Pad8)*
X117700000Y-61060000D03*
G04 #@! TO.P,U14,7*
G04 #@! TO.N,Net-(U14-Pad7)*
X117700000Y-62330000D03*
G04 #@! TO.P,U14,6*
G04 #@! TO.N,Net-(U14-Pad6)*
X117700000Y-63600000D03*
G04 #@! TO.P,U14,5*
G04 #@! TO.N,Net-(U14-Pad5)*
X117700000Y-64870000D03*
G04 #@! TO.P,U14,4*
G04 #@! TO.N,Net-(U14-Pad4)*
X117700000Y-66140000D03*
G04 #@! TO.P,U14,3*
G04 #@! TO.N,/MicroM4/RESET*
X117700000Y-67410000D03*
G04 #@! TO.P,U14,2*
G04 #@! TO.N,+3.3V*
X117700000Y-68680000D03*
G04 #@! TO.P,U14,1*
G04 #@! TO.N,GND*
X117700000Y-69950000D03*
D34*
G04 #@! TO.P,U14,39*
X109000000Y-62250000D03*
G04 #@! TD*
D15*
G04 #@! TO.P,C34,1*
G04 #@! TO.N,/MicroM4/BOOT*
X87750000Y-68500000D03*
G04 #@! TO.P,C34,2*
G04 #@! TO.N,GND*
X87750000Y-69500000D03*
G04 #@! TD*
D24*
G04 #@! TO.P,DS1,1*
G04 #@! TO.N,Net-(DS1-Pad1)*
X117000000Y-47250000D03*
G04 #@! TO.P,DS1,2*
G04 #@! TO.N,GND*
X115350000Y-47250000D03*
G04 #@! TD*
D15*
G04 #@! TO.P,R55,1*
G04 #@! TO.N,Net-(DS1-Pad1)*
X116750000Y-49750000D03*
G04 #@! TO.P,R55,2*
G04 #@! TO.N,/MicroM4/Led_Status*
X117750000Y-49750000D03*
G04 #@! TD*
D35*
G04 #@! TO.N,GND*
X129000000Y-56000000D03*
X110750000Y-69800000D03*
X106500000Y-69666413D03*
X119750000Y-62750000D03*
X96282074Y-60242599D03*
X94250000Y-69250000D03*
X93500000Y-69250000D03*
X110931510Y-46671460D03*
X105500000Y-42750000D03*
X99750000Y-51750000D03*
X103121232Y-54871232D03*
X85500000Y-38250000D03*
X85500000Y-39000000D03*
X113000000Y-42750000D03*
X122500000Y-38000000D03*
X123250000Y-58750000D03*
X119250000Y-71500000D03*
X121750000Y-71500000D03*
X117700000Y-51500000D03*
X115600000Y-51400000D03*
X121300000Y-66600000D03*
X125300000Y-64200000D03*
X128700000Y-68000000D03*
X128600000Y-61000000D03*
X127600000Y-57300000D03*
X128600000Y-60000000D03*
X121000000Y-47400000D03*
X115500000Y-48500000D03*
X81800000Y-56100000D03*
X83750000Y-56000000D03*
X84500000Y-56000000D03*
X94500000Y-51250000D03*
X98250000Y-45750000D03*
X92000000Y-49250000D03*
X88575000Y-52250000D03*
X96250000Y-55750000D03*
X89250000Y-62250000D03*
X83250000Y-61000000D03*
X83000000Y-68000000D03*
X87750000Y-70750000D03*
X87500000Y-76250000D03*
X102000000Y-69500000D03*
X98000000Y-70750000D03*
X98500000Y-74250000D03*
X98500000Y-75250000D03*
X98500000Y-76250000D03*
X109750000Y-59750000D03*
X111400000Y-59750000D03*
X111400000Y-61400000D03*
X109750000Y-61400000D03*
X108100000Y-61400000D03*
X108100000Y-63050000D03*
X109750000Y-63050000D03*
X111400000Y-63050000D03*
X111400000Y-64700000D03*
X109750000Y-64700000D03*
X108100000Y-64700000D03*
X106450000Y-64700000D03*
X106450000Y-63050000D03*
X106450000Y-61400000D03*
X108100000Y-59750000D03*
X106450000Y-59750000D03*
X82750000Y-51250000D03*
X82750000Y-50250000D03*
X82750000Y-48500000D03*
X82750000Y-47500000D03*
G04 #@! TO.N,+5V*
X95750000Y-61250000D03*
X115000000Y-57250000D03*
X126000000Y-56000000D03*
X92100000Y-56500000D03*
X91300000Y-56500000D03*
X90500000Y-56500000D03*
X94300000Y-61200000D03*
X89500000Y-68750000D03*
X90000000Y-69500000D03*
X89750000Y-60723192D03*
G04 #@! TO.N,Net-(C3-Pad1)*
X85750000Y-55000000D03*
X83250000Y-59500000D03*
G04 #@! TO.N,DLC*
X123500000Y-49500000D03*
X117750000Y-48500000D03*
X114000000Y-48500000D03*
X88250000Y-46250000D03*
X95500000Y-43750000D03*
X85750000Y-51250000D03*
X85750000Y-50250000D03*
X85750000Y-48500000D03*
X85750000Y-47500000D03*
G04 #@! TO.N,+3.3V*
X96500000Y-63750000D03*
X114250000Y-64750000D03*
X109500000Y-54000000D03*
X122750000Y-69500000D03*
X99500000Y-50500000D03*
X85250000Y-64750000D03*
X95250000Y-55750000D03*
X109000000Y-49750000D03*
X102250000Y-67750000D03*
X115500000Y-70500000D03*
X90250000Y-64750000D03*
X90500000Y-65500000D03*
X89750000Y-65500000D03*
G04 #@! TO.N,DLC_SW*
X93500000Y-51000000D03*
X101750000Y-48750000D03*
X89500000Y-52000000D03*
X105750000Y-48750000D03*
G04 #@! TO.N,+5V_SW*
X120000000Y-61750000D03*
X123000000Y-64050000D03*
X120000000Y-66710000D03*
X110000000Y-47250000D03*
X122750000Y-50250000D03*
X99250000Y-45500000D03*
X96250000Y-58000000D03*
G04 #@! TO.N,DLC_RAW*
X89207697Y-48126910D03*
X86250000Y-69500000D03*
X108000000Y-70250000D03*
G04 #@! TO.N,/MicroM4/PWR_SAVE*
X101500000Y-57750000D03*
X94250000Y-56500000D03*
G04 #@! TO.N,/CAN_Transceiver/SW_CAN_LOAD*
X125500000Y-57500000D03*
X115750000Y-58000000D03*
X104750000Y-58000000D03*
G04 #@! TO.N,/ISO_Transceiver/ISO_K_TX*
X102175044Y-56880579D03*
X111750000Y-57250000D03*
G04 #@! TO.N,/ISO_Transceiver/ISO_RX*
X102500000Y-59000000D03*
X103250000Y-67200000D03*
G04 #@! TO.N,/ISO_Transceiver/ISO_L_TX*
X102518606Y-56213895D03*
X112500000Y-56750000D03*
G04 #@! TO.N,Net-(R30-Pad2)*
X110000000Y-48750000D03*
X102750000Y-49750000D03*
G04 #@! TO.N,/J1850_Transceiver/PWM_RX*
X103500000Y-58000000D03*
X104250000Y-65500000D03*
G04 #@! TO.N,Net-(R34-Pad1)*
X101750000Y-48000000D03*
G04 #@! TO.N,Net-(R37-Pad2)*
X110000000Y-49750000D03*
X103500000Y-48000000D03*
G04 #@! TO.N,/J1850_Transceiver/VPW_RX*
X101750000Y-49500000D03*
X104000000Y-66475000D03*
G04 #@! TO.N,/MicroM4/UART1_RX*
X113500000Y-54000000D03*
G04 #@! TO.N,/CAN_Transceiver/MS_CAN_RX*
X114250000Y-67250000D03*
X115750000Y-60000000D03*
G04 #@! TO.N,/CAN_Transceiver/SW_CAN_MODE0*
X108250000Y-55500000D03*
X123750000Y-54750000D03*
X114969668Y-55675000D03*
G04 #@! TO.N,/CAN_Transceiver/SW_CAN_MODE1*
X124500000Y-52750000D03*
X115250000Y-54500000D03*
X109000000Y-54750000D03*
G04 #@! TO.N,/CAN_Transceiver/SW_CAN_TX*
X125750000Y-55000000D03*
X115000000Y-56500000D03*
X110250000Y-56200000D03*
G04 #@! TO.N,/MicroM4/STN_SLEEP*
X102500000Y-63500000D03*
G04 #@! TO.N,/MicroM4/STN_RESET*
X108750000Y-67250000D03*
G04 #@! TO.N,/MicroM4/UART1_TX*
X114250000Y-54500000D03*
G04 #@! TO.N,/SW_CAN*
X129250000Y-54750000D03*
X127750000Y-46500000D03*
G04 #@! TO.N,/J1850_BUS+*
X95750000Y-62000000D03*
X106250000Y-56000000D03*
G04 #@! TO.N,/HS_CAN_N*
X121250000Y-61750000D03*
G04 #@! TO.N,/MS_CAN_N*
X123000000Y-57750000D03*
G04 #@! TO.N,/MS_CAN_P*
X122000000Y-58250000D03*
G04 #@! TO.N,/HS_CAN_P*
X123250000Y-62500000D03*
G04 #@! TO.N,/MicroM4/BOOT*
X97950002Y-52750000D03*
X83250000Y-64250000D03*
G04 #@! TO.N,Net-(C36-Pad2)*
X120500000Y-75250000D03*
G04 #@! TD*
D36*
G04 #@! TO.N,VIN*
X91000000Y-41500000D02*
X91000000Y-44000000D01*
D37*
X88250000Y-38750000D02*
X91000000Y-41500000D01*
G04 #@! TO.N,GND*
X93500000Y-69250000D02*
X93500000Y-68750000D01*
X93500000Y-68750000D02*
X94200000Y-68050000D01*
X94200000Y-68050000D02*
X94200000Y-69200000D01*
X94200000Y-69200000D02*
X94250000Y-69250000D01*
X107300000Y-44250000D02*
X107000000Y-44250000D01*
X107000000Y-44250000D02*
X105500000Y-42750000D01*
X102985000Y-51950000D02*
X102985000Y-54735000D01*
X102985000Y-54735000D02*
X103121232Y-54871232D01*
X86750000Y-38750000D02*
X86000000Y-38750000D01*
X86000000Y-38750000D02*
X85500000Y-38250000D01*
X86750000Y-38750000D02*
X85750000Y-38750000D01*
X85750000Y-38750000D02*
X85500000Y-39000000D01*
X97000000Y-42000000D02*
X97000000Y-42500000D01*
X97000000Y-42500000D02*
X98500000Y-44000000D01*
X98500000Y-44000000D02*
X98500000Y-44500000D01*
X122250000Y-39000000D02*
X122250000Y-38250000D01*
X122250000Y-38250000D02*
X122500000Y-38000000D01*
X121750000Y-69750000D02*
X121750000Y-71500000D01*
D38*
X117700000Y-53440000D02*
X117700000Y-51500000D01*
X114415000Y-51950000D02*
X115050000Y-51950000D01*
X115050000Y-51950000D02*
X115600000Y-51400000D01*
D37*
X128350000Y-57900000D02*
X128350000Y-57350000D01*
X128350000Y-57350000D02*
X128450000Y-57250000D01*
X128000000Y-58750000D02*
X128000000Y-58250000D01*
X128000000Y-58250000D02*
X128350000Y-57900000D01*
X121300000Y-64300000D02*
X121300000Y-64200000D01*
X121300000Y-64200000D02*
X121500000Y-64000000D01*
X121500000Y-64000000D02*
X122000000Y-64000000D01*
X121300000Y-66600000D02*
X121300000Y-64300000D01*
X121300000Y-64300000D02*
X121000000Y-64000000D01*
X127250000Y-68000000D02*
X128700000Y-68000000D01*
X127250000Y-61000000D02*
X128600000Y-61000000D01*
X128450000Y-57250000D02*
X127650000Y-57250000D01*
X127650000Y-57250000D02*
X127600000Y-57300000D01*
D39*
X81750000Y-57000000D02*
X81750000Y-56150000D01*
X81750000Y-56150000D02*
X81800000Y-56100000D01*
D37*
X84500000Y-55150000D02*
X84500000Y-55250000D01*
X84500000Y-55250000D02*
X83750000Y-56000000D01*
X84500000Y-55150000D02*
X84500000Y-56000000D01*
D39*
X99500000Y-47902714D02*
X99100000Y-47902714D01*
X99100000Y-47902714D02*
X98250000Y-47052714D01*
X98250000Y-47052714D02*
X98250000Y-46174264D01*
X98250000Y-46174264D02*
X98250000Y-45750000D01*
D37*
X98500000Y-44500000D02*
X98500000Y-45500000D01*
X98500000Y-45500000D02*
X98250000Y-45750000D01*
X93400000Y-49250000D02*
X92000000Y-49250000D01*
X96400000Y-54500000D02*
X96400000Y-55600000D01*
X96400000Y-55600000D02*
X96250000Y-55750000D01*
X90000000Y-62250000D02*
X90250000Y-62500000D01*
X90250000Y-62500000D02*
X90250000Y-62750000D01*
X89250000Y-62250000D02*
X90000000Y-62250000D01*
X87298980Y-61024212D02*
X87298980Y-61724212D01*
X87298980Y-61724212D02*
X87574768Y-62000000D01*
X87574768Y-62000000D02*
X88224768Y-62000000D01*
X88500000Y-62250000D02*
X88474768Y-62250000D01*
X88474768Y-62250000D02*
X88224768Y-62000000D01*
X88250000Y-62500000D02*
X88500000Y-62250000D01*
X88500000Y-62250000D02*
X89250000Y-62250000D01*
X88250000Y-62750000D02*
X88250000Y-62500000D01*
D38*
X81750000Y-61000000D02*
X83250000Y-61000000D01*
X81750000Y-68000000D02*
X83000000Y-68000000D01*
D37*
X88750000Y-70750000D02*
X87750000Y-70750000D01*
D38*
X99700000Y-69950000D02*
X101550000Y-69950000D01*
X101550000Y-69950000D02*
X102000000Y-69500000D01*
X99700000Y-69950000D02*
X98800000Y-69950000D01*
X98800000Y-69950000D02*
X98000000Y-70750000D01*
D37*
X97500000Y-75250000D02*
X98500000Y-74250000D01*
X97290000Y-75250000D02*
X98500000Y-75250000D01*
X97290000Y-75250000D02*
X97500000Y-75250000D01*
X97500000Y-75250000D02*
X98500000Y-76250000D01*
D36*
X81500000Y-50750000D02*
X82250000Y-50750000D01*
X82250000Y-50750000D02*
X82750000Y-51250000D01*
X82250000Y-50750000D02*
X82750000Y-50250000D01*
X81500000Y-48000000D02*
X82250000Y-48000000D01*
X82250000Y-48000000D02*
X82750000Y-48500000D01*
X82250000Y-48000000D02*
X82750000Y-47500000D01*
D37*
X115350000Y-48350000D02*
X115500000Y-48500000D01*
X115350000Y-47250000D02*
X115350000Y-48350000D01*
D39*
X87750000Y-70750000D02*
X87750000Y-69500000D01*
D37*
X117700000Y-69950000D02*
X119250000Y-71500000D01*
G04 #@! TO.N,+5V*
X95750000Y-61250000D02*
X94350000Y-61250000D01*
X94350000Y-61250000D02*
X94300000Y-61200000D01*
X125000000Y-56500000D02*
X125500000Y-56500000D01*
X125500000Y-56500000D02*
X126000000Y-56000000D01*
D38*
X90500000Y-56500000D02*
X90500000Y-57500000D01*
X90500000Y-57500000D02*
X89750000Y-58250000D01*
X91300000Y-56500000D02*
X91300000Y-59700000D01*
X92100000Y-56500000D02*
X92100000Y-59900000D01*
D36*
X94250000Y-60150000D02*
X94250000Y-61150000D01*
X94250000Y-61150000D02*
X94300000Y-61200000D01*
D37*
X85350000Y-58500000D02*
X89500000Y-58500000D01*
X89500000Y-58500000D02*
X89750000Y-58250000D01*
D36*
X90000000Y-69500000D02*
X90000000Y-69250000D01*
X90000000Y-69250000D02*
X89500000Y-68750000D01*
X90000000Y-70000000D02*
X90000000Y-69500000D01*
X94400000Y-63250000D02*
X94200000Y-63450000D01*
X90000000Y-72600000D02*
X90000000Y-70000000D01*
D37*
X89750000Y-70750000D02*
X89750000Y-70250000D01*
X89750000Y-70250000D02*
X90000000Y-70000000D01*
X91250000Y-62750000D02*
X93500000Y-62750000D01*
X93500000Y-62750000D02*
X94200000Y-63450000D01*
X89750000Y-60723192D02*
X89448980Y-61024212D01*
X89750000Y-58250000D02*
X89750000Y-60723192D01*
X89448980Y-61024212D02*
X88798980Y-61024212D01*
X85350000Y-58500000D02*
X85350000Y-57000000D01*
D38*
G04 #@! TO.N,Net-(C3-Pad1)*
X84500000Y-54200000D02*
X85750000Y-54200000D01*
X85750000Y-54200000D02*
X89500000Y-54200000D01*
D37*
X85750000Y-55000000D02*
X85750000Y-54200000D01*
X82750000Y-58500000D02*
X82750000Y-59000000D01*
X82750000Y-59000000D02*
X83250000Y-59500000D01*
D38*
X89500000Y-54200000D02*
X89750000Y-53950000D01*
D37*
G04 #@! TO.N,Net-(C3-Pad2)*
X81750000Y-58500000D02*
X81250000Y-58500000D01*
X81250000Y-58500000D02*
X80500000Y-57750000D01*
X80500000Y-55500000D02*
X80850000Y-55150000D01*
X80500000Y-57750000D02*
X80500000Y-55500000D01*
X80850000Y-55150000D02*
X81700000Y-55150000D01*
G04 #@! TO.N,DLC*
X95000000Y-45000000D02*
X95000000Y-46300000D01*
X95000000Y-46300000D02*
X94550000Y-46750000D01*
X95000000Y-45000000D02*
X95000000Y-44250000D01*
X95000000Y-44250000D02*
X95500000Y-43750000D01*
D36*
X84500000Y-53250000D02*
X84500000Y-50750000D01*
X85750000Y-51250000D02*
X85250000Y-50750000D01*
X84500000Y-50750000D02*
X85250000Y-50750000D01*
X85250000Y-50750000D02*
X85750000Y-50250000D01*
X85750000Y-48500000D02*
X85250000Y-48000000D01*
X84500000Y-48000000D02*
X85250000Y-48000000D01*
X85250000Y-48000000D02*
X85750000Y-47500000D01*
D37*
X84750000Y-50500000D02*
X84500000Y-50750000D01*
G04 #@! TO.N,+3.3V*
X119500000Y-68980000D02*
X119500000Y-69500000D01*
X119500000Y-69500000D02*
X119750000Y-69750000D01*
X119750000Y-69750000D02*
X120250000Y-69750000D01*
X117700000Y-68680000D02*
X119200000Y-68680000D01*
X119200000Y-68680000D02*
X119500000Y-68980000D01*
X120250000Y-72900000D02*
X120900000Y-72900000D01*
X119300000Y-72900000D02*
X120250000Y-72900000D01*
X120250000Y-72900000D02*
X120250000Y-69750000D01*
X120900000Y-72900000D02*
X121000000Y-73000000D01*
D39*
X99500000Y-50500000D02*
X99500000Y-49250000D01*
X88000000Y-65750000D02*
X86250000Y-65750000D01*
X86250000Y-65750000D02*
X85250000Y-64750000D01*
X96250000Y-56750000D02*
X95250000Y-55750000D01*
D37*
X117700000Y-68680000D02*
X116200000Y-68680000D01*
X116200000Y-68680000D02*
X115500000Y-69380000D01*
X115500000Y-69380000D02*
X115500000Y-70075736D01*
X115500000Y-70075736D02*
X115500000Y-70500000D01*
X88000000Y-65750000D02*
X89350000Y-65750000D01*
X89350000Y-65750000D02*
X90250000Y-64850000D01*
X90250000Y-64850000D02*
X90250000Y-64750000D01*
X88000000Y-65750000D02*
X90250000Y-65750000D01*
X90250000Y-65750000D02*
X90500000Y-65500000D01*
X88000000Y-65750000D02*
X89500000Y-65750000D01*
X89500000Y-65750000D02*
X89750000Y-65500000D01*
D39*
X94200000Y-65750000D02*
X96500000Y-65750000D01*
D37*
X87250000Y-62750000D02*
X87250000Y-65000000D01*
X87250000Y-65000000D02*
X88000000Y-65750000D01*
G04 #@! TO.N,Net-(C8-Pad2)*
X82500000Y-53250000D02*
X82750000Y-53500000D01*
X82750000Y-53500000D02*
X82750000Y-57000000D01*
X83850000Y-57000000D02*
X82750000Y-57000000D01*
X84350000Y-57000000D02*
X84350000Y-58500000D01*
X81700000Y-53250000D02*
X82500000Y-53250000D01*
X83850000Y-57000000D02*
X84350000Y-57000000D01*
G04 #@! TO.N,DLC_SW*
X93500000Y-51000000D02*
X92500000Y-52000000D01*
X92500000Y-52000000D02*
X89500000Y-52000000D01*
X95500000Y-48750000D02*
X95500000Y-49000000D01*
X95500000Y-49000000D02*
X93799999Y-50700001D01*
X93799999Y-50700001D02*
X93500000Y-51000000D01*
D39*
G04 #@! TO.N,+5V_SW*
X121000000Y-63000000D02*
X121000000Y-62600000D01*
X121000000Y-62600000D02*
X120150000Y-61750000D01*
X120150000Y-61750000D02*
X120000000Y-61750000D01*
X120000000Y-66710000D02*
X120000000Y-63600000D01*
X120000000Y-63600000D02*
X120600000Y-63000000D01*
X120600000Y-63000000D02*
X121000000Y-63000000D01*
D37*
X122600000Y-63000000D02*
X122000000Y-63000000D01*
X123000000Y-63400000D02*
X122600000Y-63000000D01*
X123000000Y-64050000D02*
X123000000Y-63400000D01*
D39*
X122000000Y-63000000D02*
X121000000Y-63000000D01*
D37*
X123049999Y-53049999D02*
X123049999Y-56299999D01*
X123049999Y-56299999D02*
X123250000Y-56500000D01*
X123250000Y-56500000D02*
X123750000Y-56500000D01*
X123750000Y-53250000D02*
X123250000Y-53250000D01*
X123250000Y-53250000D02*
X123049999Y-53049999D01*
X123049999Y-53049999D02*
X123049999Y-50549999D01*
X123049999Y-50549999D02*
X122750000Y-50250000D01*
D39*
X99250000Y-45500000D02*
X99250000Y-46402714D01*
X99250000Y-46402714D02*
X99500000Y-46652714D01*
D38*
X96250000Y-59200000D02*
X96250000Y-58000000D01*
D37*
G04 #@! TO.N,Net-(C19-Pad1)*
X97000000Y-39250000D02*
X97000000Y-41000000D01*
G04 #@! TO.N,/MicroM4/RESET*
X117700000Y-67410000D02*
X121000000Y-67410000D01*
X121000000Y-67410000D02*
X123660000Y-67410000D01*
X121000000Y-68750000D02*
X121000000Y-67410000D01*
X123660000Y-67410000D02*
X124250000Y-68000000D01*
X121000000Y-68750000D02*
X121750000Y-68750000D01*
X120250000Y-68750000D02*
X121000000Y-68750000D01*
D36*
X124250000Y-61000000D02*
X124250000Y-68000000D01*
D37*
X99250000Y-71000000D02*
X113310000Y-71000000D01*
X113310000Y-71000000D02*
X116900000Y-67410000D01*
X116900000Y-67410000D02*
X117700000Y-67410000D01*
X97400000Y-72850000D02*
X99250000Y-71000000D01*
X96020000Y-72850000D02*
X97400000Y-72850000D01*
G04 #@! TO.N,DLC_RAW*
X87750000Y-48125000D02*
X89205787Y-48125000D01*
X89205787Y-48125000D02*
X89207697Y-48126910D01*
D36*
G04 #@! TO.N,+5V_USB*
X92210000Y-75250000D02*
X90500000Y-75250000D01*
X90500000Y-75250000D02*
X90000000Y-75750000D01*
D37*
G04 #@! TO.N,/MicroM4/PWR_SAVE*
X99700000Y-57250000D02*
X101000000Y-57250000D01*
X101000000Y-57250000D02*
X101500000Y-57750000D01*
D39*
X95250000Y-56750000D02*
X94500000Y-56750000D01*
X94500000Y-56750000D02*
X94250000Y-56500000D01*
X94500000Y-54500000D02*
X94500000Y-56250000D01*
X94500000Y-56250000D02*
X94250000Y-56500000D01*
X94500000Y-54500000D02*
X94500000Y-54600000D01*
G04 #@! TO.N,Net-(Q1-Pad3)*
X93550000Y-53550000D02*
X94600000Y-52500000D01*
X94600000Y-52500000D02*
X95450000Y-52500000D01*
X93550000Y-57000000D02*
X93550000Y-53550000D01*
X94250000Y-58250000D02*
X94250000Y-57700000D01*
X94250000Y-57700000D02*
X93550000Y-57000000D01*
X94150000Y-58250000D02*
X94250000Y-58250000D01*
X96450000Y-46750000D02*
X96450000Y-52050000D01*
X96450000Y-52050000D02*
X96000000Y-52500000D01*
X96000000Y-52500000D02*
X95450000Y-52500000D01*
X96000000Y-45000000D02*
X96000000Y-46300000D01*
X96000000Y-46300000D02*
X96450000Y-46750000D01*
G04 #@! TO.N,/CAN_Transceiver/SW_CAN_LOAD*
X126550000Y-57250000D02*
X126550000Y-57900000D01*
X126550000Y-57900000D02*
X127000000Y-58350000D01*
X127000000Y-58350000D02*
X127000000Y-58750000D01*
X125500000Y-57500000D02*
X126300000Y-57500000D01*
X126300000Y-57500000D02*
X126550000Y-57250000D01*
X104750000Y-58000000D02*
X115750000Y-58000000D01*
D38*
G04 #@! TO.N,Net-(Q6-Pad3)*
X126500000Y-53750000D02*
X126500000Y-54250000D01*
X126500000Y-54250000D02*
X127500000Y-55250000D01*
D39*
G04 #@! TO.N,/ISO_Transceiver/ISO_K_TX*
X111750000Y-57250000D02*
X102544465Y-57250000D01*
X102544465Y-57250000D02*
X102175044Y-56880579D01*
G04 #@! TO.N,/ISO_Transceiver/ISO_RX*
X103250000Y-59750000D02*
X103250000Y-66575736D01*
X102500000Y-59000000D02*
X102799999Y-59299999D01*
X102799999Y-59299999D02*
X103250000Y-59750000D01*
X103250000Y-66575736D02*
X103250000Y-67200000D01*
G04 #@! TO.N,/ISO_Transceiver/ISO_L_TX*
X103054711Y-56750000D02*
X111472998Y-56750000D01*
X111472998Y-56750000D02*
X111497999Y-56724999D01*
X111497999Y-56724999D02*
X112002001Y-56724999D01*
X112002001Y-56724999D02*
X112027002Y-56750000D01*
X103054711Y-56750000D02*
X102518606Y-56213895D01*
X112500000Y-56750000D02*
X112027002Y-56750000D01*
G04 #@! TO.N,Net-(R30-Pad2)*
X107799999Y-49450001D02*
X108500000Y-48750000D01*
X108500000Y-48750000D02*
X110000000Y-48750000D01*
X102750000Y-49750000D02*
X103049999Y-49450001D01*
X103049999Y-49450001D02*
X107799999Y-49450001D01*
G04 #@! TO.N,/J1850_Transceiver/PWM_RX*
X104250000Y-59750000D02*
X104250000Y-58750000D01*
X103500000Y-58000000D02*
X103799999Y-58299999D01*
X103799999Y-58299999D02*
X104250000Y-58750000D01*
X104250000Y-65500000D02*
X104250000Y-59750000D01*
G04 #@! TO.N,Net-(R34-Pad1)*
X100500000Y-47902714D02*
X101652714Y-47902714D01*
X101652714Y-47902714D02*
X101750000Y-48000000D01*
X100500000Y-47902714D02*
X100500000Y-46652714D01*
G04 #@! TO.N,Net-(R37-Pad2)*
X110750000Y-48250000D02*
X110750000Y-49000000D01*
X110750000Y-49000000D02*
X110000000Y-49750000D01*
X110525001Y-48025001D02*
X110750000Y-48250000D01*
X110500000Y-48000000D02*
X110525001Y-48025001D01*
X103500000Y-48000000D02*
X110500000Y-48000000D01*
G04 #@! TO.N,/J1850_Transceiver/VPW_RX*
X101500000Y-49750000D02*
X101750000Y-49500000D01*
X103724999Y-59275001D02*
X103724999Y-59172997D01*
X103724999Y-59172997D02*
X101500000Y-56947998D01*
X101500000Y-56947998D02*
X101500000Y-49750000D01*
X101500000Y-49750000D02*
X101000000Y-49250000D01*
X101000000Y-49250000D02*
X100500000Y-49250000D01*
X103724999Y-59275001D02*
X103724999Y-59224999D01*
X103724999Y-60724999D02*
X103724999Y-59275001D01*
X103724999Y-65775735D02*
X103724999Y-60724999D01*
X104000000Y-66475000D02*
X104000000Y-66050736D01*
X104000000Y-66050736D02*
X103724999Y-65775735D01*
G04 #@! TO.N,/MicroM4/UART1_RX*
X113500000Y-54000000D02*
X113075736Y-54000000D01*
X111875000Y-52799264D02*
X111875000Y-51950000D01*
X113075736Y-54000000D02*
X111875000Y-52799264D01*
G04 #@! TO.N,/CAN_Transceiver/MS_CAN_RX*
X115750000Y-60000000D02*
X115750000Y-65750000D01*
X115750000Y-65750000D02*
X114250000Y-67250000D01*
G04 #@! TO.N,/CAN_Transceiver/SW_CAN_MODE0*
X108674989Y-55325011D02*
X108424989Y-55325011D01*
X108424989Y-55325011D02*
X108250000Y-55500000D01*
X114969668Y-55675000D02*
X114619679Y-55325011D01*
X114619679Y-55325011D02*
X108674989Y-55325011D01*
X123750000Y-55500000D02*
X123750000Y-54750000D01*
G04 #@! TO.N,/CAN_Transceiver/SW_CAN_MODE1*
X109000000Y-54750000D02*
X109275001Y-55025001D01*
X109275001Y-55025001D02*
X114724999Y-55025001D01*
X114724999Y-55025001D02*
X115250000Y-54500000D01*
X124500000Y-52750000D02*
X124250000Y-52750000D01*
X124250000Y-52750000D02*
X123750000Y-52250000D01*
G04 #@! TO.N,/CAN_Transceiver/SW_CAN_TX*
X125250000Y-55500000D02*
X125750000Y-55000000D01*
X125000000Y-55500000D02*
X125250000Y-55500000D01*
X110250000Y-56200000D02*
X114700001Y-56200001D01*
X114700001Y-56200001D02*
X115000000Y-56500000D01*
D37*
G04 #@! TO.N,/MicroM4/UART0_RX*
X96500000Y-64750000D02*
X97500000Y-64750000D01*
X97500000Y-64750000D02*
X99580000Y-64750000D01*
X93480000Y-72850000D02*
X93480000Y-71400000D01*
X93480000Y-71400000D02*
X97500000Y-67380000D01*
X97500000Y-67380000D02*
X97500000Y-64750000D01*
X99580000Y-64750000D02*
X99700000Y-64870000D01*
G04 #@! TO.N,/MicroM4/STN_SLEEP*
X99700000Y-63600000D02*
X102400000Y-63600000D01*
X102400000Y-63600000D02*
X102500000Y-63500000D01*
G04 #@! TO.N,/MicroM4/STN_RESET*
X113250000Y-60250000D02*
X114924999Y-58575001D01*
X114924999Y-58575001D02*
X116026001Y-58575001D01*
X116026001Y-58575001D02*
X116101002Y-58500000D01*
X116101002Y-58500000D02*
X117680000Y-58500000D01*
X117680000Y-58500000D02*
X117700000Y-58520000D01*
X113250000Y-65250000D02*
X113250000Y-60250000D01*
X111250000Y-67250000D02*
X113250000Y-65250000D01*
X108750000Y-67250000D02*
X111250000Y-67250000D01*
D39*
X115980000Y-58520000D02*
X117700000Y-58520000D01*
G04 #@! TO.N,/MicroM4/UART1_TX*
X111525001Y-54525001D02*
X110605000Y-53605000D01*
X110605000Y-53605000D02*
X110605000Y-51950000D01*
X114250000Y-54500000D02*
X113777002Y-54500000D01*
X113777002Y-54500000D02*
X113752001Y-54525001D01*
X113752001Y-54525001D02*
X111525001Y-54525001D01*
D37*
G04 #@! TO.N,/MicroM4/UART0_TX*
X97900010Y-67599990D02*
X94750000Y-70750000D01*
X94750000Y-70750000D02*
X94750000Y-75250000D01*
X99700000Y-66140000D02*
X98900000Y-66140000D01*
X98900000Y-66140000D02*
X97900010Y-67139990D01*
X97900010Y-67139990D02*
X97900010Y-67599990D01*
D38*
G04 #@! TO.N,/SW_CAN*
X126500000Y-47750000D02*
X126500000Y-48750000D01*
X126500000Y-48750000D02*
X129250000Y-51500000D01*
X129250000Y-51500000D02*
X129250000Y-54750000D01*
X126500000Y-47750000D02*
X127750000Y-46500000D01*
D37*
X120750000Y-39100000D02*
X120750000Y-45500000D01*
X120750000Y-45500000D02*
X123000000Y-47750000D01*
X119000000Y-38500000D02*
X120150000Y-38500000D01*
X120150000Y-38500000D02*
X120750000Y-39100000D01*
X123000000Y-47750000D02*
X126500000Y-47750000D01*
X119000000Y-38500000D02*
X120750000Y-38500000D01*
X120750000Y-38500000D02*
X121250000Y-39000000D01*
G04 #@! TO.N,/HS_CAN_N*
X121101000Y-60655054D02*
X121101000Y-61601000D01*
X121101000Y-61601000D02*
X121250000Y-61750000D01*
X120995008Y-57795891D02*
X120995008Y-58704109D01*
X121101000Y-51475928D02*
X121101000Y-57689899D01*
X120995008Y-58704109D02*
X121101000Y-58810101D01*
X118851000Y-46602886D02*
X118851000Y-49225928D01*
X101847500Y-44715000D02*
X105910946Y-44715000D01*
X101412500Y-45150000D02*
X101847500Y-44715000D01*
X100700000Y-45150000D02*
X101412500Y-45150000D01*
X107223916Y-46027970D02*
X118276084Y-46027970D01*
X105910946Y-44715000D02*
X107223916Y-46027970D01*
X118276084Y-46027970D02*
X118851000Y-46602886D01*
X121101000Y-57689899D02*
X120995008Y-57795891D01*
X118851000Y-49225928D02*
X121101000Y-51475928D01*
X121101000Y-58810101D02*
X121101000Y-60655054D01*
X99750000Y-43600000D02*
X99750000Y-44425000D01*
X99750000Y-44425000D02*
X100475000Y-45150000D01*
X100475000Y-45150000D02*
X100700000Y-45150000D01*
X99000000Y-41500000D02*
X99000000Y-42850000D01*
X99000000Y-42850000D02*
X99750000Y-43600000D01*
G04 #@! TO.N,/MS_CAN_N*
X109500000Y-43600000D02*
X110212500Y-43600000D01*
X122465000Y-57215000D02*
X123000000Y-57750000D01*
X110212500Y-43600000D02*
X110647500Y-44035000D01*
X110647500Y-44035000D02*
X119589054Y-44035000D01*
X119589054Y-44035000D02*
X120215000Y-44660946D01*
X120215000Y-44660946D02*
X120215000Y-48660946D01*
X120215000Y-48660946D02*
X122465000Y-50910946D01*
X122465000Y-50910946D02*
X122465000Y-57215000D01*
X109500000Y-43600000D02*
X109725000Y-43600000D01*
X109500000Y-43600000D02*
X109500000Y-41850000D01*
X109500000Y-41850000D02*
X109850000Y-41500000D01*
X109850000Y-41500000D02*
X111000000Y-41500000D01*
G04 #@! TO.N,/MS_CAN_P*
X122035000Y-57000000D02*
X122035000Y-58215000D01*
X122035000Y-58215000D02*
X122000000Y-58250000D01*
X122035000Y-51089054D02*
X122035000Y-57000000D01*
X119785000Y-44839054D02*
X119785000Y-48839054D01*
X109500000Y-44900000D02*
X110212500Y-44900000D01*
X110212500Y-44900000D02*
X110647500Y-44465000D01*
X119375946Y-44465000D02*
X119750000Y-44839054D01*
X119785000Y-48839054D02*
X122035000Y-51089054D01*
X110647500Y-44465000D02*
X119410946Y-44465000D01*
X109500000Y-44900000D02*
X109725000Y-44900000D01*
X108500000Y-41200000D02*
X108500000Y-44125000D01*
X109275000Y-44900000D02*
X109500000Y-44900000D01*
X108500000Y-44125000D02*
X109275000Y-44900000D01*
X111000000Y-38500000D02*
X111000000Y-38700000D01*
X111000000Y-38700000D02*
X108500000Y-41200000D01*
G04 #@! TO.N,/HS_CAN_P*
X97000000Y-38250000D02*
X98750000Y-38250000D01*
X98750000Y-38250000D02*
X99000000Y-38500000D01*
X123250000Y-62500000D02*
X122500000Y-61750000D01*
X122500000Y-61750000D02*
X122500000Y-61445946D01*
X121531000Y-60476946D02*
X122500000Y-61445946D01*
X101412500Y-43850000D02*
X101847500Y-44285000D01*
X121531000Y-58632002D02*
X121531000Y-60476946D01*
X121531000Y-57867998D02*
X121424999Y-57973999D01*
X119281000Y-46374676D02*
X119281000Y-49047820D01*
X100700000Y-43850000D02*
X101412500Y-43850000D01*
X119281000Y-49047820D02*
X121531000Y-51297820D01*
X118504297Y-45597973D02*
X119281000Y-46374676D01*
X101847500Y-44285000D02*
X106089054Y-44285000D01*
X106089054Y-44285000D02*
X107402027Y-45597973D01*
X121531000Y-51297820D02*
X121531000Y-57867998D01*
X107402027Y-45597973D02*
X118504297Y-45597973D01*
X121424999Y-57973999D02*
X121424999Y-58526001D01*
X121424999Y-58526001D02*
X121531000Y-58632002D01*
X99000000Y-38500000D02*
X99000000Y-38700000D01*
X99000000Y-38700000D02*
X100700000Y-40400000D01*
X100700000Y-40400000D02*
X100700000Y-43350000D01*
X100700000Y-43350000D02*
X100700000Y-43850000D01*
D38*
G04 #@! TO.N,/MicroM4/BOOT*
X99700000Y-53440000D02*
X98640002Y-53440000D01*
X98640002Y-53440000D02*
X97950002Y-52750000D01*
X84750000Y-68000000D02*
X84750000Y-65750000D01*
X84750000Y-65750000D02*
X83250000Y-64250000D01*
X83250000Y-64250000D02*
X83250000Y-62500000D01*
X83250000Y-62500000D02*
X84750000Y-61000000D01*
D37*
X85250000Y-68500000D02*
X84750000Y-68000000D01*
X87750000Y-68500000D02*
X85250000Y-68500000D01*
G04 #@! TO.N,Net-(C36-Pad2)*
X120250000Y-74400000D02*
X120600000Y-74400000D01*
X119300000Y-74400000D02*
X120250000Y-74400000D01*
X120250000Y-74400000D02*
X120250000Y-75000000D01*
X120250000Y-75000000D02*
X120500000Y-75250000D01*
X120600000Y-74400000D02*
X121000000Y-74000000D01*
G04 #@! TO.N,Net-(DS1-Pad1)*
X116750000Y-47500000D02*
X117000000Y-47250000D01*
X116750000Y-49750000D02*
X116750000Y-47500000D01*
G04 #@! TO.N,/MicroM4/Led_Status*
X119200000Y-54710000D02*
X120000000Y-53910000D01*
X117700000Y-54710000D02*
X119200000Y-54710000D01*
X120000000Y-53910000D02*
X120000000Y-52500000D01*
X120000000Y-52500000D02*
X120000000Y-51750000D01*
X120000000Y-51500000D02*
X120000000Y-51750000D01*
X118250000Y-49750000D02*
X120000000Y-51500000D01*
X117750000Y-49750000D02*
X118250000Y-49750000D01*
G04 #@! TD*
D39*
G04 #@! TO.N,+3.3V*
G36*
X92468203Y-63931797D02*
X92525000Y-64068918D01*
X92525000Y-64746000D01*
X92530709Y-64774701D01*
X92605104Y-64954306D01*
X92621362Y-64978638D01*
X92645694Y-64994896D01*
X92825299Y-65069291D01*
X92854000Y-65075000D01*
X95131082Y-65075000D01*
X95268203Y-65131797D01*
X95325000Y-65268918D01*
X95325000Y-66131082D01*
X95268203Y-66268203D01*
X95131082Y-66325000D01*
X89654000Y-66325000D01*
X89625299Y-66330709D01*
X89445694Y-66405104D01*
X89421362Y-66421362D01*
X89405104Y-66445694D01*
X89330709Y-66625299D01*
X89325000Y-66654000D01*
X89325000Y-67331082D01*
X89268203Y-67468203D01*
X89131082Y-67525000D01*
X87068918Y-67525000D01*
X86931797Y-67468203D01*
X86875000Y-67331082D01*
X86875000Y-64068918D01*
X86931797Y-63931797D01*
X87068918Y-63875000D01*
X92331082Y-63875000D01*
X92468203Y-63931797D01*
X92468203Y-63931797D01*
G37*
X92468203Y-63931797D02*
X92525000Y-64068918D01*
X92525000Y-64746000D01*
X92530709Y-64774701D01*
X92605104Y-64954306D01*
X92621362Y-64978638D01*
X92645694Y-64994896D01*
X92825299Y-65069291D01*
X92854000Y-65075000D01*
X95131082Y-65075000D01*
X95268203Y-65131797D01*
X95325000Y-65268918D01*
X95325000Y-66131082D01*
X95268203Y-66268203D01*
X95131082Y-66325000D01*
X89654000Y-66325000D01*
X89625299Y-66330709D01*
X89445694Y-66405104D01*
X89421362Y-66421362D01*
X89405104Y-66445694D01*
X89330709Y-66625299D01*
X89325000Y-66654000D01*
X89325000Y-67331082D01*
X89268203Y-67468203D01*
X89131082Y-67525000D01*
X87068918Y-67525000D01*
X86931797Y-67468203D01*
X86875000Y-67331082D01*
X86875000Y-64068918D01*
X86931797Y-63931797D01*
X87068918Y-63875000D01*
X92331082Y-63875000D01*
X92468203Y-63931797D01*
G04 #@! TO.N,+5V*
G36*
X92618203Y-57381797D02*
X92675000Y-57518918D01*
X92675000Y-58996000D01*
X92680709Y-59024701D01*
X92755104Y-59204306D01*
X92771362Y-59228638D01*
X92795694Y-59244896D01*
X92975299Y-59319291D01*
X93004000Y-59325000D01*
X94981082Y-59325000D01*
X95118203Y-59381797D01*
X95175000Y-59518918D01*
X95175000Y-63981082D01*
X95118203Y-64118203D01*
X94981082Y-64175000D01*
X93268918Y-64175000D01*
X93131797Y-64118203D01*
X93075000Y-63981082D01*
X93075000Y-62004000D01*
X93069291Y-61975299D01*
X92994896Y-61795694D01*
X92978638Y-61771362D01*
X92954306Y-61755104D01*
X92774701Y-61680709D01*
X92746000Y-61675000D01*
X91018918Y-61675000D01*
X90881797Y-61618203D01*
X90825000Y-61481082D01*
X90825000Y-60254000D01*
X90819291Y-60225299D01*
X90744896Y-60045694D01*
X90728638Y-60021362D01*
X90704306Y-60005104D01*
X90524701Y-59930709D01*
X90496000Y-59925000D01*
X86768918Y-59925000D01*
X86631797Y-59868203D01*
X86575000Y-59731082D01*
X86575000Y-57518918D01*
X86631797Y-57381797D01*
X86768918Y-57325000D01*
X92481082Y-57325000D01*
X92618203Y-57381797D01*
X92618203Y-57381797D01*
G37*
X92618203Y-57381797D02*
X92675000Y-57518918D01*
X92675000Y-58996000D01*
X92680709Y-59024701D01*
X92755104Y-59204306D01*
X92771362Y-59228638D01*
X92795694Y-59244896D01*
X92975299Y-59319291D01*
X93004000Y-59325000D01*
X94981082Y-59325000D01*
X95118203Y-59381797D01*
X95175000Y-59518918D01*
X95175000Y-63981082D01*
X95118203Y-64118203D01*
X94981082Y-64175000D01*
X93268918Y-64175000D01*
X93131797Y-64118203D01*
X93075000Y-63981082D01*
X93075000Y-62004000D01*
X93069291Y-61975299D01*
X92994896Y-61795694D01*
X92978638Y-61771362D01*
X92954306Y-61755104D01*
X92774701Y-61680709D01*
X92746000Y-61675000D01*
X91018918Y-61675000D01*
X90881797Y-61618203D01*
X90825000Y-61481082D01*
X90825000Y-60254000D01*
X90819291Y-60225299D01*
X90744896Y-60045694D01*
X90728638Y-60021362D01*
X90704306Y-60005104D01*
X90524701Y-59930709D01*
X90496000Y-59925000D01*
X86768918Y-59925000D01*
X86631797Y-59868203D01*
X86575000Y-59731082D01*
X86575000Y-57518918D01*
X86631797Y-57381797D01*
X86768918Y-57325000D01*
X92481082Y-57325000D01*
X92618203Y-57381797D01*
D40*
G04 #@! TO.N,DLC*
G36*
X86123000Y-49250000D02*
X86132667Y-49298601D01*
X86160197Y-49339803D01*
X86201399Y-49367333D01*
X86250000Y-49377000D01*
X88373000Y-49377000D01*
X88373000Y-51623000D01*
X84127000Y-51623000D01*
X84127000Y-47127000D01*
X86123000Y-47127000D01*
X86123000Y-49250000D01*
X86123000Y-49250000D01*
G37*
X86123000Y-49250000D02*
X86132667Y-49298601D01*
X86160197Y-49339803D01*
X86201399Y-49367333D01*
X86250000Y-49377000D01*
X88373000Y-49377000D01*
X88373000Y-51623000D01*
X84127000Y-51623000D01*
X84127000Y-47127000D01*
X86123000Y-47127000D01*
X86123000Y-49250000D01*
G04 #@! TO.N,GND*
G36*
X98873000Y-76623000D02*
X97127000Y-76623000D01*
X97127000Y-73877000D01*
X98873000Y-73877000D01*
X98873000Y-76623000D01*
X98873000Y-76623000D01*
G37*
X98873000Y-76623000D02*
X97127000Y-76623000D01*
X97127000Y-73877000D01*
X98873000Y-73877000D01*
X98873000Y-76623000D01*
G36*
X84873000Y-56123000D02*
X83377000Y-56123000D01*
X83377000Y-55127000D01*
X84873000Y-55127000D01*
X84873000Y-56123000D01*
X84873000Y-56123000D01*
G37*
X84873000Y-56123000D02*
X83377000Y-56123000D01*
X83377000Y-55127000D01*
X84873000Y-55127000D01*
X84873000Y-56123000D01*
G04 #@! TO.N,DLC_RAW*
G36*
X92073000Y-48273000D02*
X91100000Y-48273000D01*
X91075224Y-48275440D01*
X91051399Y-48282667D01*
X91029443Y-48294403D01*
X91010197Y-48310197D01*
X90994403Y-48329443D01*
X90982667Y-48351399D01*
X90975440Y-48375224D01*
X90973000Y-48400000D01*
X90973000Y-49873000D01*
X89227000Y-49873000D01*
X89227000Y-48700000D01*
X89224560Y-48675224D01*
X89217333Y-48651399D01*
X89205597Y-48629443D01*
X89189803Y-48610197D01*
X89170557Y-48594403D01*
X89148601Y-48582667D01*
X89124776Y-48575440D01*
X89100000Y-48573000D01*
X87127000Y-48573000D01*
X87127000Y-47127000D01*
X89500000Y-47127000D01*
X89524776Y-47124560D01*
X89548601Y-47117333D01*
X89570557Y-47105597D01*
X89589803Y-47089803D01*
X89605597Y-47070557D01*
X89617333Y-47048601D01*
X89624560Y-47024776D01*
X89627000Y-47000000D01*
X89627000Y-45827000D01*
X92073000Y-45827000D01*
X92073000Y-48273000D01*
X92073000Y-48273000D01*
G37*
X92073000Y-48273000D02*
X91100000Y-48273000D01*
X91075224Y-48275440D01*
X91051399Y-48282667D01*
X91029443Y-48294403D01*
X91010197Y-48310197D01*
X90994403Y-48329443D01*
X90982667Y-48351399D01*
X90975440Y-48375224D01*
X90973000Y-48400000D01*
X90973000Y-49873000D01*
X89227000Y-49873000D01*
X89227000Y-48700000D01*
X89224560Y-48675224D01*
X89217333Y-48651399D01*
X89205597Y-48629443D01*
X89189803Y-48610197D01*
X89170557Y-48594403D01*
X89148601Y-48582667D01*
X89124776Y-48575440D01*
X89100000Y-48573000D01*
X87127000Y-48573000D01*
X87127000Y-47127000D01*
X89500000Y-47127000D01*
X89524776Y-47124560D01*
X89548601Y-47117333D01*
X89570557Y-47105597D01*
X89589803Y-47089803D01*
X89605597Y-47070557D01*
X89617333Y-47048601D01*
X89624560Y-47024776D01*
X89627000Y-47000000D01*
X89627000Y-45827000D01*
X92073000Y-45827000D01*
X92073000Y-48273000D01*
G04 #@! TD*
M02*
