M48
;DRILL file {KiCad (5.0.0)} date 08/11/19 19:05:13
;FORMAT={-:-/ absolute / inch / decimal}
FMAT,2
INCH,TZ
T1C0.0157
T2C0.0551
%
G90
G05
M72
T1
X3.2205Y-2.2087
X3.2579Y-1.8701
X3.2579Y-1.9094
X3.2579Y-1.9783
X3.2579Y-2.0177
X3.2677Y-2.6772
X3.2776Y-2.3425
X3.2776Y-2.4016
X3.2776Y-2.5295
X3.2972Y-2.2047
X3.3268Y-2.2047
X3.3563Y-2.5492
X3.3661Y-1.5059
X3.3661Y-1.5354
X3.376Y-1.8701
X3.376Y-1.9094
X3.376Y-1.9783
X3.376Y-2.0177
X3.376Y-2.1654
X3.3957Y-2.7362
X3.4449Y-3.002
X3.4547Y-2.7854
X3.4744Y-1.8209
X3.4872Y-2.0571
X3.5121Y-1.8948
X3.5138Y-2.4508
X3.5236Y-2.0472
X3.5236Y-2.7067
X3.5335Y-2.3907
X3.5335Y-2.5787
X3.5433Y-2.7362
X3.5531Y-2.5492
X3.563Y-2.2244
X3.563Y-2.5787
X3.5945Y-2.2244
X3.622Y-1.939
X3.626Y-2.2244
X3.6811Y-2.0079
X3.6811Y-2.7264
X3.7106Y-2.2244
X3.7106Y-2.7264
X3.7126Y-2.4094
X3.7205Y-2.0177
X3.75Y-2.1949
X3.7598Y-1.7224
X3.7697Y-2.4114
X3.7697Y-2.4409
X3.7894Y-2.1949
X3.7894Y-2.2835
X3.7906Y-2.3718
X3.7992Y-2.5098
X3.8563Y-2.0768
X3.8583Y-2.7854
X3.8681Y-1.8012
X3.878Y-2.9232
X3.878Y-2.9626
X3.878Y-3.002
X3.9075Y-1.7913
X3.9173Y-1.9882
X3.9272Y-2.0374
X3.9961Y-2.2736
X4.0059Y-1.8898
X4.0059Y-1.9193
X4.0059Y-1.9488
X4.0157Y-2.7362
X4.0226Y-2.2394
X4.0256Y-2.6673
X4.0354Y-2.3228
X4.0354Y-2.5
X4.0362Y-2.2131
X4.0453Y-1.9587
X4.0599Y-2.1603
X4.065Y-2.6457
X4.0748Y-1.8898
X4.0748Y-2.2835
X4.0945Y-2.6171
X4.1043Y-2.5787
X4.124Y-2.2835
X4.1535Y-1.6831
X4.1634Y-1.9193
X4.1831Y-2.2047
X4.1909Y-2.3524
X4.1909Y-2.4173
X4.1909Y-2.4823
X4.1909Y-2.5472
X4.1929Y-2.7428
X4.252Y-2.7657
X4.2559Y-2.3524
X4.2559Y-2.4173
X4.2559Y-2.4823
X4.2559Y-2.5472
X4.2618Y-2.185
X4.2815Y-2.6476
X4.2913Y-1.9587
X4.2913Y-2.1555
X4.311Y-2.126
X4.3209Y-2.3524
X4.3209Y-2.4173
X4.3209Y-2.4823
X4.3209Y-2.5472
X4.3307Y-1.8602
X4.3307Y-1.9193
X4.3307Y-1.9587
X4.3406Y-2.2126
X4.3602Y-2.748
X4.3674Y-1.8375
X4.3858Y-2.3524
X4.3858Y-2.4173
X4.3858Y-2.4823
X4.3858Y-2.5472
X4.3996Y-2.2539
X4.4291Y-2.2343
X4.4488Y-1.6831
X4.4685Y-2.126
X4.4882Y-1.9094
X4.498Y-2.1457
X4.498Y-2.5492
X4.498Y-2.6476
X4.5264Y-2.1919
X4.5276Y-2.2244
X4.5276Y-2.2539
X4.5374Y-2.1457
X4.5472Y-1.9094
X4.5472Y-2.7756
X4.5512Y-2.0236
X4.5571Y-2.2835
X4.5571Y-2.3622
X4.6339Y-2.0276
X4.6358Y-1.9094
X4.6949Y-2.815
X4.7146Y-2.4705
X4.7244Y-2.4311
X4.7244Y-2.6264
X4.7441Y-2.9626
X4.7638Y-1.8661
X4.7736Y-2.4311
X4.7756Y-2.622
X4.7933Y-2.815
X4.8031Y-2.2933
X4.8228Y-1.4961
X4.8327Y-1.9783
X4.8327Y-2.7362
X4.8425Y-2.2736
X4.8425Y-2.5217
X4.8524Y-2.313
X4.8524Y-2.4606
X4.8622Y-1.9488
X4.872Y-2.1555
X4.9016Y-2.0768
X4.9331Y-2.5276
X4.9409Y-2.2638
X4.9508Y-2.1654
X4.9606Y-2.2047
X5.0236Y-2.2559
X5.0295Y-1.8307
X5.063Y-2.3622
X5.063Y-2.4016
X5.0669Y-2.6772
X5.0787Y-2.2047
X5.0886Y-2.1555
T2
X3.5827Y-1.5157
X3.5827Y-1.6339
X3.7402Y-1.5157
X3.7402Y-1.6339
X3.8976Y-1.5157
X3.8976Y-1.6339
X4.0551Y-1.5157
X4.0551Y-1.6339
X4.2126Y-1.5157
X4.2126Y-1.6339
X4.3701Y-1.5157
X4.3701Y-1.6339
X4.5276Y-1.5157
X4.5276Y-1.6339
X4.685Y-1.5157
X4.685Y-1.6339
T0
M30
