M48
VER,1
FMAT,2
INCH,TZ
ICI,OFF
ATC,ON
CP,1,0.000
T01C0.008S035F100
%
T1
M16
G00X0Y0
M15
G01X7000
G01Y-5551
G01X6826
G01X6798Y-5552
G01X6771Y-5556
G01X6743Y-5562
G01X6717Y-5570
G01X6691Y-5581
G01X6666Y-5594
G01X6643Y-5609
G01X6621Y-5626
G01X6600Y-5645
G01X6581Y-5665
G01X6564Y-5687
G01X6549Y-5711
G01X6536Y-5736
G01X6526Y-5762
G01X6517Y-5788
G01X6511Y-5815
G01X6508Y-5843
G01X6506Y-5871
G01Y-12505
G01X494
G01Y-5871
G01X492Y-5843
G01X489Y-5815
G01X483Y-5788
G01X474Y-5762
G01X464Y-5736
G01X451Y-5711
G01X436Y-5687
G01X419Y-5665
G01X400Y-5645
G01X379Y-5626
G01X357Y-5609
G01X334Y-5594
G01X309Y-5581
G01X283Y-5570
G01X257Y-5562
G01X229Y-5556
G01X202Y-5552
G01X174Y-5551
G01X0
G01Y0
M30
