%MOIN*%
%ADD17C,0.0080*%
%ADD18C,0.0100*%
%ADD19R,0.0100X0.0100*%
%ADD20C,0.0017*%
%ADD21C,0.0003*%
%ADD22C,0.0001*%
%ADD23R,0.0160X0.0160*%
%ADD24C,0.0160*%
%ADD25R,0.0180X0.0180*%
%ADD26C,0.0180*%
%ADD27C,0.0300*%
%ADD28R,0.0540X0.0540*%
%ADD29C,0.0540*%
%ASAXBY*%
%FSLAX44Y44*%
%IPPOS*%
%LNMSK-CM*%
%SFA1.0000B1.0000*%
%LPD*%
G36*
G01X-300Y-2705D02*
G01X990Y-2705D01*
G01X990Y-2945*
G01X-300Y-2945*
G01X-300Y-2705*
G37*
G36*
G01X-300Y-225D02*
G01X2100Y-225D01*
G01X2100Y-1675*
G01X1400Y-1675*
G01X1400Y-1935*
G01X311Y-1935*
G01X311Y-2595*
G01X-300Y-2595*
G01X-300Y-225*
G37*
G36*
G01X2100Y-5425D02*
G01X2100Y-3975D01*
G01X1400Y-3975*
G01X1400Y-3715*
G01X311Y-3715*
G01X311Y-3055*
G01X-300Y-3055*
G01X-300Y-5425*
G01X2100Y-5425*
G37*
G36*
G01X194Y-8368D02*
G01X1484Y-8368D01*
G01X1484Y-8608*
G01X194Y-8608*
G01X194Y-8368*
G37*
G36*
G01X194Y-5888D02*
G01X2594Y-5888D01*
G01X2594Y-7338*
G01X1894Y-7338*
G01X1894Y-7598*
G01X805Y-7598*
G01X805Y-8258*
G01X194Y-8258*
G01X194Y-5888*
G37*
G36*
G01X2594Y-11088D02*
G01X2594Y-9638D01*
G01X1894Y-9638*
G01X1894Y-9378*
G01X805Y-9378*
G01X805Y-8718*
G01X194Y-8718*
G01X194Y-11088*
G01X2594Y-11088*
G37*
G36*
G01X7300Y-2705D02*
G01X6010Y-2705D01*
G01X6010Y-2945*
G01X7300Y-2945*
G01X7300Y-2705*
G37*
G36*
G01X7300Y-225D02*
G01X4900Y-225D01*
G01X4900Y-1675*
G01X5600Y-1675*
G01X5600Y-1935*
G01X6689Y-1935*
G01X6689Y-2595*
G01X7300Y-2595*
G01X7300Y-225*
G37*
G36*
G01X4900Y-5425D02*
G01X4900Y-3975D01*
G01X5600Y-3975*
G01X5600Y-3715*
G01X6689Y-3715*
G01X6689Y-3055*
G01X7300Y-3055*
G01X7300Y-5425*
G01X4900Y-5425*
G37*
G36*
G01X6806Y-8368D02*
G01X5516Y-8368D01*
G01X5516Y-8608*
G01X6806Y-8608*
G01X6806Y-8368*
G37*
G36*
G01X6806Y-5888D02*
G01X4406Y-5888D01*
G01X4406Y-7338*
G01X5106Y-7338*
G01X5106Y-7598*
G01X6195Y-7598*
G01X6195Y-8258*
G01X6806Y-8258*
G01X6806Y-5888*
G37*
G36*
G01X4406Y-11088D02*
G01X4406Y-9638D01*
G01X5106Y-9638*
G01X5106Y-9378*
G01X6195Y-9378*
G01X6195Y-8718*
G01X6806Y-8718*
G01X6806Y-11088*
G01X4406Y-11088*
G37*
G36*
G01X4034Y-2992D02*
G01X3716Y-2992D01*
G01X3716Y-3170*
G01X4034Y-3170*
G01X4034Y-2992*
G37*
G36*
G01X4034Y-2736D02*
G01X3716Y-2736D01*
G01X3716Y-2914*
G01X4034Y-2914*
G01X4034Y-2736*
G37*
G36*
G01X4034Y-2480D02*
G01X3716Y-2480D01*
G01X3716Y-2658*
G01X4034Y-2658*
G01X4034Y-2480*
G37*
G36*
G01X2966Y-2992D02*
G01X3284Y-2992D01*
G01X3284Y-3170*
G01X2966Y-3170*
G01X2966Y-2992*
G37*
G36*
G01X2966Y-2736D02*
G01X3284Y-2736D01*
G01X3284Y-2914*
G01X2966Y-2914*
G01X2966Y-2736*
G37*
G36*
G01X2966Y-2480D02*
G01X3284Y-2480D01*
G01X3284Y-2658*
G01X2966Y-2658*
G01X2966Y-2480*
G37*
G36*
G01X3658Y-2480D02*
G01X3342Y-2480D01*
G01X3342Y-3170*
G01X3658Y-3170*
G01X3658Y-2480*
G37*
%ASAXBY*%
%FSLAX44Y44*%
%IPPOS*%
%LNMSK-NS*%
%SFA1.0000B1.0000*%
%LPD*%
D28*
G01X5146Y-8488D03*
D29*
G01X1854D01*
D28*
G01D03*
G01X4404Y-2825D03*
D29*
G01X5640D01*
D28*
G01D03*
G01X2596D03*
D29*
G01X1360D01*
D28*
G01D03*
M02*
